<svg width="22" height="22" viewBox="0 0 22 22" fill="none" xmlns="http://www.w3.org/2000/svg">
<g clip-path="url(#clip0)">
<path d="M16.791 13.254C17.235 12.81 17.934 12.81 18.378 13.254C18.807 13.698 18.807 14.397 18.378 14.841L11.728 21.492C11.522 21.698 11.236 21.825 10.919 21.825C10.602 21.825 10.316 21.698 10.109 21.492L3.459 14.841C3.015 14.397 3.015 13.698 3.459 13.254C3.903 12.81 4.602 12.81 5.046 13.254L9.792 18.016V1.111C9.791 0.492 10.299 0 10.918 0C11.537 0 12.029 0.492 12.029 1.111V18.015L16.791 13.254Z" fill="white"/>
</g>
<defs>
<clipPath id="clip0">
<rect width="21.825" height="21.825" fill="white"/>
</clipPath>
</defs>
</svg>
