<svg width="16" height="16" viewBox="0 0 16 16" fill="none" xmlns="http://www.w3.org/2000/svg">
<path fill-rule="evenodd" clip-rule="evenodd" d="M0 8C0 12.4183 3.58172 16 8 16C12.4183 16 16 12.4183 16 8C16 3.58172 12.4183 0 8 0C3.58172 0 0 3.58172 0 8ZM1.64951 8.8C1.93393 11.0809 3.41856 12.989 5.45145 13.8725C4.69713 12.5267 4.14998 10.6894 4.0264 8.8H1.64951ZM5.43011 2.13687C3.40817 3.02437 1.93293 4.92712 1.64951 7.2H4.02576C4.14663 5.30845 4.68311 3.47854 5.43011 2.13687ZM14.3505 7.2H11.9742C11.8533 5.30845 11.3169 3.47854 10.5699 2.13687C12.5918 3.02437 14.067 4.92712 14.3505 7.2ZM11.9736 8.8C11.85 10.6894 11.3028 12.5267 10.5485 13.8725C12.5814 12.989 14.066 11.0809 14.3505 8.8H11.9736ZM6.66063 12.7349C7.17987 13.7787 7.78856 14.4 8 14.4C8.21143 14.4 8.82012 13.7787 9.33936 12.7349C9.89527 11.6173 10.2686 10.2385 10.3713 8.8H5.62866C5.73138 10.2385 6.10473 11.6173 6.66063 12.7349ZM8 1.6C7.76954 1.6 7.16407 2.21476 6.64672 3.26292C6.09746 4.37572 5.7291 5.75619 5.62808 7.2H10.3719C10.2709 5.75619 9.90255 4.37572 9.35328 3.26292C8.83593 2.21476 8.23046 1.6 8 1.6Z" fill="white"/>
</svg>
