<svg width="16" height="16" viewBox="0 0 16 16" fill="none" xmlns="http://www.w3.org/2000/svg">
<path fill-rule="evenodd" clip-rule="evenodd" d="M4.8 8C4.8 8.15903 4.78453 8.31444 4.75502 8.46482L11.927 11.8792C12.3593 11.4589 12.9494 11.2 13.6 11.2C14.9255 11.2 16 12.2745 16 13.6C16 14.9255 14.9255 16 13.6 16C12.2745 16 11.2 14.9255 11.2 13.6C11.2 13.503 11.2058 13.4073 11.217 13.3132L3.93387 9.84595C3.51796 10.1919 2.98328 10.4 2.4 10.4C1.07452 10.4 0 9.32548 0 8C0 6.67452 1.07452 5.6 2.4 5.6C2.98363 5.6 3.5186 5.80832 3.93461 6.15467L11.2171 2.68768C11.2058 2.59336 11.2 2.49736 11.2 2.4C11.2 1.07452 12.2745 0 13.6 0C14.9255 0 16 1.07452 16 2.4C16 3.72548 14.9255 4.8 13.6 4.8C12.9498 4.8 12.3599 4.5414 11.9277 4.12144L4.7552 7.53607C4.78459 7.68617 4.8 7.84129 4.8 8Z" fill="white"/>
</svg>
