<svg width="16" height="14" viewBox="0 0 16 14" fill="none" xmlns="http://www.w3.org/2000/svg">
<path d="M16 1.53934C15.4115 1.8003 14.7784 1.9768 14.1145 2.05563C14.7924 1.6495 15.3126 1.00689 15.5581 0.239909C14.9238 0.616175 14.221 0.889134 13.4736 1.03626C12.8748 0.398544 12.0217 0 11.077 0C9.26442 0 7.79436 1.47006 7.79436 3.2826C7.79436 3.53989 7.82349 3.79032 7.8798 4.03072C5.15169 3.89388 2.73276 2.5871 1.11362 0.600508C0.831115 1.08522 0.669053 1.6495 0.669053 2.25099C0.669053 3.38958 1.249 4.39475 2.12932 4.98326C1.59148 4.96637 1.08498 4.81875 0.642615 4.57223C0.64237 4.58619 0.642369 4.60014 0.642369 4.61385C0.642369 6.20435 1.77435 7.53095 3.27574 7.83231C3.00058 7.90771 2.71 7.94761 2.41109 7.94761C2.19909 7.94761 1.9937 7.92729 1.79345 7.8891C2.21108 9.19294 3.42312 10.142 4.85988 10.1687C3.73622 11.0493 2.321 11.5739 0.782643 11.5739C0.518253 11.5739 0.256311 11.5585 0 11.5279C1.45194 12.4596 3.17782 13.0028 5.03149 13.0028C11.0694 13.0028 14.3713 8.00098 14.3713 3.66278C14.3713 3.52055 14.3681 3.37881 14.3618 3.23829C15.0036 2.77561 15.5601 2.19762 16 1.53934Z" fill="white"/>
</svg>
