<svg width="16" height="14" viewBox="0 0 16 14" fill="none" xmlns="http://www.w3.org/2000/svg">
<path fill-rule="evenodd" clip-rule="evenodd" d="M7.33333 12.4344V10.4372C7.33333 10.0674 7.62924 9.76768 8 9.76768C8.36819 9.76768 8.66667 10.0683 8.66667 10.4372V12.4344H10V7.76768H6V12.4344H7.33333ZM2 7.58943C1.60147 7.35887 1.33333 6.92749 1.33333 6.43111V5.75641C0.514037 5.67663 0.424586 5.21176 1.25916 4.64872L7.44882 0.472883C7.75323 0.267515 8.24666 0.267597 8.55073 0.472931L14.7354 4.6493C15.5692 5.21236 15.5158 5.67833 14.6667 5.75727V6.43111C14.6667 6.92549 14.3981 7.35719 14 7.58841V12.4344H15.3329C15.7013 12.4344 16 12.7303 16 13.101C16 13.4692 15.7017 13.7677 15.3329 13.7677H0.66713C0.298684 13.7677 0 13.4718 0 13.101C0 12.7328 0.298313 12.4344 0.66713 12.4344H2V7.58943ZM7.33333 3.76706C7.33333 3.39922 7.62924 3.10103 8 3.10103C8.36819 3.10103 8.66666 3.3966 8.66666 3.76706V4.43436H11.9982L8 1.71308L4.00122 4.43436H7.33333V3.76706ZM3.33333 7.76768V12.4344H4.66667V7.76768H3.33333ZM11.3333 7.76768V12.4344H12.6667V7.76768H11.3333ZM2.66667 5.76768V6.43435H13.3333V5.76768H2.66667Z" fill="white"/>
</svg>
