<svg width="27" height="96" viewBox="0 0 27 96" fill="none" xmlns="http://www.w3.org/2000/svg">
<path d="M23.3062 37.1884C23.1597 36.4272 22.5936 33.6226 22.4471 32.9081C22.3006 32.1936 22.2607 28.7613 22.1608 27.9065C22.0609 27.0518 21.6414 24.9083 21.4016 23.713C21.1619 22.5177 20.5959 20.7615 20.5027 20.2406C20.4094 19.7197 20.3095 18.6179 20.2163 18.1438C20.1528 17.8425 20.0403 17.5538 19.8834 17.2891L19.597 17.0487C19.6037 16.4946 19.5065 15.9442 19.3107 15.426C19.0243 14.9519 19.0243 14.8117 18.3118 14.618C17.5993 14.4244 13.0378 12.1406 13.0378 12.1406C13.0378 12.1406 12.4717 12.3343 12.5184 12.8084C12.565 13.2825 14.1565 16.6948 14.303 17.0954C14.4495 17.4961 16.2475 23.3323 16.5338 25.7163C16.8202 28.1002 17.3862 29.9031 17.4861 30.6644C17.68 31.7975 17.7425 32.9492 17.6725 34.0967C17.5327 35.2853 16.8202 39.4388 16.6737 40.2869C16.5197 41.0302 16.315 41.762 16.061 42.4771C16.061 42.4771 15.9145 42.811 16.061 42.7643C16.5496 42.5918 17.0616 42.495 17.5793 42.4771C18.5445 42.5993 19.488 42.8555 20.3828 43.2384C21.0139 43.5016 21.7011 43.6004 22.3805 43.5255V43.9529C22.6407 43.8088 22.9098 43.6816 23.1863 43.5723C23.3275 43.5009 23.4467 43.3923 23.5312 43.2582C23.6156 43.1241 23.6622 42.9696 23.6657 42.811C23.6191 42.5239 22.9998 41.382 23.0931 40.9546C23.289 39.7095 23.3604 38.4478 23.3062 37.1884Z" fill="#F1F2F2"/>
<path d="M11.8339 7.23856C11.9737 7.71267 12.2134 8.62083 12.3066 8.85454C12.3999 9.08826 12.3066 10.4772 12.593 10.7176C12.8793 10.958 12.8793 11.2385 12.9726 11.6658C13.0452 11.8984 13.0452 12.1477 12.9726 12.3803C12.9405 12.533 12.9551 12.6918 13.0145 12.8359C13.0739 12.9801 13.1753 13.1029 13.3055 13.1883C13.6385 13.4287 17.5274 16.013 17.2477 16.8543C17.2011 17.0013 17.3876 17.0947 17.3876 17.0947C17.7787 16.8087 18.1303 16.4719 18.4331 16.0931C18.6442 15.5816 18.7419 15.0302 18.7194 14.4771C18.766 14.2835 19.625 14.003 20.0978 12.9546C20.5026 12.0384 20.8041 11.0798 20.9968 10.0966C21.0967 9.52231 21.0434 9.04819 21.1433 8.66757C21.2432 8.28694 21.3298 7.66592 21.423 7.37879C21.5162 7.09165 21.5695 6.71102 21.6627 6.38382C21.6958 6.1683 21.7609 5.95898 21.8559 5.7628C21.9957 5.47566 22.1355 5.23527 22.0423 5.00155C21.8825 4.60089 22.0423 3.57253 21.8559 3.2854C21.6694 2.99826 21.756 2.67105 21.3098 2.33049C20.8636 1.98994 20.7904 1.94987 20.6439 1.66273C20.4974 1.37559 20.1245 1.51582 19.9314 1.42234C19.6593 1.29858 19.4282 1.0993 19.2654 0.84806C19.1722 0.614342 19.079 0.327204 18.8859 0.420691C18.6928 0.514178 18.5796 0.333882 18.3864 0.193651C18.1933 0.0534211 17.8204 0.240395 17.6273 0.240395C17.4342 0.240395 17.2011 0 16.8215 0C16.442 0 16.4886 0.0467434 16.1556 0.193651C15.9249 0.279527 15.6862 0.34216 15.4431 0.380625C14.9237 0.520855 14.7772 0.380625 14.6373 0.714507C14.4975 1.04839 14.3976 0.901481 13.9714 1.14188C13.7515 1.24524 13.5438 1.37291 13.3521 1.5225C13.1191 1.71615 12.9726 1.33553 12.8327 1.71615C12.7204 1.9951 12.6248 2.28052 12.5464 2.57089C12.4531 2.90477 12.3533 2.57089 12.3066 3.09842C12.26 3.62596 12.1668 3.47905 12.2134 3.95316C12.26 4.42727 11.9271 5.00155 11.9271 5.38217C11.9123 5.59413 11.9465 5.80664 12.027 6.00319C12.0736 6.14342 11.694 6.76444 11.8339 7.23856Z" fill="#212121"/>
<path d="M1.11208 26.6638C0.922824 27.355 0.791405 28.0608 0.719187 28.7739C0.689271 29.2714 0.595262 29.763 0.439503 30.2363C0.173805 30.8205 0.024506 31.4511 0 32.0927C0.0732505 32.7605 0 33.061 0 33.9892C0.0215934 34.7277 0.142551 35.46 0.359593 36.1661C0.499435 36.56 0.46614 37.1677 0.572686 37.6285C0.632039 38.1304 0.75051 38.6236 0.92562 39.0975C1.10919 39.4872 1.19601 39.9156 1.17867 40.3463C1.21196 40.807 1.07212 40.8471 1.35846 41.4548C1.55099 41.7766 1.69463 42.1255 1.78465 42.4898C1.89119 42.9505 1.5316 42.9505 1.92449 43.5916C2.35003 44.4571 2.71927 45.3493 3.02991 46.2626C3.243 46.7969 3.2097 46.5498 3.49605 46.6232C3.78239 46.6967 4.16196 46.4763 4.27517 46.4763C4.38837 46.4763 4.66806 48.8335 4.94108 49.0873C5.2141 49.341 5.40722 49.1541 5.54706 49.2275C6.00445 50.1439 6.37671 51.1007 6.65914 52.0855C6.76473 52.748 6.81596 53.418 6.8123 54.0888C6.94994 54.3186 7.03416 54.5765 7.05869 54.8434C7.09864 55.2708 6.95214 55.2708 7.13194 55.6247C7.294 56.0233 7.37767 56.4496 7.37832 56.8801C7.49153 57.6614 7.27178 58.022 7.49153 58.5896C7.59654 58.9536 7.67883 59.3238 7.73792 59.698C7.8926 60.2629 7.94004 60.8518 7.87776 61.4342C7.84446 62.102 7.84446 62.1487 7.77121 62.8299C7.77699 63.5778 7.88452 64.3214 8.09085 65.0402C8.1974 65.5076 7.9843 65.9016 8.09085 66.3757C8.1974 66.8498 8.09085 67.0434 8.1974 67.2705C8.30394 67.4975 7.98431 68.1653 7.77121 68.6661C7.34859 69.8811 7.05181 71.1364 6.88555 72.4123C7.05252 73.3828 7.17031 74.3612 7.23848 75.3437C7.27178 76.3053 7.27178 77.2335 7.31173 78.0148C7.35169 78.7961 7.73792 78.6826 7.77121 79.2969C7.79037 80.2883 7.8615 81.2779 7.9843 82.2618C8.1641 83.3369 8.3106 84.8727 8.41715 85.3736C8.5237 85.8744 8.73679 86.7625 8.80338 87.1565C8.7913 87.5808 8.68193 87.9967 8.48374 88.3718C8.37719 88.6923 8.45045 89.0863 8.37719 89.3C8.30394 89.5137 7.71128 90.2282 7.71128 90.7624C7.71128 91.2966 8.17076 91.9043 8.17076 92.0512C8.17076 92.1981 8.31726 93.7607 8.35056 93.941C8.38385 94.1213 8.35056 95.5102 8.35056 95.5102C8.35056 95.5102 15.3626 95.5837 15.8288 95.5503C16.1306 95.5104 16.4275 95.4388 16.7144 95.3366C16.8942 95.2965 17.4669 95.4768 18.246 95.4768C19.0252 95.4768 23.1605 95.7639 24.479 94.9426C24.479 94.9426 24.6588 94.6221 24.4457 94.5152C24.2326 94.4084 24.1993 93.8475 23.5201 93.6204C22.8408 93.3934 21.0961 93.9076 20.5967 93.6538C20.0973 93.4001 18.8187 92.6188 18.8187 92.6188C18.8187 92.6188 18.6789 92.2649 18.5723 91.951C18.4658 91.6372 18.1062 91.517 17.9664 90.8759C17.8265 90.2349 17.5335 90.0946 17.9664 89.6272C18.3992 89.1598 19.1051 88.8793 19.0718 86.7358C19.0385 84.5923 18.286 81.9813 18.6789 80.9129C19.0718 79.8445 20.2837 75.6643 20.6367 74.696C21.2252 72.6892 21.6309 70.633 21.8486 68.5526C22.095 66.2021 22.4546 62.9501 22.6677 61.3074C22.8808 59.6647 23.3336 57.8417 23.1272 56.2324C22.9207 54.623 22.9873 51.9854 23.1671 51.6248C23.3669 51.2227 23.5339 50.8051 23.6666 50.3761C23.6666 50.1624 23.6266 49.9487 23.7332 49.9153C23.9161 49.7657 24.0834 49.5979 24.2326 49.4145C24.2326 49.4145 25.691 51.5914 25.9773 51.3777C26.2636 51.164 26.2636 50.1958 26.3369 49.8085C26.4101 49.4212 26.6565 48.9137 26.7298 48.5197C26.7286 48.1053 26.6566 47.6942 26.5167 47.3044C26.5167 47.3044 25.691 44.2727 25.8042 43.7318C25.9174 43.1909 26.1904 42.7702 26.2303 42.3963C26.2703 42.0224 25.8042 41.4681 26.0505 40.8604C26.2564 40.2139 26.3399 39.5345 26.2969 38.8571C26.2969 38.57 25.8375 38.3563 26.1238 37.8221C26.2901 37.5175 26.386 37.1794 26.4045 36.8326C26.4229 36.4859 26.3634 36.1394 26.2303 35.8188C25.9107 34.8906 25.5644 34.5701 25.5644 33.1478C25.5644 31.7254 25.318 28.2197 25.1382 26.5035C24.9584 24.7874 24.9651 21.502 24.6788 20.8943C24.464 20.4626 24.1285 20.1029 23.7132 19.8593C23.4335 19.6456 19.5579 17.1348 19.5579 17.1348C19.5579 17.1348 20.3303 20.2199 20.4369 20.5738C20.4369 20.5738 21.0429 23.325 21.1894 23.7523C21.3359 24.1797 21.5756 27.3249 21.6156 27.8257C21.6555 28.3265 22.0417 31.1111 22.115 31.9324C22.1882 32.7538 22.5745 34.7905 22.6477 35.3247C22.9135 36.3751 23.0565 37.453 23.0739 38.5366C23.0007 39.8254 22.7543 40.9339 22.8941 41.2878C23.034 41.6417 23.3203 42.3629 23.4335 42.7168C23.5467 43.0707 23.5733 43.3245 23.3603 43.4313L22.5745 43.8253L22.448 43.4046C22.0359 43.4754 21.6148 43.4754 21.2027 43.4046C20.63 43.2644 20.1306 42.9772 19.5645 42.797C18.8716 42.5812 18.1523 42.4621 17.427 42.443C16.995 42.4911 16.566 42.5624 16.1417 42.6567C16.1417 42.6567 17.0008 39.7252 17.1073 38.8705C17.2139 38.0158 17.6401 34.9374 17.7732 34.4766C17.9323 33.2629 17.8918 32.0312 17.6534 30.8306C17.3471 29.1879 16.9875 27.7589 16.8809 27.011C16.7744 26.2631 16.215 23.158 16.0618 22.6572C15.9087 22.1564 14.6368 17.7291 14.4969 17.2617C14.3571 16.7942 13.1651 14.3703 13.0319 13.9763L12.5392 12.6875C12.2864 12.8931 12.0483 13.1163 11.8266 13.3553C11.5422 13.6331 11.2322 13.8835 10.901 14.1032L10.7945 14.21C10.5257 14.1335 10.2427 14.122 9.96873 14.1766C9.52733 14.2354 9.08207 14.26 8.6369 14.2501C8.31726 14.2835 7.49819 14.1766 7.38498 14.2501C7.07861 14.3857 6.75644 14.4822 6.42607 14.5372C5.95668 14.5523 5.48916 14.6036 5.02765 14.6908C4.74796 14.7976 4.64142 14.6173 4.24853 15.1382C3.97412 15.7742 3.65131 16.3882 3.28295 16.9745C2.87454 17.4451 2.57242 17.9986 2.39729 18.5972C2.2637 18.9672 2.16776 19.3498 2.11095 19.7391C2.0377 20.2733 1.86456 21.0212 1.8246 21.5955C1.8527 21.9666 1.82804 22.3398 1.75135 22.704C1.64481 22.951 1.43171 22.9911 1.53826 23.4852C1.58899 23.9885 1.55295 24.4967 1.43171 24.9877C1.37446 25.5547 1.2675 26.1156 1.11208 26.6638Z" fill="#212121"/>
<path d="M11.5261 15.4256L11 14.2637C11.0884 14.7071 11.2316 15.1378 11.4262 15.5458L12.3518 16.2135L11.546 16.2803C11.6113 16.4763 11.6603 16.6773 11.6925 16.8813C11.7392 17.1885 12.0255 17.5958 12.1653 18.1634C12.3052 18.731 13.7569 21.5022 13.97 22.2101C14.1831 22.9179 15.0621 24.7142 15.1819 25.0414C15.3018 25.3686 15.6081 26.664 15.728 27.0447C15.8479 27.4253 17.7257 31.285 17.7257 31.285C17.7257 31.285 17.3195 30.1164 17.0598 29.6623C16.8001 29.2082 16.7535 28.6139 16.4938 28.2132C16.1725 27.5418 15.8944 26.8504 15.6614 26.1432C15.4017 25.4754 15.3551 24.8077 15.1153 24.2133C14.8756 23.619 14.5427 22.7376 14.1165 21.8762C13.6903 21.0148 12.8313 18.6976 12.4251 18.1167C12.1387 17.608 11.9469 17.0514 11.859 16.474L12.8979 16.2603C12.7314 16.1401 11.5261 15.4256 11.5261 15.4256Z" fill="#1A1A1A"/>
<path d="M7.13293 16.5934C7.12756 16.6601 7.12756 16.7271 7.13293 16.7937C7.13293 16.5734 7.12625 16.4665 7.13293 16.5934Z" fill="#1A1A1A"/>
<path d="M7.086 30.6167C6.82629 31.191 6.6132 31.024 6.55992 31.5248C6.56984 31.8571 6.51557 32.1882 6.4001 32.4998C6.23363 32.9071 5.32798 33.0941 5.20812 33.2877C5.08826 33.4814 5.20812 33.4747 5.40123 33.6884C5.6733 34.1141 5.91154 34.5607 6.11376 35.0239C6.33782 35.6209 6.48115 36.2452 6.53995 36.8803C6.53995 37.4078 6.53995 37.7617 6.53995 38.1223C6.56646 38.5643 6.68921 38.9951 6.89954 39.3844C7.01842 39.6696 7.07518 39.9769 7.06602 40.2859C7.03039 40.6835 7.03039 41.0836 7.06602 41.4812C7.16728 41.7274 7.254 41.9793 7.32573 42.2358C7.37234 42.4762 7.25247 42.7633 7.32573 42.9035C7.39898 43.0438 7.72527 44.6664 7.72527 44.6664C7.72527 44.6664 7.72527 43.1172 7.72527 42.6631C7.72527 42.209 7.53216 41.8551 7.672 41.568C7.7572 41.457 7.8093 41.3241 7.82227 41.1846C7.83523 41.0452 7.80853 40.9049 7.74525 40.78C7.46814 39.8344 7.2458 38.8734 7.07934 37.902C7.03272 37.4012 6.55327 36.2593 6.86624 36.1124C7.17922 35.9655 7.43227 36.2125 7.672 35.9988C7.91173 35.7852 7.95834 34.9972 7.62539 34.7835C7.16608 34.4148 6.80847 33.9343 6.58656 33.3879C6.58985 32.8238 6.67739 32.2633 6.84627 31.7252C6.96613 31.438 6.91952 31.1976 7.10597 31.0107C7.30743 30.8431 7.43632 30.6037 7.46557 30.3429C7.53882 29.9823 8.05823 26.7436 8.17809 26.1961C8.29796 25.6485 8.36455 24.126 8.39119 23.6986C8.41782 23.2713 8.63092 20.0326 8.39119 19.5051C7.91441 18.6238 7.51341 17.7035 7.19254 16.7539C7.24379 17.138 7.35385 17.5119 7.51884 17.8624C7.92167 18.7063 8.1934 19.6071 8.3246 20.5334C8.34607 22.4933 8.21023 24.4517 7.91839 26.3897C7.7053 27.378 7.32573 30.0491 7.086 30.6167Z" fill="#1A1A1A"/>
<path d="M7.65122 44.9005L7.6046 44.2861L6.75223 43.6651C4.66126 43.4781 2.7168 45.408 2.7168 45.408L3.21623 46.7435C4.74117 46.9705 7.65122 44.9005 7.65122 44.9005Z" fill="#F1F2F2"/>
<path d="M5.28032 49.3076L6.72536 52.1389C6.72536 52.1389 7.08495 50.3559 7.17818 49.8084C7.2714 49.2608 7.84409 46.9036 7.84409 46.4696C7.88253 46.1616 7.90476 45.8517 7.91068 45.5414C7.66257 45.091 7.36795 44.668 7.03168 44.2793C5.89678 44.4284 4.84905 44.9691 4.06836 45.8085C4.06836 45.8085 4.59443 47.7583 4.73427 48.4795C4.87411 49.2007 5.11384 49.0939 5.28032 49.3076Z" fill="#212121"/>
<path d="M19.0988 20.4065C19.4959 20.5749 19.8575 20.8173 20.1643 21.121C20.4306 21.4015 20.404 20.8806 20.384 20.7871C20.3641 20.6937 20.1909 19.7855 20.1643 19.712C19.9068 19.329 19.7008 18.9137 19.5516 18.4767C19.4584 17.9959 18.4595 17.475 18.1466 17.2614C18.0097 17.1829 17.8547 17.1416 17.6971 17.1416C17.5394 17.1416 17.3845 17.1829 17.2476 17.2614C17.1743 17.3548 16.1089 18.8306 16.0156 18.7371C15.9224 18.6436 14.3242 16.834 14.3242 16.834C14.8256 18.154 15.2393 19.5059 15.5628 20.8806C15.557 20.616 15.5816 20.3516 15.6361 20.0927C15.7027 19.9524 16.3952 19.1645 16.5084 19.2112C16.7305 19.5786 16.8544 19.9972 16.868 20.4266C16.868 20.7604 17.0545 22.7838 17.0545 23.1644C17.0545 23.545 20.0244 25.0675 20.0244 24.974C20.0244 24.8805 19.9312 23.6385 19.858 23.0242C19.6703 22.3511 19.3282 21.7314 18.8591 21.2145C18.5994 20.9073 19.0256 20.4266 19.0988 20.4065Z" fill="#E7E8E8"/>
<path d="M17.8991 17.2021C17.6779 17.2288 17.4544 17.2288 17.2332 17.2021C17.2332 17.2021 16.4541 18.1303 16.4874 18.4174C16.6291 18.8085 16.7959 19.1899 16.9868 19.5593C17.0724 20.2346 17.108 20.9154 17.0933 21.596C17.1266 22.384 17.3397 24.6677 17.5195 25.7361C17.6993 26.8046 17.9124 30.4105 18.0523 31.4522C18.1921 32.4939 18.6249 38.9512 18.7182 39.3118C18.8114 39.6724 20.6427 41.8827 20.9623 41.7758C21.5745 41.2709 22.0833 40.6519 22.4606 39.9528C22.5272 39.6657 20.8558 29.2686 20.7825 28.6008C20.7093 27.9331 20.1765 24.4941 19.9301 23.7061C19.566 22.8225 19.2568 21.9171 19.0045 20.995C18.9646 20.4942 18.898 19.3189 18.898 19.3189L19.1111 18.0301C19.1111 18.0301 18.4718 17.1687 17.8991 17.2021Z" fill="#212121"/>
<path d="M16.0631 42.7363L15.5957 43.9784C15.7426 43.6645 15.8495 43.4241 15.8962 43.3106C15.9853 43.1305 16.0418 42.9361 16.0631 42.7363Z" fill="#1A1A1A"/>
<path d="M12.8647 48.0258C13.2472 47.9076 13.6021 47.7137 13.9086 47.4556C14.2152 47.1976 14.467 46.8806 14.6494 46.5233C14.7692 46.2095 15.2354 44.9808 15.595 44.0059C15.1092 45.1299 14.53 46.2111 13.8636 47.2378C13.2909 47.9056 11.4397 48.1326 10.1611 47.6652C8.88256 47.1978 7.99023 45.2345 7.99023 45.2345C8.8426 48.5934 11.9857 48.3063 12.8647 48.0258Z" fill="#1A1A1A"/>
<path d="M15.4684 68.8801C15.8213 69.9485 15.8945 74.0953 16.0344 75.3774C16.1742 76.6595 15.6814 79.7713 15.5349 80.8063C15.3884 81.8414 16.0344 85.2002 16.354 86.9498C16.5392 88.1222 16.5392 89.3165 16.354 90.4889C16.4936 90.1261 16.6137 89.7561 16.7136 89.3804C16.7802 89.0198 16.6404 88.4122 16.9267 88.8061C17.213 89.2001 18.172 88.6659 18.4184 87.9514C18.6647 87.2369 17.9256 86.6159 17.7524 86.095C17.5793 85.5742 16.7935 85.1668 16.9334 84.272C17.0732 83.3772 17.506 83.2036 17.3995 82.3823C17.3598 81.7232 17.1901 81.0786 16.9001 80.4858C16.5987 79.8401 16.4746 79.1256 16.5405 78.4157C16.5405 77.5944 16.2941 74.4893 16.2608 73.9885C16.2275 73.4876 15.8279 71.3174 15.9012 71.2039C15.9744 71.0904 17.859 71.9852 18.3251 71.4176C18.7913 70.85 16.4339 68.8066 16.1476 68.6664C16.0177 68.5801 15.9109 68.4631 15.8366 68.3257C15.7623 68.1883 15.7227 68.0347 15.7214 67.8784C15.7214 67.6314 15.8679 66.2023 15.8679 66.2023C15.9345 65.6681 16.647 63.5313 16.647 63.5313C16.8601 62.9971 18.0388 61.7817 17.859 61.3544C17.6792 60.927 16.5272 61.4946 16.2608 61.6415C15.9944 61.7884 15.8279 61.6415 15.8679 61.2475C15.9079 60.8536 16.1143 60.4262 16.2208 59.7117C16.3274 58.9972 16.5804 59.0439 16.9334 58.5698C17.2863 58.0957 17.3995 57.4947 17.1132 57.281C16.8268 57.0673 16.4472 57.5348 16.3274 57.3144C16.2075 57.0941 16.041 56.6066 16.041 56.6066C16.041 56.6066 17.3129 55.4246 17.213 54.8771C17.1132 54.3295 16.7802 54.7035 16.6404 54.2093C16.5005 53.7152 17.1065 53.2811 17.3529 53.1008C17.5993 52.9205 17.7458 52.4331 18.1387 51.9256C18.5947 51.1441 18.9293 50.2974 19.1309 49.4148C19.1953 48.807 19.1729 48.1932 19.0643 47.5918C18.991 47.0576 19.0643 47.2379 19.4572 46.8439C19.8501 46.4499 19.597 46.4165 19.7369 45.8088C19.9497 45.2976 20.0714 44.7529 20.0965 44.1995C20.0965 44.0326 20.0432 43.8723 20.0165 43.7188C19.9894 43.7815 19.9672 43.8462 19.95 43.9124C19.8424 44.81 19.689 45.7016 19.4905 46.5835L18.9577 47.0843C18.876 47.2355 18.8272 47.4024 18.8146 47.5739C18.802 47.7454 18.8258 47.9176 18.8845 48.0792C18.9796 48.6613 18.9547 49.2568 18.8112 49.8288C18.6696 50.2543 18.4796 50.6621 18.2452 51.0441C17.9788 51.3112 17.7458 52.2394 17.3129 52.7536C16.8801 53.2678 16.7735 52.5733 16.707 52.8938C16.6672 53.0391 16.5905 53.1716 16.4842 53.2781C16.378 53.3847 16.2459 53.4616 16.101 53.5015C15.8146 53.6083 15.9545 53.822 16.0277 54.1692C16.101 54.5165 16.0277 54.9572 16.061 55.2443C16.0303 56.1573 15.9121 57.0652 15.7081 57.9555C15.6621 58.1393 15.6574 58.3311 15.6943 58.517C15.7311 58.7029 15.8086 58.8783 15.9212 59.0306C16.061 59.3511 15.8479 59.4579 15.6348 59.8853C15.4217 60.3127 15.6748 63.0639 15.7081 64.2057C15.7414 65.3476 15.1088 67.8117 15.4684 68.8801Z" fill="#1A1A1A"/>
<path d="M19.9769 43.164C19.9235 43.0973 19.9769 43.351 20.0437 43.6849C20.091 43.6027 20.11 43.5073 20.098 43.4132C20.0859 43.3192 20.0434 43.2316 19.9769 43.164Z" fill="#1A1A1A"/>
<path d="M8.31649 69.7145C8.31649 69.9015 8.98241 71.7579 9.12891 72.3856C9.27541 73.0133 9.64832 72.1452 9.50848 71.818C9.36864 71.4908 9.36198 70.2888 8.84257 69.4808C8.50448 68.8671 8.32371 68.1787 8.31649 67.4775C7.27101 69.4808 7.55735 72.3789 7.60397 73.7144C7.65058 75.05 7.98354 73.2871 7.93692 72.1919C7.92344 71.3506 8.05177 70.513 8.31649 69.7145Z" fill="#1A1A1A"/>
<path d="M7.95218 46.1621C7.7124 47.2845 7.53406 48.4192 7.41797 49.561C7.41797 50.0952 7.5582 51.9516 7.59826 52.2721C7.63833 52.5927 7.84534 52.4524 7.84534 52.2721C7.84534 52.0919 7.5582 49.4876 7.63165 48.8799C7.70511 48.2722 7.95218 46.1621 7.95218 46.1621Z" fill="#1A1A1A"/>
<path d="M23.4671 45.7153C23.5404 46.1895 24.2263 49.3814 24.2263 49.3814C25.305 51.0441 25.971 51.3446 25.971 51.3446C26.0557 50.997 26.1004 50.6407 26.1041 50.2829C26.0575 50.0224 25.9377 49.5216 25.891 49.2879C25.8444 49.0542 25.3916 46.6168 25.1785 45.9491C24.9654 45.2813 24.5126 42.4767 24.3461 41.8557C24.1796 41.2347 23.8267 39.4784 23.6802 38.9977C23.5337 38.5169 23.1808 36.38 23.1075 36.0461C23.0343 35.7123 22.8012 34.4301 22.5881 33.7156C22.3987 32.5956 22.2786 31.465 22.2285 30.3301C22.2285 30.6172 22.3284 32.0262 22.3484 32.6873C22.3684 33.3484 22.8745 35.9727 22.941 36.193C23.1058 37.0174 23.217 37.8517 23.274 38.6905C23.274 38.9776 23.1342 39.405 23.0609 39.8123C22.9777 40.2199 22.9777 40.6401 23.0609 41.0477C23.1541 41.4016 23.5603 42.3298 23.6336 42.8106C23.7068 43.2914 23.4671 43.3314 23.3006 43.4783C23.1342 43.6253 23.3006 43.7388 23.254 44.0259C23.2739 44.5944 23.3452 45.1598 23.4671 45.7153Z" fill="#1A1A1A"/>
<path d="M24.0461 32.1991C23.9535 32.4768 23.9063 32.7677 23.9062 33.0605C23.9062 33.2742 24.1193 35.204 24.1593 35.9519C24.1417 36.6816 24.1997 37.4112 24.3324 38.1288C24.5122 38.7365 24.5122 39.2707 24.6188 39.6313C24.7253 39.9919 25.0849 40.8066 25.2248 41.274C25.3646 41.7414 25.5111 42.6629 25.5111 42.6629L25.7242 43.2038C25.7242 43.2038 24.9784 40.0253 24.9784 39.8116C24.9784 39.5979 24.439 37.8818 24.439 37.3943C24.439 36.9068 24.2991 34.396 24.2259 33.8618C24.1526 33.3276 24.0461 33.0739 24.1193 32.8268C24.312 31.8837 24.4432 30.929 24.5122 29.9688C24.4789 29.5748 24.6521 27.9655 24.6188 27.6783C24.5855 27.3912 24.7986 22.61 24.6188 22.1426C24.6188 22.1426 24.6188 25.2877 24.5788 25.8954C24.4972 26.4031 24.4616 26.9171 24.4723 27.4313C24.5122 27.9321 24.2991 29.5013 24.2991 30.1023C24.2935 30.8086 24.2086 31.5119 24.0461 32.1991Z" fill="#1A1A1A"/>
<path d="M23.2344 32.4668C23.0875 33.4017 22.9473 34.1896 22.9473 34.1896C23.0721 33.6206 23.1679 33.0456 23.2344 32.4668Z" fill="#1A1A1A"/>
<path d="M21.4219 18.9043C21.5095 19.1457 21.6588 19.3598 21.8547 19.5253C21.8547 19.5253 22.4207 21.6154 22.6139 22.2832C22.8103 23.4498 22.937 24.6272 22.9934 25.809C22.9934 26.0494 23.373 29.3348 23.3264 29.5217C23.2431 30.4407 23.2097 31.3636 23.2265 32.2863C23.2304 32.3463 23.2304 32.4065 23.2265 32.4666C23.3873 31.5577 23.4808 30.6381 23.5062 29.7154C23.4596 28.6203 23.0334 24.0928 22.9868 23.6187C22.9402 23.1446 22.181 19.8058 22.181 19.8058L22.0412 19.3651L22.6405 19.0979L21.4219 18.9043Z" fill="#1A1A1A"/>
</svg>
