<svg width="36" height="86" viewBox="0 0 36 86" fill="none" xmlns="http://www.w3.org/2000/svg">
<path fill-rule="evenodd" clip-rule="evenodd" d="M19.7494 6.40445C19.7494 6.40445 19.7494 3.31638 19.5463 2.63772C19.3432 1.95905 19.2755 1.44995 18.226 1.0087C17.1765 0.567457 15.5851 -0.280781 13.9604 0.0924799C12.3356 0.465741 10.0333 1.89106 9.89785 2.73943C9.76239 3.5878 10.101 6.60814 10.101 6.60814C10.101 6.60814 9.35614 6.37099 9.28848 7.11711C9.22081 7.86324 9.35614 9.42479 9.39004 9.66235C9.42394 9.8999 9.59317 10.5107 10.4057 10.2732C10.4057 10.2732 10.0333 12.0378 11.8275 13.4291V14.6508C11.8275 14.6508 11.4213 14.4811 11.015 15.7708C11.015 15.7708 10.4057 16.6871 8.78066 17.8069C7.15566 18.9267 4.81972 20.1484 4.81972 20.1484C4.81972 20.1484 3.66863 19.7752 3.19471 20.1484C2.7208 20.5217 2.51768 20.8951 2.48378 21.5738C2.44988 22.2524 1.56971 28.6322 1.16346 30.8381C0.757212 33.0439 -0.224517 36.4035 0.0466673 37.4555C0.317851 38.5074 0.351355 38.4735 0.351355 38.4735C0.351355 38.4735 0.520714 42.3083 0.656043 44.4801C0.791373 46.6519 1.26542 50.3849 1.26542 50.3849C1.26542 50.3849 2.38222 50.7242 2.78952 50.6903C2.78952 50.6903 3.36513 54.4911 3.70358 55.17C4.04204 55.8489 5.15936 57.647 5.73483 57.9188C6.31031 58.1906 6.34421 58.0206 6.34421 58.0206C6.34421 58.0206 7.19061 58.4618 7.66453 58.6315C7.66453 58.6315 8.30832 65.0453 8.57859 67.5908C8.84885 70.1363 9.28953 77.4661 9.28953 77.4661C9.28953 77.4661 9.05303 78.3823 8.98484 78.7895C8.98484 78.7895 8.88328 78.8912 8.68015 79.5022C8.55482 79.8976 8.48642 80.309 8.47703 80.7238C8.47703 80.7238 5.63327 81.3686 4.82077 81.5382C4.00827 81.7078 3.1281 83.2689 2.89108 83.6762C3.95335 84.2214 5.07921 84.6317 6.24265 84.8978C8.17234 85.3391 11.9302 83.9816 11.9302 83.9816C11.9302 83.9816 15.5525 84.1513 16.0942 83.6762L15.9927 82.4546C15.9927 82.4546 16.7713 82.0812 17.0083 81.4365L16.5005 80.113C16.5005 80.113 16.6359 75.3621 16.602 74.31C16.5681 73.2579 16.5005 70.0342 16.5005 70.0342L17.4145 56.2903L18.7349 54.5596L19.2427 55.1704C19.2427 55.1704 20.9692 66.3695 20.9692 68.6094C20.9692 68.6094 20.2583 69.7632 20.4614 70.2383C20.5768 70.5044 20.6785 70.7762 20.7661 71.0528C20.7661 71.0528 20.6645 78.9258 20.4614 79.5027C20.2583 80.0797 19.5474 80.3511 19.6489 81.3352C19.7505 82.3192 19.9536 82.7605 19.9536 82.7605L20.563 82.8622L20.6645 83.3713C20.6645 83.3713 23.9822 84.2875 25.2349 84.3894L26.0474 83.9821C26.6615 84.4603 27.347 84.8382 28.0786 85.102C29.1321 85.4765 32.4119 86.2558 33.8677 85.9164C35.3235 85.577 35.9991 84.8974 35.9991 84.8974C35.9991 84.8974 36.0328 83.3025 35.6944 82.7596C35.3559 82.2166 31.3609 80.961 29.9053 80.5197C29.6407 79.9551 29.3352 79.4107 28.9912 78.8909C28.9912 78.8909 29.4461 77.9492 28.6866 77.4657C28.6866 77.4657 28.348 73.7667 28.4834 71.4591C28.6189 69.1516 28.8897 56.1887 28.8897 56.1887C29.4309 55.9555 29.9158 55.6083 30.3116 55.1707C30.887 54.492 30.9209 53.4739 30.8194 52.7274C30.7178 51.9809 30.7178 50.4876 30.7178 50.4876L32.3428 49.775C32.3428 49.775 32.2073 48.757 32.1397 47.3317C32.072 45.9063 31.2594 35.7936 31.0229 33.5878C30.7864 31.382 28.8224 20.1144 28.4837 19.2321C28.4837 19.2321 27.6373 18.4854 26.554 18.6213C26.554 18.6213 23.7441 17.6711 22.1868 16.9924C20.6295 16.3137 19.9863 16.076 19.8509 15.6689C19.7154 15.2618 19.6561 14.6126 18.9368 14.4472V13.4291C19.681 12.4936 20.1395 11.3622 20.2571 10.1713C20.2571 10.1713 20.7988 10.0356 20.8665 9.5605C20.9342 9.0854 20.5618 8.13518 20.5618 8.13518C20.5618 8.13518 20.6973 6.642 20.5618 6.30274C20.5619 6.30274 20.2763 5.99298 19.7494 6.40445Z" fill="#F92525"/>
</svg>
