<svg width="28" height="89" viewBox="0 0 28 89" fill="none" xmlns="http://www.w3.org/2000/svg">
<path d="M12.497 86.2861C12.2173 86.2861 11.9975 86.3596 11.9709 86.5799C11.9443 86.8003 11.3716 87.7419 12.0308 88.0958C12.3224 87.5363 12.4819 86.9172 12.497 86.2861Z" fill="#212121"/>
<path d="M12.2109 59.8699L12.251 59.9701C12.2443 59.7965 12.2109 59.8699 12.2109 59.8699Z" fill="#212121"/>
<path d="M4.18045 85.0582C3.80088 85.3453 2.70878 86.1533 2.18271 86.1533C1.65664 86.1533 1.18384 86.1533 0.897498 86.5339C0.611155 86.9146 0.231584 87.155 0.664428 87.7226C0.791164 87.9452 0.979107 88.1265 1.20582 88.2449C1.43253 88.3633 1.68844 88.4138 1.94298 88.3903C2.46905 88.3903 5.69874 88.0097 6.74422 87.8695C7.78971 87.7292 7.83632 87.6758 7.97616 87.9162C8.04152 88.0147 8.12585 88.0991 8.2242 88.1645C8.32254 88.2298 8.43292 88.2748 8.54885 88.2968C8.7353 88.3436 11.8784 88.1032 12.0116 88.1032C11.3457 87.7493 11.9117 86.9079 11.9517 86.5874C11.9916 86.2668 12.1981 86.3202 12.4777 86.2935C12.4812 86.2335 12.4812 86.1733 12.4777 86.1132C12.4851 85.4253 12.4226 84.7384 12.2913 84.0632C12.0982 83.3954 11.7652 83.0148 11.9117 82.5874C12.0582 82.1601 12.3379 82.0666 12.2447 81.2052C12.1514 80.3438 12.1448 79.6827 12.0982 78.4941C11.9027 77.7473 11.8241 76.9746 11.8651 76.2036C12.1289 75.1068 12.3026 73.9901 12.3845 72.8648C12.4311 71.5293 12.531 66.7748 12.3379 64.2974C12.1448 61.82 12.0982 61.6731 12.1981 60.6781C12.2314 60.2908 12.238 60.0838 12.238 59.9703L12.1981 59.8701C12.1981 59.8701 12.2313 59.7967 12.238 59.9703C12.3446 60.2574 12.6642 61.0988 12.8573 61.7265C13.105 62.2003 13.2609 62.717 13.3168 63.249C13.301 63.7939 13.3638 64.3382 13.5032 64.865C13.6964 65.5328 13.5032 65.5795 13.6964 66.4877C13.7405 67.1283 13.834 67.7646 13.976 68.3908C14.3117 69.3957 14.5351 70.4349 14.642 71.4892C14.9102 73.0334 14.9438 74.6093 14.7418 76.1636C14.4555 77.833 13.8828 78.5942 13.8362 79.883C13.7652 80.6582 13.7652 81.4383 13.8362 82.2135C13.9294 83.1217 13.5032 82.928 13.3634 83.7827C13.2236 84.6375 13.2702 85.0715 13.5499 85.4054C13.8295 85.7393 13.6964 86.0264 13.1703 86.1667C12.9518 86.218 12.7287 86.2471 12.5044 86.2535C12.4893 86.8845 12.3298 87.5037 12.0382 88.0631C12.2129 88.1505 12.4029 88.2027 12.5976 88.2167C14.0693 88.3569 18.7706 88.4972 19.1502 88.4504C19.5298 88.4037 19.8627 88.6441 20.1424 88.3102C20.4221 87.9763 20.0492 86.7877 20.2423 86.1667C20.4354 85.5456 21.0947 84.6442 21.1879 83.9297C21.3514 83.1947 21.3695 82.4346 21.2412 81.6926C21.048 80.7845 21.5208 79.1218 21.5675 78.2603C21.6742 76.9262 21.6586 75.585 21.5208 74.2538C21.3344 73.1119 21.048 68.7314 20.8549 67.5761C20.6618 66.4209 20.3821 60.9586 20.2889 58.5747C20.1957 56.1908 20.4754 49.8938 20.3821 47.8905C20.2889 45.8872 20.0958 43.8438 20.0958 43.4565C20.0958 43.0692 19.31 37.0593 19.0703 36.9658C17.9008 36.7782 16.7186 36.6822 15.5343 36.6787C13.9789 36.9127 12.4398 37.245 10.9262 37.6737C10.0738 37.9608 6.79749 38.7755 6.22481 38.6286C5.23841 38.4077 4.21391 38.4237 3.23486 38.6753C3.23486 38.6753 3.49456 39.8639 3.5212 40.1043C3.54783 40.3447 3.28147 40.5851 3.23486 41.1995C3.18824 41.8138 1.09727 44.3446 1.00404 45.9139C1.0944 46.2842 1.20331 46.6497 1.33034 47.009C1.43587 47.3753 1.56488 47.7345 1.71657 48.0841C1.88229 48.6406 1.96092 49.2196 1.94964 49.8003C2.04953 50.4146 2.52233 50.9889 2.66217 51.897C2.80201 52.8052 2.9019 53.3194 3.14163 54.4145C3.38136 55.5096 3.56781 56.9387 3.80754 57.5597C3.98785 58.0243 4.13255 58.502 4.24038 58.9887C4.38023 59.563 4.42684 61.5128 4.66657 63.1822C4.9063 64.8517 5.42571 68.1304 5.66544 69.3724C5.785 70.2052 6.00873 71.0197 6.33135 71.7964C6.57108 72.2772 6.23813 73.7529 6.33135 74.4674C6.42458 75.182 6.33135 75.035 6.43124 75.6561C6.53113 76.2771 6.05167 77.3255 6.05167 78.1802C6.05167 79.035 5.95178 80.7978 5.85856 81.6058C5.76533 82.4138 5.47898 81.9865 5.5256 82.7477C5.56971 82.9665 5.56259 83.1925 5.50482 83.408C5.44704 83.6235 5.34018 83.8227 5.19264 83.9898C4.93011 84.4104 4.58589 84.7737 4.18045 85.0582Z" fill="#F92525"/>
<path d="M7.46297 40.2838C8.45519 40.0701 11.8047 39.5359 12.0178 39.4625C12.2309 39.389 11.8047 37.6729 11.8047 37.6729C11.8047 37.6729 6.85699 38.8548 4.07347 38.7813C3.89489 39.209 3.7718 39.6578 3.70722 40.1169C3.68058 40.2638 6.4641 40.4975 7.46297 40.2838Z" fill="#1A1A1A"/>
<path d="M16.3662 38.2474C16.8989 38.1405 18.284 37.82 18.284 37.82L18.0709 37.1055C17.1966 36.835 16.2805 36.7264 15.3673 36.785C14.4406 36.9337 13.5306 37.173 12.6504 37.4995C12.6504 37.4995 12.7969 39.1021 12.97 39.1021C12.9767 39.1021 15.8268 38.3542 16.3662 38.2474Z" fill="#1A1A1A"/>
<path d="M0.35717 45.0589C0.35717 45.0589 0.763377 46.2475 0.97647 46.2475C1.18956 46.2475 1.40265 44.3444 2.26168 43.1558C2.8127 42.281 3.24281 41.3353 3.54024 40.3445C3.77997 39.8637 3.58685 39.1024 3.87319 38.8687C5.28869 38.9121 6.70501 38.8159 8.10175 38.5816C10.1394 38.201 10.852 37.8671 11.8042 37.6734C12.7565 37.4798 13.3225 37.1993 14.035 37.0591C14.6436 36.9294 15.2641 36.8645 15.8863 36.8654C16.459 36.8654 17.025 37.0123 17.6909 37.0123C18.1055 37.0402 18.5215 37.0402 18.9362 37.0123C19.0008 36.7197 19.0453 36.423 19.0693 36.1242C19.1118 35.9045 19.1978 35.6956 19.3224 35.5099C19.1862 35.0618 19.1167 34.596 19.116 34.1276C19.2955 33.6835 19.3619 33.2016 19.3091 32.7253C19.2092 31.8639 18.9761 31.7704 19.1626 31.1026C19.349 30.4349 19.4955 29.8673 19.7819 29.727C20.0682 29.5868 20.1148 30.3414 20.4012 30.722C20.6875 31.1026 20.541 31.1561 20.541 31.6769C20.541 32.1978 20.4012 31.9173 20.3546 32.7253C20.3577 33.2363 20.2437 33.7412 20.0216 34.2011C19.7819 34.7687 20.1614 34.1076 19.7819 34.7687C19.6021 35.0892 19.4423 35.3296 19.3224 35.5366L19.4023 35.8171C19.4581 36.0206 19.4566 36.2358 19.3978 36.4385C19.339 36.6413 19.2253 36.8237 19.0693 36.9656C19.0326 37.0019 18.9865 37.0274 18.9362 37.0391C18.8889 37.2259 18.8219 37.4073 18.7364 37.5799C18.45 38.1542 18.5499 37.9138 18.1704 38.5816C17.9347 39.0304 17.663 39.4591 17.3579 39.8637C16.8851 40.5315 16.7453 40.3912 16.7453 40.8186C16.7453 41.246 16.8852 42.4413 17.1715 42.6282C17.4578 42.8152 19.116 44.3911 19.5421 44.3444C19.9683 44.2976 20.9206 41.6733 21.1603 41.3929C21.4541 41.0189 21.8496 40.7382 22.299 40.5849C22.5384 40.5846 22.7744 40.5283 22.9883 40.4205C23.2021 40.3127 23.388 40.1564 23.531 39.9639C24.057 39.3428 24.3434 37.4397 25.0559 36.585C25.6906 35.9926 26.1766 35.2581 26.4743 34.4415C27.047 33.0592 26.7607 32.6318 27.0004 31.4899C27.1289 30.7334 27.1913 29.967 27.1868 29.1995C27.2401 28.9124 26.5742 26.6286 26.2412 25.2464C25.9083 23.8641 24.4832 17.6272 23.8173 16.5654C23.3164 15.6057 22.4682 14.8745 21.4467 14.5221C20.6776 14.2034 19.8548 14.0357 19.0227 14.0279C18.2629 13.8879 17.5165 13.6824 16.7919 13.4136C16.0328 13.0797 15.6998 13.033 15.1738 12.7458C14.8032 12.5633 14.4967 12.2722 14.2947 11.9111C13.9485 11.4437 13.9418 11.0764 13.3225 11.1232C11.471 11.5579 9.71633 12.3346 8.14836 13.4136C8.14836 13.4136 7.72218 13.5538 7.72218 14.2683C7.77364 14.7276 7.77364 15.1913 7.72218 15.6506C7.62229 15.7908 7.10288 16.2182 6.25051 16.9861C5.39814 17.754 3.44701 18.8692 2.97421 19.4368C2.42475 20.3604 2.12841 21.4131 2.11518 22.4885C2.1618 23.2497 1.92873 23.3432 1.92873 24.1045C1.8828 24.5517 1.91434 25.0035 2.02195 25.44C2.1618 26.0076 1.73561 28.3915 1.40265 29.7738C1.0697 31.1561 0.836628 31.2963 0.883242 32.1978C0.929883 32.8335 0.929883 33.4718 0.883242 34.1076C0.836628 34.9623 0.66349 34.8221 0.66349 35.7703C0.740003 36.3575 0.717492 36.9535 0.596899 37.5332C0.449988 37.9626 0.417845 38.423 0.503671 38.8687C0.596899 39.5365 0.077486 39.4897 0.030872 40.1508C-0.0157419 40.8119 -0.069015 44.0105 0.35717 45.0589Z" fill="#F1F2F2"/>
<path d="M19.4027 35.8176L19.3092 35.5371C19.1843 35.7228 19.098 35.9317 19.0554 36.1515C19.0313 36.4502 18.9867 36.7469 18.9219 37.0396C18.9723 37.0279 19.0185 37.0025 19.0554 36.9661C19.2142 36.8258 19.3307 36.644 19.3921 36.4411C19.4534 36.2383 19.4571 36.0224 19.4027 35.8176Z" fill="#F1F2F2"/>
<path d="M5.60548 6.48843C5.27252 6.44168 5.46564 7.05603 5.55887 7.91744C5.57191 8.14554 5.66551 8.36154 5.82292 8.52672C5.98033 8.69191 6.19125 8.7955 6.41789 8.81892C6.41789 8.81892 6.51112 9.77382 6.55774 10.1077C6.60435 10.4416 7.46338 11.0559 7.64983 11.6302C7.8254 12.4207 7.95216 13.2213 8.02941 14.0275C8.11785 14.1685 8.23565 14.2886 8.37472 14.3796C8.5138 14.4707 8.67087 14.5305 8.83516 14.555C9.07489 14.555 9.26134 14.1744 9.26134 14.1744C9.92726 13.747 13.0171 11.6035 13.0171 11.6035L13.0637 11.0292C12.9438 10.6867 12.9006 10.3219 12.9372 9.9608C12.9838 9.29303 12.9971 9.41323 13.0171 8.93244C12.9957 8.66516 13.0611 8.3981 13.2036 8.17119C13.3034 7.98422 13.7296 7.93747 14.0626 7.74382C14.3955 7.55017 14.4422 7.02931 14.582 6.50846C14.7218 5.9876 14.8284 5.49346 14.5354 5.41333C14.016 5.26642 14.1558 5.21968 14.1092 4.45843C14.1322 4.02882 14.1009 3.59803 14.016 3.17632C13.8695 2.60204 14.1558 2.50856 13.4899 1.98102C13.1562 1.77997 12.8914 1.48186 12.7308 1.12629C12.337 0.712926 11.8541 0.395424 11.319 0.198094C10.8462 -0.0356232 10.9394 0.485232 10.4666 0.345002C9.99385 0.204772 9.7408 -0.0356231 9.16812 0.00444267C8.59543 0.0445085 8.83516 0.338324 8.5022 0.71895C8.16925 1.09957 7.64983 0.905923 7.27026 1.19306C6.99908 1.44711 6.78951 1.76005 6.65762 2.1079C5.41902 3.58366 5.89182 4.72553 5.84521 5.39329C5.79859 6.06106 6.13155 6.29478 5.93844 6.53517C5.74532 6.77556 5.93844 6.53517 5.60548 6.48843Z" fill="#212121"/>
<path d="M3.59961 21.0191C3.86671 20.4581 4.13382 20.0107 4.13382 20.0107C3.93084 20.333 3.75227 20.6701 3.59961 21.0191Z" fill="#E7E8E8"/>
<path d="M1.28893 37.8672C0.955972 38.0609 1.71511 38.2946 2.18791 38.7219C2.66071 39.1493 2.18791 38.7219 2.47425 39.2027C2.7606 39.6835 3.28001 40.8187 3.28001 40.8187L3.7062 40.1042C3.60674 39.6327 3.39417 39.1926 3.0869 38.8221C2.64616 38.4235 2.3197 37.914 2.1413 37.3463C1.94818 36.7721 3.14017 35.3431 3.61297 34.1544C4.08577 32.9658 3.94592 33.106 3.7062 31.864C3.46647 30.622 3.89931 30.2013 3.61297 29.193C3.32662 28.1846 3.8527 28.4784 3.8527 27.7172C3.8527 26.9559 4.03915 26.9092 4.03915 25.9543C4.03915 24.9994 3.79942 25.1931 3.46647 24.2448C3.13351 23.2966 3.37324 23.537 3.32662 22.4886C3.30316 21.9843 3.39662 21.4815 3.59965 21.0195C3.37817 21.4551 3.20617 21.9143 3.0869 22.3884C2.90044 23.3433 3.8527 25.5336 3.65958 25.4869C3.46647 25.4401 3.04028 24.7724 2.80721 24.6321C2.57414 24.4919 3.14017 26.1546 3.37324 26.9159C3.60631 27.6771 3.41985 28.7723 3.28001 28.4851C3.14017 28.198 2.38103 26.0077 2.1413 26.1079C1.90157 26.2081 2.18791 28.4851 2.18791 30.1145C2.18791 31.7438 3.18678 32.5919 3.14017 33.066C3.09355 33.5401 2.85383 33.4934 2.42764 33.4466C2.00146 33.3999 2.6141 33.874 2.80721 34.0142C3.00033 34.1544 2.90044 34.4015 2.70732 34.7287C2.53008 35.1582 2.28992 35.5589 1.9948 35.9173C1.56861 36.3914 1.522 36.1978 1.38216 36.6318C1.24231 37.0659 1.71511 36.8188 1.66184 37.1994C1.60857 37.5801 1.61523 37.6736 1.28893 37.8672Z" fill="#E7E8E8"/>
<path d="M15.5794 34.6754C14.9601 35.2497 16.7647 33.9609 17.1443 33.4868C17.5239 33.0127 18.3829 32.966 18.2364 33.1529C17.7739 33.7708 17.2396 34.3312 16.6449 34.8223C15.979 35.2965 17.5905 36.2514 17.7836 36.5318C17.9767 36.8123 19.1154 36.0577 19.1154 35.6303C19.1154 35.203 18.6826 35.4367 18.7825 34.9158C18.9707 34.3433 19.0979 33.7524 19.162 33.1529C19.1154 32.6788 19.2086 32.4852 19.162 31.8174C19.1521 31.4695 19.1677 31.1213 19.2086 30.7757C19.2086 30.2014 19.6348 30.1079 19.8013 29.7273C19.9678 29.3467 19.9678 29.4402 19.8013 28.8659C19.6348 28.2916 19.182 25.3935 19.0821 24.5321C18.9822 23.6707 19.3219 23.8176 19.5616 22.8226C19.8013 21.8277 20.2275 20.9596 20.5072 20.0581C20.7869 19.1566 21.6326 14.716 21.4594 15.5373C20.759 18.0423 19.9186 20.5058 18.9423 22.9161C18.712 22.4805 18.4423 22.0669 18.1365 21.6808C17.757 21.2467 17.5172 21.5806 17.7103 22.0614C17.9035 22.5422 18.8024 23.9645 18.6093 24.3919C18.4162 24.8192 18.4695 25.5805 18.0899 26.0613C17.7103 26.5421 17.2842 27.2032 16.8513 27.6773C16.4185 28.1514 18.2764 27.0563 18.6559 27.0095C19.0355 26.9628 18.8024 27.9644 18.9889 28.8659C19.1753 29.7674 18.8957 30.1547 18.4229 30.8224C17.5439 32.1564 16.5947 33.4426 15.5794 34.6754Z" fill="#E7E8E8"/>
<path d="M3.79978 37.152C2.94741 37.6729 3.75317 38.2004 3.94628 38.2004C4.4654 37.9108 4.95788 37.5756 5.41795 37.1988L5.60441 38.5343C6.25391 38.5821 6.90603 38.5821 7.55553 38.5343C7.9351 38.4408 9.69311 37.9133 10.9251 37.6729C12.157 37.4325 12.2569 36.7247 12.1104 36.6312C11.9639 36.5377 9.69311 36.8181 8.64763 36.8181C8.13417 36.794 7.62043 36.8595 7.12935 37.0118C7.19159 36.5406 7.3032 36.0773 7.4623 35.6295C7.73821 35.0472 7.89878 34.4168 7.9351 33.7731C7.88849 33.2456 7.88849 32.678 7.88849 31.8166C7.96687 30.7601 8.19097 29.7196 8.5544 28.7248C8.93397 27.4361 9.26693 27.1022 9.31354 26.6748C9.36016 26.2474 8.83409 26.0071 8.69424 26.154C8.5544 26.3009 8.78747 25.2458 8.83409 24.7717C8.95814 24.241 9.18435 23.7397 9.5 23.2959C9.87957 22.5814 9.9728 22.5814 9.78634 22.5347C9.59989 22.4879 9.36016 22.7684 9.16704 22.4879C8.97393 22.2075 9.31354 21.3461 9.40677 20.8653C9.45747 20.0039 9.55305 19.1458 9.69311 18.2944C9.83296 18.1542 10.0261 19.5364 10.0261 19.917C10.0261 20.2977 10.8318 18.3879 10.8784 17.9605C10.9949 17.414 11.1853 16.886 11.4445 16.3913C11.591 16.1509 14.3945 13.2461 14.3945 13.2461C14.3945 13.2461 13.5354 13.8671 13.1559 14.1075C12.7763 14.3479 11.591 15.9171 11.3512 16.0307C11.1115 16.1442 10.9717 16.3178 10.6853 16.0307C10.2468 15.6122 9.83534 15.1661 9.45339 14.6951C9.45339 14.6951 8.83409 14.6484 8.64763 14.7953C8.46117 14.9422 8.26806 16.5048 7.88849 16.6517C7.50892 16.7986 7.60215 15.7903 7.60215 15.7903C7.51095 16.1476 7.47945 16.5177 7.50892 16.8854C7.44814 17.6709 7.27083 18.4428 6.98285 19.1758C6.6965 20.0773 6.03725 22.6015 5.75091 23.6966C5.54498 24.6208 5.15791 25.4947 4.61219 26.2675C3.89967 27.4094 4.08612 27.7432 4.46569 27.3159C4.84526 26.8885 5.37134 26.361 5.17822 26.7416C4.98511 27.1222 5.03838 31.5094 5.03838 33.4192C5.00416 34.2508 5.14954 35.0799 5.46456 35.8499C5.51118 36.344 4.65881 36.6312 3.79978 37.152Z" fill="#E7E8E8"/>
<path d="M6.8896 18.5813C6.64987 19.2958 6.13045 22.4877 5.89073 23.4359C5.651 24.3841 5.1782 26.7747 5.08497 27.4826C4.99174 28.1904 4.17933 33.5325 4.41906 34.1602C4.84043 34.9055 5.33332 35.6077 5.89073 36.257L6.65653 35.3956C7.08271 34.9215 7.70201 34.2537 7.70201 33.6794C7.70201 33.1051 7.74862 30.8281 7.70201 29.6328C7.6554 28.4375 8.41454 25.5861 8.50777 24.5912C8.60099 23.5962 9.55325 18.5412 9.55325 17.9669C9.61251 17.484 9.70823 17.0063 9.83959 16.5379C9.92889 16.1935 9.99342 15.8432 10.0327 15.4895C9.90851 15.1805 9.70938 14.9073 9.45336 14.6949C9.16702 14.5547 9.07379 14.6949 8.83406 14.5079C8.59434 14.3209 8.16815 15.0755 8.07492 15.3627C7.98169 15.6498 8.36127 15.9369 7.88847 16.6514C7.46103 17.2409 7.12432 17.8915 6.8896 18.5813Z" fill="#212121"/>
<path d="M6.53067 40.4982C6.64387 40.4247 8.49511 40.2511 8.49511 40.2511L8.34861 38.5684C7.65483 38.7727 6.93398 38.8695 6.21103 38.8555L6.17773 39.1026C6.17773 39.1026 6.28428 40.0708 6.28428 40.2511C6.28428 40.4314 6.42412 40.5716 6.53067 40.4982Z" fill="#F1F2F2"/>
<path d="M18.9287 45.8942C19.2084 46.6087 19.4282 48.8925 19.5947 49.1796C19.7611 49.4668 19.5214 45.4602 19.5214 45.4602C19.5214 45.4602 17.7434 44.6054 17.4571 43.8909C17.1707 43.1764 16.3916 42.3885 16.3184 40.4653C16.3184 40.2383 16.3916 43.2499 16.8178 43.8909C17.244 44.532 18.6424 45.1797 18.9287 45.8942Z" fill="#1A1A1A"/>
<path d="M18.5234 38.4883C18.8018 38.9246 19.1613 39.3032 19.5822 39.6034C19.0362 39.0358 18.5234 38.4883 18.5234 38.4883Z" fill="#E7E8E8"/>
<path d="M20.8007 40.7715L21.3267 40.9117C21.3267 40.9117 20.3811 40.2439 19.582 39.5762C19.9621 40.0005 20.3692 40.3998 20.8007 40.7715Z" fill="#E7E8E8"/>
<path d="M21.4207 28.8662C20.9945 28.8662 20.1488 30.7226 20.4018 30.7226C20.8014 30.7226 20.6615 31.1032 20.5417 31.6775C20.4218 32.2518 20.5417 31.9646 20.4218 32.3453C20.3019 32.7259 20.5217 33.2467 20.5683 33.5806C20.6149 33.9145 21.0877 33.3936 21.0411 32.6324C20.9945 31.8711 21.0877 31.771 21.4207 32.1983C21.7536 32.6257 22.7059 32.2518 22.7059 32.2518C22.3826 31.9211 22.0329 31.6173 21.6604 31.3436C21.3274 31.1566 20.848 30.8228 21.0411 30.7226C21.2342 30.6224 23.0855 30.4889 23.0855 30.2952C23.0855 30.1016 21.2808 30.3887 20.848 30.4889C20.4151 30.589 20.9479 30.0081 21.1809 29.534C21.414 29.0599 21.8469 28.8662 21.4207 28.8662Z" fill="#E7E8E8"/>
</svg>
