<svg width="33" height="89" viewBox="0 0 33 89" fill="none" xmlns="http://www.w3.org/2000/svg">
<path d="M0.242705 55.648C0.489093 56.0821 5.61663 57.6513 6.36245 57.077C7.10828 56.5028 8.00726 55.2207 8.53999 55.1873C9.07272 55.1539 8.93288 56.6497 8.93288 57.7916C8.93288 58.9334 9.14597 64.97 9.07272 65.9717C8.99947 66.9733 8.46674 71.6877 8.3269 73.1501C8.18706 74.6125 7.43457 80.6157 7.46787 81.4771C7.52203 82.0446 7.62904 82.6057 7.78751 83.1532C7.89405 83.821 7.75421 83.4404 7.64767 84.1549C7.55416 84.5196 7.483 84.8898 7.43457 85.2633C7.43754 85.5078 7.35835 85.7461 7.20976 85.9399C7.06117 86.1338 6.85184 86.2718 6.6155 86.3318C6.22261 86.3718 5.28367 86.3318 5.01065 87.1531C5.01065 87.1531 4.34473 87.9077 4.55117 88.1214C4.7576 88.3351 4.33807 88.729 8.67983 88.729C13.0216 88.729 13.5943 88.4753 13.5943 88.4753C13.5943 88.4753 13.6675 88.0479 13.7008 87.694C13.7341 87.3401 14.3068 85.9445 14.4133 85.5104C14.5199 85.0764 14.0604 84.6557 14.2003 84.1749C14.3401 83.6941 14.5931 83.3869 14.8662 82.7793C15.1392 82.1716 15.5321 76.8896 15.6519 75.741C15.7718 74.5925 16.2579 73.8847 16.1181 72.5291C15.9782 71.1735 15.6187 71.0667 15.9716 69.818C16.5109 67.3831 16.8561 64.909 17.0038 62.4192C17.077 60.4159 17.0038 59.3875 17.2568 58.4126C17.4669 57.6703 17.5613 56.9 17.5365 56.1288C17.5365 55.2407 17.4699 54.9536 17.6497 54.9536C18.1863 55.4605 18.5792 56.1011 18.7884 56.8099C19.076 57.8465 19.2414 58.9133 19.2812 59.9885C19.2178 60.6494 19.3304 61.3153 19.6075 61.9183C19.8401 62.7418 19.9588 63.5933 19.9604 64.4492C20.0465 65.7029 20.238 66.9472 20.5331 68.1686C20.8527 69.3773 20.3533 68.9899 20.926 70.8797C21.3128 71.9681 21.5045 73.1166 21.492 74.272C21.492 75.3471 21.0991 75.307 21.2789 76.342C21.4587 77.3771 21.7451 78.5256 21.8516 79.7743C21.9582 81.023 21.6385 81.3436 21.8516 82.5589C22.0647 83.7742 21.9914 83.7008 22.098 84.2751C22.2045 84.8493 21.9914 85.1632 22.351 85.4169C22.7106 85.6707 22.704 85.9177 22.8105 86.3451C22.8806 86.9143 22.9051 87.4882 22.8838 88.0613C22.8838 88.0613 22.957 88.522 25.8071 88.522C27.7157 88.5632 29.6234 88.4088 31.5007 88.0613C31.787 87.9144 32.6061 87.1665 30.7216 85.9845C30.4495 85.6119 30.2026 85.2215 29.9824 84.8159C29.736 84.3151 29.0967 83.9612 28.6506 83.3135C28.4653 83.1093 28.3356 82.8608 28.2738 82.5918C28.212 82.3229 28.2202 82.0425 28.2977 81.7776C28.4375 81.17 28.2976 76.2819 28.1578 74.5324C28.018 72.7828 27.4919 70.6393 27.4919 69.4574C27.4919 68.2754 27.7782 66.0651 27.6717 64.3891C27.5786 61.6198 27.719 58.8477 28.0912 56.1021C28.3712 54.5226 28.4784 52.9171 28.4109 51.3143C28.4109 50.3126 28.4109 49.8852 28.271 48.8836C28.2748 47.901 28.4024 46.9227 28.6506 45.9721C28.6506 45.9721 28.7904 46.2927 29.7893 46.1858C29.9194 45.613 30.0976 45.0523 30.322 44.5097C30.7357 43.669 31.0122 42.7672 31.1411 41.8387C31.3074 40.7292 31.5455 39.6318 31.8536 38.5533C32.1207 37.6714 32.2663 36.757 32.2865 35.8355C32.2865 34.7671 32.5329 34.0125 32.2132 33.1644C31.8936 32.3164 32.1067 30.0193 31.9668 28.4166C31.827 26.814 31.6805 25.3449 31.4274 23.9159C31.1744 22.4869 31.2144 19.8759 30.7615 18.8409C30.3962 18.0151 30.1345 17.1471 29.9824 16.2567C29.9491 15.9361 29.0568 15.9027 29.0568 15.9027C29.0568 15.9027 23.8227 14.7943 23.2567 14.2601C22.6907 13.7258 22.2179 13.3986 22.078 13.225C21.9382 13.0514 22.078 14.0063 21.9715 14.3268C21.8649 14.6474 20.9726 18.2199 20.7262 19.1147C20.4798 20.0095 19.694 25.1246 19.5475 26.794C19.401 28.4634 19.3278 31.6152 19.3278 32.0092C19.3278 32.4032 19.754 37.7253 19.8272 38.3997C19.9005 39.0741 20.0803 39.8287 19.7939 39.8621C19.5076 39.8955 14.9461 40.6835 14.6264 40.7436C14.5696 40.3326 14.62 39.9138 14.7729 39.5282C15.0193 38.6 16.5509 29.8857 16.6575 29.5986C16.764 29.3114 15.6986 24.8508 14.986 18.674C14.986 18.674 14.2003 14.7075 14.5199 13.8527C14.1585 14.356 13.7281 14.8056 13.2413 15.1882C12.8109 15.3789 12.3966 15.6045 12.0027 15.8627C11.6869 16.1011 11.3395 16.2944 10.9706 16.437C10.6708 16.6351 10.3461 16.7923 10.005 16.9044C8.98501 17.2466 7.98654 17.6502 7.01505 18.113C6.34913 18.4736 6.19597 18.4736 5.94959 19.0412C5.41095 21.3379 5.00188 23.6632 4.7243 26.006C4.68459 27.2399 4.49451 28.4644 4.15828 29.652C3.87193 30.2196 3.69214 32.4366 3.62555 32.904C3.55896 33.3714 2.67995 34.2596 2.59338 34.8672C2.50681 35.4749 2.91302 36.363 2.73322 36.9707C2.55343 37.5784 1.73435 39.6417 1.59451 40.403C1.42567 41.7653 1.34337 43.137 1.34812 44.5097C1.34812 45.7251 1.02848 45.3645 1.06844 46.2593C1.10839 47.1541 1.6944 47.6683 1.49462 48.6833C1.49428 49.1345 1.55476 49.5838 1.67442 50.0188C1.78097 50.4128 2.1672 50.5864 2.20715 50.8001C2.24711 51.0138 0.0162942 55.2207 0.242705 55.648ZM26.8793 32.0626C27.0736 32.0975 27.2503 32.198 27.3799 32.3474C27.5095 32.4968 27.5842 32.6861 27.5918 32.884C27.5453 33.2226 27.4741 33.5574 27.3787 33.8856C27.3832 34.2846 27.3224 34.6816 27.1989 35.0609C27.059 35.2412 26.806 35.1343 26.5929 35.0609C26.3798 34.9874 26.5929 33.8522 26.4531 33.3514C26.3132 32.8506 26.5929 32.0092 26.8793 32.0626Z" fill="#F92525"/>
<path d="M21.4976 16.4377C21.7318 15.7381 21.9122 15.0214 22.0369 14.2941C22.0369 13.7599 22.1768 13.6264 22.0369 13.3993C21.9115 13.0605 21.8048 12.715 21.7173 12.3643C21.7173 12.3643 16.7696 12.0772 15.3445 12.9386C15.0515 13.1122 15.0182 12.972 14.8784 13.2925C14.7385 13.613 14.3057 13.8668 14.2125 14.1138C14.0882 14.8487 14.0995 15.6001 14.2458 16.3308C14.4255 17.6129 15.3845 23.723 15.4577 24.758C15.531 25.793 16.3101 29.1185 16.3101 29.6527C16.2906 30.3881 16.1856 31.1187 15.9971 31.8296C15.784 32.6176 14.7518 38.2201 14.6653 38.8278C14.5787 39.4354 14.3123 40.5773 14.2724 40.7576C14.2324 40.9379 14.5587 41.1182 14.8451 40.9379C16.0686 40.5965 17.3217 40.3729 18.5875 40.2701C19.0411 40.2538 19.4899 40.1706 19.9193 40.0231C20.239 39.9496 19.4532 33.0249 19.4532 31.7695C19.4532 30.5141 20.1191 23.2021 20.3788 21.8465C20.6385 20.491 21.2512 17.3725 21.4976 16.4377Z" fill="#F1F2F2"/>
<path d="M15.8045 14.1874C16.2306 14.4011 18.0819 15.2959 18.3682 15.3693C18.6546 15.4428 19.4337 14.8284 19.8266 14.6147C20.3916 14.216 20.9059 13.7495 21.3582 13.2258C21.538 12.972 21.538 12.7917 21.7178 12.6181C21.8976 12.4445 22.1772 12.4044 22.2838 12.1173C22.3871 11.6509 22.5552 11.2013 22.7832 10.7818C23.0296 10.4946 23.2494 10.2075 23.6356 9.67329C24.0218 9.13908 25.0607 7.49638 24.781 6.17421C24.5013 4.85204 25.0274 2.01404 22.104 0.678515C19.1806 -0.657012 17.6557 0.331278 17.3294 0.678515C17.0897 0.8922 17.1563 0.818746 16.9765 0.999042C16.7967 1.17934 15.9976 1.29286 15.5181 1.68684C14.9784 2.28377 14.5112 2.94278 14.1264 3.65006C13.6669 4.31783 13.0942 6.26102 13.3472 7.26266C13.6474 8.17411 14.0032 9.06615 14.4127 9.93372C14.6258 10.5414 14.8788 11.2692 15.0786 11.8302C15.2784 12.3911 15.365 12.331 15.3982 12.6115C15.4315 12.8919 15.2917 12.8986 15.2917 13.2792C15.2707 13.4655 15.3089 13.6537 15.401 13.8168C15.4931 13.9799 15.6343 14.1096 15.8045 14.1874Z" fill="#212121"/>
<path d="M5.04956 41.7922C5.08285 41.9725 3.51795 46.6869 3.33816 47.368C3.15836 48.0491 -0.191185 55.3277 0.00858933 55.5815C0.208363 55.8352 4.28376 57.5848 6.00181 57.2576C6.00181 57.2576 8.27924 55.2543 8.45903 55.1875C8.45903 55.1875 11.1227 45.939 11.3424 44.4031C10.6643 43.2566 10.0464 42.0752 9.4912 40.864C9.38465 40.3632 9.17156 36.3633 9.13827 35.8624C9.13487 35.6699 9.0838 35.4812 8.98964 35.3134C8.89549 35.1455 8.76121 35.0038 8.59888 34.9009C8.38578 34.8274 10.3103 17.2252 10.0972 16.6175C10.0972 16.6175 10.1704 16.4372 9.70429 16.2569C9.13827 16.0432 7.88635 16.7577 7.46016 17.1183C7.03398 17.4789 6.74764 19.2218 6.85418 19.6491C6.96073 20.0765 5.76208 35.188 5.76208 36.7372C5.76208 38.2864 5.0096 41.6119 5.04956 41.7922Z" fill="#212121"/>
<path d="M3.5848 46.687C3.68414 46.6414 3.77249 46.5749 3.84382 46.4919C3.91515 46.4089 3.96779 46.3115 3.99813 46.2063C4.02848 46.1011 4.03582 45.9905 4.01965 45.8822C4.00348 45.7738 3.96418 45.6702 3.90444 45.5785C3.69135 45.1512 3.7313 44.1161 2.91223 43.9025C2.55264 43.809 1.94666 44.5702 1.70027 44.7572C1.56411 44.8374 1.44632 44.9454 1.35454 45.0743C1.26275 45.2031 1.19904 45.3499 1.16754 45.5051C1.12758 45.8323 0.59485 47.1878 0.807943 47.6486C1.02104 48.1094 1.41392 49.4249 1.59372 49.939C1.75717 50.2241 1.98288 50.4683 2.25391 50.6533C2.52494 50.8384 2.83425 50.9594 3.15862 51.0075C3.5848 50.9741 3.82453 51.0075 3.65805 50.7938C3.55102 50.654 3.40135 50.5532 3.23187 50.5066C3.85759 50.3224 4.46592 50.0833 5.04981 49.7921C5.18966 49.6118 4.97656 49.3648 4.97656 49.3648C5.19786 49.2846 5.39501 49.149 5.54925 48.9708C5.579 48.9319 5.59985 48.8869 5.61032 48.839C5.62078 48.7911 5.6206 48.7415 5.6098 48.6937C5.59899 48.6459 5.57782 48.6011 5.54779 48.5624C5.51776 48.5237 5.47961 48.4922 5.43604 48.47C5.34282 48.4032 5.40275 48.0893 5.34282 47.9024C5.28288 47.7154 4.6769 47.475 4.47713 47.4216C4.27735 47.3681 3.1453 47.4216 3.05207 47.3147C2.92995 47.0724 2.82319 46.8226 2.73243 46.5668C2.70537 46.4594 2.70537 46.347 2.73243 46.2396C2.73243 46.2396 3.15862 46.8273 3.5848 46.687Z" fill="#212121"/>
<path d="M28.329 44.3105C28.329 44.3105 28.2824 47.035 28.1426 47.7562C28.1426 47.7562 29.0282 46.5342 29.3346 46.187C29.6409 45.8397 29.0882 44.7513 28.329 44.3105Z" fill="#212121"/>
<path d="M29.6209 46.2061L30.0338 45.0108C30.0338 45.0108 30.2802 44.2228 28.1626 44.2696C28.096 44.2696 29.4145 45.338 29.6209 46.2061Z" fill="#F1F2F2"/>
<path d="M4.05119 43.6489C4.19103 43.6489 4.05119 42.7607 4.05119 42.7607C4.05119 42.7607 1.77377 43.5821 1.41417 44.2565L1.23438 45.3316C1.62847 44.8124 2.1192 44.3748 2.67941 44.0429C3.12786 43.8824 3.58605 43.7508 4.05119 43.6489Z" fill="#F1F2F2"/>
<path d="M19.793 29.6532C20.2192 28.9855 24.8473 19.8304 24.8473 19.8304L23.2824 18.6552L25.5598 17.6535L24.6009 14.9023C24.8438 15.8186 25.0328 16.7484 25.1669 17.6869L22.9627 18.4348C23.4365 18.9719 23.9484 19.4741 24.4943 19.9373L23.8284 21.1192C23.2091 22.2945 19.793 29.6532 19.793 29.6532Z" fill="#1A1A1A"/>
<path d="M15.7304 30.2593L11.6684 18.54L13.2732 17.5451L11.9547 15.8623L12.8803 17.6118L11.3887 18.5801L15.7304 30.2593Z" fill="#1A1A1A"/>
<path d="M19.4467 26.5664C19.6398 24.3762 20.7785 18.5199 20.7785 18.5199C20.7785 18.5199 20.632 18.6868 20.5854 18.1393C20.5388 17.5917 19.5199 16.2094 19.187 15.8555C18.854 15.5016 18.2613 15.6619 17.9017 15.5884C17.5421 15.515 17.2891 16.3764 17.0028 16.6368C16.7164 16.8972 15.7175 18.5666 15.5045 18.6401C15.2914 18.7135 14.6055 16.6368 14.6055 16.6368C14.6055 16.7837 15.6243 23.635 15.864 25.1641C16.1038 26.6933 19.4467 26.5664 19.4467 26.5664Z" fill="#E7E8E8"/>
<path d="M12.3946 46.3067L10.7898 46.7541L10.6699 47.1547C11.3971 46.9748 12.0994 46.7057 12.7609 46.3534C13.372 44.5794 13.8419 42.7596 14.166 40.9111C14.166 40.9111 13.1538 46.0195 12.3946 46.3067Z" fill="#1A1A1A"/>
<path d="M24.3278 47.2744C23.3423 46.226 21.7707 43.4815 20.7852 41.6719C21.7507 43.6752 23.3223 46.64 23.8883 47.014C24.0291 47.1101 24.1759 47.1971 24.3278 47.2744Z" fill="#1A1A1A"/>
<path d="M19.8984 40.0094C19.9783 40.163 20.3113 40.8174 20.7841 41.6721C20.4623 41.0844 20.197 40.4672 19.9917 39.8291L19.8984 40.0094Z" fill="#1A1A1A"/>
<path d="M27.1645 45.0645C27.1645 45.0645 27.0777 45.2781 26.9375 45.5786C27.0316 45.416 27.1078 45.2436 27.1645 45.0645Z" fill="#1A1A1A"/>
<path d="M26.9382 45.5781C26.6271 46.2066 26.1868 46.7619 25.6463 47.2075C25.4497 47.335 25.2231 47.4083 24.9893 47.42C24.7555 47.4318 24.5227 47.3815 24.3145 47.2742C24.4634 47.4542 24.6528 47.5961 24.8672 47.6883C25.7195 47.8953 26.5519 46.3995 26.9382 45.5781Z" fill="#1A1A1A"/>
<path d="M28.3038 17.3047C27.831 17.4449 26.6857 20.116 26.639 20.8772C26.5924 21.6385 25.7401 25.1643 25.8333 25.8788C25.9265 26.5933 26.2129 31.2209 26.4526 31.4479C26.6923 31.675 26.972 31.6416 27.2583 32.1157C27.5447 32.5898 27.4048 32.7834 27.4048 33.2576C27.4048 33.7317 26.7389 33.6849 27.0186 34.3994C27.2983 35.1139 27.1185 35.2608 26.972 35.4946C26.7604 35.8915 26.6463 36.3333 26.639 36.7833C26.6991 37.9807 26.8438 39.1723 27.0719 40.3492C27.2583 41.0637 27.4048 43.4009 27.8776 43.2607C28.3504 43.1204 29.1562 41.9719 28.3504 40.5896C27.5447 39.2073 26.5924 36.8768 26.8322 36.543C27.0719 36.2091 27.4981 35.9687 28.2106 36.3493C28.9231 36.7299 29.7755 36.6832 29.4892 36.2091C29.2028 35.735 28.3971 35.2074 28.2572 34.7801C28.1174 34.3527 27.7844 33.9721 28.1174 33.5447C28.4503 33.1173 28.9231 33.6382 29.3027 32.8302C29.3909 32.6883 29.4424 32.5265 29.4523 32.3596C29.4622 32.1927 29.4302 32.026 29.3594 31.8746C29.2886 31.7232 29.1811 31.5921 29.0467 31.493C28.9123 31.394 28.7554 31.3303 28.5902 31.3077C28.3562 31.2888 28.1291 31.2194 27.9245 31.1041C27.7199 30.9888 27.5426 30.8305 27.4048 30.6399C26.9254 30.1591 26.7855 29.1174 26.5924 28.5431C26.3993 27.9689 26.2595 22.974 27.0719 20.53C27.4078 19.4277 27.8195 18.35 28.3038 17.3047Z" fill="#1A1A1A"/>
<path d="M20.4188 41.351L20.0859 40.2559C20.0859 40.2559 17.622 40.543 17.0493 40.6832C16.4766 40.8235 14.2458 41.1173 14.106 41.1173C13.9661 41.1173 13.8196 42.3059 13.8662 42.4528C13.9129 42.5997 20.4188 41.351 20.4188 41.351Z" fill="#1A1A1A"/>
<path d="M18.382 40.6836L16.291 40.924L16.311 42.0191L18.4486 41.6852L18.382 40.6836Z" fill="#F1F2F2"/>
<path d="M16.3841 28.8306C16.3841 29.879 15.5784 38.7335 15.625 39.2611C15.8852 39.9276 16.3314 40.5049 16.9102 40.9238C17.8413 40.2988 18.731 39.614 19.5739 38.8738C19.6604 38.7402 19.3275 28.3031 19.3275 28.3031C19.3275 28.3031 19.2342 18.6405 19.2342 18.2866C19.1751 17.8619 19.2069 17.4293 19.3275 17.0179C19.5206 16.684 19.141 16.0229 18.1888 15.7358C17.6893 15.5822 17.2898 16.4503 17.2365 16.8776C17.2312 17.2124 17.249 17.547 17.2898 17.8793C17.2898 18.3067 16.8569 18.4469 16.8103 19.1147C16.7637 19.7824 16.3841 27.7822 16.3841 28.8306Z" fill="#212121"/>
<path d="M17.628 54.7676C17.628 54.8811 17.628 54.9479 17.628 54.9479C17.628 54.9479 17.6213 54.9078 17.628 54.7676Z" fill="#1A1A1A"/>
<path d="M17.5083 43.5216C17.5083 43.2678 17.5484 43.1143 17.5484 43.1143C17.5184 43.2479 17.5049 43.3847 17.5083 43.5216Z" fill="#1A1A1A"/>
<path d="M18.4625 55.9155C18.366 55.7319 18.2495 55.5595 18.1152 55.4014C18.1786 55.6028 18.2993 55.7815 18.4625 55.9155Z" fill="#1A1A1A"/>
<path d="M21.3711 71.4609C21.3862 71.5097 21.4063 71.5567 21.4312 71.6012C21.4713 71.6479 21.4379 71.5811 21.3711 71.4609Z" fill="#1A1A1A"/>
<path d="M22.7031 35.2077C23.9225 35.2583 25.1438 35.2271 26.359 35.1143L22.7031 35.2077Z" fill="#1A1A1A"/>
<path d="M9.49805 36.7839C10.6495 36.7842 11.7974 36.6566 12.9208 36.4033L9.49805 36.7839Z" fill="#1A1A1A"/>
</svg>
