<svg width="24" height="89" viewBox="0 0 24 89" fill="none" xmlns="http://www.w3.org/2000/svg">
<path d="M0.818274 53.6813C0.92482 53.6078 8.61612 54.0352 9.36195 54.1754C10.4606 54.4102 11.5725 54.5774 12.6915 54.6762C13.6171 54.7163 18.9977 54.7831 19.4572 54.536C19.4572 54.536 19.8834 48.5261 19.9899 46.6764C20.1627 44.689 20.1938 42.6918 20.0832 40.7C19.9034 39.2375 19.8301 37.2743 19.7236 36.3061C19.617 35.3378 19.2508 33.7018 19.2508 33.7018C19.2508 33.7018 13.6371 33.5215 12.9246 33.4147C12.2121 33.3078 6.40529 32.8203 5.87256 32.5332C5.47404 33.1019 5.04732 33.6501 4.594 34.1759C4.20112 34.5699 3.76827 36.1792 3.41534 36.9672C3.00234 38.2718 2.71687 39.6137 2.56297 40.9737C2.41647 42.0822 1.17121 46.9035 1.23114 48.7198C1.27404 49.8682 1.20266 51.0179 1.01805 52.1521C0.884865 52.8933 0.711728 53.7481 0.818274 53.6813Z" fill="#212121"/>
<path d="M13.2091 54.7222C14.0281 54.8625 19.4753 54.542 19.4753 54.542C19.4753 54.542 17.9104 54.4351 13.6019 53.9343C9.29349 53.4335 4.59214 53.3867 4.59214 53.3867C3.38017 53.4535 0.816406 53.6739 0.816406 53.6739C1.63548 53.6338 6.80963 53.8475 7.2225 53.9209C7.63536 53.9944 12.39 54.5687 13.2091 54.7222Z" fill="#1A1A1A"/>
<path d="M1.09117 31.264L1.20437 32.3324L1.41746 32.713C1.41746 32.713 4.36746 33.0937 4.74703 32.7865C5.1266 32.4793 4.93349 32.693 5.09997 32.3057C5.26645 31.9184 5.05335 31.7114 5.26645 31.7848C5.47954 31.8583 5.76588 32.0252 5.76588 32.2857C5.76588 32.5461 5.62604 32.713 5.76588 32.693C5.90572 32.673 12.5116 33.688 13.9366 33.7881C15.7118 33.8929 17.4923 33.8684 19.264 33.7147C19.477 33.6679 21.548 34.142 22.2339 33.8349C22.9198 33.5277 22.6868 32.9534 22.8 31.7648C22.8597 30.7763 22.8106 29.7843 22.6535 28.8066C22.5802 28.0721 22.7733 24.6398 22.7933 23.765C22.8133 22.8902 22.9864 20.6933 22.9864 20.2592C22.9864 19.8252 23.1995 17.4747 22.9864 16.9204C22.7733 16.3662 18.8777 14.2494 18.325 13.9155C17.6983 13.5969 17.0483 13.3267 16.3805 13.1075L14.9289 12.2995C14.8623 12.2528 12.3185 11.2979 10.2675 12.2995C10.2675 12.2995 7.84353 14.3028 7.15098 14.6567C6.45843 15.0106 4.96678 15.7585 4.30753 16.0657C3.57977 16.4173 2.99951 17.0158 2.66938 17.7551C2.28621 18.7046 2.06124 19.7107 2.00347 20.7333C1.95685 21.7283 1.52401 26.8234 1.45742 27.2774C1.39326 27.6322 1.35984 27.9919 1.35753 28.3525C1.35753 28.4193 1.07785 30.1622 1.05121 30.5161C1.02457 30.87 1.09117 31.264 1.09117 31.264Z" fill="#F1F2F2"/>
<path d="M1.15692 31.2373L1.27678 32.3057L1.48988 32.693C1.48988 32.693 4.43321 33.0737 4.81944 32.7598C5.20567 32.446 5.01256 32.6663 5.17904 32.2857C5.34552 31.9051 5.13242 31.6914 5.34552 31.7649C5.55861 31.8383 5.84495 31.9986 5.84495 32.259C5.84495 32.5194 5.69845 32.693 5.84495 32.6663C5.99145 32.6396 12.5574 33.668 13.9957 33.7615C15.7709 33.8663 17.5514 33.8417 19.323 33.688C19.5361 33.6413 21.6005 34.1154 22.293 33.8082C22.9856 33.501 22.7392 32.9268 22.859 31.7381C22.9176 30.7521 22.8708 29.7626 22.7192 28.7866C22.646 28.0454 22.8391 24.6198 22.859 23.7383C22.879 22.8569 23.0522 20.6666 23.0522 20.2393C23.0522 19.8119 23.2653 17.4547 23.0522 16.9004C22.8391 16.3462 18.9501 14.2294 18.3908 13.9022C17.7654 13.5807 17.1151 13.3104 16.4463 13.0942C16.2798 12.994 15.0679 12.3329 14.9946 12.2795C14.9214 12.2261 12.3842 11.2845 10.3332 12.2795C10.3332 12.2795 7.91594 14.2828 7.22339 14.6367C6.53084 14.9906 5.0392 15.7319 4.37328 16.039C3.64688 16.3926 3.06717 16.9904 2.73513 17.7285C2.35624 18.6793 2.13143 19.6847 2.06922 20.7067C2.02261 21.7083 1.59642 26.8034 1.52317 27.2574C1.46335 27.6105 1.43217 27.9678 1.42994 28.3259C1.42994 28.3993 1.1436 30.1355 1.12362 30.4961C1.10365 30.8567 1.15692 31.2373 1.15692 31.2373Z" fill="#F1F2F2"/>
<path d="M1.09117 31.2373L1.20437 32.3057L1.41746 32.693C1.41746 32.693 4.36746 33.0737 4.74703 32.7598C5.1266 32.446 4.93349 32.6663 5.09997 32.2857C5.26645 31.9051 5.05335 31.6914 5.26645 31.7649C5.47954 31.8383 5.76588 31.9986 5.76588 32.259C5.76588 32.5194 5.62604 32.693 5.76588 32.6663C5.90572 32.6396 12.5116 33.668 13.9366 33.7615C15.7118 33.8663 17.4923 33.8417 19.264 33.688C19.477 33.6413 21.548 34.1154 22.2339 33.8082C22.9198 33.501 22.6868 32.9268 22.8 31.7381C22.8597 30.7519 22.8106 29.762 22.6535 28.7866C22.5802 28.0454 22.7733 24.6198 22.7933 23.7383C22.8133 22.8569 22.9864 20.6666 22.9864 20.2393C22.9864 19.8119 23.1995 17.4547 22.9864 16.9004C22.7733 16.3462 18.8777 14.2294 18.325 13.9022C17.6997 13.5807 17.0494 13.3104 16.3805 13.0942C16.2141 12.994 15.0021 12.3329 14.9289 12.2795C14.8556 12.2261 12.3185 11.2845 10.2675 12.2795C10.2675 12.2795 7.84353 14.2828 7.15098 14.6367C6.45843 14.9906 4.96678 15.7319 4.30753 16.039C3.58113 16.3926 3.00142 16.9904 2.66938 17.7285C2.28747 18.6783 2.06255 19.6843 2.00347 20.7067C1.95685 21.7083 1.52401 26.8034 1.45742 27.2574C1.39311 27.61 1.35969 27.9675 1.35753 28.3259C1.35753 28.3993 1.07785 30.1355 1.05121 30.4961C1.02457 30.8567 1.09117 31.2373 1.09117 31.2373Z" fill="#F1F2F2"/>
<path d="M6.58398 15.0379C6.58398 15.0379 7.6894 14.4303 7.97574 14.6106C8.26209 14.7909 7.5429 16.8542 7.5429 16.8542C7.5429 16.8542 8.54177 14.4637 8.64832 14.7508C8.9605 15.5366 9.36752 16.2812 9.86028 16.9678C10.1067 17.0746 9.19437 14.4303 9.72044 13.6289C10.2465 12.8276 10.4663 12.4136 10.4663 12.4136L10.1067 14.0897C10.1067 14.0897 11.1055 15.1247 11.7448 15.8392C12.3841 16.5538 13.3164 17.8425 13.4562 17.9494C13.5961 18.0562 14.7414 16.8409 14.848 16.7674C14.6695 17.1602 14.5377 17.5726 14.4551 17.9961C14.4551 17.9961 15.0211 16.5671 15.2009 16.5337C15.3807 16.5003 15.2742 17.4619 15.5205 17.7157C15.9055 18.1959 16.2071 18.7377 16.4129 19.3183C16.5927 19.8525 16.6659 19.8525 16.5927 20.2866C16.3338 20.8535 15.9976 21.3816 15.5938 21.8558C15.5938 21.8558 17.2652 20.6739 17.2319 18.8575V18.4636C17.7248 19.0267 18.1006 19.6828 18.3374 20.3934C18.4469 21.0057 18.4827 21.6289 18.4439 22.2498C18.4439 22.2498 19.0499 20.9142 17.9778 18.143C17.9778 18.143 17.5915 16.1798 17.5516 15.679C17.4866 15.2366 17.3681 14.8038 17.1986 14.3902C17.8463 15.3573 18.4184 16.3731 18.91 17.4285C19.378 18.5183 19.5833 19.7033 19.5094 20.8875C19.5094 20.8875 20.2219 19.1447 17.6581 14.5371C17.6581 14.5371 17.8379 13.7491 18.0177 14.1431C18.1975 14.5371 18.8368 16.2866 18.8368 16.2866C18.7587 14.4956 18.5675 12.7113 18.2641 10.9445C18.2499 10.8963 18.2387 10.8473 18.2308 10.7976C17.7647 8.69418 18.5505 7.29855 17.1986 2.4773C17.1986 2.4773 16.273 0.373844 15.454 0.120094C14.8585 -0.0400314 14.2315 -0.0400314 13.636 0.120094C13.0882 0.0866164 12.5384 0.117995 11.9979 0.213581C11.2959 0.380916 10.6445 0.715232 10.0986 1.18828C9.55265 1.66133 9.12831 2.2592 8.86141 2.93138C8.32191 4.56321 8.01041 6.26212 7.93579 7.97967C7.8692 9.04809 8.14888 10.8711 8.14888 12.1198C8.14888 13.3685 8.08229 13.6557 7.90249 13.836C7.5038 14.2794 7.06213 14.6821 6.58398 15.0379Z" fill="#212121"/>
<path d="M6.19046 22.67C6.4768 22.1691 6.76314 21.3344 6.5101 21.6349C6.25705 21.9354 5.84418 22.917 5.76427 23.0239C5.68436 23.1307 5.65773 22.1691 5.69102 21.8152C5.72432 21.4613 5.44463 18.5298 4.59226 18.2761C4.4391 18.2293 3.98628 18.8103 4.41247 19.6116C4.83865 20.4129 5.05174 20.6667 5.33809 21.3344C5.62443 22.0022 5.65773 22.1558 5.62443 22.3695C5.59113 22.5831 4.7654 20.7601 4.62556 20.9071C4.48572 21.054 4.19937 21.0874 4.62556 21.4747C4.98829 22.0183 5.27508 22.6092 5.47793 23.2309C5.58448 23.4446 5.29813 24.0122 5.37138 24.2659C5.44463 24.5197 4.58561 22.2626 4.51235 22.4028C4.50407 23.1055 4.60059 23.8055 4.7987 24.4796C4.92812 25.0231 5.17096 25.5329 5.51122 25.9754C5.54632 26.0252 5.57538 26.079 5.59779 26.1356C5.62516 25.4136 5.69186 24.6935 5.79757 23.9788C5.8632 23.5254 5.99561 23.0843 6.19046 22.67Z" fill="#E7E8E8"/>
<path d="M3.59408 25.4279C3.44758 25.6082 3.55412 26.2159 3.94701 26.7167C4.3399 27.2175 5.23222 28.0122 5.33877 28.2526C5.43078 28.9254 5.3693 29.6103 5.15897 30.2559C4.94588 30.6832 4.59295 30.8635 4.80604 31.1106C5.01913 31.3577 5.05243 31.3643 5.08572 31.0438C5.27005 30.4603 5.40155 29.8614 5.47861 29.2542C5.36854 28.7025 5.34606 28.1368 5.41202 27.5781C5.47344 27.2811 5.51129 26.9797 5.52523 26.6766C5.4543 26.7828 5.39195 26.8944 5.33877 27.0105C5.29882 27.1775 3.73392 25.2476 3.59408 25.4279Z" fill="#E7E8E8"/>
<path d="M5.56546 26.123C5.56546 26.31 5.5521 26.4903 5.52539 26.6639C5.574 26.5832 5.60295 26.4922 5.60991 26.3983C5.61687 26.3043 5.60164 26.21 5.56546 26.123Z" fill="#E7E8E8"/>
<path d="M19.3573 32.3857C19.2839 32.8665 19.2305 33.2472 19.2305 33.2472C19.298 32.9643 19.3405 32.6761 19.3573 32.3857Z" fill="#E7E8E8"/>
<path d="M18.5499 26.7163C18.7528 27.1303 18.838 27.5924 18.7962 28.0518C18.8362 28.6194 18.6564 28.586 18.9427 29.1937C19.1519 29.5523 19.2622 29.9602 19.2624 30.3756C19.3544 30.954 19.3901 31.5399 19.3689 32.1252C19.3689 32.212 19.3689 32.2921 19.3689 32.3656C19.4688 31.6978 19.5953 30.7563 19.5953 30.5893C19.5441 30.0182 19.4528 29.4514 19.3223 28.8932C19.2158 28.4658 18.7896 27.9984 18.9694 27.5577C19.1492 27.1169 18.8961 26.3023 19.4289 25.6278C19.9616 24.9534 20.461 23.9451 20.1813 24.1254C19.8355 24.3965 19.5126 24.6958 19.2158 25.0202C19.0426 25.2005 19.1825 24.5193 19.3956 24.1654C19.6087 23.8115 19.7485 23.1638 20.1081 22.8299C20.4677 22.496 20.461 21.8616 20.2146 22.1621C19.9682 22.4626 21.3533 20.0921 21.7129 19.1973C21.7129 19.1973 20.461 21.5879 20.0748 22.0553C19.6886 22.5227 19.2557 22.4493 19.1825 23.0569C19.1092 23.6646 18.9694 23.8783 18.9361 24.1988C18.9028 24.5193 18.3967 24.7731 18.5032 25.2672C18.6098 25.7614 18.2635 26.1754 18.5499 26.7163Z" fill="#E7E8E8"/>
<path d="M15.1206 17.9955C15.4736 17.8486 15.3604 17.6816 15.3604 17.6816C15.0167 17.8177 14.6559 17.9054 14.2882 17.9421C14.0352 17.9421 13.8154 18.5163 13.8354 18.6833C13.8554 18.8502 13.8354 19.3043 13.8354 19.6849C13.8354 20.0656 13.7422 20.3527 13.7422 20.6866C13.7422 20.8602 13.7422 21.3076 13.7422 21.6148C13.7888 20.7534 13.9819 18.483 14.1617 18.2759C14.3415 18.0689 14.761 18.1424 15.1206 17.9955Z" fill="#E7E8E8"/>
<path d="M13.77 21.955C13.7811 21.844 13.7811 21.7321 13.77 21.6211C13.7642 21.7323 13.7642 21.8438 13.77 21.955Z" fill="#E7E8E8"/>
<path d="M13.8155 22.7363C13.7161 23.0536 13.6732 23.3858 13.6886 23.7179C13.752 23.3938 13.7944 23.0659 13.8155 22.7363Z" fill="#E7E8E8"/>
<path d="M13.6966 26.5701C13.6966 26.2028 13.6499 24.7338 13.6966 23.7188C13.6146 24.2291 13.5678 24.7445 13.5564 25.2613C13.5564 26.1427 13.4629 26.8305 13.4629 27.3313C13.4629 27.8322 13.4629 30.3296 13.5297 31.0842C13.5964 29.5951 13.6766 27.8923 13.6766 27.7454C13.6699 27.525 13.6966 27.1177 13.6966 26.5701Z" fill="#E7E8E8"/>
<path d="M13.4564 32.7868C13.5315 32.2673 13.5561 31.7418 13.5299 31.2175C13.5262 31.1731 13.5262 31.1284 13.5299 31.084C13.4831 31.9721 13.443 32.7935 13.4297 33.1541C13.4297 33.0606 13.4364 32.9404 13.4564 32.7868Z" fill="#E7E8E8"/>
<path d="M13.4229 33.1543C13.4229 33.2812 13.4229 33.3546 13.4229 33.3546C13.4229 33.3546 13.4162 33.2812 13.4229 33.1543Z" fill="#E7E8E8"/>
<path d="M4.59303 34.1753L4.74619 32.7596C3.7298 32.3834 2.63817 32.2574 1.56312 32.3924C1.56312 32.3924 1.17024 36.2854 1.06369 37.0667C0.957143 37.848 0.74405 41.534 0.677459 42.1083C0.610868 42.6826 0.570913 43.1767 0.497662 43.751C0.424412 44.3253 0.171364 45.18 0.138069 45.574C0.104773 45.968 -0.0417279 46.0414 0.0115452 46.3954C0.0648183 46.7493 0.404434 48.3986 0.43773 48.7125C0.471026 49.0263 0.970461 49.2133 1.18355 49.3202C1.39665 49.427 2.43547 49.9879 2.51538 49.821C2.59529 49.654 2.68852 49.5338 2.62193 49.3535C2.55534 49.1733 2.12249 48.7859 2.19574 48.6858C2.37092 48.4406 2.49131 48.1605 2.54868 47.8644C2.62193 47.4371 2.54868 45.5072 2.58197 45.0799C2.63875 44.5561 2.63875 44.0277 2.58197 43.5039C2.51538 43.1834 2.30229 43.0432 2.33558 42.756C2.36888 42.4689 3.40105 37.5408 3.50759 37.0066C3.61414 36.4724 4.59303 34.1753 4.59303 34.1753Z" fill="#212121"/>
<path d="M22.2932 33.608C21.8346 33.3991 21.3302 33.3117 20.8282 33.3542C20.2788 33.3227 19.7316 33.4477 19.25 33.7148C19.3859 34.3752 19.4727 35.0448 19.5097 35.7181C19.4764 36.0787 19.5097 36.5795 19.5097 36.7932C19.5396 37.167 19.5997 37.5377 19.6895 37.9017C19.7628 38.1822 19.7228 38.289 19.6163 38.8633C19.5097 39.4376 19.9758 40.9333 19.9758 41.4676C19.9758 42.0018 20.2955 42.4358 20.0824 42.8966C19.8778 43.7723 19.7706 44.6682 19.7628 45.5676C19.7628 45.8881 19.8693 48.0317 19.9426 48.2387C20.0158 48.4457 20.5419 48.4657 20.7217 48.3656C20.9015 48.2654 20.9015 47.631 21.008 47.4574C21.1146 47.2838 21.2944 47.4574 21.3277 47.7045C21.3524 47.9718 21.316 48.2413 21.2211 48.4924C21.1308 48.6878 20.9963 48.8593 20.8282 48.9932C20.6884 49.06 20.1623 49.1669 19.9026 49.2737C19.6429 49.3805 19.9026 49.7411 19.9758 49.848C20.0491 49.9548 20.402 49.9882 20.6418 49.9882C20.8844 49.9934 21.1253 49.9456 21.3476 49.848C21.8136 49.6455 22.2196 49.3258 22.5263 48.9198C22.7727 48.4924 22.5995 47.5843 22.5995 46.9165C22.5724 46.3455 22.4648 45.7812 22.2799 45.2404C22.1734 44.8464 22.0269 44.4525 21.9536 44.0585C21.8804 43.6645 21.8471 42.0552 21.8471 41.3874C21.8471 40.7197 22.0668 35.5311 22.0668 35.2841C22.0668 35.037 22.2932 33.608 22.2932 33.608Z" fill="#212121"/>
<path d="M4.50586 53.4401C4.50586 53.4401 5.55134 58.248 5.69119 59.1562C5.95465 60.3954 6.13044 61.6517 6.21726 62.9157C6.17064 63.7237 6.26387 66.5817 6.31049 67.7236C6.54094 69.5372 6.88343 71.3347 7.33599 73.1058C7.62234 74.2944 8.14175 76.104 8.47471 77.1124C8.80766 78.1207 9.52019 79.6833 9.61342 80.1574C9.66005 80.5701 9.66005 80.9867 9.61342 81.3994C9.61342 81.8735 9.5668 82.6815 9.5668 83.1623C9.5668 83.6431 9.42696 83.6832 9.47358 84.017C9.21816 84.7808 8.9157 85.5279 8.56793 86.254C8.23498 86.8283 7.66895 87.5428 7.85541 87.8233C8.04186 88.1038 8.38148 88.638 8.66782 88.638C8.95416 88.638 12.084 88.638 12.2771 88.3976C12.4702 88.1572 12.3237 87.4427 12.3237 87.062C12.3237 86.6814 12.7965 85.9202 12.7965 85.4928C12.7965 85.0654 13.1761 84.3042 13.0362 84.017C12.8964 83.7299 12.4169 83.6364 12.4169 83.2558C12.4122 82.747 12.381 82.2388 12.3237 81.7333C12.2771 81.4461 11.7044 81.2525 11.7976 80.7784C11.8908 80.3043 11.3714 69.6868 11.1783 68.2578C11.0314 66.9608 10.9536 65.6568 10.9452 64.3514C10.9452 63.7771 11.2316 62.0209 11.1783 61.253C11.125 60.4851 10.8986 58.4484 10.7521 57.3065C10.6056 56.1646 10.3726 54.8291 10.3726 54.8291L10.5191 54.1146C8.55633 53.6069 6.53193 53.3799 4.50586 53.4401Z" fill="#212121"/>
<path d="M13.4355 54.2155C13.6168 55.3807 13.728 56.5559 13.7685 57.7346C13.7351 59.3084 13.7973 60.8828 13.955 62.449C14.0995 63.3306 14.3361 64.1946 14.6608 65.0265C14.8872 66.0888 14.9989 67.1723 14.9938 68.2585C15.0366 70.506 15.2101 72.749 15.5132 74.9762C15.7995 76.0714 16.2723 78.8292 16.4188 79.7841C16.5366 80.2941 16.4852 80.8286 16.2723 81.3066C16.083 81.8088 16.019 82.3498 16.0859 82.8825C16.2257 83.2632 15.9927 83.3099 15.946 83.6438C15.8994 83.9777 15.946 84.2581 15.8462 84.9259C15.7463 85.5937 15.7529 85.9275 15.6597 86.3549C15.5665 86.7823 15.087 86.9292 15.1802 87.45C15.2735 87.9709 15.1336 88.258 15.6131 88.4984C16.0925 88.7388 18.9826 88.7388 19.502 88.6387C20.0214 88.5385 19.5553 87.6904 19.6019 87.1629C19.6809 86.5453 19.6652 85.9193 19.5553 85.3065C19.2633 84.5744 19.0707 83.8063 18.9826 83.0228C19.1025 82.493 19.1495 81.9493 19.1225 81.4068C19.0106 80.8578 18.9637 80.2974 18.9826 79.7374C19.0758 79.4035 19.0758 76.9728 19.5553 74.5489C20.0864 71.3032 20.12 67.9953 19.6552 64.7394C19.2705 62.9378 19.0477 61.1053 18.9893 59.2638C18.9893 58.2621 19.229 54.4492 19.229 54.4492C19.229 54.4492 17.2779 53.6879 13.4355 54.2155Z" fill="#212121"/>
<path d="M5.26568 35.9652C5.47439 37.3518 5.82015 38.714 6.29784 40.0319C6.51093 40.4993 6.55089 39.4643 6.12471 38.9635C5.69852 38.4627 5.41218 33.4277 5.41218 33.4277C4.61308 34.0955 4.92606 37.3609 4.91274 37.6814C4.94604 37.4076 5.26568 35.2841 5.26568 35.9652Z" fill="#1A1A1A"/>
<path d="M4.91309 37.7147V37.6816C4.91309 37.6816 4.90649 37.7279 4.91309 37.7147Z" fill="#1A1A1A"/>
</svg>
