<svg width="26" height="91" viewBox="0 0 26 91" fill="none" xmlns="http://www.w3.org/2000/svg">
<path d="M3.00643 55.0095C3.00643 55.2699 9.77877 55.4435 12.8686 55.5303C15.9585 55.6171 22.2513 55.6639 22.8573 55.0963C22.8573 55.0963 23.5232 44.6859 21.339 36.7996C21.339 36.7996 20.8329 33.3072 20.773 33.0935C20.773 33.0935 16.2981 33.0534 14.9929 33.0067C13.6877 32.9599 8.17392 33.0668 5.33713 33.3539C5.34208 33.808 5.27003 34.2596 5.12404 34.6894C4.90428 35.0767 4.38487 35.3572 4.45812 35.7779C4.43045 36.2363 4.32926 36.6873 4.15846 37.1134C4.02528 37.5942 2.98645 42.5557 2.82663 43.9981C2.66681 45.4404 3.04639 49.8744 2.99977 51.5304C2.95316 53.1865 3.00643 54.7491 3.00643 55.0095Z" fill="#F92525"/>
<path d="M5.25816 30.85C5.20242 30.6584 5.13325 30.4709 5.05115 30.2891C5.05115 30.5695 5.01109 30.8834 4.98438 31.1905C5.0999 31.0989 5.19345 30.9825 5.25816 30.85Z" fill="#F1F2F2"/>
<path d="M0.303609 27.2035C0.237018 27.8712 0.130472 28.539 0.0905168 29.0999C0.0087477 29.7512 -0.002416 30.4095 0.0572211 31.0631C0.141749 31.4772 0.259784 31.8836 0.410155 32.2785C0.568263 32.5881 0.836959 32.8265 1.16264 32.9462C2.53786 32.6277 3.83682 32.0399 4.98498 31.2167C4.98498 30.9096 5.03826 30.5957 5.05157 30.3153C4.99386 30.1817 4.92061 30.0348 4.83182 29.8745C4.50552 29.3069 4.43893 29.0866 4.57878 28.7326C4.71862 28.3787 4.36568 27.9447 4.75857 27.3971C5.15146 26.8496 5.36455 27.5774 5.2913 28.0649C5.21805 28.5524 4.89841 28.3854 4.89841 28.8862C4.8667 29.1712 4.90323 29.4596 5.00496 29.7276C5.04357 29.9074 5.05924 30.0914 5.05157 30.2752C5.13344 30.4571 5.20242 30.6445 5.25801 30.8361C5.19348 30.9686 5.10019 31.085 4.98498 31.1767C4.96225 31.4321 4.96225 31.6891 4.98498 31.9446C5.05823 32.5122 4.45225 33.0865 5.30462 33.1199C6.15699 33.1532 10.2191 33.2267 10.7518 33.2668C11.2845 33.3068 18.7428 33.1199 19.5885 33.0464C20.4342 32.9729 20.6939 32.9796 20.7272 32.8728C20.7605 32.7659 20.3343 29.9079 20.3343 29.4805C20.3343 29.0532 19.988 29.347 19.988 28.7393C19.9945 28.3559 19.9587 27.973 19.8815 27.5975C19.7749 27.1701 19.4153 26.8496 19.5219 26.529C19.5692 26.1487 19.6655 25.7761 19.8082 25.4205C20.0546 24.9197 19.8415 24.5658 20.2677 24.8463C20.4762 25.0784 20.637 25.3494 20.741 25.6439C20.845 25.9383 20.8901 26.2505 20.8737 26.5624C20.8404 26.9564 20.5208 26.7761 20.7005 27.3504C20.8803 27.9247 20.9469 27.7444 21.0535 28.2786C21.1944 28.6674 21.2312 29.0864 21.16 29.4939C21.0535 30.0281 20.8404 30.1617 20.9802 30.382C21.1201 30.6024 22.7249 32.3119 23.8703 32.3853C25.0157 32.4588 25.1488 32.2384 25.4685 31.4905C25.7216 31.006 25.8562 30.4682 25.8614 29.9213C25.8614 29.4204 26.0012 29.6007 25.8614 29.0599C25.7215 28.519 25.0023 28.2786 25.1955 27.7778C25.3886 27.2769 25.3753 27.7777 25.302 26.923C25.2288 26.0683 24.6494 23.8513 24.7027 23.05C24.7901 22.4813 24.7901 21.9025 24.7027 21.3338C24.5628 20.7262 24.17 20.5459 24.3431 20.0851C24.5162 19.6244 24.736 19.6911 24.6294 19.1903C24.5229 18.6895 23.9169 17.1536 23.2976 16.8665C22.6783 16.5794 21.16 15.7981 20.634 15.531C20.1079 15.2639 19.4553 14.7831 19.0291 14.6028C18.6769 14.5236 18.3469 14.3662 18.0635 14.142C17.6373 13.7814 17.5308 13.3941 16.7317 13.3541C15.9326 13.314 11.3311 11.4175 8.96049 12.3658C8.40778 12.5861 7.50214 13.7013 6.89615 14.1888C5.92149 14.9453 4.88321 15.6155 3.793 16.1921C3.12708 16.4792 1.26918 17.1536 0.909591 20.0517C0.549997 22.9498 0.982841 23.8379 0.842999 24.5525C0.703157 25.267 0.37686 26.529 0.303609 27.2035Z" fill="#F1F2F2"/>
<path d="M5.50419 15.2637L4.55859 15.7912C4.55859 15.7912 6.55633 14.9298 6.97586 15.03C7.39539 15.1301 6.7894 15.7445 6.69618 16.4055C6.60295 17.0666 8.06796 15.1702 8.5008 14.7428C8.93365 14.3154 8.9736 13.1202 9.39979 12.9332C9.82597 12.7462 9.68613 13.1202 9.68613 13.6477C9.68613 14.1752 9.53963 14.2153 9.73274 14.5024C9.92586 14.7896 11.584 15.9314 12.2499 16.5525C12.9158 17.1735 13.342 17.9815 13.5817 18.075C13.8215 18.1684 14.8603 17.3137 14.8603 17.3137C14.8603 17.3137 15.433 18.1217 15.666 18.5491C15.666 18.5491 15.4796 17.4539 15.666 17.6943C15.8525 17.9347 16.4252 18.5958 16.9046 19.2168C17.3841 19.8379 18.1832 20.0248 17.5173 21.1667C16.8514 22.3086 16.7581 22.549 16.7581 22.549C16.7581 22.549 18.3763 21.4538 18.3763 20.5457C18.3146 19.6097 18.1539 18.683 17.8968 17.7811C17.7616 17.171 17.6835 16.5495 17.6638 15.9248C17.6172 15.257 17.424 14.9231 17.5639 15.0233C18.3111 15.8805 18.9797 16.8035 19.5616 17.7811C19.8014 18.3755 20.8468 20.0248 20.6537 21.0465C20.6537 21.0465 20.5139 21.9079 20.414 22.3353C20.414 22.3353 21.606 20.6659 19.848 16.9932C18.09 13.3205 17.5173 13.3739 17.8036 12.7061C18.4286 11.3722 18.6285 9.87768 18.3763 8.42577C17.9967 6.37574 18.1366 3.51771 16.7115 2.04195C15.2865 0.566198 15.0534 0.265704 14.3409 0.345836C13.6283 0.425967 13.7216 0.632974 13.7216 0.632974C12.9903 0.499083 12.2389 0.52335 11.5177 0.704152C10.7965 0.884954 10.1221 1.21812 9.53963 1.68136C7.59516 3.01689 7.68839 4.64623 7.33545 6.21548C7.00509 7.9418 6.89322 9.70302 7.0025 11.4574C7.04911 13.2671 7.33545 13.3605 6.86266 13.9348C6.48502 14.449 6.02616 14.8979 5.50419 15.2637Z" fill="#212121"/>
<path d="M18.6565 30.6352L17.7243 24.0645C17.7243 24.0645 8.40147 24.5987 6.75 25.0594L7.92867 31.9574C7.92867 31.9574 17.0783 31.4566 17.3314 31.3831C17.786 31.1576 18.2284 30.908 18.6565 30.6352Z" fill="#F92525"/>
<path d="M14.4816 26.2756C14.2686 25.9551 13.7691 26.3825 13.5227 26.5962C12.9388 27.1751 12.306 27.7024 11.6315 28.1721C11.0559 28.5077 10.5586 28.9631 10.1732 29.5076C9.97063 29.9091 9.73214 30.2913 9.46065 30.6495C9.10106 31.0034 7.39632 31.1837 6.89689 31.0435C6.27953 30.7472 5.61835 30.5533 4.9391 30.4692C4.08464 30.5985 3.24712 30.8224 2.44192 31.137C1.62285 31.5309 0.983573 32.172 1.01687 32.4725C1.06109 32.7732 1.19366 33.0538 1.39767 33.2786C1.60168 33.5034 1.86786 33.6622 2.16224 33.7346C3.46793 33.8196 4.77866 33.7838 6.07781 33.6277C7.03673 33.4808 11.5982 32.6995 13.1631 32.0184L14.728 31.3506C14.728 31.3506 16.799 32.1386 17.2252 32.2788C17.802 32.5745 18.4124 32.7987 19.0432 32.9466C19.5447 32.9089 20.049 32.9564 20.5348 33.0868C20.9094 33.4835 21.3943 33.758 21.9266 33.8748C22.7057 33.9816 23.5247 34.1285 24.1707 33.6945C24.8166 33.2604 25.2361 32.9466 25.3827 32.4124C25.4054 32.1612 25.3782 31.9081 25.3026 31.6675C25.227 31.427 25.1044 31.204 24.9421 31.0114C24.7798 30.8188 24.5809 30.6604 24.357 30.5456C24.1331 30.4307 23.8887 30.3616 23.638 30.3423C22.2462 30.2689 21.6402 30.8031 21.4271 30.6228C21.214 30.4425 20.5348 30.4091 20.5348 30.0886C20.5348 29.768 20.608 29.4208 20.355 29.2672C20.0053 29.01 19.6062 28.8281 19.183 28.733C18.9223 28.6767 18.6783 28.5601 18.4705 28.3924C18.4957 27.9975 18.5927 27.6105 18.7568 27.2506C18.9699 26.9634 19.1097 26.6763 18.8234 26.5828C18.5371 26.4893 18.6836 26.0152 18.4705 25.915C18.3353 25.8257 18.1812 25.7695 18.0204 25.7509C17.8596 25.7324 17.6967 25.752 17.5448 25.8082C17.0454 25.9484 15.334 26.8432 14.9478 27.0235C14.7024 27.1312 14.4512 27.2248 14.1953 27.304C14.1953 27.304 14.6947 26.5962 14.4816 26.2756Z" fill="#212121"/>
<path d="M22.599 55.1696C22.599 55.1696 20.8942 54.9225 18.8965 54.7088C16.8988 54.4952 12.9832 54.6354 9.33398 54.3149C7.24101 54.0925 5.12516 54.3623 3.1543 55.1028C4.15317 55.39 12.7368 55.5703 12.7368 55.5703C19.2561 55.8841 22.599 55.1696 22.599 55.1696Z" fill="#1A1A1A"/>
<path d="M3.75918 86.3136C3.7538 87.0073 3.69368 87.6995 3.57939 88.3837C3.43954 88.8845 3.25975 89.5256 3.86573 89.7192C4.73284 89.9558 5.63194 90.0527 6.52938 90.0064C7.74135 89.9663 8.59371 90.0398 8.74022 89.5389C8.88672 89.0381 8.13423 88.2034 8.13423 87.2552C8.13423 86.307 8.30737 86.1801 8.27408 85.3587C8.24075 84.7404 8.24075 84.1207 8.27408 83.5024C8.1966 82.7218 8.06532 81.9476 7.88119 81.1852C7.77464 80.257 8.45387 78.0734 8.80681 75.97C9.15974 73.8665 9.3462 68.3976 9.73243 66.7882C10.1187 65.1789 10.8045 64.2507 10.8778 63.4494C10.951 62.6481 11.0909 55.7701 10.8778 54.5214C8.74003 54.2787 6.57794 54.362 4.46505 54.7685C4.78858 55.6361 5.03809 56.5296 5.21087 57.4396C5.28412 58.2609 5.53051 62.5146 5.42397 63.2625C5.26044 64.3543 4.9997 65.4292 4.64485 66.4744C4.17871 67.87 4.07216 71.1487 4.212 72.8716C4.35185 74.5944 4.92453 79.2621 5.10433 80.5108C5.26447 81.195 5.23918 81.9097 5.03108 82.5808C4.8706 83.0782 4.77655 83.5946 4.75139 84.1167C4.75139 84.7244 5.10433 84.5107 4.75139 84.9381C4.39846 85.3654 3.79248 85.8195 3.75918 86.3136Z" fill="#212121"/>
<path d="M13.2348 84.5634C13.2348 84.7771 13.055 84.5634 12.8087 85.0576C12.5887 85.4136 12.4648 85.8209 12.4491 86.2395C12.4283 86.7572 12.357 87.2716 12.236 87.7754C12.0426 88.0714 11.9557 88.4247 11.9896 88.777C11.9896 89.4915 12.1294 89.812 12.3758 89.8788C12.6222 89.9456 16.7975 89.8788 16.7975 89.8788C16.9768 89.6949 17.0993 89.4631 17.1504 89.2111C17.1447 88.6375 17.1091 88.0647 17.0439 87.4949C17.0439 87.0675 16.6177 85.9257 16.4778 85.1043C16.338 84.283 16.7242 84.1027 16.7575 83.4282C16.7908 82.7538 16.3313 81.7121 16.7575 80.9241C17.5676 78.8096 18.1763 76.6229 18.5755 74.3934C19.1387 71.92 19.4246 69.3913 19.4278 66.8543C19.3945 63.8561 19.1082 61.9663 19.4678 60.0699C19.8274 58.1734 20.5333 55.0015 20.5333 55.0015C18.2832 54.6649 16.0088 54.5197 13.7343 54.5675C13.7343 54.5675 13.8009 57.9063 13.661 59.6091C13.5264 61.4548 13.6587 63.3104 14.0539 65.1181C14.3534 66.6972 14.3894 68.3151 14.1605 69.906C13.946 72.2924 13.8615 74.6888 13.9074 77.0845C14.014 78.834 14.1938 80.4767 14.1938 81.0109C14.1262 81.5779 13.945 82.1253 13.661 82.6202C13.427 83.2442 13.2835 83.8986 13.2348 84.5634Z" fill="#212121"/>
<path d="M2.00778 28.1245C1.82132 28.2648 0.675951 28.8858 1.15541 28.9325C1.63487 28.9793 3.47945 28.6721 3.71918 28.7656C3.95891 28.8591 3.71918 29.3332 3.64593 29.3866C3.57268 29.44 2.24751 29.8607 2.17426 30.1211C2.10101 30.3816 2.43396 30.3816 2.43396 30.3816C2.43396 30.3816 1.43509 31.4567 1.62821 31.4099C2.71777 30.9855 3.82922 30.62 4.95778 30.3148C5.17087 30.3816 4.76466 29.5001 4.69807 29.2864C4.63148 29.0728 4.53159 29.1462 4.62482 28.8123C4.71805 28.4784 4.45834 28.3582 4.50496 28.0778C4.55157 27.7973 4.41173 27.2898 4.67143 27.0561C4.93114 26.8224 5.07764 26.6755 5.21748 26.9159C5.38888 27.1489 5.47368 27.4348 5.45721 27.7239C5.45721 28.0377 5.36398 27.9643 5.15089 28.3916C4.9378 28.819 4.74468 28.7923 4.98441 29.0594C5.22414 29.3265 5.43723 29.3666 5.24412 29.6337C5.051 29.9008 5.00439 30.1545 5.10428 30.3014C5.33724 30.4539 5.59375 30.5667 5.86342 30.6353C6.43279 30.8499 7.02154 31.0087 7.62143 31.1094C7.07239 30.7728 6.58941 30.3383 6.19638 29.8273C5.86342 29.2263 5.60371 28.9926 5.62369 28.632C5.64367 28.2714 5.50383 27.7773 5.86342 27.6104C6.22301 27.4434 6.74242 26.7155 6.66917 26.3883C6.59592 26.0611 6.73577 25.7206 6.30958 25.9142C6.2272 25.9609 6.13058 25.9757 6.03807 25.9557C5.94557 25.9356 5.86361 25.8823 5.80775 25.8057C5.7519 25.7291 5.72603 25.6346 5.73506 25.5401C5.7441 25.4456 5.7874 25.3578 5.85676 25.2932C6.16974 24.9326 7.80789 23.0762 7.52154 22.7424C7.2352 22.4085 6.85563 22.6489 6.54931 23.1764C6.24299 23.7039 5.6703 24.9059 5.43723 25.3132C5.20416 25.7206 5.17087 25.5536 5.21748 25.1663C5.26988 24.7599 5.34323 24.3565 5.43723 23.9577C5.53791 23.6542 5.57681 23.3335 5.55165 23.0146C5.52648 22.6957 5.43776 22.3852 5.29073 22.1013C4.86455 21.3334 4.57821 17.881 3.29299 17.6941C2.84017 17.6273 2.26749 18.8359 2.74694 19.3101C3.37286 19.9545 3.93693 20.6565 4.4317 21.4068C4.61816 21.8142 4.97775 22.6956 5.09762 23.0495C5.21748 23.4034 5.00439 23.7173 4.91116 23.5236C4.81793 23.33 1.77471 18.3752 1.70812 18.5488C1.71897 19.0192 1.84963 19.4789 2.08769 19.8843C2.30078 20.265 4.60484 23.5504 4.81793 23.8909C4.97243 24.2354 4.99842 24.624 4.89118 24.986C4.83791 25.3667 4.83791 25.8475 4.55823 25.9142C4.27854 25.981 1.70812 22.3217 1.63487 22.3217C1.56162 22.3217 0.662633 24.7991 2.04107 25.6605C3.41952 26.5219 4.15202 26.996 4.34514 27.183L4.39175 27.6371C4.39175 27.6371 2.72697 26.7556 2.39401 26.9025C2.06105 27.0494 1.56162 27.2364 1.89457 27.4501C1.95236 27.4815 2.00226 27.5257 2.04048 27.5793C2.0787 27.633 2.10423 27.6946 2.11514 27.7596C2.12605 27.8246 2.12205 27.8913 2.10345 27.9545C2.08485 28.0177 2.05213 28.0759 2.00778 28.1245Z" fill="#E7E8E8"/>
<path d="M9.45999 13.7012C9.43897 13.7662 9.42553 13.8334 9.41992 13.9015C9.44663 13.788 9.46666 13.7012 9.45999 13.7012Z" fill="#E7E8E8"/>
<path d="M9.0665 15.5779C9.04241 15.9298 8.90178 16.2636 8.66695 16.5262C8.4997 16.727 8.32187 16.9187 8.13422 17.1004L7.78794 15.7048C7.74022 16.2331 7.72687 16.764 7.74799 17.2941C7.80126 17.7749 8.00103 18.2423 8.24742 18.0954C8.49381 17.9485 9.51266 17.5812 9.70577 17.4877C9.89889 17.3942 10.3717 16.9335 10.5981 17.4009C10.8245 17.8684 11.3306 18.3759 11.5437 18.3759C11.7568 18.3759 12.3628 17.9685 12.5759 18.289C12.7977 18.6998 12.9187 19.1576 12.9288 19.6246C12.7964 20.0043 12.731 20.4043 12.7357 20.8065C12.7626 21.3478 12.8452 21.8849 12.9821 22.4091C13.0353 22.6095 13.0886 19.3575 13.1086 19.0703C13.0925 18.6195 13.0277 18.1717 12.9155 17.7348C12.4182 17.3674 11.8876 17.0477 11.3306 16.7799C11.264 16.7064 10.425 16.406 10.2318 16.1522C10.0387 15.8985 9.76571 15.9051 9.65916 15.4177C9.51093 14.9321 9.42587 14.4293 9.40611 13.9219C9.33286 14.3025 9.17304 15.1238 9.0665 15.5779Z" fill="#E7E8E8"/>
<path d="M19.8486 24.4784C20.0151 24.6721 20.1083 24.7188 20.2482 24.7188C20.388 24.7188 20.5145 25.006 20.681 25.2664C20.8031 25.6871 20.8615 26.1238 20.8542 26.5619C20.9141 27.0026 20.6078 26.9291 20.7942 27.3098C20.9807 27.6904 21.1272 27.9041 21.3203 28.2647C21.4517 28.479 21.5166 28.7277 21.5067 28.9792C21.5067 29.2663 21.3403 29.4065 21.2737 29.6469C21.2071 29.8873 20.9607 30.1277 21.1738 30.2212C21.3764 30.3475 21.6033 30.4294 21.8397 30.4616C21.9368 30.4754 22.0358 30.4567 22.1213 30.4084C22.2067 30.3601 22.2739 30.2849 22.3125 30.1945C22.3858 30.0075 22.3591 29.5267 22.7853 29.313C23.2115 29.0994 24.1637 28.9591 23.9507 28.8656C23.4499 28.8066 22.9425 28.8803 22.479 29.0793C22.2393 29.2463 22.126 28.2446 22.3591 27.9575C22.5922 27.6703 23.1449 26.8891 23.4512 26.5285C23.7575 26.1679 23.5711 25.4333 23.4978 25.5068C23.4246 25.5802 21.6266 27.3164 21.5534 27.3632C21.4113 26.828 21.364 26.272 21.4135 25.7205C21.5067 25.46 21.7198 24.6253 22.0062 23.9108C22.2815 23.2893 22.4977 22.6432 22.6521 21.981C22.5589 22.0745 20.8741 24.7188 20.8741 24.7188C20.7825 24.3505 20.7825 23.9653 20.8741 23.597C21.0406 23.2631 23.2714 20.0512 21.3935 20.4785C21.0206 20.5653 20.5878 21.7139 20.681 22.1947C20.7742 22.6755 20.5412 22.976 20.3547 23.43C20.1683 23.8841 19.6821 24.2915 19.8486 24.4784Z" fill="#E7E8E8"/>
<path d="M20.9738 34.2479L20.7541 33.2129C20.7541 33.2129 14.8674 33.2797 13.5422 33.2797C12.2171 33.2797 8.21492 33.3464 8.21492 33.3464C8.21492 33.3464 5.61119 33.7872 5.23828 33.7404V34.2746C5.23828 34.2746 11.8508 34.5618 13.5489 34.495C15.247 34.4282 20.9738 34.2479 20.9738 34.2479Z" fill="#1A1A1A"/>
</svg>
