<svg width="33" height="92" viewBox="0 0 33 92" fill="none" xmlns="http://www.w3.org/2000/svg">
<path d="M18.4483 12.0581C18.2019 11.811 17.6292 12.1716 17.5227 12.2384C17.4161 12.3052 13.5272 12.3119 12.5017 12.7726C12.3078 12.9513 12.171 13.1837 12.1088 13.4404C12.0755 13.801 11.969 14.1081 12.0755 14.1081C12.6347 14.9228 13.0994 15.7988 13.4606 16.7191C13.6071 17.2533 15.5982 24.5052 15.778 25.1463C16.1412 28.047 16.2593 30.9733 16.1309 33.894C15.9178 36.5049 15.5982 38.4281 15.7047 38.4281C15.8113 38.4281 17.4161 38.6818 17.5626 38.6818H18.8945C18.8945 38.6818 18.3551 35.6435 18.3218 34.9691C18.1225 33.0592 18.0269 31.1399 18.0354 29.2196C18.1819 27.8841 18.4616 25.2865 18.6081 24.7523C18.7711 23.8264 18.8845 22.8924 18.9477 21.9544C19.021 21.133 19.0543 20.0646 19.0876 19.2032C19.1209 18.3418 18.7679 16.4921 18.7346 15.8644C18.7268 15.362 18.7987 14.8616 18.9477 14.3819C18.9906 14.1619 19.0129 13.9383 19.0143 13.7142C18.8475 13.5302 18.7044 13.3261 18.5881 13.1065C18.5548 12.993 18.7013 12.3119 18.4483 12.0581Z" fill="#F1F2F2"/>
<path d="M21.7582 5.77452C21.876 5.37969 21.8898 4.96096 21.7981 4.5592C21.7582 4.13183 21.5451 3.95153 21.4385 3.49077C21.1321 2.85927 20.6964 2.29955 20.16 1.84808C19.6605 1.34725 19.6272 1.4541 19.3742 1.4541C19.1211 1.4541 18.8082 1.10018 18.4819 0.786332C18.1546 0.480202 17.7844 0.223736 17.3831 0.025082C16.9311 -0.0400903 16.4699 0.0223436 16.0513 0.205378C15.3884 0.296197 14.7164 0.296197 14.0535 0.205378C13.6274 0.138602 13.341 0.632747 13.1279 0.779655C12.862 1.04403 12.5819 1.2937 12.2889 1.52755C11.9649 1.74314 11.6656 1.99396 11.3965 2.27544C11.1102 2.52919 11.2167 2.94321 11.0037 3.09679C10.7906 3.25038 10.7173 3.67107 10.4376 4.06505C10.2436 4.30944 10.1297 4.60797 10.1113 4.91979C10.1113 5.16686 10.1846 5.66768 10.1846 6.13512V7.32374C10.1846 8.03824 10.3644 7.6042 10.4376 7.9915C10.4848 8.45294 10.5071 8.9166 10.5042 9.38045C10.5375 10.0482 10.8638 9.95472 11.0369 10.2018C11.2101 10.4489 11.4698 10.7427 11.7029 11.0632C11.9359 11.3837 11.8094 11.3503 12.0558 11.4171C12.3022 11.4839 12.4154 11.524 12.5219 11.7777C12.5771 12.1071 12.5771 12.4433 12.5219 12.7727C13.4686 13.2029 14.4457 13.5622 15.4453 13.8478C15.5776 13.8712 15.7136 13.8642 15.8428 13.8272C15.972 13.7902 16.0911 13.7241 16.1911 13.6341C16.4042 13.4204 17.9691 12.559 18.0757 12.4188C18.1588 12.2861 18.2279 12.1451 18.2821 11.9981C18.3553 11.751 18.4619 11.9647 18.7815 11.9246C19.1012 11.8846 18.9946 12.0315 19.534 11.4639C20.0734 10.8963 19.7471 11.2168 19.8869 10.7494C20.0268 10.2819 20.1 10.2819 20.0667 9.89463C20.0334 9.50732 20.3131 9.64087 20.4596 9.32035C20.6061 8.99982 20.6328 9.21351 20.5995 8.57245C20.5662 7.9314 20.8858 7.85795 21.1722 7.46397C21.445 6.93094 21.6423 6.3623 21.7582 5.77452Z" fill="#212121"/>
<path d="M15.9316 25.2996C15.6985 24.4916 14.6531 20.0644 14.2269 19.2497C13.8007 18.435 13.561 15.9109 12.4222 14.1546L12.1359 13.7273C12.1359 13.7273 11.7563 13.7273 11.7563 13.8742C11.6494 14.1961 11.4693 14.4887 11.2303 14.7289C10.9972 14.9693 10.6642 15.0161 10.4711 15.203C10.2275 15.3925 9.92706 15.4937 9.61875 15.4902C9.23918 15.5369 8.19369 15.9175 8.00058 15.9643C7.80746 16.011 6.43568 16.2047 6.43568 16.2047C5.66415 16.4195 4.90402 16.6736 4.15826 16.9659C3.53896 17.2531 3.11277 17.0127 2.82643 17.5402C2.4977 17.9763 2.2702 18.4805 2.16052 19.016C2.1139 19.5836 1.35476 25.1594 1.06842 27.156C0.782075 29.1526 0.35589 37.0122 0.302617 39.0622C0.26009 40.5085 0.358221 41.9555 0.595619 43.3827C0.735461 44.2374 0.549005 47.0487 0.688847 47.1422C0.828689 47.2356 1.11503 47.4293 1.30815 47.3826C1.50126 47.3358 5.5367 46.234 5.72315 46.1405C5.90961 46.047 4.72428 50.2339 4.63106 50.9484C4.5027 51.706 4.42262 52.471 4.39133 53.2388C4.39133 54.0001 4.34471 55.0485 4.39133 55.763C4.43794 56.4775 4.15826 59.2354 4.25149 60.237C4.34471 61.2386 4.20487 61.9064 4.2981 63.0015C4.39133 64.0967 4.49121 64.0433 4.34471 64.711C4.15257 65.6869 4.01032 66.6721 3.91853 67.6625C3.8253 68.7109 3.49234 69.1917 3.34584 70.1399C3.19934 71.0882 3.58557 71.9028 3.29923 72.5706C3.01289 73.2384 2.63331 73.0914 2.5867 74.2867C2.54009 75.482 2.82643 78.4736 2.82643 79.0012C2.82643 79.5287 3.15939 80.8575 3.206 81.8525C3.25261 82.8475 3.25261 83.0946 3.01954 83.5219C2.78647 83.9493 2.25374 84.2364 2.54009 84.8574C2.91177 85.5832 3.138 86.3749 3.206 87.1879C3.206 87.9492 2.97293 88.5235 2.91966 89.3315C2.86638 90.1395 2.5867 90.667 2.87304 90.9007C3.15939 91.1344 8.81299 90.9474 8.81299 90.9474C8.81299 90.9474 8.75972 89.1912 8.95284 89.0443C9.55781 87.9613 10.036 86.8118 10.3779 85.6187C10.5177 84.8574 10.5643 82.9476 10.8041 81.3316C10.9439 79.9065 11.1663 78.4907 11.47 77.0914C11.7563 76.2366 11.6631 76.2366 11.8029 74.3335C11.9428 72.4304 11.7563 70.0465 12.1825 68.1433C12.6087 66.2402 14.6064 56.2505 14.9527 55.3022C15.299 54.354 15.2857 53.8198 15.5254 53.8198C15.7651 53.8198 15.7185 55.5359 15.8117 56.2037C15.905 56.8715 15.905 57.8731 16.1447 59.2955C16.2966 60.2537 16.5673 61.1891 16.9505 62.08C17.2834 62.9882 17.33 62.701 17.3766 63.4156C17.4233 64.1301 17.663 66.554 17.8028 67.5557C17.9427 68.5573 18.0892 68.6976 18.1824 69.4121C18.2756 70.1266 17.9959 73.6056 18.2823 75.8426C18.7213 78.2205 19.2904 80.5723 19.987 82.8875C20.0869 83.2748 19.3744 83.2214 19.3744 84.1296C19.3744 85.0377 19.6075 85.1312 19.6075 85.986C19.6075 86.8407 19.754 87.0811 19.754 87.7021C19.754 88.3231 19.421 89.0777 19.421 89.652V90.6069C19.421 90.6069 32.433 90.5067 32.666 90.3665C32.8991 90.2263 32.666 89.8456 32.5728 89.652C32.4796 89.4583 32.4796 89.031 32.2398 88.844C32.0001 88.657 30.2954 88.9842 29.8692 88.7505C29.3674 88.5704 28.8889 88.3305 28.4441 88.036C28.0113 87.6554 27.7316 87.5552 27.5851 87.2213C27.4386 86.8874 26.6861 84.7973 26.5396 84.1296C26.3931 83.4618 26.0668 79.8425 26.0202 78.7007C25.9736 77.5588 25.8271 76.7975 25.8271 76.1765C25.8271 75.5555 25.7339 72.1299 25.594 70.6074C25.3698 68.9973 25.3051 67.3689 25.4009 65.746C25.594 64.5574 25.594 60.4039 25.7339 58.1736C25.8737 55.9433 25.7339 54.3206 25.8271 53.4993C25.9203 52.6779 26.1134 52.4976 26.1134 52.4976C26.1134 52.4976 26.2733 50.1538 26.2733 49.0586C26.242 48.434 26.3049 47.8081 26.4597 47.2023C26.5371 46.8903 26.6488 46.588 26.7927 46.3008C26.7927 46.3008 29.9025 47.4961 30.2221 46.8483C30.5448 46.0371 30.7966 45.1992 30.9746 44.3442C31.2077 43.2491 30.8814 38.3945 30.928 36.725C30.9746 35.0556 30.7815 29.7269 30.4485 28.2979C30.1166 25.8991 29.943 23.481 29.9291 21.0593C29.9448 19.9857 29.7502 18.9194 29.3564 17.9208C29.0235 17.1596 28.7438 16.4451 28.5507 16.3917C28.3576 16.3382 22.5575 15.3499 21.1457 15.0161C19.734 14.6822 19.7673 14.4885 19.4809 14.3016L18.7684 13.6338C18.7132 14.0434 18.6821 14.4559 18.6752 14.8692C18.6752 15.4434 18.7684 17.9208 18.8616 18.4884C18.8708 20.1585 18.793 21.828 18.6286 23.49C18.5287 24.4916 18.0559 27.2962 17.9626 28.0642C17.8694 28.8321 18.1491 33.8203 18.1491 34.7418C18.2605 36.0031 18.4361 37.2579 18.6752 38.5013L15.8251 38.2676C15.8251 38.2676 16.3445 33.2193 16.3445 31.7903C16.3479 29.62 16.21 27.4518 15.9316 25.2996Z" fill="#F92525"/>
<path d="M5.6315 46.7215L5.98443 45.2725C5.98443 45.2725 2.30193 45.6531 0.763672 46.5813C0.890195 47.5562 0.823604 47.4494 1.0367 47.8701C1.17654 48.1572 5.13207 47.002 5.6315 46.7215Z" fill="white"/>
<path d="M30.3423 47.2028C30.3577 46.9775 30.3933 46.754 30.4489 46.5351C29.743 45.5602 26.9395 45.4199 26.9395 45.4199C26.9395 45.4199 26.5133 46.4883 26.6532 46.6686C26.793 46.8489 30.3423 47.4566 30.3423 47.2028Z" fill="white"/>
<path d="M3.09988 50.9543C3.45948 51.0211 3.41952 51.3817 3.84571 51.3483C4.27189 51.3149 4.70474 51.0211 4.84458 51.168C5.01452 51.3141 5.22719 51.4008 5.45056 51.4151C5.63036 51.4151 6.05654 52.2031 6.62923 52.0829C7.20191 51.9627 7.05541 51.0478 7.08871 50.5871C7.19364 49.9383 7.22935 49.2802 7.19525 48.6238C6.97002 48.0193 6.69609 47.4342 6.37618 46.8743C6.14723 46.4552 5.86026 46.0708 5.52381 45.7324C4.11946 45.919 2.76343 46.3722 1.52833 47.0679C1.462 47.5553 1.49829 48.0512 1.63487 48.5237C1.88126 49.0245 1.84797 49.5587 2.30079 50.0929C2.75361 50.6271 2.74695 50.8809 3.09988 50.9543Z" fill="#212121"/>
<path d="M26.4257 52.3439C26.8519 52.2037 27.0916 52.2371 27.4978 52.0968C27.904 51.9566 27.884 51.7763 28.2103 51.7362C28.4403 51.7436 28.6687 51.6955 28.8762 51.596C29.1626 51.4558 29.056 51.4157 29.3424 51.2421C29.6287 51.0685 29.7353 49.9533 30.0083 49.379C30.2807 48.8885 30.4271 48.3378 30.4345 47.7764C30.4088 47.4624 30.353 47.1515 30.268 46.8482C29.2405 46.3885 28.1115 46.2044 26.9917 46.314C26.8183 46.4103 26.6686 46.5442 26.5534 46.706C26.4382 46.8677 26.3604 47.0532 26.3258 47.2489C26.127 48.9531 26.0358 50.6682 26.0528 52.384C26.0927 52.5376 25.9995 52.4908 26.4257 52.3439Z" fill="#212121"/>
<path d="M18.5213 19.9431C18.6061 19.0777 18.6461 18.2084 18.6412 17.3388C18.6412 17.0784 18.7078 16.2237 18.7078 16.2237L18.6412 16.5108C18.6412 16.5108 18.568 16.631 18.3748 16.5575C18.1817 16.4841 18.235 16.3639 18.0952 16.1502C17.8614 15.6991 17.5655 15.2833 17.2162 14.9148C16.8566 14.6678 16.6435 14 16.1241 14C15.6046 14 15.3849 14.1002 15.1984 14.2871C15.012 14.4741 13.7268 16.6711 13.6535 16.6711C13.5803 16.6711 13.5137 16.5041 13.5137 16.5041C13.7467 17.1719 15.7911 24.5774 15.7911 24.5774C15.9283 24.4221 16.0406 24.2464 16.1241 24.0565C16.2639 23.7226 17.7622 21.2452 17.8355 21.5057C17.9087 21.7661 18.235 25.7192 18.2084 25.2451C18.2293 24.7256 18.2849 24.208 18.3748 23.6959C18.4481 23.0616 18.4015 20.918 18.5213 19.9431Z" fill="#E7E8E8"/>
<path d="M16.9507 14.775C16.7576 14.3944 16.6443 14.0338 15.5256 14.1072C15.2393 14.1072 14.8597 14.7016 14.7665 15.1022C14.6975 15.2444 14.6661 15.4021 14.6754 15.5599C14.6848 15.7178 14.7345 15.8706 14.8197 16.0037C14.9884 16.8405 15.0444 17.6962 14.9862 18.5479C14.9975 19.4411 15.0598 20.3329 15.1727 21.2189C15.1727 21.2189 15.1727 21.7198 15.1727 22.2206V22.7214C15.1727 22.7214 15.7121 25.0385 15.7853 25.3925C15.8586 25.7464 16.0983 28.1436 16.1183 28.6177C16.1383 29.0919 16.1915 32.9315 16.1915 33.2921C16.1915 33.6527 15.812 36.9381 15.812 37.2185C15.812 37.499 15.7387 38.2002 15.9052 38.2669C16.0717 38.3337 16.1449 38.1734 16.4779 37.913C16.8108 37.6526 17.9029 36.4105 18.116 36.1768C18.3291 35.9431 17.9029 27.8164 17.9962 27.1286C18.1127 26.0957 18.1461 25.0551 18.096 24.0169C18.0228 23.4225 17.237 18.6147 17.0705 17.8C16.9612 17.2277 16.9055 16.6465 16.9041 16.0638C16.8841 15.6297 17.1171 15.1556 16.9507 14.775Z" fill="#212121"/>
<path d="M9.78475 15.7773C9.50199 15.8802 9.2656 16.0817 9.11883 16.3449C8.92572 16.7523 9.25868 18.1813 9.25868 18.1813L10.7037 19.657C10.3528 19.7482 9.9971 19.8195 9.63825 19.8707C9.565 19.8707 9.30529 20.0644 9.27865 20.1779C9.25202 20.2914 9.65822 22.1345 9.87798 22.9892C10.0977 23.8439 11.2098 27.5634 11.4629 28.1777C11.7159 28.7921 13.7003 32.6317 13.8135 32.9923C13.9267 33.3529 14.1265 33.847 14.1731 34.034C14.5853 34.6536 15.0299 35.251 15.5049 35.8236C15.3851 35.5832 14.4595 34.2009 14.4595 34.2009C14.2147 33.5129 13.9209 32.8435 13.5805 32.1976C13.1742 31.5299 12.1554 29.2194 11.5361 27.7904C10.6844 25.2934 10.0036 22.7411 9.49841 20.1512C9.61161 20.1512 11.0633 19.6504 11.0633 19.6504L9.42515 18.1946C9.42515 18.1946 9.25868 17.2197 9.23204 16.6521C9.24204 16.4711 9.29808 16.2957 9.39483 16.1426C9.49158 15.9894 9.62581 15.8637 9.78475 15.7773Z" fill="#1A1A1A"/>
<path d="M22.8115 16.0974L22.7715 16.0039L22.8115 16.0974Z" fill="#1A1A1A"/>
<path d="M20.9063 27.9505C20.4801 29.4529 20.4069 32.8118 19.8409 33.8802C19.2748 34.9486 18.6289 35.8835 18.6289 35.8835C18.6289 35.8835 19.8409 34.3142 20.054 33.9203C20.2671 33.5263 20.8331 29.0256 21.0528 28.2777C21.2726 27.5298 22.7975 22.4882 22.944 21.8137C23.0905 21.1393 23.4834 19.5967 23.6099 19.3096C23.7365 19.0225 21.8253 18.2011 21.8253 18.2011C21.8253 18.2011 22.7509 17.5333 23.004 17.2996C23.257 17.0659 22.9107 16.3447 22.8042 16.0977C22.9041 16.3314 23.1438 17.0058 22.7642 17.2996C22.3768 17.6167 22.0056 17.9532 21.6522 18.308L23.4368 19.343C23.4368 19.343 22.5844 22.0608 22.2781 23.0224C21.9718 23.9839 21.3325 26.4547 20.9063 27.9505Z" fill="#1A1A1A"/>
<path d="M5.68393 22.9153C5.39759 22.4345 4.96474 20.7784 4.53856 21.2058C4.11237 21.6332 6.2433 24.2976 6.5363 24.6314C6.8293 24.9653 7.06237 27.0621 7.06237 27.3025C7.06237 27.5429 6.72941 29.6864 6.6828 30.2073C6.55263 31.0892 6.31095 31.9508 5.96361 32.7715C5.67727 33.299 5.86373 35.536 5.81711 36.2505C5.7705 36.965 5.86373 39.1086 5.86373 39.3957C5.86373 39.6828 6.2433 41.439 6.29657 41.8664C6.34984 42.2938 6.19668 44.8714 6.19668 44.8714C6.32819 44.1779 6.42376 43.478 6.48303 42.7746C6.51535 42.1711 6.49977 41.566 6.43641 40.9649C6.34318 40.5376 6.10346 39.202 6.01023 38.7279C5.917 38.2538 6.10346 36.6312 6.05684 36.2038C6.11896 35.4442 6.13453 34.6815 6.10346 33.92C5.96361 33.486 6.72276 31.7765 6.72276 31.2957C6.72276 30.8149 7.10233 29.9201 7.28878 28.6781C7.47524 27.436 6.95583 24.1573 6.81598 23.2959C6.67614 22.4345 6.48303 18.3945 6.48303 18.3945C6.3898 19.3962 6.77603 24.3042 6.77603 24.4445C6.35662 23.9769 5.99034 23.464 5.68393 22.9153Z" fill="#1A1A1A"/>
<path d="M24.2364 40.658C24.4694 41.5595 25.1753 41.5996 25.4483 41.9935C25.7213 42.3875 26.6603 45.5661 26.6603 45.4459C26.5299 44.5227 26.3341 43.61 26.0743 42.7147C25.8013 41.9334 25.6081 38.7081 25.4883 38.7081C24.9063 38.5077 24.3427 38.2575 23.8035 37.9602C23.4905 37.7666 23.4506 36.0771 23.4506 36.0771C23.0976 37.4127 23.8435 38.194 23.8035 38.5078C23.8682 39.2384 24.0134 39.9595 24.2364 40.658Z" fill="#1A1A1A"/>
<path d="M27.012 20.0504C27.012 20.0504 28.2306 17.5329 27.7578 17.0254C27.7578 17.0254 27.7046 17.0855 27.6779 17.1389C27.3221 17.9801 27.0348 18.8488 26.8189 19.7365C26.6258 20.4377 25.6069 23.1087 25.4072 24.2907C25.1523 25.291 25.0601 26.3259 25.1341 27.3557C25.294 28.3373 25.4871 30.1002 25.567 30.9282C25.6397 31.8412 25.653 32.758 25.6069 33.6727C25.567 34.454 25.4471 36.8914 25.4471 36.8914C25.4471 36.8914 25.9199 32.6511 25.88 31.5492C25.84 30.4474 25.1341 27.5093 25.4072 25.8198C25.8117 23.8626 26.3479 21.935 27.012 20.0504Z" fill="#1A1A1A"/>
<path d="M15.618 38.2598C15.5204 39.1468 15.4692 40.0384 15.4648 40.9308H19.3604L18.8011 38.4734C18.8011 38.4734 17.3827 38.3332 15.618 38.2598Z" fill="#1A1A1A"/>
<path d="M15.3383 38.1543C15.3383 38.1543 15.3383 39.1893 15.2715 40.3245C15.3327 39.6028 15.355 38.8784 15.3383 38.1543Z" fill="#1A1A1A"/>
<path d="M7.22772 46.234C6.93792 46.1282 6.65728 45.9986 6.38867 45.8467C6.64555 46.0206 6.92894 46.1514 7.22772 46.234Z" fill="#1A1A1A"/>
<path d="M13.3683 46.2004C14.4405 45.6528 14.9332 44.0635 15.0997 42.8616C15.1796 42.314 15.2329 41.279 15.2728 40.3174C15.2728 40.5912 15.2196 40.8583 15.173 41.0987C15.0302 42.4411 14.6773 43.7527 14.1275 44.9851C13.4149 46.4341 11.7568 46.5743 9.46608 46.5543C8.69691 46.5625 7.93106 46.4521 7.19531 46.2271C9.1898 46.9596 11.3802 46.9502 13.3683 46.2004Z" fill="#1A1A1A"/>
<path d="M26.1938 47.1285C25.6582 46.8558 25.0789 46.6795 24.4824 46.6076C23.7433 46.5141 22.4381 46.6544 21.3926 45.9399C20.3471 45.2254 18.8555 38.748 18.8555 38.748C19.0819 41.586 20.8532 45.7529 21.326 46.227C21.7988 46.7011 23.9364 46.848 24.6556 46.8948C25.3748 46.9415 26.307 47.2487 26.1938 47.1285Z" fill="#1A1A1A"/>
<path d="M9.28574 39.2017C9.41183 39.1591 9.52779 39.0909 9.62634 39.0012C9.72489 38.9116 9.8039 38.8025 9.85843 38.6808L9.95165 36.0098C9.95165 36.0098 9.6187 38.3937 9.19251 38.6808C8.76633 38.968 6.57547 39.1082 6.57547 39.1082C5.24364 39.5823 6.10267 40.7709 6.10267 41.1115C6.20229 42.1866 6.3781 43.2533 6.62874 44.3034C6.8152 44.8777 7.52773 44.0697 7.62096 43.7358C7.70577 43.0187 7.65837 42.2921 7.48111 41.5923C7.288 40.7776 7.72084 40.5439 8.04714 39.9229C8.37344 39.3018 8.85955 39.3753 9.28574 39.2017Z" fill="#1A1A1A"/>
<path d="M6.19531 36.6314C6.90784 36.4912 9.95107 36.0104 9.95107 36.0104C9.28515 35.9169 6.19531 36.6314 6.19531 36.6314Z" fill="#1A1A1A"/>
<path d="M25.4804 36.6314L23.6758 36.0371C24.243 36.3277 24.8518 36.5282 25.4804 36.6314Z" fill="#1A1A1A"/>
</svg>
