<svg width="38" height="91" viewBox="0 0 38 91" fill="none" xmlns="http://www.w3.org/2000/svg">
<path d="M29.9939 19.5624C29.9939 19.2285 29.5144 17.5591 29.0882 17.2786C28.7676 17.0019 28.4169 16.7622 28.0427 16.5641C27.5233 16.3237 24.3403 14.9414 23.5345 14.7545C23.2443 14.7141 22.9726 14.5886 22.7533 14.3938C22.5341 14.1989 22.3773 13.9434 22.3026 13.6593C22.1095 13.1318 22.2027 12.7512 21.8697 12.6109C21.5368 12.4707 19.1195 12.7512 18.5402 12.7044C17.9608 12.6577 16.6157 12.5642 16.0363 13.1118C16.0363 13.1118 15.7899 13.9465 15.69 14.4473C15.6561 14.7202 15.5579 14.9811 15.4037 15.2085C15.4037 15.2085 11.042 17.3587 10.4759 17.6125C10.0093 17.8094 9.62394 18.1605 9.38384 18.6075C9.00358 19.0865 8.77202 19.667 8.71793 20.2769C8.71793 20.8511 8.38497 21.4187 8.38497 22.18C8.38497 22.9412 8.0054 24.1833 8.0054 24.8978C7.95167 25.5691 8.00108 26.2448 8.1519 26.9011C8.36113 27.6413 8.73189 28.3256 9.23734 28.9044C9.76341 29.3785 10.6158 29.5721 10.8555 29.906C11.0952 30.2399 10.8555 30.8075 11.1885 31.6155C11.4457 32.0623 11.5618 32.5769 11.5214 33.0912C11.5214 33.8057 10.9954 33.7123 10.9021 35.0478C10.8089 36.3833 10.5226 36.9977 10.5692 37.6187C10.6158 38.2397 10.2562 37.4651 10.2562 38.6604C10.2562 39.8557 10.1163 40.3699 10.163 40.6637C10.2096 40.9575 18.9464 39.9024 19.852 39.9959C20.7576 40.0894 26.358 40.9508 27.2104 40.8573C28.0627 40.7638 28.0161 41.091 28.0627 40.7572C28.1152 39.6154 28.0996 38.4715 28.0161 37.3315C27.9229 36.6638 28.0161 35.9025 27.8763 35.3282C27.7364 34.754 27.2104 32.5704 27.5433 31.6622C27.8763 30.7541 27.5433 30.5204 28.0627 30.4269C28.5821 30.3334 29.1082 29.3317 29.4878 28.9044C29.8321 28.4277 30.085 27.8911 30.2336 27.3218C30.4733 26.7074 30.2336 25.846 30.187 25.1849C30.0524 24.5234 29.9568 23.8545 29.9006 23.1816C29.8688 22.5455 29.9023 21.9078 30.0005 21.2785C30.095 20.7102 30.0927 20.1299 29.9939 19.5624Z" fill="#F1F2F2"/>
<path d="M14.3312 7.75673C14.3609 8.18998 14.4323 8.61934 14.5443 9.03883C14.6908 9.25252 14.6509 9.39942 14.8306 9.35936C15.0104 9.31929 15.1503 9.18574 15.2568 9.21913C15.3634 9.25252 15.4699 9.67988 15.5432 9.93363C15.6164 10.1874 15.6164 10.7884 15.723 11.0421C15.8295 11.2959 15.7962 11.9703 15.9361 12.2575C16.0363 12.5305 16.0727 12.8229 16.0426 13.1122V13.3526C16.8395 13.7274 17.6604 14.0487 18.4998 14.3142C18.7898 14.2902 19.0759 14.2319 19.3522 14.1405C20.2054 13.7924 21.039 13.3978 21.8494 12.9586C21.7372 12.4547 21.688 11.9388 21.7029 11.4227C21.8355 10.9864 21.9313 10.5397 21.9892 10.0872C22.0292 9.84015 22.0958 9.41946 22.3089 9.33932C22.3929 9.30256 22.4836 9.28358 22.5752 9.28358C22.6669 9.28358 22.7576 9.30256 22.8416 9.33932C23.0214 9.4061 23.5075 8.55136 23.7006 8.23084C23.8937 7.91031 23.7006 7.56307 23.7006 7.33603C23.7006 7.10899 23.341 7.08896 23.4143 6.94205C23.4875 6.79515 23.341 5.23258 23.4143 4.79853C23.4875 4.36449 23.4809 3.87034 23.2678 3.65666C23.0547 3.44297 22.8749 3.1959 22.7683 3.1959C22.6618 3.1959 22.5219 2.58824 22.4887 2.3011C22.4831 2.17218 22.4339 2.04902 22.3491 1.95191C22.2644 1.8548 22.1492 1.78954 22.0225 1.76689C21.7502 1.6462 21.4894 1.50092 21.2434 1.33284C21.0636 1.26607 20.7773 0.938861 20.4243 0.872085C20.0714 0.805308 19.9249 0.538203 19.5786 0.751887C19.4617 0.810127 19.3329 0.840434 19.2024 0.840434C19.0718 0.840434 18.943 0.810127 18.8261 0.751887C18.5429 0.654322 18.2379 0.639558 17.9467 0.709321C17.6554 0.779083 17.39 0.930492 17.1813 1.14587C17.0415 1.46639 16.8284 1.32616 16.289 1.90044C15.7496 2.47472 15.117 2.46804 15.0837 3.28939C15.0504 4.11074 14.7974 4.11074 14.6509 5.00554C14.5044 5.90034 14.3712 6.14742 14.511 6.46794C14.5832 6.73878 14.5716 7.02523 14.4777 7.28929C14.4106 7.34447 14.361 7.41809 14.335 7.50111C14.309 7.58413 14.3076 7.67297 14.3312 7.75673Z" fill="#212121"/>
<path d="M15.411 15.2285C15.411 15.2285 12.8406 16.4305 12.6608 16.4705C12.481 16.5106 11.3289 17.3253 10.9893 17.3987C10.8024 17.4226 10.6253 17.4964 10.4766 17.6124C10.4766 17.6124 12.8406 22.3602 13.0137 22.9545C13.0934 23.3856 13.2918 23.7858 13.5864 24.1098C13.7595 24.2166 13.9393 24.2901 14.0459 24.1832C14.1524 24.0764 14.8316 23.5155 15.2245 23.5755C15.8616 23.6898 16.491 23.8437 17.1091 24.0363C17.5566 24.2902 18.0358 24.4833 18.5341 24.6106H19.493C19.6728 24.6106 21.1645 24.6106 21.4908 24.5438C21.8171 24.477 23.9613 24.3769 24.281 24.27C24.6006 24.1632 24.6672 23.7892 24.8803 23.3619C25.2159 22.8599 25.4909 22.3196 25.6993 21.7526C25.7726 21.2918 25.8392 20.7509 25.9124 20.3636C25.9681 19.8881 26.0753 19.4202 26.2321 18.968C26.4114 18.4789 26.6776 18.0264 27.0179 17.6325C27.3753 17.2855 27.6966 16.9029 27.9768 16.4906C28.05 16.3837 24.201 14.9547 23.7016 14.7744C23.2022 14.5941 22.0302 16.7377 21.9569 16.958C21.8837 17.1784 19.6795 20.9646 19.5396 21.2384C19.3998 21.5122 19.0735 21.9061 19.0735 21.9061L18.8937 22.6206C18.8937 22.6206 17.4354 19.7626 17.3688 19.5489C17.3022 19.3353 15.9038 17.1183 15.9437 16.8779C15.8494 16.3045 15.6698 15.7485 15.411 15.2285Z" fill="#F92525"/>
<path d="M18.0732 14.4679C17.8335 14.1541 17.647 15.0155 17.4805 15.3761C17.294 15.7253 17.1423 16.0921 17.0277 16.4712C16.9655 16.7067 16.869 16.9317 16.7414 17.139C16.6015 17.4729 16.1953 17.2859 16.1953 17.2859V17.6665C16.1953 17.6665 17.101 19.0956 17.2674 19.3092C17.486 19.6694 17.6838 20.0417 17.8601 20.4244C17.8601 20.4244 18.1931 17.9069 18.2397 17.4996C18.2863 17.0923 18.0466 16.0238 18.0732 15.6632C18.0998 15.3027 18.2463 14.6883 18.0732 14.4679Z" fill="#E7E8E8"/>
<path d="M19.5782 20.5183C19.6248 20.5651 20.6703 18.8022 20.7902 18.6619C21.08 18.3864 21.3209 18.0635 21.5027 17.707C21.7424 17.1862 22.4749 15.8974 22.4749 15.8974C22.4749 15.8974 21.9755 16.4182 21.809 16.5652C21.6426 16.7121 21.3562 17.4466 21.1431 17.5201C20.93 17.5935 20.8834 17.3531 20.6903 16.9458C20.4972 16.5384 20.384 16.6854 20.1709 16.278C19.9784 15.7624 19.7065 15.2802 19.3651 14.849C19.2819 14.7532 19.1798 14.6758 19.0651 14.6218C18.9505 14.5677 18.8259 14.5382 18.6992 14.5352C18.9123 14.7021 18.9123 15.6303 18.9123 15.9441C18.9123 16.258 19.0055 17.3197 18.9589 17.7538C19.0807 18.6923 19.288 19.6177 19.5782 20.5183Z" fill="#E7E8E8"/>
<path d="M19.5791 15.0426C19.4726 14.8957 18.4937 14.1278 17.8877 14.8089C17.7145 15.0026 17.2817 15.5768 17.4282 15.8439C17.5747 16.111 17.6013 16.3648 17.7811 16.7387C17.9192 17.0955 17.9627 17.482 17.9077 17.8606C17.9077 18.2546 17.8144 19.096 17.8344 19.4365C17.8544 19.7771 17.7612 20.2912 17.8011 20.4181C17.8239 20.5061 17.8417 20.5952 17.8544 20.6852L18.7933 22.7353C18.7933 22.7353 19.2062 21.954 19.2595 21.8271C19.3127 21.7002 19.9254 20.4916 20.0985 20.2378C20.2717 19.9841 19.6723 18.2345 19.5059 17.52C19.4312 16.9771 19.4698 16.4246 19.6191 15.8974C19.639 15.6636 19.6923 15.1829 19.5791 15.0426Z" fill="#212121"/>
<path d="M4.82221 87.4748C4.6366 87.6521 4.46307 87.8417 4.3028 88.0424C4.20957 88.1893 4.06307 88.5699 3.92323 88.6167C3.51345 88.6882 3.09441 88.6882 2.68463 88.6167C2.48557 88.5617 2.27455 88.5686 2.07952 88.6366C1.8845 88.7045 1.71466 88.8303 1.59253 88.9973C1.43486 89.2174 1.3072 89.4577 1.21296 89.7118C1.11973 89.9054 0.693546 90.0457 1.11973 90.2393C1.76348 90.4797 2.43454 90.639 3.11747 90.7134C3.6835 90.7602 7.67232 90.7602 8.38485 90.6667C9.09738 90.5732 10.6157 90.473 11.0485 90.3795L11.4813 90.2861C11.4813 90.2861 11.5746 89.2844 11.5746 88.6634C11.5051 88.029 11.6556 87.39 12.0008 86.8538C12.3585 86.3438 12.6663 85.8004 12.9197 85.2311C13.2993 84.6101 13.1994 83.3747 13.5324 82.8939C14.2606 80.9876 14.8482 79.0303 15.2904 77.0376C15.3836 76.3231 14.9108 69.138 14.9574 68.0896C15.1259 65.9783 15.4127 63.8782 15.8164 61.7993C16.0961 60.7509 17.0484 58.8945 17.1882 58.18C17.3281 57.4655 18.0473 56.1767 17.9008 55.135C17.7543 54.0933 17.5212 53.0382 17.9008 52.7511C18.2803 52.4639 18.5201 52.277 18.6599 52.6108C18.7997 52.9447 18.9929 54.0866 19.2792 54.8479C19.5655 55.6091 19.4257 55.943 19.8985 56.8044C20.337 57.682 20.7174 58.5877 21.0372 59.5155C21.3702 60.3703 21.177 60.851 21.4634 61.9929C21.7497 63.1348 22.1759 65.3718 22.702 66.8943C23.0932 67.9456 23.4179 69.0206 23.6742 70.1129C23.7197 70.7689 23.7997 71.422 23.914 72.0695C24.1004 72.6371 24.1004 74.0193 24.2469 75.0677C24.3934 76.1161 24.6265 78.4466 24.8662 79.4015C25.1657 80.4607 25.3707 81.5445 25.4789 82.6402C25.4789 83.4014 25.3856 85.5917 25.672 85.979C26.1044 86.6925 26.4403 87.4604 26.6708 88.2627C26.8071 88.7103 26.8701 89.1772 26.8573 89.645C26.8573 90.0724 26.8107 90.266 27.0504 90.3595C28.2464 90.5374 29.4514 90.6489 30.6597 90.6934C31.3256 90.6934 32.4643 90.8336 32.9371 90.8804C33.9129 90.8503 34.8832 90.7228 35.8338 90.4997C37.1124 90.266 37.685 90.266 37.685 89.9789C37.685 89.6917 37.2122 89.2176 36.8327 88.9772C36.3775 88.6516 35.8143 88.5151 35.2611 88.5966C34.502 88.6901 34.4554 88.4096 34.169 88.1692C33.8827 87.9288 33.5031 87.8354 33.2234 87.408C32.9437 86.9806 32.6041 86.6467 32.6041 86.2194C32.6041 85.792 32.6974 84.2161 32.4643 83.742C32.2312 83.2679 31.6985 83.121 31.2723 82.8338C30.8461 82.5467 30.8927 81.3581 30.9926 80.6436C31.0525 77.5695 30.8766 74.4954 30.4665 71.4485C29.9937 68.971 29.5676 64.7708 29.2346 63.7358C28.9016 62.7007 28.6619 62.7341 28.7551 61.7792C28.8603 61.1979 28.8938 60.6059 28.855 60.0163C28.8018 59.1149 28.6619 57.8728 28.7085 57.0648C28.7551 56.2568 29.0881 50.7812 29.0881 50.0667C29.0881 49.3522 29.5143 48.878 28.9949 47.7829C28.4755 46.6878 28.1425 44.3974 27.9028 43.5894C27.655 43.0679 27.5103 42.5033 27.4766 41.9266C27.4477 41.7308 27.4625 41.5309 27.5201 41.3415C27.5777 41.1521 27.6766 40.9779 27.8095 40.8315C27.996 40.5444 28.0892 40.6378 28.1425 40.0168C28.1958 39.3958 28.0426 36.8316 28.0426 36.3508C28.019 35.8702 27.9566 35.3923 27.8562 34.9218C27.7446 34.4829 27.6645 34.0366 27.6164 33.5863C27.5542 33.2088 27.523 32.8269 27.5232 32.4444C27.5698 31.9169 27.663 31.4895 27.7097 31.0621L27.7629 30.6348C27.7629 30.6348 25.0527 31.9703 24.7197 32.0103C24.3868 32.0504 23.9606 32.1105 23.2947 32.1573C22.9721 32.1367 22.6539 32.0715 22.3491 31.9636C22.2026 31.9636 16.176 31.2958 14.3581 31.3426C12.5401 31.3893 12.6467 31.1556 12.2205 31.0621C11.7943 30.9686 11.6944 29.8201 10.8887 29.9202C11.046 30.3117 11.0943 30.7387 11.0285 31.1556C10.8887 31.6765 11.2683 32.2507 11.4081 32.6781C11.5479 33.1055 11.1284 33.4861 10.9819 33.9201C10.7614 34.532 10.6334 35.1735 10.6023 35.8233C10.5593 36.3822 10.4792 36.9377 10.3626 37.486C10.3626 37.7731 9.98304 38.0135 10.0829 38.4876C10.114 39.1223 10.0984 39.7584 10.0363 40.3908C10.0363 40.8716 10.4159 41.0118 10.5091 41.2989C10.5565 41.4371 10.5574 41.587 10.5117 41.7257C10.466 41.8644 10.3762 41.9842 10.2561 42.0669C9.66261 42.922 9.18351 43.8514 8.83101 44.8314C8.83101 45.212 8.73778 45.9733 8.7844 46.4474C8.83101 46.9215 8.73778 48.4974 8.73778 49.065C8.73778 49.6326 8.64456 51.4022 8.64456 51.8763C8.64456 52.3504 8.49805 52.2569 8.45144 53.0182C8.40483 53.7794 8.25833 54.0866 8.43146 54.4205C8.68653 55.755 8.8291 57.1086 8.85765 58.4671C8.85765 59.1349 8.95753 59.5623 8.91092 59.9429C8.86431 60.3235 8.7178 61.5188 8.7178 62.0397C8.7178 62.5605 8.52469 63.8493 8.47808 64.2767C8.49408 65.0413 8.55858 65.8041 8.67119 66.5604C8.71781 66.941 8.38485 67.2749 8.19839 67.8025C8.01194 68.33 8.19839 69.3717 7.91205 70.2799C7.56994 71.2301 7.3615 72.2235 7.29275 73.2314C7.33936 73.8991 7.15291 74.6604 7.15291 75.2814C7.15291 75.9024 6.58022 78.4199 6.62684 78.894C6.67345 79.3681 6.62684 79.7087 6.81995 79.9891C7.01307 80.2696 7.33936 80.4232 7.33936 80.944C7.33936 81.4649 7.05302 81.5651 6.77334 82.1794C6.49365 82.7938 6.24727 82.4198 6.15404 83.2745C6.06081 84.1293 5.91431 85.0374 5.91431 85.3713C5.91431 85.7052 5.44151 85.9923 5.48812 86.4197C5.53474 86.8471 5.34828 86.8938 5.30167 87.0407C5.25505 87.1876 4.96871 87.3279 4.82221 87.4748ZM18.0739 39.329C18.4536 38.7131 18.7789 38.0652 19.0461 37.3925H19.166C19.5655 37.9668 20.6843 39.7965 20.4978 39.7965C20.3114 39.7965 19.6454 39.6295 19.0461 39.6095C18.5323 39.6606 18.0341 39.815 17.5811 40.0636C17.7299 39.8086 17.8945 39.5633 18.0739 39.329Z" fill="#F92525"/>
<path d="M28.7343 23.275C28.3865 23.512 27.9867 23.6609 27.569 23.7091C27.4025 23.7091 26.5035 23.9895 26.124 24.063C25.6095 24.2272 25.0723 24.3083 24.5324 24.3034C23.8199 24.2566 18.6657 24.5839 18.406 24.7041C18.1463 24.8242 17.7401 25.7324 17.0742 26.3735C16.4083 27.0145 13.678 29.8725 13.678 29.8725C13.5655 29.915 13.4448 29.931 13.3251 29.9193C13.0601 29.8423 12.7911 29.7799 12.5193 29.7323C12.2996 29.7323 11.041 29.7791 11.041 29.7791C11.2836 30.0987 11.506 30.4332 11.7069 30.7807C11.9228 31.0013 12.1891 31.1658 12.4826 31.26C12.7762 31.3543 13.0882 31.3754 13.3917 31.3216C14.1708 31.2548 22.3682 31.9426 22.508 31.9893C22.8391 32.034 23.1729 32.054 23.5069 32.0494C23.7299 32.0092 23.9413 31.9203 24.1262 31.789C24.0664 31.6935 23.9948 31.606 23.9131 31.5286C23.8399 31.4818 23.3671 31.2415 22.9409 31.0077C22.4398 30.7085 21.9057 30.4687 21.3494 30.2932C20.7567 30.1263 20.4437 29.532 20.1108 29.2649C19.7977 28.9665 19.5124 28.6402 19.2584 28.2899C19.4756 28.2045 19.698 28.1331 19.9243 28.0763C21.0168 27.7629 22.1292 27.5242 23.2539 27.3617C23.5588 27.416 23.8546 27.5127 24.1329 27.6489C24.6491 27.7912 25.1562 27.9651 25.6512 28.1697C26.0528 28.3846 26.4715 28.5655 26.9031 28.7106C27.2826 28.8308 28.2349 28.8976 28.4946 28.9711C28.8667 29.0781 29.2613 29.0781 29.6333 28.9711C29.8464 28.8242 29.7998 28.7307 29.8464 28.4903C29.893 28.2499 29.9863 28.2766 30.0861 28.0629C30.1639 27.8817 30.2025 27.6859 30.1994 27.4886C30.2103 27.3137 30.2781 27.1471 30.3925 27.0145C30.5123 26.8275 30.4857 26.8476 30.4391 26.5604C30.3925 26.2733 30.2726 26.3 30.3925 25.9928C30.5123 25.6857 30.4391 25.7324 30.3192 25.5187C30.1994 25.305 30.1328 25.0179 29.9663 24.9444C29.7998 24.871 28.6345 24.2032 28.6345 24.2032L29.034 23.8026C29.4935 23.3685 28.9674 23.0413 28.7343 23.275Z" fill="#212121"/>
<path d="M25.1266 30.3C25.1266 30.921 24.6272 31.5888 24.9602 31.4686C25.2931 31.3484 25.7925 30.6806 26.1455 30.3935C26.4984 30.1064 26.858 29.8726 26.9979 29.9461C27.1377 30.0195 27.1643 30.4469 27.3108 30.4469C27.7011 30.4171 28.0804 30.3032 28.4229 30.113C28.7222 29.8104 28.9858 29.4743 29.2087 29.1114C28.6027 29.0589 28.0002 28.972 27.4041 28.851C27.0511 28.7107 25.2931 28.043 25.0534 28.043C24.8137 28.043 24.9335 28.1164 24.9335 28.1164C24.9335 28.1164 25.5994 29.0914 25.8591 29.3785C26.1188 29.6656 25.1 29.679 25.1266 30.3Z" fill="#E7E8E8"/>
<path d="M13.7984 24.2578C13.7984 24.2578 13.7588 24.2578 13.7324 24.2578C13.7059 24.2578 13.8249 24.2644 13.7984 24.2578Z" fill="#E7E8E8"/>
<path d="M10.0027 23.7102C9.66978 23.8037 9.07712 23.8972 9.02384 24.1109C8.97057 24.3246 8.69754 24.6852 9.12373 24.4715C9.71656 24.1212 10.3436 23.8325 10.9949 23.6101C11.4012 23.5633 11.0948 23.7303 10.9017 23.8972C10.3508 24.366 9.87079 24.9126 9.47666 25.5199C9.3568 25.9205 9.26357 26.6818 9.47666 26.4948C9.68976 26.3078 10.4955 25.2795 10.8951 24.9189C11.2946 24.5583 11.5876 24.1109 11.9206 23.9907C12.2535 23.8705 12.42 24.0375 12.3001 24.1844C11.8287 24.6011 11.3839 25.0472 10.9683 25.5199C10.682 25.9473 10.3756 26.3279 10.6354 26.1409C10.8951 25.9539 12.3468 24.565 12.5132 24.4047C12.6797 24.2445 12.6531 24.1176 12.8462 24.1176C13.0393 24.1176 13.4122 24.2378 13.319 24.4248C13.2258 24.6117 12.42 24.9723 12.107 25.5933C11.794 26.2144 11.541 26.5215 11.7541 26.428C11.9672 26.3346 12.1337 26.1142 12.4866 25.6868C12.7381 25.3174 13.0163 24.967 13.319 24.6384C13.572 24.4181 13.6786 24.2979 13.7518 24.2511C13.6965 24.2582 13.6404 24.2542 13.5866 24.2393C13.5329 24.2244 13.4826 24.1989 13.4388 24.1643C13.299 23.9907 12.4666 22.3547 12.1803 22.0475C11.8939 21.7403 11.3013 21.0192 10.8484 20.9524C10.3956 20.8856 9.63648 20.6652 9.9428 20.9524C10.2204 21.2265 10.5545 21.4362 10.9217 21.5667C11.2614 21.6636 11.5724 21.8425 11.8273 22.0876C11.8939 22.2278 11.2813 22.1343 10.8018 22.0141C10.3224 21.8939 9.66312 21.7537 9.68976 21.9006C10.1814 22.1489 10.7098 22.3158 11.2547 22.3948C11.561 22.4482 12.087 22.3948 12.107 22.515C12.1293 22.7142 12.1135 22.9159 12.0604 23.1093C11.9938 23.1827 10.329 23.6101 10.0027 23.7102Z" fill="#E7E8E8"/>
<path d="M26.3198 21.2988C26.0743 21.564 25.9139 21.8966 25.8591 22.2537C25.8056 22.6143 26.046 22.0334 26.3198 21.2988Z" fill="#E7E8E8"/>
<path d="M26.357 19.7755C26.1356 20.4138 25.962 21.0678 25.8376 21.732C25.6445 22.7537 25.3848 23.9423 25.3848 23.9423C25.3848 23.9423 25.5912 23.7754 25.8576 23.535C26.1239 23.2946 26.3703 23.0542 26.5967 22.8005C26.9882 22.4224 27.4592 22.1372 27.9752 21.9658C28.1883 21.8522 28.1416 21.5384 27.9752 21.6118C27.471 21.7891 27.015 22.0817 26.6433 22.4666C26.2638 22.9407 26.0307 22.54 26.2638 22.1794C26.6532 21.6828 27.1003 21.2344 27.5956 20.8439C27.8408 20.6459 28.064 20.422 28.2615 20.1761C28.0575 20.0764 27.824 20.0553 27.6055 20.1168C27.3869 20.1784 27.1986 20.3183 27.0762 20.51C26.7965 20.8306 26.5435 21.0576 26.3437 21.2913C26.0707 22.0392 25.8309 22.6268 25.8842 22.2462C25.9389 21.889 26.0989 21.5565 26.3437 21.2913C26.6213 20.6045 26.8439 19.8967 27.0096 19.1745C26.903 18.9408 26.5967 18.9675 26.357 19.7755Z" fill="#E7E8E8"/>
<path d="M12.168 42.1866C11.6642 41.9464 11.1848 41.6579 10.7363 41.3252C11.1736 41.6744 11.655 41.964 12.168 42.1866Z" fill="#1A1A1A"/>
<path d="M17.0024 41.5058C17.3953 41.2521 17.5818 40.0635 17.5818 40.0635L16.8626 41.1853C16.1367 42.3005 14.1989 42.3272 13.1934 42.394C12.851 42.4047 12.5109 42.3337 12.2012 42.187C12.7051 42.4423 13.2435 42.6222 13.7994 42.7212C15.331 42.9682 16.6162 41.7529 17.0024 41.5058Z" fill="#1A1A1A"/>
<path d="M26.7236 41.5384C27.1903 41.2582 27.6123 40.9093 27.9755 40.5034L27.3096 40.9307C26.0794 41.5412 24.7559 41.9407 23.3941 42.1127C21.4696 42.4666 20.6904 40.1094 20.6904 40.1094C20.6505 40.3231 21.8292 42.2863 22.5017 42.4666C23.1743 42.6469 26.2375 41.7521 26.7236 41.5384Z" fill="#1A1A1A"/>
<path d="M19.0723 35.9891V36.7236C19.2558 35.1927 19.3338 33.651 19.306 32.1094C19.306 32.1094 19.0723 35.2746 19.0723 35.9891Z" fill="#1A1A1A"/>
</svg>
