<svg width="5" height="29" viewBox="0 0 5 29" fill="none" xmlns="http://www.w3.org/2000/svg">
<path d="M2.20655 20.4954C1.91314 21.8606 1.7085 23.2436 1.59391 24.6355C1.44741 25.8241 0.974609 28.4484 0.974609 28.4484C0.974609 28.4484 1.16107 28.4484 1.21434 28.0611C1.26761 27.6738 1.73375 26.2047 1.92687 25.4902C1.99319 24.7309 2.01765 23.9685 2.00012 23.2065C2.18476 21.9981 2.45401 20.8043 2.80587 19.6339C3.13883 18.8727 3.71152 17.4437 3.94458 16.7292C4.2688 15.9751 4.46247 15.1712 4.51727 14.3519C4.55059 13.7952 4.53499 13.2365 4.47066 12.6825C4.39918 11.8028 4.2724 10.9286 4.09109 10.0649C3.75701 8.8343 3.53414 7.57605 3.42517 6.30538C3.33194 4.87636 3.42517 -0.191964 3.18544 0.682807C2.71265 2.4457 3.80474 9.82449 3.89797 10.4455C3.9912 11.0665 3.9912 12.1617 3.80474 11.968C3.61829 11.7744 2.75926 10.9664 2.66603 11.347C2.5728 11.7276 3.47179 13.3035 3.65824 14.0648C3.78081 14.8376 3.80542 15.6229 3.73149 16.402C3.73149 17.2567 2.49289 19.5872 2.20655 20.4954Z" fill="#1A1A1A"/>
</svg>
