<svg width="37" height="89" viewBox="0 0 37 89" fill="none" xmlns="http://www.w3.org/2000/svg">
<path d="M12.8764 12.4083C12.2549 12.8873 11.6817 13.4263 11.1651 14.0176C10.6659 14.6385 10.0646 15.1692 9.38706 15.5869C8.78108 15.8339 8.05523 15.5869 7.53582 16.0142C7.01641 16.4416 6.82329 16.3014 6.67679 16.909C6.42027 17.6844 6.01031 18.3998 5.47149 19.0125C4.75895 20.0235 4.10312 21.0735 3.50704 22.1576C2.87336 23.2059 2.30405 24.2919 1.8023 25.4097C1.69576 25.9038 1.40941 25.9773 1.26291 26.3378C1.11641 26.6984 0.890002 27.226 0.623637 27.9071C0.357271 28.5882 0.0909058 28.655 0.303998 29.1558C0.51709 29.6566 0.164156 30.2643 0.303998 30.6917C0.44384 31.119 0.656932 30.9053 0.876684 31.5865C1.02905 32.2305 1.22939 32.8622 1.47601 33.4762C1.63917 33.8595 1.8306 34.23 2.04869 34.5847C2.30174 34.9053 2.47488 35.2525 2.79452 35.6932C3.11415 36.1339 3.3672 36.8351 3.68684 37.3359C4.00648 37.8367 4.50591 38.2975 4.82555 38.8718C5.11427 39.332 5.44895 39.7616 5.82442 40.1539C6.00422 40.3742 6.32386 40.0136 6.6435 39.8333C7.35773 39.2128 7.99292 38.5063 8.53469 37.7299C8.60128 37.4761 7.86878 37.0621 7.86878 37.0621C7.33289 36.2174 6.85671 35.336 6.44372 34.4245C6.37814 34.0482 6.22783 33.6919 6.00422 33.3828C5.88872 33.286 5.75515 33.2134 5.61133 33.1691C5.49284 32.5492 5.32585 31.9396 5.1119 31.3461C4.8309 30.9454 4.63589 30.4907 4.53921 30.0105C4.57663 29.5748 4.72574 29.1562 4.97205 28.7952C5.25856 28.4563 5.48391 28.0699 5.63797 27.6533C5.80671 27.2538 6.00945 26.8695 6.24395 26.5048C6.58384 25.7857 6.97787 25.0937 7.42262 24.4347C7.74225 24.1142 8.38153 22.7586 8.70117 22.7252C9.02081 22.6919 9.02081 23.393 9.16731 23.6534C9.31381 23.9139 9.12735 24.4013 9.3804 24.8621C9.61167 25.2881 9.69817 25.778 9.62679 26.2577C9.60231 26.9012 9.61565 27.5456 9.66675 28.1876C9.69746 28.4714 9.70859 28.7569 9.70004 29.0423C9.66738 29.5853 9.53415 30.1175 9.30715 30.6115C9.17597 30.9621 9.06917 31.3213 8.98751 31.6866C8.89998 32.1046 8.76828 32.512 8.59462 32.902C8.45478 33.1891 8.13514 33.149 8.48808 33.4028C8.84101 33.6565 8.98751 34.0705 9.09406 34.0705C9.2006 34.0705 10.306 32.8218 10.8388 32.6415C11.6328 32.4362 12.4444 32.3066 13.2627 32.2542C13.6889 32.2542 18.317 31.3194 19.1027 31.3928C19.8885 31.4663 20.8807 31.3928 21.4534 31.4997C22.0261 31.6065 21.9129 31.3928 22.5921 31.6466C23.2714 31.9003 23.1249 32.2142 23.4845 32.3544C23.844 32.4946 23.9106 32.1808 23.9839 31.9671C24.0571 31.7534 24.4434 31.0723 24.2636 30.6783C24.0838 30.2843 23.8041 29.6767 23.6643 29.2894C23.4885 28.9527 23.4412 28.5634 23.5311 28.1942C23.6814 27.7659 23.7203 27.3063 23.6443 26.8587C23.6043 26.1041 23.2847 25.0691 23.5311 24.3947C23.6676 23.8931 23.8932 23.4203 24.197 22.999C24.5166 22.605 24.9095 21.8171 25.5288 21.4966C26.1481 21.176 27.3468 22.2111 27.9128 22.4648C28.5823 22.7997 29.1867 23.252 29.6974 23.8003C30.2635 24.3679 30.9027 25.3696 31.2956 25.5833C31.6885 25.797 31.7951 25.797 31.7618 26.0106C31.7285 26.2243 31.4754 26.5115 31.4421 26.7585C31.1939 27.2355 31.0017 27.7396 30.8694 28.261C30.7296 29.1224 30.3034 29.296 30.3034 29.5965C30.3139 29.7073 30.3003 29.8189 30.2635 29.9239C30.2267 30.0288 30.1676 30.1244 30.0903 30.2042C29.9105 30.4179 29.5509 30.1307 29.4244 30.4513C29.2979 30.7718 28.9982 31.2058 28.8917 31.5264C28.7804 32.0018 28.5866 32.4539 28.319 32.8619C27.9993 33.2559 27.5732 33.7166 27.3201 34.0772C27.0671 34.4378 26.8606 34.6849 26.8606 34.6849C26.8606 34.6849 29.2113 36.361 29.5642 36.361C29.862 36.2426 30.1302 36.0603 30.35 35.8268C30.5964 35.4996 31.1691 33.7166 31.6819 33.4295C32.1946 33.1424 33.4665 31.326 33.8527 31.0723C34.3507 30.731 34.7989 30.322 35.1846 29.857C35.6174 29.3628 35.8971 28.074 36.1834 27.6133C36.4743 26.9658 36.7126 26.2959 36.896 25.61C36.9841 25.4147 37.0177 25.1991 36.993 24.9862C36.9684 24.7733 36.8865 24.5711 36.7561 24.4013C36.6096 24.1142 36.3965 23.2928 36.0902 23.1459C35.4835 22.5095 34.9248 21.8288 34.4188 21.1093C33.9921 20.6278 33.5014 20.2076 32.9604 19.8605C32.461 19.54 31.4621 18.4716 31.249 18.3648C31.0359 18.2579 29.0382 16.4015 28.3656 15.9675C27.7905 15.6521 27.2799 15.2307 26.8606 14.7254C26.4345 14.1912 26.6076 14.2647 26.288 14.0577C25.8846 13.8372 25.455 13.6689 25.0094 13.5569C24.5816 13.5141 24.1568 13.4449 23.7375 13.3498C23.3113 13.2096 23.1315 12.9559 22.5655 13.1362C21.9995 13.3165 21.853 13.5301 21.5333 13.2096C21.2137 12.8891 21.3202 12.5419 21.1404 12.3549C20.9606 12.1679 20.388 11.9208 20.1083 11.5269C19.8286 11.1329 19.6088 10.8591 19.2492 10.9593C18.8896 11.0594 18.3636 10.8858 18.3236 11.2464C18.2837 11.607 18.5767 12.5819 18.3636 12.7422C18.1505 12.9024 14.9075 11.5135 12.8764 12.4083Z" fill="#F1F2F2"/>
<path d="M20.7802 4.86328C20.7435 4.29704 20.4879 3.76753 20.0676 3.38753C19.5016 2.76651 18.596 1.95851 18.263 1.52447C17.8585 1.03166 17.3577 0.627146 16.7913 0.335849C16.2782 0.0314862 15.6707 -0.0708482 15.0866 0.0487102C14.4673 0.195618 13.848 0.66973 13.282 0.622987C12.7159 0.576243 11.6172 1.29075 11.0445 2.23897C10.4922 3.39646 10.1237 4.63339 9.9524 5.905C9.90579 6.52602 10.3852 6.52602 10.4785 6.8599C10.528 7.30369 10.528 7.75163 10.4785 8.19543C10.4233 8.81993 10.5383 9.44775 10.8114 10.0117C11.0445 10.2989 11.3308 10.4391 11.3308 10.773C11.3308 11.1069 11.3708 11.5543 11.5573 11.7012C11.7437 11.8481 12.5694 11.3406 12.4229 11.7012C12.4229 11.7012 12.4229 11.8414 12.7093 12.1286C12.9956 12.4157 12.8491 12.222 12.8491 12.7429C12.8491 13.2637 12.5694 13.7445 12.8025 14.1252C13.0356 14.5058 13.4684 14.5525 13.5617 14.8397C13.6549 15.1268 13.9412 16.0817 14.1343 16.7428C14.3275 17.4039 14.5605 18.3655 14.5605 18.3655C14.9075 17.8194 15.2878 17.2953 15.6992 16.7962C16.1565 16.2895 16.5257 15.7094 16.7913 15.0801C16.8189 14.8975 16.8894 14.7241 16.9971 14.5743C17.1048 14.4245 17.2466 14.3025 17.4106 14.2186C17.82 14.0051 18.2158 13.7664 18.596 13.5041C18.8181 13.2585 19.0103 12.9873 19.1686 12.6961C18.9652 12.2872 18.8066 11.8573 18.6958 11.414C19.0346 11.3115 19.3959 11.3115 19.7347 11.414C20.0676 11.601 20.2141 12.0818 20.4472 12.2688C20.6803 12.4558 20.9267 12.6494 21.0665 12.6027C21.2063 12.5559 21.6858 12.9365 21.3062 12.0284C20.9267 11.1202 21.2063 11.0668 20.8268 10.8398C20.4472 10.6127 20.1609 10.6261 20.2807 10.3857C20.4006 10.1453 20.2141 10.3189 20.6403 10.3857C21.0665 10.4525 20.6403 10.1319 20.96 9.79806C21.2796 9.46418 21.1264 9.31059 21.4594 9.13029C21.7923 8.95 22.0654 8.72296 21.9721 8.34233C21.9615 8.13068 21.894 7.92585 21.7768 7.74952C21.6596 7.57319 21.497 7.43193 21.3062 7.34069C20.6869 6.96006 20.5471 6.81983 20.7335 6.34572C20.8696 5.86281 20.8856 5.35383 20.7802 4.86328Z" fill="#1A1A1A"/>
<path d="M14.5483 19.5865C14.5154 19.3349 14.4687 19.0852 14.4085 18.8386C14.2993 18.6434 14.1674 18.4619 14.0156 18.2977C13.7293 17.9438 13.4496 17.2293 13.1233 16.9622C12.797 16.6951 11.2387 15.0725 11.0589 15.0391C10.5279 15.211 10.0149 15.4347 9.52734 15.7068C9.99255 15.6821 10.4591 15.7068 10.9191 15.7803C11.6519 16.2289 12.3428 16.7429 12.9834 17.3161C13.1965 17.5298 13.8025 18.4914 14.0156 18.7451C14.2634 19.2838 14.3014 19.896 14.1221 20.4613C13.9091 20.7418 14.262 21.4563 14.1954 21.9237C14.1288 22.3911 14.6216 23.5664 14.5883 23.8535C14.555 24.1407 14.9079 27.4929 14.868 27.6731C14.7811 28.3844 14.7344 29.1001 14.7281 29.8167C14.9356 30.3452 15.2231 30.8385 15.5805 31.2791C15.5307 31.0648 15.4475 30.8597 15.3341 30.6714C15.1101 30.2724 14.9526 29.8393 14.868 29.3893C14.8014 28.9553 15.0145 28.6013 14.9412 27.8534C14.9148 27.3168 14.9281 26.7788 14.9812 26.2441C14.9812 25.7099 14.9412 25.3159 14.9412 24.7083C14.9572 24.3246 14.9214 23.9405 14.8347 23.5664C14.783 23.2287 14.7119 22.8942 14.6216 22.5648C14.515 22.2776 14.8014 22.2108 14.868 21.897C14.9412 21.5536 14.9412 21.1986 14.868 20.8553C14.8014 20.5014 14.6948 20.5014 14.5483 20.1875C14.4018 19.8737 14.6216 19.8336 14.5483 19.5865Z" fill="#E7E8E8"/>
<path d="M23.6309 13.55C23.3464 13.5686 23.0607 13.5574 22.7785 13.5166C22.2058 13.4432 21.2802 13.55 20.9939 13.5166C20.7075 13.4832 20.3879 13.55 19.5022 14.0174C19.5022 14.0174 15.9396 17.0825 16.0128 17.0491C16.8727 16.5656 17.6825 15.9974 18.4301 15.353C18.8994 14.9589 19.4304 14.6453 20.0017 14.4248C21.1914 14.0552 22.4036 13.763 23.6309 13.55Z" fill="#E7E8E8"/>
<path d="M24.7701 20.6215C24.1078 20.5408 23.4613 20.3607 22.8523 20.0873C22.4927 19.8002 22.8856 20.8686 23.385 20.8352C23.8845 20.8018 24.1309 20.6215 24.5238 20.7618C24.9166 20.902 25.2363 21.0489 24.8767 21.2292C24.5171 21.4095 23.7713 21.1958 23.5449 21.4763C23.3184 21.7567 23.3651 22.4445 23.6181 22.4779C23.8712 22.5113 24.1508 22.0172 24.5038 21.8102C24.7848 21.662 25.0852 21.5541 25.3961 21.4896C25.3961 21.4896 25.6824 20.882 25.9688 20.9554C26.2551 21.0289 25.5026 19.1725 25.5426 18.458C25.5411 17.9278 25.5991 17.3992 25.7157 16.8821C25.8223 16.5615 25.8223 15.7803 25.9288 15.5465C26.017 15.3133 26.0904 15.0746 26.1486 14.832C25.7871 15.4925 25.4883 16.1856 25.2563 16.9021C25.2477 17.7634 25.2944 18.6244 25.3961 19.4797C25.4693 19.8336 25.5426 20.3344 25.5759 20.5481C25.5942 20.7257 25.5942 20.9047 25.5759 21.0823C25.3667 20.8421 25.0828 20.6797 24.7701 20.6215Z" fill="#E7E8E8"/>
<path d="M7.03613 17.2295C6.71649 17.6902 6.85633 20.3747 7.32247 21.0825C7.61984 21.6282 7.95124 22.1545 8.31468 22.6584C8.60102 22.9455 8.60102 22.6918 8.98059 22.9455C9.36016 23.1993 9.12044 23.2661 9.12044 23.8737C9.12044 24.4814 9.55328 24.8353 10.0527 25.2093C10.5522 25.5832 10.7586 25.6032 11.1914 25.9572C11.3064 26.0414 11.4431 26.0905 11.5853 26.0987C11.7274 26.1068 11.8689 26.0737 11.9927 26.0031C12.1164 25.9326 12.2173 25.8277 12.2831 25.7011C12.3488 25.5745 12.3767 25.4315 12.3634 25.2894C12.3967 24.5348 10.4056 24.1809 10.1193 23.9539C9.83296 23.7268 9.97946 23.4197 9.72642 23.2861C9.47337 23.1526 9.40678 23.2193 9.12044 22.7519C8.83409 22.2845 9.16039 22.2911 9.30023 22.004C9.60093 21.4875 9.86356 20.9496 10.086 20.3947C10.1193 20.1476 9.65983 20.0007 9.08714 20.181C8.51445 20.3613 8.9473 22.4648 8.69425 22.3579C8.4412 22.2511 8.26807 21.8972 8.02834 21.5766C7.78861 21.2561 7.5622 20.2411 7.36242 20.0408C7.16265 19.8404 7.29583 19.4331 7.00949 18.5383C6.87196 18.1114 6.88134 17.6505 7.03613 17.2295Z" fill="#E7E8E8"/>
<path d="M7.70853 23.9412C7.63246 23.6408 7.51359 23.3529 7.3556 23.0865C7.05698 22.7647 6.69389 22.5098 6.29013 22.3386C5.7907 22.1249 5.11147 21.1967 4.95831 21.0031C4.95831 21.0031 4.95831 20.4288 4.81847 20.9296C4.67862 21.4305 6.06372 22.392 6.48991 22.786L7.70853 23.9412Z" fill="#E7E8E8"/>
<path d="M32.5004 22.7321C32.0885 23.6508 31.7609 24.6052 31.5215 25.5834C31.5215 25.5834 31.8078 25.6235 31.9144 25.5166C32.7441 25.2457 33.6065 25.0885 34.4781 25.0492C34.7312 25.156 35.4038 24.9424 35.1907 24.515C34.9776 24.0876 33.0531 25.0158 32.6669 25.1227C32.2806 25.2295 32.0609 25.2295 32.4471 24.8021C32.8333 24.3748 33.0198 24.5484 33.6591 24.3013C34.1851 24.1539 34.7216 24.0467 35.2639 23.9808C35.7634 23.8339 34.9443 23.6202 34.2318 23.6202C33.5192 23.6202 32.5603 24.3748 32.84 23.8339C33.1197 23.293 33.3394 23.2663 33.6591 22.8723C33.9787 22.4783 33.9454 21.4767 33.6591 21.5368C33.3727 21.5969 32.3739 24.141 32.3739 23.9274C32.3739 23.7137 32.8733 22.9324 32.9798 22.5918C33.0864 22.2513 32.9266 22.0309 32.5004 22.7321Z" fill="#E7E8E8"/>
<path d="M2.01565 28.2273C1.9424 28.441 1.80256 28.4076 2.18879 28.4811C2.57502 28.5545 3.90019 29.1956 4.21983 29.3024C4.53947 29.4093 4.53947 29.0153 4.64601 28.9752C4.64601 28.9752 3.5073 26.9719 3.31419 26.7649C3.12107 26.5579 2.8547 26.8718 3.02784 27.2657C3.21723 27.7331 3.49799 28.1576 3.85358 28.5144C4.17321 28.7615 4.51949 29.1221 4.34635 29.1221C4.17321 29.1221 2.08225 28.0403 2.01565 28.2273Z" fill="#E7E8E8"/>
<path d="M26.621 44.8349C26.6926 43.8257 26.6926 42.8126 26.621 41.8033C26.5144 40.6547 26.3013 38.9453 26.0883 37.9436C25.8752 36.942 25.9817 35.3727 25.7686 34.6582C25.5555 33.9437 23.8441 32.7618 23.6643 32.3678C23.517 31.96 23.2907 31.5856 22.9984 31.266C22.7454 31.0857 22.3325 31.1925 21.327 31.0122C20.4697 30.9611 19.6095 30.9857 18.7565 31.0857C18.044 31.0523 16.872 31.1591 15.7999 31.1925C14.7342 31.3305 13.6779 31.5334 12.6368 31.8002C11.3931 32.0375 10.24 32.6179 9.30723 33.4763C8.80779 34.1908 8.64131 38.1907 8.5614 39.406C8.33563 41.6376 8.25111 43.8814 8.30836 46.1237C8.46418 47.568 8.81129 48.985 9.34052 50.3373C9.55361 51.0518 10.9787 57.5825 11.012 58.4039C10.9989 58.8718 11.0368 59.3398 11.1252 59.7995C11.2317 60.3003 11.3383 60.4673 13.902 60.4673C16.4658 60.4673 22.7653 59.3187 23.2248 59.1785C23.8702 58.9396 24.4628 58.5766 24.9695 58.1101C25.0391 57.8878 25.0684 57.6549 25.0561 57.4223C24.8763 55.5659 25.6621 51.3122 25.722 50.0769C25.7819 48.8415 26.5877 45.4025 26.621 44.8349Z" fill="#F92525"/>
<path d="M3.97266 37.1959C4.15681 36.7693 4.47794 36.4167 4.88496 36.1942C5.48037 35.88 6.09161 35.597 6.71622 35.3462C6.44068 35.3541 6.16744 35.399 5.90381 35.4797C5.61746 35.62 4.69184 34.812 4.64523 34.9322C4.59861 35.0524 5.61746 35.5999 5.61746 35.5999C5.61746 35.5999 4.95155 35.8871 4.81171 35.9338C4.67187 35.9806 4.09918 34.5983 4.09918 35.0056C4.09918 35.413 4.17243 35.7936 4.38552 35.9138C4.59862 36.034 4.47875 36.3144 4.47875 36.3144C4.47875 36.3144 3.97266 36.882 3.97266 37.1959Z" fill="#E7E8E8"/>
<path d="M29.1172 31.8148C29.7334 32.0215 30.3362 32.2669 30.9218 32.5493C31.2281 32.763 31.9407 33.2171 31.9407 33.2171C31.9407 33.2171 30.136 31.7213 29.1172 31.8148Z" fill="#E7E8E8"/>
<path d="M8.10215 37.242C7.98894 37.4089 8.05554 37.5959 7.72258 37.9098C7.14404 38.3622 6.59051 38.846 6.06445 39.3588C6.11107 39.4122 6.49064 39.7461 6.6438 39.8596C6.98867 40.1503 7.34878 40.4222 7.72258 40.6743C7.90705 40.6921 8.09314 40.6671 8.26637 40.6011C8.43961 40.535 8.59534 40.4299 8.72145 40.2937C8.81468 40.1 8.91456 39.9598 8.76806 39.7929C8.62156 39.6259 8.67483 39.5792 8.67483 39.5792C8.67483 39.5792 8.41513 39.5792 8.60158 39.3388C8.79037 39.1728 8.9443 38.9708 9.05441 38.7445C9.19425 38.4306 9.24086 38.3638 9.24086 38.2637C9.24086 38.1635 9.38736 38.1702 9.60045 38.2169C9.81355 38.2637 10.0067 37.9365 10.2198 37.7695C10.4328 37.6026 10.2198 37.4824 10.0733 37.3155C9.75093 37.1095 9.39804 36.9563 9.02777 36.8614C8.88793 36.8614 8.98115 36.621 9.10102 36.5275C9.45934 36.3571 9.80833 36.1676 10.1465 35.9599C10.313 35.793 10.2397 35.6728 10.0067 35.5993C9.77359 35.5259 9.38736 35.5993 9.29413 35.4324C9.20091 35.2654 9.36073 35.2454 9.48059 35.0317C9.60045 34.818 10.1465 34.1703 9.90678 33.8832C9.66705 33.596 9.08104 34.6978 8.7947 35.0517C8.50836 35.4057 8.84131 35.4791 8.67483 35.5793C8.50836 35.6794 8.48172 35.7395 8.34188 36.0066C8.20204 36.2737 8.48172 36.7211 8.38849 36.8614C8.29526 37.0016 8.21535 37.0751 8.10215 37.242Z" fill="#212121"/>
<path d="M20.9466 36.8353C20.7802 37.0957 21.0931 37.0289 21.3062 37.0957C21.688 37.1042 22.0696 37.0728 22.4449 37.0022C22.5848 37.0022 23.2773 36.4547 23.8234 36.4547C24.3036 36.501 24.763 36.6738 25.1552 36.9555C25.608 37.1959 25.628 37.4763 26.1274 37.5765C26.501 37.6703 26.8951 37.635 27.2462 37.4763C27.9492 37.0687 28.6294 36.6229 29.2839 36.1408C29.4037 36.0406 27.2861 34.6517 26.8799 34.605C26.5368 34.5979 26.1963 34.544 25.8677 34.4447C25.7079 34.3312 25.1352 33.7369 24.9554 33.6033C24.7756 33.4698 24.4427 33.1492 24.3361 33.0357C24.1772 32.9162 24.0024 32.8195 23.8167 32.7486C23.4101 32.6003 22.9754 32.5456 22.5448 32.5883C22.2845 32.616 22.0303 32.6859 21.7923 32.7953C21.6791 32.7953 19.1686 33.6367 19.2685 34.0173C19.3684 34.3979 19.9344 34.3979 20.2874 34.3512C21.0304 34.1275 21.793 33.9754 22.5648 33.8971C23.0909 33.9706 23.2307 34.044 23.1575 34.1375C23.0842 34.231 20.2008 35.3128 19.8812 35.5265C19.5615 35.7401 19.6215 35.9805 20.021 36.1208C20.445 36.2413 20.8969 36.2178 21.3062 36.054C21.8653 35.7869 22.4441 35.5636 23.0376 35.3862C23.4904 35.3328 23.6103 35.3862 23.5104 35.4797C23.4105 35.5732 21.1131 36.5749 20.9466 36.8353Z" fill="#212121"/>
<path d="M16.1065 60.3337C16.8923 60.3337 20.142 59.5724 21.4338 59.4522C22.4472 59.3495 23.4276 59.0332 24.3106 58.5241C24.7101 58.2636 24.5237 58.0499 24.5237 58.0499C23.4379 57.694 22.3241 57.4304 21.1941 57.262C21.1209 57.262 20.7879 57.2152 19.1498 57.262C17.5116 57.3087 15.8735 58.2636 14.9745 58.691C14.0755 59.1184 11.3652 60.0265 11.3652 60.0265C11.545 60.7143 15.3208 60.3137 16.1065 60.3337Z" fill="#1A1A1A"/>
<path d="M23.417 57.8095C21.2232 57.0684 18.8423 57.1037 16.6713 57.9097C13.3018 59.2853 13.1153 59.5724 13.0421 59.6192C12.9688 59.6659 13.1353 59.8128 13.1353 59.8128C13.2126 60.2737 13.3491 60.7226 13.5415 61.1483C13.8193 61.6748 13.9351 62.272 13.8745 62.8645C13.7307 63.4589 13.6195 64.0608 13.5415 64.6674C13.5415 65.215 13.6414 66.7843 13.6147 67.2383C13.6077 68.0191 13.6477 68.7996 13.7346 69.5755C13.8079 70.0029 13.9477 71.6656 14.021 72.3334C14.0942 73.0011 14.254 75.0979 14.3739 75.7189C14.4416 76.3822 14.5529 77.0402 14.7068 77.6888C14.9199 78.3566 15.1796 78.3566 15.1597 78.7172C15.1397 79.0778 15.1597 79.0511 14.9932 79.238C14.8267 79.425 14.7801 79.4985 14.8267 79.6454C14.9382 79.9563 15.025 80.2756 15.0864 80.6003C15.133 80.9275 14.9466 81.5018 14.9932 82.0961C14.9978 82.5894 14.9259 83.0806 14.7801 83.5518C14.6259 84.2427 14.4347 84.9248 14.2074 85.5951C14.0968 85.9202 13.9373 86.2264 13.7346 86.5033C13.5681 86.7637 13.2618 86.8839 13.3284 87.0709C13.395 87.2579 13.5215 87.3113 13.7812 87.5517C14.0409 87.7921 13.9477 88.0993 14.0409 88.2195C14.9282 88.266 15.8173 88.266 16.7046 88.2195H21.6656C21.6656 88.2195 21.5991 87.5517 21.6656 87.5517C21.7322 87.5517 22.2383 87.0976 22.2383 86.7637C22.2099 86.3564 22.161 85.9508 22.0918 85.5484C22.0918 85.3347 22.0452 83.7655 21.972 83.3848C21.8987 83.0042 21.639 82.7171 21.7389 82.263C21.7723 81.716 21.7723 81.1674 21.7389 80.6203C21.7389 80.2197 21.599 79.2848 21.6457 78.6905C21.6923 78.0962 21.7855 76.9343 21.8787 76.4802C21.972 76.0261 23.0707 70.4102 23.1639 68.8143C23.2572 67.2183 23.2572 63.0047 23.2106 62.2168C23.1369 61.0504 23.1614 59.8799 23.2838 58.7177C23.3883 58.4269 23.4336 58.1181 23.417 57.8095Z" fill="#212121"/>
</svg>
