<svg width="30" height="96" viewBox="0 0 30 96" fill="none" xmlns="http://www.w3.org/2000/svg">
<path d="M24.1381 45.681L23.7852 46.0416C24.29 46.8344 24.7545 47.6524 25.1769 48.4923C25.3417 48.9231 25.4579 49.3711 25.5232 49.8278C25.5232 49.8278 25.7363 49.3337 26.1891 48.1584C26.5313 47.4307 26.7561 46.6531 26.855 45.8546C26.9016 44.9932 27.0445 44.1398 27.2812 43.3104C27.5476 42.4023 27.7873 41.4941 27.8139 41.3071C27.8406 41.1202 24.6109 40.793 24.6109 40.793C24.8154 41.9429 24.8957 43.1115 24.8506 44.2787C24.7514 44.8047 24.5042 45.2913 24.1381 45.681Z" fill="#212121"/>
<path d="M5.55301 95.3959C7.02468 95.3959 7.4775 95.3158 7.4775 95.0754C7.61151 95.1425 7.75541 95.1876 7.90368 95.2089C8.27235 95.1873 8.63931 95.1427 9.00244 95.0754C9.29544 94.9952 9.32208 94.8083 9.26881 94.5412C9.21553 94.274 9.26881 93.3859 9.10899 93.1455C8.94917 92.9051 7.98359 91.5963 7.21113 91.3826C6.55394 91.2269 5.88623 91.1198 5.21339 91.0621C4.65403 90.982 3.82829 91.81 3.82829 91.81C3.57074 92.2704 3.19023 92.6497 2.72954 92.9051C2.14353 93.1188 1.3178 93.2257 1.29116 94.3542C1.18462 94.5144 0.99816 94.7548 1.34443 95.0219C2.24342 95.0486 4.088 95.3959 5.55301 95.3959Z" fill="#212121"/>
<path d="M18.4779 95.1817L19.9961 94.9146C20.0707 95.0739 20.1598 95.2259 20.2625 95.3686C20.4556 95.6357 20.9284 95.7159 22.6398 95.6892C24.2013 95.6494 25.7584 95.5067 27.3012 95.2618C27.9671 95.1282 28.2069 94.7543 28.047 94.4872C27.8872 94.2201 27.9138 93.8729 27.5942 93.5724C27.1805 93.2669 26.6654 93.133 26.1558 93.1984C25.4566 93.1984 23.9117 93.5523 22.6798 91.1951C21.4478 88.8379 20.682 90.2536 20.3357 90.3604C19.9895 90.4673 17.479 91.5157 17.4257 91.5958L16.4868 92.771C16.3259 92.9406 16.2061 93.1451 16.1368 93.3686C16.0675 93.5921 16.0505 93.8287 16.0872 94.0598C16.0872 94.2735 16.0872 94.594 16.2204 94.7276C16.9616 94.9307 17.7159 95.0824 18.4779 95.1817Z" fill="#212121"/>
<path d="M5.47303 91.9696C6.07947 92.0255 6.66954 92.1978 7.21107 92.4771C7.71716 92.6908 7.87698 92.7977 8.19662 92.9579C8.43266 93.0874 8.65567 93.2395 8.86254 93.412L9.18217 93.6324C9.18217 93.6324 9.26208 93.4654 8.80926 92.9646C8.24107 92.3876 7.56124 91.9331 6.81152 91.6291C6.19888 91.4421 5.12676 91.1483 4.6473 91.3353C4.3053 91.4879 3.99041 91.6954 3.71502 91.9496C3.6093 92.0863 3.51148 92.229 3.42202 92.377C3.31547 92.564 3.58184 92.2968 3.98139 92.1633C4.46865 92.0369 4.96973 91.9718 5.47303 91.9696Z" fill="#1A1A1A"/>
<path d="M19.224 92.2909C20.0025 91.9525 20.8341 91.7537 21.6812 91.7033C22.1457 91.7107 22.6089 91.7554 23.0663 91.8369C23.0663 91.8369 23.1462 91.8369 22.8266 91.4896C22.5069 91.1424 21.0952 91.3294 20.2628 91.543C19.4439 91.8221 18.6433 92.1521 17.8655 92.5313C17.3811 92.7162 16.879 92.8505 16.3672 92.932C16.3672 92.932 16.6868 93.1991 17.4593 92.932C18.0741 92.8006 18.6679 92.5849 19.224 92.2909Z" fill="#1A1A1A"/>
<path d="M17.1387 42.4952C17.5449 42.0144 17.4849 40.8592 16.4728 40.0579C15.4606 39.2566 15.1409 38.4018 14.4417 39.0162C13.6268 39.7127 12.91 40.5169 12.3108 41.4068C12.151 41.8608 11.8846 42.2081 12.444 42.4752C13.9756 43.1697 16.7391 42.976 17.1387 42.4952Z" fill="#F1F2F2"/>
<path d="M22.7736 42.7427C22.7736 42.7427 18.3453 42.0749 16.4208 42.0749C14.4963 42.0749 12.2588 42.0215 12.2588 42.0215C12.2588 42.0215 5.79948 41.4339 5.69294 42.3955C5.52384 43.3096 5.21618 44.1924 4.78063 45.0131C4.11472 46.0815 1.84396 47.5306 2.21687 50.2617C2.42996 50.9295 2.80287 51.3836 2.96935 51.9178C3.22859 52.7898 3.40693 53.6839 3.50208 54.5888C3.55535 55.4436 3.71517 58.0679 3.71517 61.3399C3.71517 64.6119 3.55535 71.3564 3.6619 72.7386C3.76845 74.1209 4.14136 75.3629 4.03481 76.3312C3.92826 77.2995 3.3689 78.6283 3.44881 79.8637C3.52872 81.099 4.11472 82.3277 4.11472 83.2893C4.11599 84.3174 3.91693 85.3359 3.52872 86.2875C3.14466 86.9509 3.01225 87.731 3.1558 88.4845C3.26235 89.8734 3.58199 90.8951 3.63526 91.4293C3.68854 91.9635 3.58199 92.0971 4.16799 91.643C4.754 91.1889 5.12691 91.3225 6.2523 91.5362C7.19949 91.8286 8.07354 92.3203 8.81607 92.9785C9.18898 93.2456 9.02916 93.3525 9.29553 92.6046C9.56189 91.8567 10.3077 90.6748 10.5208 89.9803C10.6415 89.6961 10.69 89.3863 10.6621 89.0787C10.6342 88.771 10.5308 88.4751 10.361 88.2174C10.0353 87.689 9.90339 87.0632 9.98808 86.4478C9.98808 85.5931 9.93481 83.8769 9.98808 82.7017C10.0414 81.5264 10.0946 79.0623 10.1479 77.453C10.2012 75.8437 10.361 73.9206 10.5208 72.5249C10.6806 71.1293 10.6806 68.4048 11.0003 67.3898C11.3199 66.3748 11.5397 65.1395 11.7527 64.1178C11.9658 63.0961 11.806 62.3015 12.1257 61.0661C12.4453 59.8308 12.2855 59.3032 12.4986 58.1747C12.7117 57.0462 13.0313 56.7323 13.0846 55.6639C13.1379 54.5955 13.5108 53.3067 13.8837 54.2683C14.2566 55.2299 14.6428 58.1013 14.8759 60.4317C15.109 62.7622 14.8226 67.8773 15.2488 69.7804C15.675 71.6836 15.7016 74.4548 15.8614 76.0307C16.0213 77.6066 15.9946 81.8269 16.0479 83.543C16.1012 85.2592 15.5684 87.3426 15.675 88.578C15.7815 89.8133 16.2077 90.8818 16.261 91.5762C16.2924 92.0209 16.2924 92.4671 16.261 92.9118C16.9412 92.8794 17.6027 92.6774 18.1855 92.3241C19.1444 91.7365 21.8147 90.8818 22.8469 91.4694C22.6871 90.2874 23.353 90.3008 23.1931 89.5529C23.1018 88.7465 22.9437 87.9491 22.7203 87.169C22.454 86.5814 22.7603 84.8251 22.8136 83.6499C22.8668 82.4746 22.6338 78.8019 22.707 76.8387C22.7803 74.8755 22.4407 71.6969 22.6005 70.1611C22.7603 68.6252 23.1465 63.4434 23.4728 59.951C23.7991 56.4586 23.5527 54.9093 24.5916 52.452C24.9378 51.6306 25.657 50.6891 25.4972 49.4537C25.3374 48.2184 24.1654 46.5623 23.5794 45.761C23.1879 45.1711 23.0158 44.462 23.0933 43.7577C23.0447 43.4037 22.9367 43.0605 22.7736 42.7427Z" fill="#212121"/>
<path d="M19.197 3.62488C19.0187 2.93636 18.6913 2.2957 18.2381 1.74846C17.8745 1.27565 17.395 0.905273 16.8463 0.673366C16.4077 0.448232 15.9422 0.279941 15.4612 0.172543C14.8561 0.0371837 14.2361 -0.018931 13.6166 0.00560224C13.2597 0.0214576 12.911 0.118706 12.5972 0.289956C12.2833 0.461206 12.0125 0.70195 11.8054 0.993892C11.1814 1.59175 10.6334 2.26461 10.1739 2.99718C9.29487 4.38613 10.1739 6.1557 10.1739 6.9036C9.80096 7.22413 10.1739 8.15899 10.2804 8.80672C10.387 9.45446 10.7599 9.28751 10.9463 9.12725C11.1757 9.78383 11.4632 10.4185 11.8054 11.0237C11.8572 11.7105 11.8572 12.4003 11.8054 13.0871C11.9119 13.4076 14.4224 14.8567 14.9285 14.7498C15.4346 14.643 18.0516 13.1138 18.0516 12.8467C18.0516 12.5796 17.8652 12.4995 17.8119 12.1255C17.7554 11.4468 17.8093 10.7635 17.9717 10.1022C18.2477 9.57125 18.4707 9.01431 18.6376 8.43946C18.8774 8.63311 19.3035 8.33261 19.5699 7.98538C19.7466 7.75177 19.8732 7.48411 19.942 7.19915C20.0107 6.91419 20.0201 6.61807 19.9695 6.32932C19.8363 5.55472 19.3835 5.49462 19.3835 5.49462C19.4646 4.86527 19.4008 4.22566 19.197 3.62488Z" fill="#212121"/>
<path d="M0.777505 40.1915C0.457866 40.3785 0.404593 40.6188 0.164864 40.5654C-0.0748651 40.512 -0.00827368 40.7791 0.0849542 41.507C0.114926 42.0373 0.31591 42.5435 0.65764 42.9493C1.03055 43.4301 1.05719 43.7573 1.27028 43.6171C1.7431 43.4448 2.2468 43.3743 2.74861 43.4101H3.71418V43.6238C4.05996 43.6719 4.41221 43.6162 4.72637 43.4635C5.01938 43.2231 4.93947 42.7958 5.09929 42.5019C5.23284 41.8557 5.30641 41.1985 5.31904 40.5387C5.2815 40.2819 5.2815 40.0209 5.31904 39.7641C5.42558 39.2566 5.75188 37.033 5.80515 36.5255C5.85843 36.018 5.64533 35.9378 5.80515 35.3235C5.96497 34.7091 6.23134 34.8961 6.23134 34.195C6.23134 33.4938 6.57761 33.3936 6.41779 32.9663C6.32018 32.7722 6.26277 32.5604 6.24903 32.3434C6.2353 32.1265 6.26552 31.9091 6.33788 31.7042C6.51605 30.9573 6.64067 30.1986 6.7108 29.4338C6.75925 28.7652 6.73245 28.0932 6.63089 27.4305C6.57761 26.923 6.52434 25.7144 6.52434 25.2603C6.44681 24.613 6.33119 23.9708 6.17807 23.3371C6.04836 22.5854 5.99482 21.8225 6.01825 21.0601C6.07152 20.5258 9.83393 20.4724 11.1391 21.7278C12.4443 22.9832 14.8016 25.3137 15.8005 24.085C16.7994 22.8563 22.0202 19.9048 22.3398 21.414C22.6594 22.9231 23.059 29.0732 23.4119 29.8745C23.7648 30.6758 23.625 31.7977 23.7049 32.9529C23.6944 33.7151 23.8022 34.4743 24.0246 35.2033C24.1819 35.7311 24.2272 36.2861 24.1577 36.8326C24.1577 37.1532 24.2643 37.6339 24.1577 37.8209C24.0512 38.0079 23.7848 37.8209 23.7848 37.8209C23.8007 38.1102 23.8363 38.398 23.8914 38.6823L24.1045 39.9644C24.1844 40.4452 24.1577 40.9327 24.211 41.1731C24.2643 41.4135 24.6106 41.6272 24.6106 41.6272V41.3868C25.6363 41.1823 26.7001 41.3037 27.6538 41.734C28.08 41.734 28.0267 41.734 28.3197 41.5203C28.5136 41.402 28.6818 41.2459 28.8145 41.0612C28.9472 40.8766 29.0416 40.6671 29.0922 40.4452C29.3385 39.6706 29.818 38.3351 29.5783 38.4419C29.3385 38.5488 28.959 38.0947 28.959 38.0947C28.959 38.0947 28.9057 38.4152 28.959 37.4269C29.0122 36.4386 28.959 34.5088 29.0122 33.2801C29.0422 31.0013 28.9131 28.7231 28.626 26.4623C28.2265 23.277 27.8536 20.5459 27.4007 19.3906C26.9479 18.2354 26.0689 17.4675 24.3841 16.6862C22.6994 15.9049 19.5496 14.6829 18.7505 14.142C17.9514 13.6011 15.7339 14.0619 15.0147 14.142C14.2956 14.2222 12.2112 14.3891 11.8117 14.6829C11.4011 14.9939 10.9719 15.2793 10.5265 15.5377C10.0004 15.8181 7.53653 16.9533 6.41779 17.6277C5.29906 18.3022 4.59985 18.5359 3.80075 19.9516C3.00166 21.3672 3.18811 22.4156 3.00166 24.1051C2.8152 25.7945 1.78969 31.0364 1.32355 33.6875C1.00684 35.7417 0.864269 37.8192 0.897369 39.8977C0.937324 40.2983 1.09714 40.0045 0.777505 40.1915Z" fill="#F1F2F2"/>
<path d="M1.32445 43.4835C1.2845 44.0778 1.32445 44.7456 1.23123 45.2531C1.138 45.7606 1.09804 46.1612 1.04477 46.5886C1.01563 47.0036 1.09844 47.4187 1.2845 47.7906C1.54727 48.5035 1.86799 49.1936 2.24341 49.8539C2.03032 48.1378 3.71508 46.4216 3.71508 46.4216C3.53768 46.1809 3.43569 45.8927 3.42208 45.5936C3.4531 44.8583 3.55118 44.1274 3.71508 43.41C3.07581 43.163 1.39104 42.9226 1.32445 43.4835Z" fill="#212121"/>
<path d="M11.5585 13.581C11.5011 14.0876 11.3757 14.584 11.1855 15.0568C11.7341 15.669 12.1694 16.3746 12.4708 17.1402C12.6306 17.0334 13.0301 16.7395 13.403 15.4307C13.776 14.1219 14.6083 14.3356 14.8214 14.1954C15.0345 14.0551 15.7804 14.8965 16.0467 15.591C16.2471 16.2423 16.672 16.8009 17.2454 17.1669C17.2986 16.5526 18.6638 14.8965 19.0899 14.3089C18.7969 13.9817 18.5572 12.6996 18.3708 12.4058C18.2264 12.2062 18.037 12.0437 17.818 11.9316C17.818 11.9316 17.818 12.2188 17.8647 12.379C17.9113 12.5393 14.7682 14.0284 14.7682 14.0284C14.7682 14.0284 12.4441 13.2538 12.0179 13.0668C11.9524 13.0413 11.8986 12.9925 11.8666 12.9296C11.8347 12.8668 11.8269 12.7945 11.8448 12.7263C11.6051 12.7597 11.6184 13.1536 11.5585 13.581Z" fill="#F1F2F2"/>
<path d="M15.3083 23.2508C15.4947 22.79 16.6401 20.5797 16.6401 20.5797C16.5964 20.0826 16.5163 19.5893 16.4004 19.1039C16.1873 18.1424 15.8943 17.6616 15.7345 16.9871C15.5747 16.3127 15.548 15.9187 15.548 15.9187C15.2064 15.8432 14.8587 15.7985 14.5092 15.7852C14.2362 15.7852 14.1563 16.3995 14.1563 16.3995C14.1472 16.5886 14.1204 16.7764 14.0763 16.9604C13.9964 17.341 13.8899 17.6282 13.7034 18.2492C13.517 18.8702 13.3105 20.4395 13.3105 20.4395V20.8401C13.3105 20.8401 15.0885 23.7048 15.3083 23.2508Z" fill="#212121"/>
<path d="M2.03012 39.6452C1.67603 39.7382 1.33888 39.887 1.03125 40.0859C2.24062 39.6897 3.54434 39.6897 4.75371 40.0859C3.9096 39.6711 2.96148 39.5177 2.03012 39.6452Z" fill="#E7E8E8"/>
<path d="M25.3762 38.2016C26.5193 38.0679 27.6732 38.0545 28.819 38.1615C27.8808 37.9598 26.9208 37.879 25.9622 37.9211C25.1232 38.0814 24.3241 38.2684 23.8047 37.8076C24.0055 38.0114 24.2582 38.156 24.5354 38.2255C24.8126 38.295 25.1034 38.2867 25.3762 38.2016Z" fill="#E7E8E8"/>
<path d="M6.81149 28.5458C6.81149 27.5308 6.49185 25.6276 6.46521 24.8797C6.43857 24.1318 6.14557 23.3839 6.03903 22.2087C5.93248 21.0334 5.60618 18.0352 5.60618 18.0352C5.39567 18.1114 5.19804 18.2195 5.02018 18.3557C4.80709 18.5427 5.12672 18.5694 5.28654 18.8098C5.48081 19.9519 5.60534 21.1048 5.65946 22.2621C5.67031 22.6739 5.74443 23.0816 5.87921 23.4708C6.06566 24.0584 6.35866 25.2871 6.03903 24.9398C5.71939 24.5926 5.15336 24.045 5.55291 24.853C5.95246 25.661 6.21882 28.0115 6.30539 28.6526C6.37321 29.0971 6.35512 29.5505 6.25212 29.9881C6.0778 30.5881 6.02348 31.2167 6.0923 31.8378C6.18191 32.2982 6.32494 32.7464 6.51848 33.1734C6.39797 32.5551 6.37997 31.9211 6.46521 31.2969C6.68374 30.3959 6.7999 29.473 6.81149 28.5458Z" fill="#E7E8E8"/>
<path d="M24.7233 16.8203C24.6584 18.092 24.4891 19.3561 24.2172 20.5999C23.7377 22.9504 23.1983 26.0889 23.3648 28.2791C23.4104 29.1603 23.5172 30.0372 23.6845 30.9034C23.7377 31.4377 23.7377 32.3258 23.7377 32.4326C23.7377 32.5395 23.8176 31.8116 23.9508 30.85C24.084 29.8884 24.2438 29.5145 24.0574 29.1673C23.8644 28.5982 23.8186 27.9893 23.9242 27.3977C24.1069 26.0161 24.3828 24.6485 24.7499 23.3043C25.0962 22.2292 25.1228 22.2559 24.7499 22.2826C24.377 22.3093 24.1906 21.9087 24.4037 21.0272C24.6329 19.637 24.7399 18.2293 24.7233 16.8203Z" fill="#E7E8E8"/>
<path d="M14.6413 40.779C14.9343 40.6721 15.4138 40.9459 15.4138 40.9459L14.7478 39.8174L13.416 42.041C13.6828 41.9031 13.9115 41.7012 14.0819 41.4534C14.335 41.0527 14.335 40.8925 14.6413 40.779Z" fill="#E7E8E8"/>
<path d="M11.5593 43.9444C12.2252 44.078 12.9511 44.1314 13.1908 44.1581C13.4305 44.1848 13.3506 43.8376 13.6969 43.3234C14.0431 42.8092 13.91 42.5221 14.203 42.4687C14.7274 42.4933 15.25 42.549 15.7679 42.6356C15.981 42.6356 16.3206 43.7308 16.5337 43.9177C16.7468 44.1047 17.2462 43.9912 18.3183 43.9177C19.3904 43.8443 19.6501 43.6306 20.8421 43.5772C21.5748 43.544 22.3033 43.4479 23.0197 43.29L22.7733 42.689C22.7733 42.689 20.4825 42.6089 19.4903 42.689C18.3629 42.6112 17.2469 42.4142 16.1608 42.1014C16.1608 42.1014 13.8367 42.0213 12.8312 42.048C11.8257 42.0747 6.98447 41.9144 6.4251 42.048C5.86573 42.1815 5.65264 42.1014 5.59271 42.5555C5.55228 42.8579 5.48996 43.157 5.40625 43.4503C5.85224 43.224 6.3608 43.1535 6.85128 43.25C7.71697 43.4102 10.8934 43.8109 11.5593 43.9444Z" fill="#1A1A1A"/>
<path d="M12.3909 58.9092C12.3909 58.9092 12.5773 57.9944 12.7371 57.4067C12.9163 56.7504 13.041 56.0804 13.11 55.4034C13.1633 54.7357 13.2432 53.9076 13.6428 53.9611C14.0423 54.0145 14.362 56.5854 14.362 56.5854C14.362 56.5854 14.4219 56.1313 14.4485 55.8642C14.4752 55.5971 14.2288 54.2015 14.0956 53.3734C13.9624 52.5454 14.3886 49.4069 14.4485 48.6991C14.5085 47.9913 14.2288 46.3419 14.2288 45.4871C14.3202 44.4192 14.4758 43.3577 14.6949 42.3086H13.8892C13.8017 42.7301 13.6928 43.1469 13.5629 43.5573C13.5684 44.0284 13.631 44.497 13.7493 44.9529C13.6816 46.3978 13.5349 47.8379 13.3098 49.2667C13.1766 50.3151 13.3897 51.704 13.2565 52.2649C13.1234 52.8259 12.7238 53.0729 12.5107 53.8208C12.2976 54.5687 12.6173 54.7557 12.6972 55.4836C12.7093 56.1538 12.5776 56.8188 12.3109 57.4334C12.2387 57.9258 12.2659 58.4276 12.3909 58.9092Z" fill="#1A1A1A"/>
<path d="M18.3981 88.1502C17.0663 89.005 17.1395 89.6193 17.9187 89.1919C18.8331 88.7409 19.7789 88.357 20.7488 88.0434C21.8409 87.6361 21.7077 88.3105 22.2671 88.8981C22.3306 88.7706 22.368 88.6317 22.3771 88.4895C22.3863 88.3473 22.367 88.2047 22.3203 88.0701C22.1872 87.5025 21.8942 87.5559 21.3881 87.182C20.882 86.808 20.7222 86.0601 20.0229 85.4725C19.3237 84.8849 20.4292 86.3272 20.4025 86.808C20.3759 87.2888 19.7299 87.3089 18.3981 88.1502Z" fill="#1A1A1A"/>
<path d="M8.1957 90.6342C8.5721 90.7647 8.90592 90.9955 9.16128 91.302C9.48091 90.6008 10.4398 89.5591 9.88046 88.8647C9.32109 88.1702 8.94818 88.9181 8.38216 89.1852C7.80744 89.5978 7.15488 89.8887 6.46432 90.0399C5.3922 90.2269 4.38001 90.494 5.33893 90.5207C6.29264 90.4701 7.24898 90.5081 8.1957 90.6342Z" fill="#1A1A1A"/>
<path d="M12.385 17.9816C12.6823 17.718 12.9108 17.3856 13.0509 17.0133C13.3306 16.3456 13.5503 15.591 13.5503 15.591C13.5503 15.591 13.81 16.172 13.9299 16.3723C14.0134 16.5422 14.0674 16.7251 14.0897 16.9132L14.1763 16.419C13.9183 16.0115 13.6955 15.5826 13.5104 15.1369C13.3306 15.6511 12.951 16.8731 12.5115 17.0334C12.1888 16.3021 11.7377 15.6348 11.1797 15.0635C11.2396 15.4441 11.2463 15.5109 11.2463 15.5109C11.565 15.9487 11.8373 16.4187 12.0587 16.9132C12.2452 17.4407 12.385 17.9816 12.385 17.9816Z" fill="#E7E8E8"/>
<path d="M19.0111 14.697C19.171 14.5568 19.4706 14.697 19.4706 14.697V14.5301L19.0977 14.3164C19.0977 14.3164 17.3064 16.5 17.2465 17.1678C16.6207 16.7087 16.1548 16.0639 15.9146 15.3247C15.8414 15.6519 15.5684 16.3932 15.5684 16.3932C15.5684 16.3932 15.8214 15.8923 15.9413 16.0927C16.2582 16.6425 16.626 17.1612 17.04 17.6419C17.4662 18.0626 17.626 18.1026 17.626 18.1026C17.5601 17.8685 17.5426 17.6233 17.5746 17.3821C17.6067 17.141 17.6876 16.9089 17.8125 16.7003C18.1581 16.0015 18.5589 15.3316 19.0111 14.697Z" fill="#E7E8E8"/>
<path d="M15.1013 14.5902H15.381C15.1849 14.412 14.9757 14.249 14.755 14.1027C14.6285 14.0426 13.8027 14.6703 13.8027 14.6703H14.0758C14.0758 14.6703 14.5685 14.3898 14.6951 14.3364C14.8216 14.283 15.1013 14.5902 15.1013 14.5902Z" fill="#E7E8E8"/>
<path d="M15.5934 16.3927C15.7536 16.0527 15.8699 15.6937 15.9396 15.3243C15.7708 15.0622 15.5839 14.8123 15.3803 14.5764C14.8531 14.5735 14.3262 14.6003 13.8021 14.6565C13.8021 14.6565 13.4824 14.977 13.4824 15.1373C13.4824 15.1373 14.0418 16.2591 14.1483 16.4194C14.3569 16.2657 14.6078 16.1806 14.8666 16.1758C15.1254 16.171 15.3793 16.2468 15.5934 16.3927Z" fill="#212121"/>
<path d="M6.06518 36.6057C5.932 37.1934 5.47252 40.0047 5.44588 40.5656C5.38176 41.0944 5.26577 41.6155 5.09961 42.1215C5.38494 42.2926 5.70677 42.3934 6.03855 42.4153C6.62455 42.4687 9.18832 43.0029 10.2538 43.1365C11.3192 43.27 12.5778 43.3234 12.5778 43.3234L14.742 39.8177L16.8463 43.2967C17.8373 43.4145 18.8413 43.3511 19.8096 43.1098C20.6544 42.8886 21.528 42.7985 22.4 42.8427C22.8795 42.7625 23.4988 42.7892 23.6853 42.5488C23.8717 42.3084 23.6853 41.3736 23.5521 40.3252C23.4189 39.2768 23.359 37.3002 23.2258 35.8311C23.0926 34.3621 23.2258 34.0349 23.0926 33.5274C22.9468 33.1677 22.9468 32.7652 23.0926 32.4055C23.3666 31.8004 23.4965 31.1398 23.4722 30.4757C23.4722 29.4874 23.3123 27.1035 23.3923 25.8013C23.474 24.6587 23.6342 23.523 23.8717 22.4024C24.0848 21.2806 24.7507 18.0419 24.6974 16.8333C24.0848 16.4326 20.1826 14.7231 19.6232 14.456C19.4101 14.3759 19.4367 14.5362 19.4367 14.5362C19.4805 14.8411 19.4342 15.1522 19.3035 15.431C19.0638 15.9385 16.873 20.1921 16.1271 21.3741C15.8025 21.9306 15.4185 22.4501 14.9818 22.9233C14.9818 22.9233 12.984 20.092 12.2049 18.5361C11.4258 16.9802 11.3126 16.6997 11.3126 16.2323C11.2993 15.8388 11.2638 15.4464 11.206 15.057C11.206 15.057 9.68775 15.885 8.67557 16.2857C7.61287 16.7187 6.59197 17.2485 5.62568 17.8683C5.62568 17.8683 5.89871 20.4392 6.05852 22.2021C6.21834 23.965 6.59126 25.6277 6.59126 26.4624C6.59126 27.2971 6.72444 28.4657 6.75108 29.0533C6.77771 29.641 6.19171 31.7845 6.35153 32.3922C6.51135 32.9998 6.67117 33.0599 6.72444 33.4873C6.73131 33.8464 6.69555 34.2051 6.61789 34.5557C6.61789 34.9564 6.6978 35.2235 6.56462 35.5507C6.34871 35.8766 6.18052 36.2319 6.06518 36.6057Z" fill="#212121"/>
<path d="M14.1819 35.3499C14.2219 36.0978 14.1819 37.6336 14.2353 38.3081C14.3092 38.8383 14.4813 39.3501 14.7428 39.8172C14.5478 39.0259 14.4448 38.2148 14.4356 37.3999C14.3889 35.5035 14.2887 38.1077 14.8897 25.507C14.8897 25.507 14.7895 23.2901 14.7895 24.3251C14.7895 25.3601 14.4356 29.5069 14.5024 30.1814C14.5692 30.8558 14.3288 31.9309 14.3288 32.6855C14.3288 33.4401 14.1485 34.5953 14.1819 35.3499Z" fill="#1A1A1A"/>
<path d="M15.3083 22.2147C15.0486 22.3816 14.8355 22.1546 14.4559 21.7406C14.0763 21.3266 13.3105 20.2314 13.3105 20.2314V20.3917L14.9886 22.9225C15.6316 22.2013 16.186 21.4054 16.6401 20.552C16.2459 21.1445 15.8002 21.7009 15.3083 22.2147Z" fill="#1A1A1A"/>
<path d="M11.393 37.3329C11.4329 36.7185 11.06 38.7886 10.1344 38.7151C9.15849 38.5926 8.19107 38.4097 7.23766 38.1676L6.47852 38.0006C6.47852 38.0006 9.58833 38.9288 10.4007 38.8086C11.2132 38.6884 11.373 37.7602 11.393 37.3329Z" fill="#1A1A1A"/>
<path d="M18.1314 39.0029C19.365 39.0325 20.5981 38.9227 21.8072 38.6757C20.7397 38.8503 19.6592 38.9329 18.5776 38.9228C16.8795 38.9228 16.9261 37.0664 16.9261 37.0664C16.8795 37.8944 17.0793 38.8226 18.1314 39.0029Z" fill="#1A1A1A"/>
<path d="M14.8476 16.5734C14.8476 16.9941 14.9409 17.4549 14.9409 17.121C14.9409 16.7871 14.9409 16.4065 15.0408 16.3464C15.1406 16.2863 15.5935 16.3931 15.5935 16.3931C15.5935 16.3931 15.2672 16.2529 15.0741 16.1928C14.9793 16.1482 14.8758 16.125 14.7711 16.125C14.6663 16.125 14.5629 16.1482 14.4681 16.1928C14.3577 16.2582 14.251 16.3295 14.1484 16.4065C14.3488 16.3238 14.556 16.259 14.7677 16.2129C14.9342 16.2195 14.8343 16.1594 14.8476 16.5734Z" fill="#1A1A1A"/>
<path d="M4.54586 43.4105C3.70699 43.2153 2.84981 43.1101 1.98876 43.0967C1.8363 43.0815 1.68241 43.1019 1.53915 43.1564C1.39589 43.2108 1.26715 43.2978 1.16302 43.4105C0.949931 43.6643 1.28289 43.6442 1.28289 43.6442C1.28289 43.6442 1.28289 43.6442 1.3295 43.6442C1.31367 43.5665 1.32486 43.4857 1.3612 43.4152C1.39755 43.3447 1.45687 43.2889 1.52928 43.2569C2.258 43.1124 3.012 43.1654 3.71347 43.4105V43.6242C3.78672 43.6175 4.98537 43.5841 4.54586 43.4105Z" fill="#E7E8E8"/>
<path d="M27.6741 41.7068C27.8173 41.7506 27.9704 41.7506 28.1136 41.7068C28.1136 41.6199 27.8805 41.6133 27.6142 41.5532C27.1547 41.4463 26.5021 41.2994 26.1891 41.266C25.8761 41.2326 25.2635 41.266 24.8573 41.226C24.6708 41.226 24.5643 41.1325 24.4444 41.1458C23.9849 41.1993 24.7175 41.6667 24.7175 41.6667V41.3862C25.7124 41.1852 26.745 41.2971 27.6741 41.7068Z" fill="#E7E8E8"/>
</svg>
