<svg width="31" height="84" viewBox="0 0 31 84" fill="none" xmlns="http://www.w3.org/2000/svg">
<path fill-rule="evenodd" clip-rule="evenodd" d="M11.6585 11.6115L11.5562 14.2585C11.1095 14.4733 10.7488 14.8321 10.5328 15.2766C10.1235 16.0571 9.91878 16.1929 9.91878 16.1929C9.91878 16.1929 5.41592 17.55 3.98319 17.6181C3.98319 17.6181 3.13045 17.686 2.9598 18.1272C2.78915 18.5685 2.1411 22.0977 2.1411 22.0977C2.1411 22.0977 1.28838 22.8104 1.52708 23.7266L1.62928 24.3374C1.62928 24.3374 0.503961 27.3577 0.09355 28.4098C-0.316861 29.4618 0.707572 32.7535 1.52628 33.8056C2.34498 34.8577 3.84603 35.6721 5.6198 33.9073C5.6198 33.9073 5.6198 39.9813 5.51746 41.3393C5.41512 42.6973 5.00577 45.2081 5.00577 45.2081C5.00577 45.2081 6.40448 46.2261 7.66682 46.328C7.66682 46.328 7.97383 54.5066 7.97383 56.3051C7.97383 58.1036 8.17851 61.2938 8.17851 61.2938C8.17851 61.2938 7.4963 62.0403 7.76916 63.8389C8.04202 65.6376 9.06552 72.7984 9.20188 73.9183C9.33825 75.0382 9.09955 77.7869 9.20188 77.8888C9.30422 77.9906 9.81591 78.1942 9.81591 78.1942C9.81591 78.1942 9.67956 79.9588 9.71358 80.7393C9.71358 80.7393 10.8389 81.7236 13.2954 81.8593C13.2954 81.8593 14.3871 82.742 14.8311 83.2846C15.2752 83.8272 17.1493 84.0261 19.3337 83.9973C20.9396 83.9761 21.7552 83.8276 21.9948 83.3863C21.9948 83.3863 22.1312 82.4362 21.9948 82.0628C21.8584 81.6894 19.7773 81.3503 18.9247 80.9429C18.9247 80.9429 16.7415 78.8727 16.2636 77.7868L16.6727 77.176L16.2636 76.0561C16.2636 76.0561 15.9565 67.5721 16.0584 65.1627C16.1603 62.7533 16.5707 59.4615 16.5707 59.4615C16.5707 59.4615 17.0818 63.6017 17.185 65.2645C17.2883 66.9274 18.1052 76.3615 18.1052 76.3615C18.1052 76.3615 17.5253 76.8366 17.5941 77.0741C17.663 77.3117 18.1052 77.5832 18.1052 77.5832L17.7993 78.2959L18.4123 78.6013L18.6175 80.3321C18.6175 80.3321 21.2097 81.3162 23.1201 81.1465C23.1201 81.1465 24.2454 82.1646 25.2688 82.47C26.2922 82.7754 29.3292 82.8772 30.7961 82.5718C30.9024 82.1373 30.9706 81.6945 31 81.2483C31 81.2483 30.011 80.3655 27.726 79.7211L25.269 77.6847C25.269 77.6847 25.6794 77.3454 25.6794 77.1757C25.6992 76.8331 25.6643 76.4894 25.5761 76.1576C25.4397 75.6487 25.7125 74.6645 25.167 74.5287L24.5527 73.9179C24.5527 73.9179 24.6215 68.4881 24.8599 65.1624C25.0982 61.8368 25.0995 55.9997 24.9631 53.9631C24.8268 51.9266 24.7579 46.8366 24.7579 46.8366L26.3956 46.6329C26.4505 45.5799 26.416 44.5241 26.2923 43.4769C26.0884 41.848 25.4741 36.6557 25.4741 36.6557C25.4741 36.6557 27.043 35.6717 27.7261 34.1106C27.8313 33.25 27.726 32.3768 27.419 31.5655C26.9066 30.2418 25.7813 28.3075 25.7813 28.3075L24.7579 23.4208C24.7579 23.4208 25.1326 22.6741 24.656 22.0973C24.656 22.0973 24.2456 21.4865 24.0417 20.0612C23.8378 18.6358 24.0073 17.4142 23.3255 17.4142C22.6436 17.4142 21.1423 17.177 20.2553 16.7015C19.3683 16.226 18.1053 15.5816 18.1053 15.5816C18.1053 15.5816 17.356 14.5296 16.6728 14.1564L16.7761 13.0364C16.7761 13.0364 18.7884 13.0364 19.2319 12.731C19.3586 12.6409 19.4554 12.5154 19.5101 12.3703C19.5648 12.2252 19.5749 12.0673 19.5391 11.9165L19.3339 10.7966C19.472 10.6489 19.5648 10.465 19.6012 10.2665C19.6375 10.068 19.616 9.86332 19.5391 9.67664L19.3339 8.96397C19.3339 8.96397 20.152 8.89612 20.3572 8.76041V8.35315C20.3572 8.35315 19.5391 7.06352 19.0267 6.52055C19.1588 6.16162 19.2282 5.78284 19.2319 5.40062C19.2319 5.40062 19.9137 4.4164 19.2319 4.28069C19.0761 3.70144 18.7934 3.1637 18.404 2.70605C18.0147 2.24841 17.5283 1.8822 16.98 1.6337C16.98 1.6337 17.5943 1.02288 17.5943 0.819317C17.5943 0.615753 16.1618 -0.0634525 14.5241 0.00479735C12.8865 0.0730472 10.1576 0.445921 9.30476 1.43014C9.30476 1.43014 7.258 2.21066 7.36033 4.28069C7.46267 6.35071 8.78036 10.3411 11.6585 11.6115Z" fill="#F92525"/>
</svg>
