<svg width="35" height="88" viewBox="0 0 35 88" fill="none" xmlns="http://www.w3.org/2000/svg">
<path d="M34.0491 35.2002C34.0491 35.2002 32.7639 29.9182 32.6707 28.7763C32.5774 27.6344 32.5774 24.6295 32.2911 23.2472C32.0047 21.865 31.8649 21.678 30.9593 20.1555C30.0536 18.633 29.7739 18.1054 28.9216 17.7248C28.0692 17.3442 25.4988 16.3893 25.026 16.0087C24.5532 15.628 24.3601 14.5596 24.3001 14.4261C24.1173 14.2862 23.9125 14.1779 23.6941 14.1055C21.8342 13.1664 19.8273 12.5543 17.7608 12.2959C17.3764 12.7282 17.0268 13.1904 16.7154 13.6782C16.7154 13.6782 11.9874 14.6331 10.5423 14.82C9.09731 15.007 7.40589 16.5362 6.79325 17.3642C6.18061 18.1923 4.66232 21.8182 4.12959 22.7731C3.59686 23.728 0.760069 28.8698 0.566954 29.631C0.373839 30.3923 -0.285415 31.4407 0.140769 32.4423C0.566954 33.444 0.760069 34.1985 1.4726 34.8196C2.18512 35.4406 2.23174 35.6276 2.32497 36.1083C2.41819 36.5891 2.56469 36.5825 2.79776 36.9631C3.03083 37.3437 2.89765 37.3905 3.18399 37.918C4.1702 39.3881 5.46586 40.6236 6.9797 41.5373C7.11625 41.7015 7.27545 41.8454 7.4525 41.9646C7.599 42.0114 8.0718 39.9613 9.96966 39.8211C9.30255 39.0786 8.69888 38.2812 8.16503 37.4372C8.02478 36.9744 7.99288 36.4854 8.0718 36.0082C8.11841 35.7745 7.55239 35.5808 7.40589 34.9665C7.37659 34.4312 7.28039 33.9018 7.11954 33.3905C6.84619 32.9838 6.698 32.5054 6.69336 32.015C6.73997 31.5342 6.5069 31.247 6.73997 30.9666C6.97304 30.6861 7.78546 29.1569 8.02519 28.7763C8.26492 28.3957 8.26492 28.2488 8.78433 27.9616C9.30374 27.6745 9.49686 27.2939 9.6367 27.4875C9.77654 27.6812 9.49686 29.8714 9.68331 31.3004C9.86977 32.7295 10.1162 35.6342 10.3958 36.5825C10.37 36.8064 10.3881 37.0332 10.4491 37.2502C10.5423 37.4906 10.6822 37.3905 11.0618 37.5841L11.4413 37.7711C11.4413 37.7711 15.1505 38.1517 16.0028 38.2519C16.8552 38.352 20.611 38.105 21.9961 38.2051C23.8274 38.3238 25.6505 38.5467 27.4565 38.8729C28.6485 39.16 29.0281 39.1133 29.2612 39.4004C29.4942 39.6876 29.4543 40.0214 29.5475 40.3486C29.6407 40.6758 29.5009 41.0164 29.9271 41.397C30.7276 42.0201 31.4322 42.7581 32.0181 43.5873C32.2977 44.1482 32.3177 44.2551 32.3111 44.2551C32.3044 44.2551 33.0236 43.9813 33.0702 43.5272C33.0746 43.4605 33.0746 43.3936 33.0702 43.3269C33.0702 43.3736 33.0702 43.4671 33.1901 43.4204C33.3099 43.3736 34.1889 43.4671 34.2355 42.8928C34.3048 41.4463 34.2267 39.9964 34.0025 38.5657C33.8006 37.6905 33.751 36.7868 33.856 35.8947C33.9026 35.3471 34.0491 35.2002 34.0491 35.2002Z" fill="#F1F2F2"/>
<path d="M25.892 9.14433C25.892 8.75035 25.8587 8.47657 26.0718 8.28292C26.406 7.62704 26.6117 6.91301 26.6777 6.17946C26.6898 4.90624 26.4095 3.64731 25.8587 2.50009C25.1928 1.35821 25.0729 1.28476 24.4336 0.890777C23.6786 0.479517 22.8587 0.201676 22.0097 0.069428C20.4648 -0.284487 16.6824 0.677093 16.0964 3.82226C15.8834 4.96035 15.9335 6.13226 16.2429 7.24789C16.2687 7.69664 16.3266 8.14296 16.416 8.58341C16.5226 8.90394 16.416 9.25118 16.6291 9.43815C16.8045 9.5824 17.0126 9.68103 17.2351 9.72529C17.1834 10.1273 17.2105 10.5356 17.315 10.9273C17.4277 11.214 17.4994 11.5152 17.5281 11.8221C17.6013 12.0358 17.4215 12.5366 17.6346 12.6768C17.8477 12.817 20.9642 15.5749 21.3771 15.8954C21.3771 15.8954 22.5491 15.3211 23.2616 14.8604C23.9741 14.3996 24.0807 14.2527 24.0807 14.1459C24.0807 14.039 23.7277 13.3245 23.9075 13.0708C24.4301 12.5004 24.8777 11.8653 25.2394 11.181C25.2394 11.181 25.6656 11.1076 25.6656 10.9273C25.6656 10.747 25.4924 10.2595 25.6656 9.99907C25.8036 9.73463 25.8809 9.4426 25.892 9.14433Z" fill="#212121"/>
<path d="M10.3496 46.252C10.3496 46.252 10.3728 46.2752 10.3496 46.252V46.252Z" fill="#212121"/>
<path d="M10.7279 40.5816C10.8882 40.3147 11.0881 40.0737 11.3206 39.8671C10.8212 39.7271 10.3143 39.6156 9.80233 39.5332C9.24435 39.6117 8.71258 39.8206 8.2499 40.1431C7.78722 40.4656 7.40658 40.8925 7.13867 41.3896C7.53496 41.9139 7.85553 42.4916 8.09093 43.1057C8.46384 44.094 10.1819 46.0105 10.3617 46.2375C10.2219 46.0506 9.33619 44.8219 9.42276 44.2343C9.73373 42.9756 10.171 41.7518 10.7279 40.5816Z" fill="#212121"/>
<path d="M9.32422 44.3942C9.54045 45.079 9.8965 45.7112 10.3697 46.2505C10.3697 46.2505 10.5895 48.0802 10.656 48.581C10.7226 49.0819 10.9424 52.5876 10.8958 54.01C10.8847 55.8548 10.9803 57.6987 11.1821 59.5324C11.322 60.5808 11.3686 63.7259 11.4152 64.6274C11.4618 65.5289 10.8958 67.2985 11.0356 68.2467C11.1755 69.1949 11.5084 71.6256 11.7015 73.0546C11.8946 74.4836 11.5617 76.2932 11.6549 77.3416C11.6976 78.1906 11.8089 79.0348 11.9879 79.8658C12.2059 80.547 12.3488 81.2501 12.4141 81.9625C12.3674 82.3432 11.8414 83.6319 12.2742 84.1528C12.7071 84.6737 13.313 85.0075 13.0334 85.3414C12.7537 85.6753 12.2742 85.7688 12.2742 86.1494C12.2544 86.4048 12.221 86.6589 12.1743 86.9107C12.1743 87.1043 11.9879 87.3447 12.6005 87.3447L17.6814 87.3915L18.6803 87.1511C18.9468 86.8005 19.2336 86.4661 19.5393 86.1494C19.6846 86.0404 19.7998 85.8963 19.8744 85.7304C19.9489 85.5646 19.9803 85.3825 19.9655 85.2012C19.8801 84.7142 19.8488 84.2193 19.8723 83.7254C19.9189 83.1044 19.9189 82.2029 19.9655 81.6754C20.0121 81.1479 19.3928 80.9142 19.819 80.3933C20.2452 79.8724 20.9644 76.6739 21.1042 75.345C21.2441 74.0162 20.6314 69.5355 20.6314 67.9996C20.6314 66.4637 20.2519 61.4756 20.2519 60.948C20.2519 60.4205 20.152 59.0916 20.1986 58.4239C20.2452 57.7561 20.465 56.0934 20.6448 56.0934C20.8245 56.0934 20.7846 57.2353 20.7846 57.469C20.7846 57.7027 21.4505 65.7092 21.5903 66.4237C21.7302 67.1382 21.5903 69.2817 21.8767 70.5171C22.1602 72.6651 22.3181 74.8279 22.3495 76.9944C22.4028 78.4234 22.0165 79.3783 22.1164 80.8541C22.2163 82.3298 21.9233 82.47 22.3029 83.3315C22.6824 84.1929 22.6824 84.2329 22.9222 84.8072C23.113 85.3585 23.225 85.934 23.2551 86.5167C23.3017 86.9507 23.3017 87.2779 23.5415 87.3314C23.7812 87.3848 33.417 87.3314 33.417 87.3314L33.4636 86.8973C33.4189 86.6915 33.3326 86.497 33.21 86.3259C33.0875 86.1547 32.9313 86.0106 32.7511 85.9023C32.1318 85.5217 31.7522 85.6619 31.2328 85.3281C30.7134 84.9942 30.3271 85.0409 30.3804 84.707C30.4337 84.3732 29.901 83.9458 29.901 83.6653C29.901 83.3849 29.6679 82.8507 29.8543 82.6169C30.2755 82.0927 30.6269 81.5158 30.8998 80.9008C30.9464 80.5669 31.1395 75.0913 31.0929 74.517C31.0463 73.9427 30.76 69.5688 30.427 68.0931C30.0941 66.6173 29.8543 66.2367 29.901 65.9028C29.9476 65.5689 30.0475 57.5224 30.1873 56.7545C30.3271 55.9865 30.9464 50.4708 31.2328 49.1353C31.5191 47.7998 31.5191 47.0452 31.7522 46.2839C31.9823 45.6821 32.1584 45.0608 32.2783 44.4276C32.128 43.9208 31.9036 43.4392 31.6123 42.9985C31.4259 42.6179 29.4748 40.7549 29.3349 40.0938C29.2355 39.6566 29.1087 39.2262 28.9554 38.805C27.4718 38.31 25.9443 37.9589 24.3938 37.7566C22.9222 37.7099 19.5527 37.5696 19.3129 37.6164C19.0732 37.6631 15.1843 37.8501 14.8979 37.7566C13.8629 37.5454 12.8151 37.4027 11.7615 37.3292C11.4751 37.376 11.4751 37.189 11.242 37.5229C10.802 38.1186 10.5388 38.827 10.4829 39.5662L10.5761 39.8534L11.322 39.8667C11.322 39.8667 10.07 40.628 9.32422 44.3942Z" fill="#F92525"/>
<path d="M8.03859 27.381C7.97365 27.4153 7.90413 27.44 7.83216 27.4544C7.40598 27.5479 5.60135 28.5028 6.02754 28.5028C6.70103 28.4786 7.35695 28.2809 7.93205 27.9285C8.59796 27.4077 9.07076 26.9803 9.26388 27.0271C9.45699 27.0738 9.45699 27.1206 9.64345 27.7416C9.8299 28.3626 10.356 31.6413 10.7355 31.3608C11.1151 31.0804 11.0685 30.3592 10.6423 29.5045C10.2407 28.7186 9.99853 27.8607 9.92979 26.9803C10.023 26.7399 10.7822 27.4077 11.2616 27.2608C11.7411 27.1139 10.023 26.406 9.92979 25.9253C9.83656 25.4445 9.55022 25.0171 9.74333 24.5897C10.0725 22.8133 10.2618 21.0137 10.3094 19.2076C10.2627 18.3061 10.2161 15.201 9.59683 15.7352C9.28385 15.9956 9.64345 17.3979 9.74333 17.9254C9.87236 19.5714 9.91903 21.2229 9.88318 22.8736C9.83656 24.2091 9.31049 25.3977 9.31049 24.9236C9.31049 24.4495 9.21726 18.493 9.07742 18.7334C8.81528 19.417 8.68643 20.1447 8.69785 20.877C8.79108 21.3511 8.69785 24.3026 8.79108 24.8835C8.78036 25.4954 8.7359 26.1063 8.65789 26.7132C8.65789 26.8868 8.38487 27.214 8.03859 27.381Z" fill="#E7E8E8"/>
<path d="M29.3949 19.9625C28.9687 19.1411 30.0142 22.6335 30.0608 23.0609C30.1294 23.4228 30.1761 23.7885 30.2006 24.156C30.2472 24.9173 29.9609 25.0108 30.1074 26.1059C30.2539 27.201 29.8211 28.1559 29.9609 28.6301C30.0606 29.131 30.0942 29.6429 30.0608 30.1526C30.1074 31.0607 30.0142 31.6283 30.0608 32.3428C30.1074 33.0573 29.9676 33.9187 29.9676 34.2994C29.9676 34.68 29.6879 34.5865 30.0208 35.1074C30.2679 35.5533 30.4432 36.0356 30.5402 36.5364C30.5869 36.9959 30.5869 37.4591 30.5402 37.9186C30.5869 38.3928 30.5869 38.9136 30.2073 38.9136C29.8277 38.9136 29.255 38.8201 29.3549 39.0605C29.4548 39.3009 29.6679 40.6364 29.9676 40.583C30.8266 40.4428 31.4925 41.0104 31.7256 40.8234C31.9586 40.6364 31.4459 39.8685 31.1129 39.6815C30.78 39.4946 30.6335 39.0605 30.9664 39.1073C31.2994 39.154 32.2516 39.2475 31.9653 38.967C31.679 38.6866 30.9198 38.5864 30.9198 38.2993C30.9198 38.0121 30.6801 37.4913 31.1595 37.538C31.639 37.5848 32.7711 37.725 32.3449 37.4913C31.9187 37.2576 30.8732 37.2509 30.8732 36.9637C30.8732 36.6766 30.3005 35.9153 30.7267 35.1074C31.1529 34.2994 31.9187 32.9638 31.5391 33.3445C31.1595 33.7251 30.4936 34.4863 30.4936 34.4863C30.4936 34.4863 30.4004 30.8203 30.447 30.3462C30.4936 29.8721 30.5402 28.6301 30.6335 28.1559C30.7267 27.6818 31.8255 22.0125 31.5391 22.1461C31.2528 22.2796 30.9664 22.1461 30.9664 23.0075C30.9664 23.8689 30.3471 27.1476 30.3471 27.1476C30.3471 27.1476 30.9598 23.0142 29.3949 19.9625Z" fill="#E7E8E8"/>
<path d="M24.4082 15.7754C24.4082 15.7754 24.2279 16.5901 23.9941 17.4314C24.101 17.2311 24.1945 17.0308 24.2679 16.8705C24.6018 16.1093 24.4082 15.7754 24.4082 15.7754Z" fill="#E7E8E8"/>
<path d="M16.5752 15.1067C16.5752 15.4406 17.907 16.2019 18.1401 16.6292C18.3731 17.0566 19.3121 17.9648 19.3121 18.4389C19.3121 18.913 19.978 19.9146 19.8381 19.534C19.6983 19.1534 19.4053 19.0132 19.7849 18.8663C20.1091 18.6975 20.4001 18.4713 20.6439 18.1985C20.6439 18.1985 20.9302 18.8663 20.7837 19.0599C20.6372 19.2536 20.1644 35.9143 20.1644 35.9143L22.2221 37.3967C22.2221 37.3967 24.1666 36.0144 24.4529 35.734C24.7393 35.4535 24.4995 34.3517 24.2665 33.7307C24.0334 33.1096 22.9813 27.5872 23.221 27.634C23.4607 27.6807 24.979 30.1581 25.545 30.7324C26.1111 31.3067 24.4529 28.2083 23.8869 27.1131C23.4868 26.0782 23.2618 24.9837 23.221 23.8745C23.221 23.8745 24.12 24.3486 24.2199 24.0147C24.3197 23.6808 23.6472 22.2118 23.2676 21.4438C22.8882 20.7547 22.6015 20.0182 22.4152 19.2536C22.4618 19.0666 22.8414 19.5874 23.2676 19.307C23.6207 18.7327 23.8603 18.0956 23.9735 17.4306C23.6006 18.1785 23.1078 19.0599 23.1078 19.0599C23.1078 19.0599 22.9147 18.8195 22.5817 18.4856C22.2488 18.1518 22.4885 17.4907 22.4419 16.9164C22.398 16.6635 22.2619 16.4359 22.0601 16.278C21.8582 16.12 21.6051 16.0429 21.3498 16.0616C20.8703 16.0616 20.8703 16.2019 20.4907 16.8696C20.2371 17.3783 20.0641 17.9235 19.978 18.4856C19.978 18.4856 17.8537 16.0283 17.1412 15.3004C16.9354 15.0906 16.7878 14.8305 16.713 14.5459C16.6382 14.2613 16.6389 13.962 16.715 13.6777C16.5774 14.1407 16.53 14.6258 16.5752 15.1067Z" fill="#E7E8E8"/>
<path d="M19.7513 21.1035C19.7047 21.5375 19.7979 34.8661 19.7979 34.8661L22.415 36.9629L24.3128 35.2C24.3128 35.2 23.0276 21.9182 23.0276 21.4374C23.0276 20.9566 22.4616 19.6277 22.415 18.9666C22.3684 18.3056 22.1286 17.7246 22.2219 17.5376C22.3151 17.3507 22.8878 16.0619 21.556 16.0352C20.4306 16.0352 20.1442 18.0384 20.6703 18.1987C21.1964 18.359 20.4772 19.2004 20.2441 19.581C19.9866 20.0532 19.8194 20.5696 19.7513 21.1035Z" fill="#212121"/>
<path d="M5.5548 34.2984C5.88575 33.8412 6.18821 33.3639 6.46044 32.8693C6.69351 32.5355 6.55367 31.6273 6.50705 31.1064C6.11711 31.1794 5.75512 31.3598 5.46157 31.6273C4.88888 32.1081 4.88888 32.3886 5.31507 32.1081C5.6557 31.8622 6.02187 31.654 6.40716 31.4871C6.60028 31.4403 5.98098 32.3886 5.69464 33.2032C5.40829 34.0179 5.082 34.866 5.5548 34.2984Z" fill="#E7E8E8"/>
<path d="M25.2128 40.8695C25.2128 40.8695 26.8775 40.4889 27.0174 40.4889C27.1572 40.4889 27.4436 38.8662 27.4436 38.8662C27.4436 38.8662 25.0729 38.8662 22.8887 38.726C20.7045 38.5857 16.8089 37.918 16.6491 37.918C16.4893 37.918 16.2695 39.4872 16.2695 39.4872L16.9821 39.8211C16.9821 39.8211 19.7989 41.1032 25.2128 40.8695Z" fill="#1A1A1A"/>
<path d="M15.3834 39.1064L15.5765 37.871C15.5765 37.871 13.339 37.7241 12.9661 37.6773L11.7275 37.5371C11.7275 37.5371 11.1615 37.9177 11.1082 38.1515C11.0549 38.3852 13.7252 38.9127 13.8651 38.9127C14.0049 38.9127 15.3834 39.1064 15.3834 39.1064Z" fill="#1A1A1A"/>
<path d="M28.9679 38.7725L28.4418 38.8192L28.0156 40.3417C28.0156 40.3417 28.9679 40.2482 29.1077 40.0145C29.2476 39.7808 28.9679 38.7725 28.9679 38.7725Z" fill="#1A1A1A"/>
<path d="M24.0734 39.1068L20.3709 38.5859V38.8664C20.3709 38.8664 19.8981 40.676 20.0846 40.7228C21.3401 40.9386 22.6133 41.0347 23.8869 41.0099C23.8869 41.0099 20.6572 40.676 20.6572 40.3422C20.7331 39.8276 20.8444 39.3189 20.9902 38.8197L24.0734 39.1068Z" fill="#F1F2F2"/>
</svg>
