<svg width="32" height="87" viewBox="0 0 32 87" fill="none" xmlns="http://www.w3.org/2000/svg">
<path d="M0.160102 38.3209C0.28244 39.434 0.505327 40.5336 0.826016 41.6063C0.965857 41.8467 1.34543 41.8467 1.63177 41.7932C1.91811 41.7398 3.76935 40.2707 3.76935 39.3225C3.67561 38.9791 3.611 38.6284 3.57624 38.2741C3.48429 37.7228 3.45303 37.1629 3.48301 36.6047C3.57624 36.4178 3.81597 36.5112 3.86258 36.2241C3.9092 35.937 3.62951 35.129 3.67613 34.9353L4.14892 32.9854C4.24215 32.6048 4.28877 32.7451 4.48188 32.6516C4.675 32.5581 3.57624 31.0356 11.0811 30.3211C11.0811 30.3211 17.6337 29.9872 18.0665 30.3678C18.4994 30.7484 18.8257 30.655 19.0121 30.4613C19.1986 30.2676 19.152 29.4597 19.3451 29.079C19.5382 28.6984 19.152 27.7435 19.0121 27.1292C18.8723 26.5148 18.2996 25.2728 18.3462 24.7987C18.3928 24.3246 18.3462 23.797 18.5393 23.6501C18.7324 23.5032 19.678 21.7937 19.8711 21.5133C19.9914 21.2523 20.1508 21.0113 20.3439 20.7988C20.5304 20.6519 20.8167 20.4649 20.8167 20.4649C20.8167 20.4649 23.3339 22.3213 24.3328 23.1359C25.0349 23.6266 25.6591 24.221 26.184 24.8988C26.4237 25.3262 26.517 25.2795 26.3239 25.6601C26.0326 26.0495 25.853 26.5113 25.8044 26.9956C25.8044 27.61 25.6113 27.3762 25.4715 27.5632C25.3316 27.7502 24.8522 27.8036 24.8988 28.1842C24.9454 28.5649 24.8522 28.8987 24.6657 28.9922C24.4793 29.0857 23.7601 29.4663 23.7601 29.6132C23.7601 29.7601 22.102 32.518 21.8622 32.8519L21.6225 33.1858C21.6225 33.1858 23.9998 34.755 24.5192 34.5614C25.0383 33.8367 25.594 33.1391 26.184 32.4713C26.7034 31.9437 29.2206 29.2794 29.6468 28.8987C30.0729 28.5181 30.0263 27.7569 30.4126 27.2761C30.8541 26.7131 31.2653 26.1268 31.6445 25.5199C31.8525 25.0601 31.9175 24.5481 31.831 24.0508C31.831 23.4364 30.2194 22.1009 29.8332 21.4331C29.447 20.7654 27.982 19.6702 26.3638 18.2946C24.7456 16.9191 22.1885 14.9091 21.7024 14.6286C21.4272 14.4696 21.1853 14.2587 20.9899 14.0076C20.437 13.7928 19.8723 13.6099 19.2985 13.46C18.9532 13.2958 18.5849 13.1855 18.2064 13.1328C17.7336 13.0794 16.495 12.9859 16.2619 12.5586C16.0288 12.1312 15.7358 11.8908 15.6892 11.5102C15.6426 11.1295 15.1631 11.223 15.1631 11.223C15.1631 11.223 11.2276 11.4634 9.42296 12.1779C8.9435 12.3649 8.04452 11.6504 5.90694 14.3215C5.49992 14.6867 5.05316 15.0048 4.57511 15.2697C5.09431 15.0492 5.63736 14.89 6.19328 14.7956C6.33312 14.8891 3.62951 16.0844 3.24994 16.2713C2.85245 16.5382 2.52564 16.898 2.29768 17.3197C2.05796 17.7003 2.29768 18.4616 1.96473 18.9891C1.63177 19.5167 1.11236 22.7486 1.06574 23.4631C1.01913 24.1776 1.01247 26.5081 0.87263 26.9889C0.632787 27.7174 0.458946 28.4661 0.353217 29.2259C0.353217 29.7001 0.160102 30.7952 0.206716 31.0823C0.25333 31.3695 0.113488 33.1257 0.02026 34.2275C-0.0312472 35.5935 0.0154878 36.9616 0.160102 38.3209Z" fill="#F1F2F2"/>
<path d="M6.64654 12.5114L7.21923 12.8453C7.56884 12.5384 7.97023 12.2964 8.40455 12.1308C8.92397 11.9839 9.02385 12.2243 9.02385 12.2243C8.69691 12.6439 8.46922 13.1325 8.35794 13.6533C8.31132 14.2743 8.25805 15.4162 8.49778 15.7033C8.76483 16.3767 8.95689 17.0777 9.07047 17.7934C9.89459 17.0678 10.6709 16.2893 11.3945 15.4629C11.9206 14.7484 12.0138 13.8403 12.4866 13.6065C12.9594 13.3728 13.2457 13.7935 13.7718 13.3661C14.1684 13.0485 14.5045 12.6617 14.764 12.2243C15.0504 11.7969 14.9105 11.3695 15.1436 11.2226C15.3767 11.0757 15.7629 11.2226 16.0026 10.9889C16.2471 10.6444 16.4589 10.2778 16.6352 9.89377C16.7751 9.65337 16.5354 9.13252 16.6819 8.79864C16.8284 8.46476 16.7285 7.98397 16.9149 7.26946C17.1279 6.67788 17.3036 6.07348 17.441 5.45982C17.6741 4.31794 17.8672 2.78877 17.0614 1.74705C16.622 1.14618 16.0346 0.669912 15.3567 0.364784C14.4044 0.131067 14.1248 0.418205 13.9716 0.271297C13.7304 0.133526 13.4639 0.0459578 13.1882 0.0138315C12.9124 -0.0182948 12.633 0.00568065 12.3667 0.0843236C11.3004 0.368331 10.3615 1.00621 9.70308 1.89396C9.70308 1.89396 9.03717 1.51334 7.89846 2.98909C6.75975 4.46485 6.95286 4.5116 6.99948 4.84548C7.04609 5.17936 6.64654 6.08084 6.71313 6.6885C6.78343 7.04439 6.87913 7.39475 6.99948 7.73689C7.0927 8.16426 6.90625 8.16426 6.95286 8.49814C6.99948 8.83202 6.80636 8.63837 7.13932 9.16591C7.47227 9.69344 7.57216 9.44637 7.33243 9.9739C7.0927 10.5014 7.04609 10.0206 7.0927 10.4948C7.13932 10.9689 7.33243 10.9755 7.04609 11.3562C6.75975 11.7368 6.38018 11.5431 6.52668 12.0239C6.67318 12.5047 6.09383 12.1775 6.64654 12.5114Z" fill="#212121"/>
<path d="M9.3101 22.4414C9.34349 22.5415 9.3101 22.3345 9.25 22.0273C9.2517 22.1674 9.27191 22.3066 9.3101 22.4414Z" fill="#E7E8E8"/>
<path d="M8.94332 17.8677C8.81044 17.6139 8.65202 17.3745 8.47052 17.1532C8.11759 16.7725 6.14648 14.9629 6.14648 14.9629C6.4528 15.2968 7.85122 16.6523 8.06432 16.9128C8.27741 17.1732 8.47052 17.2734 8.54377 17.5805C8.61702 17.8877 9.13644 18.9828 8.98994 19.4102C8.92089 19.8301 8.93902 20.2597 9.04321 20.6723C9.04321 20.8459 9.18305 21.5671 9.26296 22.0479C9.27328 21.8343 9.30224 21.622 9.34953 21.4135C9.46642 20.7674 9.45283 20.1043 9.30957 19.4636C9.18971 19.2032 9.30957 19.0362 9.30957 18.9428C9.21956 18.5742 9.09699 18.2144 8.94332 17.8677Z" fill="#E7E8E8"/>
<path d="M17.6812 13.5598C17.8551 13.5261 18.0307 13.5016 18.2073 13.4863L17.002 13.5464C17.2259 13.5897 17.4557 13.5943 17.6812 13.5598Z" fill="#E7E8E8"/>
<path d="M15.0493 13.821C14.6431 13.821 14.43 14.1749 14.0505 14.3886C13.6709 14.6023 12.7186 15.1031 11.5599 15.7241C10.9587 16.0935 10.4433 16.5875 10.0483 17.1732C9.91265 17.3555 9.79025 17.5475 9.68207 17.7475C9.68207 17.7475 9.60881 18.0546 9.77529 17.7475C10.1038 17.261 10.4858 16.813 10.914 16.4119C11.3222 16.0927 11.7698 15.8278 12.2458 15.624C12.7652 15.3635 13.2447 15.27 13.3845 15.1766L14.1437 14.629C14.3579 14.387 14.638 14.2129 14.9494 14.1282C15.2014 14.0915 15.4349 13.9744 15.6154 13.7943C15.7494 13.6743 15.9124 13.5914 16.0882 13.5539L16.9738 13.5205L16.7541 13.4871C16.3279 13.4137 15.8284 13.2734 15.8284 13.2734C15.8284 13.2734 15.9217 13.3669 15.7552 13.4871C15.569 13.6818 15.3176 13.8007 15.0493 13.821Z" fill="#E7E8E8"/>
<path d="M1.98497 21.3796C1.98497 21.5198 1.98497 21.827 2.19807 21.9005C2.41116 21.9739 3.48328 21.9739 3.69637 22.2611C3.77305 22.3654 3.82741 22.4845 3.85606 22.6109C3.8847 22.7373 3.88702 22.8683 3.86285 22.9956C3.86285 23.2827 3.54987 23.6166 3.74299 23.8503C3.94768 24.2681 4.06979 24.7216 4.10258 25.1859C4.16917 25.6867 4.28904 25.9204 4.02933 26.301C3.76962 26.6817 2.74412 27.8035 3.05709 27.6366C3.36359 27.4644 3.63656 27.2382 3.86285 26.9688C4.04931 26.7551 3.90946 27.5431 4.00269 27.8302C4.05712 27.9234 4.08581 28.0294 4.08581 28.1374C4.08581 28.2454 4.05712 28.3514 4.00269 28.4446C3.88283 28.7784 3.64976 28.9921 3.66974 29.1858C3.68971 29.3794 3.36342 29.2793 2.95721 29.3527C2.551 29.4262 2.39118 29.6866 2.74412 29.5864C2.8975 29.5269 3.06486 29.5135 3.22572 29.5479C3.38657 29.5823 3.53393 29.663 3.64976 29.7801C3.81624 30.0205 3.52989 30.0873 3.29016 29.9938C3.05044 29.9003 2.53102 29.8268 2.67752 29.9003C2.82402 29.9737 3.03046 30.1607 3.34344 30.3009C3.65642 30.4412 3.67639 30.6148 3.67639 30.735C3.67639 30.8552 3.43667 30.8018 3.2036 30.8018C2.97053 30.8018 3.08373 30.9687 3.2036 30.9954C3.29187 31.0347 3.36392 31.1033 3.4076 31.1897C3.45127 31.2761 3.46389 31.3749 3.44332 31.4695C3.37007 31.6365 3.27685 31.8769 3.27685 31.8769C3.27685 31.8769 3.77628 30.8952 4.00935 30.3744C4.15036 30.1044 4.25558 29.817 4.32233 29.5197C4.32233 29.3727 4.24908 29.4262 4.41556 29.2058C4.58204 28.9854 4.53542 28.8986 4.46217 28.705C4.39499 28.3682 4.3549 28.0265 4.34231 27.6833C4.28893 27.4389 4.30508 27.1844 4.38892 26.9488C4.4513 26.6188 4.46922 26.2819 4.4422 25.9471C4.4422 25.7067 4.4422 25.6132 4.4422 25.2326C4.43031 24.8771 4.3721 24.5246 4.26906 24.1842C4.22244 23.9238 4.0826 23.7569 4.10924 23.4697C4.13149 23.2477 4.13149 23.024 4.10924 22.802C3.99989 22.3925 3.85735 21.9928 3.68305 21.6067C3.58983 21.2995 3.58983 21.206 3.68305 21.0591C3.77628 20.9122 3.68305 20.9189 3.77628 20.585C3.86951 20.2511 4.4422 19.2495 4.2291 19.3029C3.9018 19.3793 3.60904 19.5625 3.39671 19.8237C3.29787 19.9819 3.23427 20.1595 3.21026 20.3446C3.21026 20.418 2.37786 19.8972 2.39784 18.6084C2.34868 18.9158 2.34868 19.2292 2.39784 19.5366C2.49773 19.6835 2.39784 20.0842 2.71082 20.2978C2.96793 20.5004 3.19252 20.7414 3.37673 21.0123C3.51658 21.206 3.44998 21.3462 3.28351 21.206C3.11703 21.0658 1.99829 19.8705 1.95168 19.964C1.90506 20.0574 1.90506 20.4915 2.09152 20.6317C2.63131 21.0041 3.1473 21.41 3.63644 21.8471C3.74965 21.9873 1.98497 21.1993 1.98497 21.3796Z" fill="#E7E8E8"/>
<path d="M17.8469 22.7491C18.0867 22.6088 18.706 22.0346 19.0855 21.7274C19.4651 21.4202 19.4651 21.5137 19.6049 21.3935C19.7448 21.2733 20.0578 21.0196 20.2708 20.8793C20.4471 20.7178 20.6442 20.5808 20.8569 20.472C21.0566 20.3985 21.2164 20.8059 21.3629 20.8059C21.5094 20.8059 22.0289 19.4704 21.7159 19.6306C21.4029 19.7909 20.8835 20.1515 20.9101 20.0313C20.9368 19.9111 22.1687 18.6957 21.909 18.7492C21.4583 19.0675 21.031 19.4178 20.6304 19.7976C20.5106 19.8443 20.2242 19.6039 20.1776 19.3234C20.131 19.043 19.6316 16.5122 19.9845 15.7242C20.3374 14.9362 21.0766 14.4621 20.4107 14.6291C20.1576 14.6958 19.7981 15.3903 19.7981 15.8177C19.7082 16.5777 19.6837 17.3439 19.7248 18.1081C19.8447 18.8427 19.7248 19.5371 19.818 19.6774C19.9113 19.8176 19.272 19.437 19.1055 19.2033C18.939 18.9695 18.5395 18.3886 18.4929 18.5355C18.4462 18.6824 18.4929 18.8026 18.7526 19.063C19.0123 19.3234 19.1788 19.9645 19.4851 20.038C19.7914 20.1114 19.7514 20.2516 19.4385 20.3718C19.1255 20.492 18.1066 20.9929 18.4196 20.9661C18.6932 20.8925 18.9712 20.8368 19.252 20.7992C19.4851 20.7992 19.252 21.1798 19.252 21.2733C19.252 21.3668 17.6139 22.8893 17.8469 22.7491Z" fill="#E7E8E8"/>
<path d="M16.987 26.2082C17.2273 26.0851 17.435 25.9066 17.593 25.6873C17.6796 25.5671 17.9326 25.0196 18.0392 24.866C18.2661 24.5359 18.3891 24.1451 18.3921 23.7441C18.3921 23.7441 15.9682 25.5137 16.168 25.3868C16.3677 25.26 16.987 24.8526 17.3466 24.6523C17.7062 24.452 18.179 24.0446 18.1257 24.2583C18.0725 24.472 16.754 26.295 16.987 26.2082Z" fill="#E7E8E8"/>
<path d="M18.7856 30.2945C19.0889 29.8904 19.2734 29.4093 19.3183 28.9055C19.3183 28.812 17.4338 29.6735 17.7335 29.6534C18.0331 29.6334 18.3062 29.393 18.699 29.393C19.0919 29.393 19.2318 29.393 19.052 29.7202C18.8722 30.0474 18.5725 30.5616 18.7856 30.2945Z" fill="#E7E8E8"/>
<path d="M26.6244 27.0489C26.7642 27.5832 26.9773 26.6149 26.944 26.2944C26.9107 25.9738 26.8708 25.3862 27.2304 25.3862C27.59 25.3862 29.4745 25.4597 29.581 25.3128C29.6876 25.1659 27.0839 25.1725 26.6577 25.2059C26.2315 25.2393 26.944 24.8854 27.2637 24.6049C27.5833 24.3245 28.3358 24.211 28.1893 23.9372C28.0428 23.6634 26.711 24.7919 26.4779 24.9388C26.2448 25.0857 26.5178 25.473 26.3247 25.6533C26.1316 25.8336 26.4779 26.5081 26.6244 27.0489Z" fill="#E7E8E8"/>
<path d="M2.29771 57.4386C3.01023 57.6323 18.9455 57.1114 20.7701 56.4437C20.7701 56.4437 20.9566 50.3937 20.6769 44.6777C20.9568 44.0491 21.1797 43.3965 21.3428 42.7278C21.6292 41.5859 20.87 36.8248 20.4439 35.7297C20.0177 34.6345 18.879 30.8683 18.7325 30.5879C18.586 30.3074 18.1598 29.3926 17.5405 29.3926C16.9212 29.3926 11.8402 29.5862 10.0822 29.8734C8.53086 30.0544 7.00364 30.4037 5.52739 30.9151C4.64838 31.3959 4.34206 31.9368 4.34206 32.0636C4.50021 32.4809 4.62708 32.9095 4.72163 33.3457C4.76825 33.7264 4.28879 35.3023 4.52852 35.6829C4.76825 36.0635 4.19556 36.157 4.24217 36.8248C4.28879 37.4925 3.98247 37.6528 4.10233 38.0334C4.2222 38.4141 3.57626 38.7012 3.52965 39.1286C3.48303 39.5559 2.58405 41.5592 2.58405 47.7027C2.58405 53.8461 2.65064 55.8894 2.34432 56.4637C2.038 57.038 1.58518 57.2717 2.29771 57.4386Z" fill="#212121"/>
<path d="M7.31243 41.8673C7.09934 41.5134 6.28027 41.1995 6.20702 40.9391C6.13377 40.6787 5.3946 40.0777 5.25476 39.9374C4.82631 39.7317 4.38065 39.5641 3.92293 39.4366C3.64054 39.3326 3.33971 39.2884 3.03942 39.3068C2.73914 39.3252 2.44591 39.4058 2.17824 39.5435C1.64053 39.8151 1.18867 40.2313 0.873047 40.7454C0.873047 40.7454 1.40578 41.7805 1.69212 42.3147C1.97846 42.8489 1.97846 43.3163 2.19156 43.6502C2.40465 43.9841 3.36356 46.6885 4.14934 47.0425C4.14934 47.0425 4.61548 47.1894 4.64878 46.9356C4.64878 46.9356 5.3946 47.6835 5.60769 47.6034C5.80782 47.4792 5.96032 47.291 6.04054 47.0692C6.10713 46.8889 5.10826 45.4999 5.10826 45.4999C5.10826 45.4999 6.44009 46.8354 6.81966 46.8354C7.19923 46.8354 7.24584 46.5149 7.2858 46.3346C6.93514 45.7619 6.52921 45.2251 6.07383 44.732C6.5063 45.011 6.97153 45.2353 7.45893 45.3998C7.5356 45.3364 7.59306 45.2528 7.62484 45.1584C7.65661 45.064 7.66142 44.9625 7.63873 44.8655C7.17168 44.2119 6.65992 43.5916 6.10713 43.0092C5.84635 42.6363 5.64214 42.2267 5.50115 41.7938C5.50115 41.7938 6.57327 42.5818 7.03275 42.5083C7.49223 42.4349 7.49889 42.2279 7.31243 41.8673Z" fill="#212121"/>
<path d="M16.3088 31.6766C15.9204 31.7606 15.5504 31.9144 15.2167 32.1307C14.9261 32.3102 14.654 32.5183 14.4043 32.7517C14.1912 32.9854 13.5786 33.4195 14.0048 33.7266C14.431 34.0338 14.9304 33.2993 15.1635 33.2258C15.3965 33.1524 16.0425 32.9854 16.3554 32.8652C16.6684 32.745 17.0879 33.1524 17.1612 33.1257C16.834 33.185 16.5145 33.2814 16.2089 33.4128C15.8542 33.6112 15.5137 33.8344 15.1901 34.0806C15.0503 34.2475 14.5708 34.7016 14.4776 34.7951C14.3843 34.8885 13.8849 35.3226 14.1712 35.5563C14.4576 35.79 15.5031 35.1289 15.6895 34.9887C16.1236 34.6851 16.5933 34.4362 17.0879 34.2475C17.2811 34.2475 17.5208 34.2475 17.5208 34.2475L16.9015 34.7483C16.7816 34.8418 16.1623 35.2491 16.0225 35.4161C15.8826 35.583 15.1635 35.77 15.4032 36.2241C15.6429 36.6782 15.9958 36.2241 16.2356 36.1306C16.4753 36.0371 17.7339 35.3226 18.0136 35.2491C18.2933 35.1757 18.6329 34.962 18.8926 35.1757C19.1872 35.4298 19.5517 35.5881 19.9381 35.6298C20.4647 35.774 21.0142 35.8149 21.5562 35.75C21.9558 35.583 23.7138 34.3677 23.8337 34.321C23.2273 33.8184 22.5248 33.4457 21.7693 33.2258C21.5278 33.2865 21.2773 33.3024 21.0302 33.2726C20.4455 32.9307 19.8909 32.5397 19.372 32.104C19.1523 31.8903 18.4664 31.4362 18.2999 31.296C18.1334 31.1558 17.4675 30.508 17.1878 30.488C16.5032 30.3621 15.8015 30.3621 15.1168 30.488C14.4043 30.7017 14.1912 30.8018 14.4509 31.109C14.7106 31.4162 15.2101 31.2292 15.7828 31.2492C16.2136 31.2113 16.6437 31.3298 16.9947 31.5831L17.2344 31.8235C16.9399 31.7088 16.6243 31.6587 16.3088 31.6766Z" fill="#212121"/>
<path d="M14.9307 56.8918C14.4579 56.7983 8.93748 56.0838 4.14956 57.5128C4.11831 58.0714 4.23309 58.6284 4.48252 59.1288C4.86209 59.6497 5.00859 61.9868 4.9087 63.703C4.80881 65.4192 5.66784 72.2237 6.57349 74.7011L7.0929 76.6509C7.01399 76.7346 6.95082 76.8319 6.90644 76.9381C6.85983 77.0783 7.0929 77.5124 7.13951 77.7461C7.18613 77.9798 7.2394 79.322 7.28601 79.6492C7.33263 79.9764 6.90644 82.7142 6.90644 83.983C6.90644 84.1299 6.52687 84.417 7.18613 84.7509C7.18613 84.7509 7.66558 85.8928 7.75881 86.1265L9.37698 86.1732C9.37698 86.1732 13.4124 86.1732 13.5989 86.0798C13.7853 85.9863 13.9784 84.9846 14.1716 84.604C14.3647 84.2234 14.6444 84.0364 14.691 83.8427C14.7376 83.6491 14.7376 82.8411 14.7842 82.6541C15.2538 80.9957 15.32 79.2485 14.9773 77.5591L15.1638 77.2252C14.9841 76.9417 14.9175 76.6008 14.9773 76.2703C15.1172 75.8429 16.2625 70.5075 17.3014 66.9216C18.3402 63.3357 17.8274 61.7264 17.6809 59.6296C17.6809 59.6296 17.4945 57.4928 18.1138 56.825C18.1138 56.8451 15.4035 56.9853 14.9307 56.8918ZM12.034 76.1368C11.8941 76.5174 11.8941 76.3237 11.6544 76.5641C11.4147 76.8045 11.7943 76.9447 11.6544 77.3254C11.5146 77.706 11.4147 78.1334 11.0817 78.2803C10.7488 78.4272 10.7022 77.9464 10.6089 77.4656C10.5009 76.8262 10.2751 76.2125 9.94301 75.656C9.61005 75.2286 9.94301 75.3288 9.98962 73.853C10.0362 72.3772 10.2294 69.6127 10.4158 68.5643C10.5828 66.9673 10.6629 65.3622 10.6555 63.7564C10.652 62.9316 10.5241 62.1121 10.276 61.3258C9.98962 60.4243 10.8886 58.5879 11.1283 58.6146C11.5612 58.6614 11.7476 60.1839 11.7942 60.7582C11.8409 61.3324 11.8409 63.6629 11.7942 64.7647C11.7476 65.8666 11.8409 73.5725 11.9408 74.3338C12.08 74.9242 12.1116 75.535 12.034 76.1368Z" fill="#212121"/>
<path d="M18.7249 45.8471C18.4452 46.3212 19.3442 45.7469 19.7238 45.3663C20.1034 44.9857 20.3897 44.6518 20.3897 44.7987C20.3897 44.9456 18.6317 49.226 19.0579 48.8921C19.4841 48.5582 20.7693 45.3663 20.7693 45.2261C20.7693 45.0858 20.7227 43.6034 21.0556 43.2695C21.0556 43.2695 19.0113 45.3663 18.7249 45.8471Z" fill="#1A1A1A"/>
</svg>
