<svg width="29" height="90" viewBox="0 0 29 90" fill="none" xmlns="http://www.w3.org/2000/svg">
<path d="M16.4069 17.7957C16.4069 17.7957 16.2271 16.7606 16.1605 16.3266C15.8774 15.4694 15.5069 14.6437 15.0551 13.8625C14.8753 13.6489 10.0341 11.9394 8.6823 12.1865C8.6823 12.1865 8.14291 12.1865 8.10961 12.3267C8.07632 12.4669 11.5657 16.1864 12.771 19.1512C13.6638 21.3684 13.9467 23.7852 13.5901 26.1494C13.377 27.3647 12.9242 32.827 12.9242 33.7953C12.9242 34.7635 12.7111 38.0089 12.7111 38.6499C12.7111 39.291 12.7111 39.4713 12.7843 39.4713C12.8576 39.4713 19.0506 40.4729 20.2625 40.139C20.2625 40.139 20.3691 38.6032 20.4024 37.8553C20.4357 37.1074 20.722 34.5165 20.0095 33.5682C19.297 32.62 18.6444 33.0407 18.6444 31.6852C18.6444 30.3296 17.0062 26.343 17.0062 24.9341C17.0062 23.5251 16.2204 19.4384 16.1139 18.7239C16.0073 18.0094 15.7943 17.4751 15.761 17.0812C15.7277 16.6872 16.4069 17.7957 16.4069 17.7957Z" fill="#F1F2F2"/>
<path d="M13.4309 18.7575C13.4309 19.1849 14.2101 21.7825 14.4032 22.7107C14.52 23.349 14.6023 23.9933 14.6496 24.6405C14.6496 24.6405 15.4553 35.1177 15.5752 35.278C16.4918 36.1133 17.4763 36.8705 18.5185 37.5417C18.7582 37.5417 19.564 36.0927 19.564 36.0927C19.564 36.0927 15.402 20.1398 15.1623 19.3786C14.9997 18.7984 14.919 18.1982 14.9226 17.5956C14.9029 17.0712 14.8315 16.55 14.7095 16.0397C14.4674 15.8416 14.1807 15.7057 13.8743 15.6441C13.5679 15.5824 13.2511 15.5967 12.9515 15.6858C12.3988 15.8795 12.4321 16.5406 12.4787 16.8744C12.5253 17.2083 12.8849 17.4688 13.098 17.8494C13.2929 18.1142 13.4084 18.4292 13.4309 18.7575Z" fill="#212121"/>
<path d="M7.21748 7.75949C7.36399 8.42726 7.43058 8.22025 7.75687 8.76114C7.98992 9.10829 8.11293 9.51794 8.10981 9.9364C8.1431 10.3638 8.3229 10.297 8.64254 10.6843C8.96218 11.0716 8.54265 12.1066 8.68249 12.1868C9.8878 12.8545 12.951 14.938 12.951 14.938C12.951 14.938 13.1641 15.3653 13.4504 15.4388C13.7368 15.5122 15.0553 13.8629 15.0553 13.8629L15.0886 13.6492C15.1285 13.4355 15.6613 12.9814 15.6613 12.9814C16.2648 11.9584 16.6524 10.822 16.8 9.64259C16.8333 9.24861 16.7267 8.56749 16.7667 8.38719C16.8066 8.20689 17.0863 6.60426 17.1529 6.17689C17.2195 5.74953 17.1529 5.2487 17.2994 5.14186C17.4459 5.03502 17.406 4.74788 17.4792 4.4741C17.4833 4.19149 17.4265 3.91132 17.3127 3.65275C17.2297 3.43043 17.108 3.22467 16.9531 3.04508C16.7068 2.75795 16.8866 2.86479 16.527 2.37732C16.1674 1.88985 16.527 2.37732 16.2073 2.19702C15.8877 2.01673 15.9809 2.01673 15.6946 1.68952C15.4082 1.36232 15.4482 1.50923 15.0886 1.36232C14.729 1.21541 14.8755 1.29554 14.5891 0.901563C14.3028 0.507582 14.3761 0.794721 13.8766 0.687878C13.3772 0.581036 13.3173 0.681201 12.991 0.220444C12.6647 -0.240313 12.325 0.153668 11.8522 0.220444C11.3794 0.28722 11.5259 0.434128 11.1863 0.40074C10.8145 0.411249 10.4546 0.534657 10.1542 0.754655C9.76827 1.03017 9.33128 1.22543 8.86895 1.32893C8.40947 1.36232 7.94333 1.9366 7.65699 2.21706C7.37064 2.49752 7.5904 3.00502 7.55044 3.399C7.49251 3.78501 7.37336 4.15923 7.19751 4.50749C7.05767 4.82801 7.30405 5.25538 7.33735 5.57591C7.35712 5.85697 7.30915 6.13869 7.19751 6.39726C7.08663 6.84543 7.09351 7.31478 7.21748 7.75949Z" fill="#212121"/>
<path d="M13.8774 22.8981C13.6288 20.7477 12.898 18.6817 11.7398 16.8548C10.825 15.49 9.83576 14.177 8.77652 12.9217C8.55442 12.728 8.36152 12.5031 8.20383 12.2539C7.82426 12.2539 6.872 13.3223 6.71218 13.536C6.55236 13.7497 5.85315 13.6095 5.45361 13.536C4.36059 13.4815 3.26498 13.515 2.17731 13.6362C1.01196 13.7497 1.13183 13.7297 0.419299 14.4909C-0.293228 15.2522 0.10632 18.8047 0.159593 20.1869C0.212866 21.5692 0.752256 21.0951 1.1518 22.4239C1.55135 23.7528 1.60463 23.2586 1.81772 24.4272C1.95522 25.1114 2.15357 25.7818 2.41038 26.4305C2.67691 27.1463 3.0021 27.8387 3.38261 28.5006C3.71557 29.1684 3.38261 29.6692 3.38261 30.2368C3.23042 31.1039 3.00771 31.957 2.7167 32.7876C2.58268 33.1202 2.43154 33.4457 2.26388 33.7626C2.19063 33.9295 2.52359 34.811 2.50361 35.1649C2.48363 35.5188 0.505868 41.9026 0.652369 42.3567C0.79887 42.8108 2.34379 43.4718 2.48363 44.0862C2.62347 44.7005 2.78995 44.8474 2.98307 45.7089C3.17618 46.5703 3.19616 49.9959 3.26941 51.051C3.34266 52.106 3.52912 55.7253 3.86207 57.5016C4.0194 58.1912 4.12183 58.8924 4.16839 59.5983C4.28826 60.62 4.16839 62.4096 4.28826 63.5248C4.40812 64.6399 3.86207 64.6667 3.71557 65.2676C3.59314 65.9294 3.51528 66.5987 3.4825 67.2709C3.3751 69.5808 3.39733 71.8949 3.54909 74.2023C3.71557 76.3659 4.16839 77.7949 4.21501 78.2957C4.20446 78.9169 4.15554 79.5369 4.06851 80.1521C4.00191 80.8666 4.73442 82.723 4.26162 83.1971C3.78882 83.6712 3.32934 85.0201 3.83544 85.7546C4.19616 86.2797 4.42465 86.8846 4.50135 87.5175C4.50135 87.6377 4.35485 87.8046 4.30823 88.0183C4.26162 88.232 4.52133 88.5459 4.54796 88.6861C4.5746 88.8263 4.54796 89.5008 4.54796 89.5008H13.5977L13.8308 89.2136C13.8308 89.2136 14.1638 89.3338 14.5433 89.5008C16.1394 89.6684 17.7485 89.6684 19.3446 89.5008C20.6031 89.3338 21.642 89.0267 21.7885 88.7863C21.8158 88.751 21.8334 88.7091 21.8394 88.6649C21.8455 88.6206 21.8398 88.5756 21.8229 88.5342C21.806 88.4929 21.7785 88.4568 21.7432 88.4295C21.708 88.4023 21.6661 88.3848 21.622 88.3789C21.5221 88.3789 21.309 88.0718 21.309 88.0718C21.1425 87.217 19.3113 87.6177 18.3191 87.6444C17.3268 87.6711 17.0405 87.384 16.9406 87.2638C16.8407 87.1436 15.9218 85.5476 15.7353 85.1202C15.5489 84.6929 16.7741 83.8315 17.0671 83.117C17.3601 82.4025 16.7808 80.7865 16.7542 79.284C16.7275 77.7815 18.3257 74.7365 18.5122 74.022C18.6986 73.3075 19.7708 68.5664 19.8906 68.119C19.9596 67.581 19.9752 67.0374 19.9372 66.4963C19.9782 65.8151 19.9626 65.1316 19.8906 64.453C19.8486 63.6737 19.9364 62.8929 20.1503 62.1425C20.2435 61.615 20.4833 60.3062 20.6031 59.2845C20.723 58.2628 20.8429 56.8538 20.9827 55.4515C21.0577 54.164 21.0176 52.8722 20.8628 51.5918C20.7831 50.8318 20.8486 50.0635 21.056 49.3281C21.1401 48.5924 21.1222 47.8486 21.0027 47.1178C20.9993 47.061 21.0096 47.0043 21.0327 46.9523C21.0558 46.9003 21.0911 46.8547 21.1355 46.8193C21.1799 46.784 21.2322 46.7598 21.2879 46.749C21.3436 46.7382 21.4011 46.741 21.4555 46.7572C22.0386 46.8403 22.6304 46.8403 23.2135 46.7572C23.7862 46.6638 23.4999 45.8958 23.4999 45.8958C23.4987 44.7909 23.3781 43.6893 23.1403 42.6104C23.047 41.9427 22.6209 39.6389 22.5942 39.3517C22.5676 39.0646 22.501 38.3968 22.501 38.3968C22.501 38.3968 22.501 38.3034 22.6941 38.3034C22.8872 38.3034 22.8073 38.2099 22.7607 38.0429C22.7141 37.876 22.3612 36.5672 22.168 36.0396C21.9868 34.8157 21.869 33.5831 21.8151 32.3469C21.7685 31.9195 21.7685 31.0114 21.7685 31.0114C21.7685 31.0114 22.9272 31.3186 23.2135 31.372C23.4999 31.4254 23.6863 31.5589 24.592 31.7259C25.4976 31.8928 25.5176 31.9396 26.1569 31.7259C26.4828 31.6718 26.7934 31.5485 27.0678 31.3643C27.3423 31.18 27.5744 30.939 27.7484 30.6575C28.3677 29.7961 27.6751 28.1534 27.7484 27.7994C27.8216 27.4455 27.7484 26.9647 26.9426 26.3437C26.0923 25.3894 25.307 24.3788 24.592 23.3187C24.4521 23.0776 24.3573 22.8128 24.3123 22.5375C24.1924 22.1769 23.2668 20.8681 23.1469 20.1535C23.0265 19.6502 22.7994 19.1788 22.481 18.7713C21.5487 18.1035 15.9484 16.0134 15.9484 16.0134C16.0882 16.394 16.4212 17.5359 16.4212 17.5359C15.6154 15.9132 15.2359 16.3206 15.2359 16.3206C15.8376 18.9458 16.3044 21.6003 16.6343 24.2736C16.7275 25.1618 17.1204 26.9447 17.5333 28.6876C17.3668 28.5941 17.2869 28.4472 17.2336 28.4338C16.8955 28.3096 16.5681 28.1577 16.2547 27.9797C16.1149 27.8862 14.9229 27.2519 14.6432 27.0582C14.3818 26.8529 14.1349 26.6298 13.904 26.3905C14.0299 25.2292 14.021 24.0572 13.8774 22.8981ZM16.894 33.7359C17.0748 33.6466 17.2374 33.5243 17.3735 33.3753C17.7331 32.9328 18.056 32.4615 18.339 31.9663C18.5122 32.634 18.632 33.0881 18.632 33.0881C19.5523 35.2883 20.0732 37.6356 20.1703 40.0195C18.2724 40.4268 12.8452 39.285 12.8452 39.285C12.8452 39.1648 13.065 34.6106 13.1116 34.023C13.1116 33.609 13.2048 32.5673 13.2581 31.5055C14.4434 32.2467 16.894 33.7359 16.894 33.7359Z" fill="#F92525"/>
<path d="M19.4574 30.0625C19.4574 30.0625 18.5317 31.7252 17.373 33.4013L18.0856 33.5015C18.5444 33.0587 18.9041 32.523 19.1406 31.9301C19.3771 31.3371 19.4851 30.7005 19.4574 30.0625Z" fill="#F1F2F2"/>
<path d="M19.2708 29.0878C19.2708 29.0878 19.2242 25.8759 17.5594 25.2549H17.0866C17.0866 25.2549 17.0133 28.5937 18.4184 29.0211L19.2708 29.0878Z" fill="#F1F2F2"/>
<path d="M13.8972 26.4034C14.6957 27.0851 15.5746 27.666 16.5143 28.1329C16.5143 28.1329 17.613 28.6404 17.7196 28.6604C17.8261 28.6805 18.4388 29.0411 18.5453 28.9008C18.5669 28.4529 18.5311 28.0041 18.4388 27.5653C18.407 27.1575 18.2905 26.7608 18.0966 26.4008C17.9028 26.0409 17.636 25.7256 17.3134 25.4752C16.5711 25.0836 15.7741 24.8067 14.9494 24.6539C14.0038 24.5604 11.9395 24.6539 11.9395 24.6539C12.1192 24.9877 13.238 25.6689 13.8972 26.4034Z" fill="#212121"/>
<path d="M23.3066 31.2914C23.3066 31.2914 19.7107 30.1495 19.5508 30.0627L19.4776 29.9893C19.4826 30.3776 19.4603 30.7659 19.411 31.1512C19.2981 31.5621 19.1488 31.9622 18.9648 32.3465C19.4929 32.5694 20.0523 32.7091 20.623 32.7605C21.1024 32.7071 21.8483 31.9725 22.1346 31.8323C22.4209 31.6921 23.3066 31.2914 23.3066 31.2914Z" fill="#212121"/>
<path d="M3.71696 42.3764C4.24303 42.3297 11.2218 42.1361 12.2207 41.7554C13.2195 41.3748 12.78 39.4717 12.78 39.4717C12.78 39.4717 12.7401 40.9942 12.1741 41.4215C11.7166 41.6929 11.1845 41.8099 10.6558 41.7554C1.43954 41.7087 0.920124 42.3764 0.920124 42.3764H0.707031C0.920124 42.6636 2.57825 43.8055 2.48502 44.1126C2.39179 44.4198 3.57712 46.3764 3.71696 46.57C3.8568 46.7637 3.81685 46.2361 3.62373 45.9022C3.43062 45.5684 2.72475 43.7587 2.86459 43.5183C3.00443 43.2779 3.43728 44.1393 3.81685 44.1861C4.19642 44.2328 3.384 43.2779 3.15093 42.9507C2.91786 42.6235 3.19755 42.4232 3.71696 42.3764Z" fill="#1A1A1A"/>
<path d="M15.3844 49.248L14.957 49.8624L15.0238 49.8023C15.1778 49.6418 15.3001 49.4538 15.3844 49.248Z" fill="#1A1A1A"/>
<path d="M21.1418 46.5164C21.8634 46.5545 22.5868 46.5389 23.3061 46.4696C22.8986 46.4353 22.4989 46.3385 22.1207 46.1825C21.6013 45.9488 21.5014 44.9471 21.1219 44.0456C20.7307 42.7307 20.4216 41.3926 20.1962 40.0391C20.0298 40.1593 19.7967 41.014 19.6036 41.1142C19.4105 41.2143 19.5103 41.5883 19.7967 41.7285C19.9779 41.9707 20.102 42.251 20.1597 42.5482C20.2174 42.8455 20.2071 43.152 20.1296 43.4447C19.8988 43.6832 19.7337 43.9777 19.6502 44.2994C19.6036 44.5865 20.7423 44.2059 20.7423 44.2059C20.9249 44.6463 21.0372 45.1128 21.0752 45.5882C20.9554 45.8019 20.9554 46.4229 21.1418 46.5164Z" fill="#1A1A1A"/>
<path d="M9.24837 30.1492C9.60796 30.3295 10.3538 30.5766 10.7467 30.7235C11.1396 30.8704 12.538 31.3178 13.2438 31.5047C13.2438 31.5047 9.24837 29.9021 8.92873 29.7552C8.70589 29.6618 8.50926 29.5151 8.35604 29.3278C8.09383 29.1737 7.80442 29.0716 7.50367 29.0273C7.50367 29.0273 6.65796 29.3946 6.82444 29.3946C6.99092 29.3946 7.36383 29.3545 7.64352 29.3545C8.20626 29.5588 8.74453 29.8253 9.24837 30.1492Z" fill="#1A1A1A"/>
<path d="M2.34365 25.3878C2.48349 25.675 2.45019 26.2426 2.72988 26.2092C3.00956 26.1758 2.80313 26.0289 3.12277 25.9955C3.44241 25.9621 3.48236 25.9554 3.69545 26.1758C3.90855 26.3962 5.1538 27.2442 5.1538 27.2442C4.46572 26.6123 3.81218 25.9435 3.19602 25.2409C2.98293 24.887 2.34365 24.4597 2.34365 24.3127C2.34365 24.1658 1.67773 23.7051 1.67773 23.7051C1.67773 23.7051 2.13721 24.5264 2.25042 24.6733C2.36363 24.8202 2.19715 25.1141 2.34365 25.3878Z" fill="#1A1A1A"/>
<path d="M7.82453 19.9393C8.2661 20.3973 8.66095 20.8984 9.0032 21.4351C9.2163 21.7556 10.2152 23.0444 10.335 23.1846C10.4549 23.3249 10.7612 23.8524 10.7279 23.5786C10.6946 23.3048 10.1952 22.8307 9.97544 22.577C9.63234 22.1716 9.37821 21.6984 9.22961 21.188C9.0552 20.6431 8.80406 20.1259 8.48379 19.6522C8.0909 18.9376 7.59147 18.6505 7.41167 18.2231C7.26134 17.7827 7.0834 17.3523 6.87894 16.9344C6.40291 16.2953 5.86047 15.7088 5.26077 15.1848C4.97442 14.9377 4.14869 14.2433 3.87567 14.3635C3.60264 14.4837 3.99553 15.1848 4.2619 15.3718C4.52826 15.5588 6.47273 17.6155 6.65919 17.9026C6.94594 18.2698 7.10915 18.7187 7.12533 19.1847C7.07871 19.5453 7.39835 19.5453 7.82453 19.9393Z" fill="#1A1A1A"/>
<path d="M7.47045 14.8317L6.57812 13.8301L7.32395 15.0053L8.53591 14.972L8.24957 15.6865C9.59034 16.7521 10.7977 17.9763 11.8455 19.3324C12.7884 20.5692 13.4889 21.9741 13.9098 23.4726C13.9098 23.4726 13.6967 22.6178 13.4836 22.0436C12.9407 20.781 12.2595 19.5828 11.4526 18.471C10.6417 17.2992 9.6157 16.293 8.42936 15.5062C8.56844 15.2956 8.68664 15.072 8.7823 14.8384C8.749 14.7048 7.47045 14.8317 7.47045 14.8317Z" fill="#1A1A1A"/>
<path d="M16.5547 16.4336L16.8743 17.1882C16.8743 17.1882 17.76 17.8559 18.013 18.0429C18.2661 18.2299 18.5458 19.3784 18.7589 20.2599C18.972 21.1413 18.4725 24.2197 18.2994 24.9342L18.1529 25.435C18.7478 23.6898 19.0143 21.8489 18.9387 20.0061C18.7956 19.321 18.5557 18.6599 18.2261 18.0429C17.8816 17.748 17.5117 17.4843 17.1207 17.2549L17.2606 17.1147L16.5547 16.4336Z" fill="#1A1A1A"/>
<path d="M21.643 24.3267C21.5764 24.8275 21.3633 25.7223 21.3633 25.7223C21.3633 25.7223 21.7495 24.2599 21.896 23.9394C22.1666 23.5253 22.5319 23.1819 22.9615 22.9378C23.3544 22.684 23.7805 22.1164 23.6274 22.043C23.1165 22.1997 22.6671 22.5125 22.3422 22.9378C22.2023 23.2583 21.8094 23.6523 21.9493 23.4386C22.0891 23.2249 22.9149 20.5071 22.522 19.3652C22.5373 20.1935 22.4546 21.0206 22.2756 21.8293C21.9759 22.8643 21.7162 23.8259 21.643 24.3267Z" fill="#1A1A1A"/>
<path d="M24.4924 25.2815C24.872 25.2214 25.0851 24.8875 24.8853 24.8875C24.6855 24.8875 24.8387 24.6137 24.2194 25.0678C23.6001 25.5219 23.1406 25.8491 23.1406 25.8491C23.7702 25.8468 24.3994 25.8802 25.0252 25.9492C25.4124 25.9663 25.7818 26.1173 26.0706 26.3766C26.5101 26.7105 26.8897 27.1178 26.9497 26.8908C26.965 26.7032 26.9079 26.5168 26.7902 26.3702C26.6724 26.2236 26.5031 26.1279 26.317 26.1028C25.8176 26.016 23.9064 25.7355 23.72 25.7489C23.5335 25.7623 24.1129 25.3416 24.4924 25.2815Z" fill="#1A1A1A"/>
<path d="M12.832 39.284C13.5748 39.452 14.3296 39.5614 15.0895 39.6112C15.6222 39.6112 16.6211 38.8967 16.3747 38.723C16.1283 38.5494 15.2693 38.723 14.4502 38.7898C13.6311 38.8566 13.0251 38.7898 13.3847 38.6496C13.7443 38.5094 13.1317 37.1137 13.4513 36.9735C13.771 36.8333 14.9496 35.1839 14.59 35.224C14.0557 35.3766 13.5872 35.7031 13.2582 36.1521C13.0385 36.4393 13.0518 35.0637 13.0984 34.002L12.832 39.284Z" fill="#E7E8E8"/>
<path d="M13.1113 34.0024L13.1647 32.8672C13.1647 32.8672 13.1314 33.4014 13.1113 34.0024Z" fill="#E7E8E8"/>
<path d="M19.6173 39.5048C19.3309 39.6117 16.8338 39.8654 17.7594 40.0457C18.5877 40.1486 19.424 40.1709 20.2566 40.1125C20.2325 39.9674 20.1969 39.8245 20.15 39.6851C20.0768 39.5048 19.8304 37.4748 19.8304 37.3613C19.8304 37.3613 19.897 38.363 19.7571 38.1827C19.6173 38.0024 19.4375 37.5817 19.3642 37.8622C19.291 38.1426 19.7904 38.757 19.7904 39.0775C19.7904 39.398 19.897 39.4114 19.6173 39.5048Z" fill="#E7E8E8"/>
</svg>
