<svg width="28" height="94" viewBox="0 0 28 94" fill="none" xmlns="http://www.w3.org/2000/svg">
<path d="M1.40654 24.315C1.57302 24.6689 1.87934 24.8358 1.9992 25.4101C2.11907 25.9844 2.30552 27.1463 2.49864 27.814C2.69175 28.4818 3.49751 30.1913 3.5641 30.859C3.64689 31.1828 3.62354 31.5246 3.49751 31.834C3.39762 32.1211 1.83272 35.8406 1.9992 36.4349C2.16568 37.0292 2.51862 37.1026 2.99807 37.5767C3.47753 38.0509 3.7106 38.0508 3.66399 38.1911C3.61737 38.3313 3.33769 38.4315 3.3843 38.6719C3.39485 38.7599 3.42559 38.8443 3.47411 38.9185C3.52263 38.9926 3.58763 39.0545 3.66399 39.0992C3.76387 39.0992 4.99581 37.8105 5.90146 37.8639C6.8071 37.9173 12.2143 38.9323 15.3042 39.1994C18.394 39.4665 20.5516 40.4081 21.071 40.388C21.5904 40.368 22.3562 40.1009 22.4028 39.7203C22.2802 39.1562 22.2644 38.574 22.3562 38.0041C22.4828 36.7552 22.5296 35.4995 22.496 34.2446C22.496 33.243 22.1631 32.7889 22.3562 32.6687C22.5493 32.5485 22.7824 32.8356 23.0221 32.8623C23.531 32.7696 24.0158 32.5742 24.4472 32.2881C24.7801 32.0543 25.2995 32.2213 25.7057 31.8874C26.1119 31.5535 26.8178 31.026 26.6979 29.2631C26.5781 27.5002 26.6979 26.7924 26.4848 26.2915C26.2718 25.7907 25.8922 25.4769 25.8189 25.1229C25.796 24.5451 25.6338 23.9815 25.3461 23.4803C25.0132 23.1197 24.7268 22.9594 24.5404 22.6923C24.3539 22.4252 24.4205 21.931 24.1342 21.3568C23.8478 20.7825 23.2552 20.3084 23.1353 19.881C23.0154 19.4536 21.9766 18.7391 21.7036 18.5789C21.4306 18.4186 21.3107 18.0313 21.2042 18.0313C21.0976 18.0313 20.5382 18.1715 20.2586 17.9311C19.9789 17.6907 19.9256 17.4103 19.3995 17.4303C18.8735 17.4503 18.687 17.6707 18.3341 17.3368C17.9811 17.0029 16.8358 16.3152 16.6493 16.028C16.4628 15.7409 15.9834 15.8143 15.9101 15.5539C15.8369 15.2935 15.8635 13.9312 15.6504 13.7443C15.4373 13.5573 10.7094 11.6475 9.55066 11.9346C9.31865 12.3126 9.14152 12.7218 9.02459 13.15C8.90772 13.4676 8.81424 13.7935 8.74491 14.1249C8.74491 14.2651 8.47854 14.1249 8.26545 14.1249C8.05236 14.1249 8.00574 14.1249 7.88588 14.3185C7.76602 14.5122 7.7194 14.4855 7.26658 14.599C6.81376 14.7125 4.8027 14.9863 4.48972 15.0798C4.30939 15.1201 4.14065 15.2012 3.99638 15.317C3.85211 15.4327 3.73614 15.58 3.65733 15.7476C3.60952 15.8967 3.52998 16.0337 3.4242 16.149C3.31842 16.2643 3.18893 16.3551 3.04469 16.4153C2.71173 16.5823 1.9992 17.0831 1.90597 18.6323C1.69955 19.0207 1.59204 19.4542 1.593 19.8944C1.57375 20.6441 1.50255 21.3916 1.3799 22.1314C1.33009 22.622 1.33009 23.1165 1.3799 23.6071C1.42652 23.9544 1.24006 23.9544 1.40654 24.315Z" fill="#F1F2F2"/>
<path d="M7.57284 6.46636C7.56179 7.1586 7.7099 7.84408 8.00569 8.46965C8.20942 8.83637 8.46513 9.17152 8.76483 9.46462C9.00032 9.96319 9.1597 10.4944 9.23763 11.0405C9.38413 11.5614 9.6172 12.2292 9.6172 12.2292C9.6172 12.2292 13.0866 14.5129 13.7059 14.9937C13.7059 14.9937 13.939 15.1807 14.3718 14.8468C14.8047 14.5129 15.4639 14.0254 15.4639 14.0254C15.3791 13.1869 15.3458 12.3439 15.364 11.5013C15.6548 10.9235 15.8633 10.3076 15.9833 9.67162C16.1125 9.59256 16.2248 9.48877 16.3139 9.36617C16.403 9.24358 16.4672 9.10458 16.5027 8.95712C16.6493 8.28167 16.6493 7.58253 16.5027 6.90708C16.3629 6.47971 16.2697 6.38623 16.3163 6.19258C16.2954 5.20687 16.1363 4.22901 15.8435 3.2878C15.5105 2.47981 15.3174 2.43307 15.2708 2.05244C15.2242 1.67182 14.6981 1.29119 14.465 1.00405C13.6327 0.398712 12.642 0.0505541 11.6149 0.00240837C10.4296 -0.0777232 8.28537 1.86547 8.14553 2.29284C7.94367 3.03955 7.81652 3.80458 7.76596 4.57659C7.75757 5.07781 7.83412 5.57683 7.99237 6.05235L8.13221 6.38623C8.13221 6.38623 7.59948 6.25267 7.57284 6.46636Z" fill="#212121"/>
<path d="M0.168698 92.5275C0.168698 93.0016 -0.210873 93.3354 0.168698 93.3354L7.05424 93.242C7.05424 93.242 7.15413 91.8129 7.15413 91.5726C7.15413 91.3322 7.82005 90.3839 7.76677 89.5693C7.7135 88.7546 7.43382 89.1886 7.62693 88.0468C7.82005 86.9049 8.24623 84.4742 8.52591 83.1854C8.8837 80.7271 9.04404 78.244 9.00537 75.7599C8.95876 73.5229 9.43156 72.1874 9.52479 70.331C9.61801 68.4746 9.90436 63.7135 10.1907 62.1375C10.477 60.5616 12.2817 53.0426 12.8943 52.7888C13.5069 52.5351 13.467 54.9324 13.6068 55.8338C13.8013 57.0231 13.8816 58.2284 13.8466 59.4331C13.6746 60.2136 13.643 61.0187 13.7533 61.8103C13.9398 62.4314 13.467 63.0524 13.6068 64.1475C13.8694 65.4852 14.0606 66.836 14.1795 68.1942C14.1795 69.2893 14.4659 73.7633 14.3726 74.7182C14.3047 76.4645 14.3514 78.2133 14.5125 79.9535C14.6523 81.3357 14.8454 82.5778 14.8454 83.0986C14.8454 83.6195 14.9387 85.6228 15.0319 86.5777C15.1251 87.5326 14.7522 88.1937 14.8454 88.9549C14.9387 89.7162 14.8454 89.7162 14.9387 90.1435C15.0319 90.5709 14.7988 92.2871 14.8454 92.5742C14.8786 92.759 14.9416 92.9372 15.0319 93.1017L24.4879 93.1485C24.4879 93.1485 26.9517 92.8613 27.4312 92.3872L27.1449 92.0533C27.1449 92.0533 27.0516 91.3388 26.7187 91.2387C26.3857 91.1385 24.3414 91.5725 24.1549 91.3388C23.9685 91.1051 21.8708 89.6227 21.8708 89.2888C21.8708 88.9549 22.0639 88.7679 22.1106 88.4341C22.1572 88.1002 20.1128 82.6713 20.1661 80.8149C20.2194 78.9585 20.6389 75.5729 20.6855 73.2892C20.7321 71.0054 20.4924 68.0005 20.6855 67.3394C20.8786 66.6783 21.9174 58.6585 22.3503 56.3881C22.7831 54.1177 23.489 50.1445 23.4424 49.7639C23.3958 49.3833 23.0095 48.5285 23.3092 48.0811C23.6089 47.6337 23.6422 45.4568 23.3558 43.9343C23.0695 42.4118 21.0784 41.8909 21.0784 40.3417C21.0784 40.3417 21.5046 39.507 21.3647 39.4135C21.2249 39.3201 16.377 38.7458 15.5713 38.7458C15.3249 38.7458 12.8144 38.7925 11.9154 38.4119C11.0164 38.0313 8.446 37.891 7.50041 37.7909C6.55481 37.6907 5.45605 37.4637 4.69691 38.1248C3.93777 38.7858 3.65143 39.1264 3.65143 39.6539C3.7375 40.2532 3.75315 40.8606 3.69804 41.4636C3.41072 42.3315 3.0659 43.1792 2.66587 44.0011C2.38619 44.6221 1.99996 44.9894 2.27299 45.5169C2.57861 46.0996 2.71475 46.7568 2.66587 47.4134C2.66587 48.1946 2.21305 58.2445 2.11983 59.9539C2.0266 61.6634 1.45391 65.049 1.4073 66.3378C1.36068 67.6265 1.2608 70.5246 1.07434 71.9069C0.887885 73.2892 0.881226 76.1272 0.408427 77.4627C-0.0643716 78.7982 0.361813 86.6111 0.455041 87.2722C0.602257 87.7391 0.91496 88.1358 1.33405 88.3873C1.31809 88.6616 1.26889 88.9329 1.18755 89.1953C1.09855 89.4391 1.08235 89.7037 1.14093 89.9566C1.05205 90.4852 0.893036 90.9994 0.668133 91.4857C0.373876 91.7554 0.19493 92.1286 0.168698 92.5275Z" fill="#212121"/>
<path d="M11.0156 33.9248C11.0301 34.0158 11.0594 34.1038 11.1024 34.1852C11.1425 34.252 11.0958 34.1118 11.0156 33.9248Z" fill="#E7E8E8"/>
<path d="M11.143 33.5042C12.0512 33.8431 12.9784 34.1285 13.9199 34.3589C14.346 34.4657 15.0919 34.4657 15.4515 34.793C15.8111 35.1202 15.9842 34.646 16.2306 34.6127C16.477 34.5793 17.0896 34.2521 17.3759 34.1853C17.9785 34.1379 18.5832 34.1245 19.1872 34.1452C18.9075 34.1452 17.2294 33.8648 17.2294 33.8648C17.2294 33.8648 16.8033 34.2921 16.6634 34.2521C16.3419 34.2321 16.0194 34.2321 15.6978 34.2521C15.334 34.1858 14.9818 34.0666 14.6524 33.8981C14.2262 33.7579 12.9077 33.5776 12.1951 33.3973C11.4826 33.217 9.09864 32.6828 8.70575 32.5426C8.31286 32.4024 8.23961 32.2221 7.99322 32.0752C7.74684 31.9282 7.17415 32.1486 6.99435 32.0418C6.77738 31.8472 6.5382 31.6791 6.28183 31.5409C5.78608 31.3913 5.3082 31.1875 4.85677 30.9333C4.43058 30.6128 4.19086 30.5059 4.0044 30.0785C3.81794 29.6512 3.65813 29.1837 3.19864 28.2556C2.71973 27.0565 2.31933 25.8275 2 24.5762C2.05993 27.3808 3.12539 29.3841 3.16535 29.8248C3.25347 30.2576 3.3967 30.6773 3.59153 31.0735C3.59153 31.0735 4.09097 30.793 4.33736 30.9667C4.58375 31.1403 5.83566 31.8281 5.83566 31.8281C5.83566 31.8281 5.68916 32.9299 5.65587 33.1102C5.62257 33.2905 6.47494 34.5726 6.50824 34.3255C6.54153 34.0784 6.76128 32.7897 6.76128 32.576C6.76128 32.3623 7.6869 32.4691 7.79345 32.3623C7.96134 33.2105 8.06816 34.0696 8.11309 34.9332C8.11309 34.4858 8.25293 32.7162 8.25293 32.7162C8.6995 32.7998 9.13213 32.9459 9.53814 33.1503C9.67798 33.3239 10.7102 37.1101 10.7834 36.6093C10.8567 36.1084 10.537 33.5776 10.6036 33.3239C10.6502 33.1703 10.8766 33.611 11.0165 33.9249C10.9499 33.6778 10.9432 33.3906 11.143 33.5042Z" fill="#E7E8E8"/>
<path d="M8.11328 34.9326C8.11989 35.0251 8.11989 34.9987 8.11328 34.9326V34.9326Z" fill="#E7E8E8"/>
<path d="M21.038 22.0378C21.038 22.8591 20.9315 23.3266 20.8982 23.1129C20.8649 22.8992 20.0458 19.7741 20.0059 20.1079C20.1148 21.014 20.3065 21.9081 20.5785 22.779C20.7184 23.1396 20.8249 23.8541 20.9315 24.208C21.038 24.5619 20.6451 25.0427 20.6451 25.43C20.5986 25.7632 20.4755 26.0809 20.2855 26.3582C20.6473 26.4453 21.0193 26.4812 21.391 26.4651C21.7644 26.3773 22.1462 26.3303 22.5297 26.3248C22.6695 26.3248 22.7428 25.7505 22.8493 25.5369C22.9559 25.3232 22.8893 24.6821 23.1689 24.5018C23.4486 24.3215 22.9226 23.8341 22.6362 24.1479C22.3499 24.4618 22.4564 24.8624 21.8504 25.0027C21.2445 25.1429 21.1845 24.8624 21.3177 24.4351C21.4509 24.0077 21.5708 23.7673 21.8904 23.0394C22.21 22.3116 22.6029 20.6088 22.21 21.1497C21.8021 21.6718 21.5216 22.2824 21.391 22.9326C21.2578 23.6003 21.2778 21.0495 21.5441 20.1747C21.2785 20.7651 21.1077 21.3939 21.038 22.0378Z" fill="#E7E8E8"/>
<path d="M21.6109 20.0355C21.5877 20.0923 21.5677 20.1502 21.5508 20.2091C21.6242 19.9821 21.6643 19.902 21.6109 20.0355Z" fill="#E7E8E8"/>
<path d="M9.99128 17.8113C9.92612 17.7668 9.8505 17.7401 9.77191 17.7339C9.69331 17.7277 9.61446 17.7422 9.54316 17.7759C9.47186 17.8096 9.41057 17.8614 9.36536 17.9262C9.32016 17.991 9.2926 18.0664 9.28541 18.1452C9.23213 18.5258 9.09229 20.7695 9.09229 20.7695C9.09229 20.7695 8.71272 18.2253 8.63281 17.4307C8.63281 17.8847 8.67943 18.7662 8.71272 19.1335C8.75934 19.7077 8.89918 20.6092 8.89918 21.277C8.84302 21.8957 8.8609 22.5189 8.95245 23.1334C9.1226 23.7171 9.32718 24.2901 9.56509 24.8495C9.80482 25.5173 9.94466 26.0381 10.3242 26.2785C10.7038 26.5189 10.8969 26.372 11.1366 26.4188C11.3764 26.4655 11.7493 26.1784 11.7493 26.1784C11.7493 26.1784 12.7948 26.559 12.9413 26.1784C13.0878 25.7977 12.4618 22.5591 12.0822 22.706C11.7027 22.8529 11.6561 22.9931 11.6561 23.8011C11.6561 24.6091 11.7493 26.0849 11.5628 25.9446C11.3764 25.8044 9.75821 24.8695 9.80482 24.1083C9.85143 23.347 10.8037 21.8513 10.6372 21.2503C10.5373 20.8964 10.564 18.7528 10.4241 19.1335C10.1285 20.4338 9.93699 21.7557 9.85143 23.0866C9.89805 23.6075 9.42525 22.085 9.47186 21.5641C9.51848 21.0433 10.2377 18.0317 9.99128 17.8113Z" fill="#E7E8E8"/>
<path d="M14.6994 30.0049C14.8459 30.2453 15.605 30.1452 15.7915 30.1919C15.9779 30.2387 17.5961 30.8129 17.7892 30.9064C17.9823 30.9999 18.1688 31.3405 18.3086 31.3405C18.4485 31.3405 22.0644 32.5291 22.0644 32.5291C21.3443 32.1983 20.5982 31.9281 19.8336 31.7211C19.0078 31.5207 18.241 31.1272 17.5961 30.5725C17.2698 30.2453 15.6516 29.9582 15.3187 29.9048C14.9857 29.8513 14.7992 29.7579 14.7526 29.3772C14.706 28.9966 14.3664 28.9031 13.9402 28.8096C13.514 28.7162 13.4208 28.9031 13.1345 28.5225C12.5093 27.9634 11.8413 27.4543 11.1367 27C11.8492 27.4741 13.0812 28.9031 13.2743 28.9031C13.6409 28.965 13.9931 29.094 14.3131 29.2837C14.6527 29.4841 14.5595 29.7645 14.6994 30.0049Z" fill="#E7E8E8"/>
<path d="M15.1324 31.5407C14.5099 31.546 13.8937 31.666 13.3145 31.8946C13.9421 31.9314 14.5713 31.9314 15.199 31.8946C15.1494 32.2156 15.0553 32.528 14.9193 32.8228C14.6839 33.1209 14.4208 33.3959 14.1335 33.6442L14.7994 33.2569C15.1827 32.8519 15.4726 32.3675 15.6486 31.8379C15.8247 31.3083 15.8826 30.7464 15.8183 30.1918C15.7717 30.7795 15.5852 30.8997 15.3721 30.8596C14.9682 30.5572 14.6381 30.1667 14.4066 29.7177C14.3733 29.5374 14.0869 29.3972 14.0869 29.7177C14.0869 30.0383 15.2256 31.0533 15.3322 31.1133C15.4387 31.1734 15.3189 31.6476 15.1324 31.5407Z" fill="#E7E8E8"/>
<path d="M19.8331 28.8233C19.9397 28.8634 19.8331 27.7549 19.1672 27.7215L18.5013 27.6814L18.1816 27.0137C18.3806 27.6546 18.5363 28.3083 18.6478 28.9702C18.6341 29.3171 18.5985 29.6628 18.5412 30.0053L19.4336 30.1855C19.4336 30.1855 18.8276 29.8984 18.8276 29.6847C18.8276 29.471 18.721 28.436 18.8276 28.436C18.9341 28.436 19.7266 28.7899 19.8331 28.8233Z" fill="#E7E8E8"/>
<path d="M15.9846 17.792C16.1685 17.772 16.3424 17.6977 16.484 17.5783C16.079 17.1909 15.7194 16.7585 15.4119 16.2895C15.1999 15.8686 14.8805 15.5115 14.4863 15.2545C14.3464 15.2211 13.8803 15.0742 13.6339 15.2879C13.3875 15.5016 12.8148 16.1493 12.4952 16.3964C12.2495 16.5782 11.9863 16.7348 11.7094 16.8638C11.7094 16.8638 9.04575 14.4198 8.74609 14.126L8.8593 14.3263C8.8593 14.3263 11.2832 17.0441 11.463 17.2177C11.6428 17.3913 11.9225 17.2912 12.1289 17.1843C12.4252 17.0765 12.7451 17.0511 13.0546 17.1109C13.2011 17.1843 13.1278 17.8988 13.1278 17.8988C13.1278 17.8988 15.6649 17.8254 15.9846 17.792Z" fill="#E7E8E8"/>
<path d="M14.9854 15.8624C14.8789 15.7555 14.8456 15.3615 13.92 15.4684C13.6745 15.5075 13.4411 15.6017 13.237 15.7439C13.0329 15.8862 12.8635 16.0727 12.7413 16.2897C12.6347 16.5435 13.3473 16.9575 13.4538 17.1512C13.5604 17.3448 13.1342 18.3999 13.1342 18.7538C13.1342 19.1077 13.4205 20.3631 13.4538 20.6502C13.4871 20.9374 13.1741 26.2928 13.314 26.5065L14.9521 26.6868C14.9521 26.6868 14.9521 26.5466 15.1652 26.5199C15.2518 26.5199 17.3028 26.6468 17.3028 26.6468C17.3028 26.6468 16.4504 22.5734 16.2307 20.8239C16.0762 19.761 15.8402 18.7118 15.5248 17.6854C15.3783 16.9709 14.6991 17.258 14.6991 16.9709C14.6991 16.6837 15.092 15.9692 14.9854 15.8624Z" fill="#212121"/>
<path d="M21.0395 33.471C21.331 33.2677 21.5951 33.0276 21.8253 32.7565C21.9143 32.691 21.9948 32.6148 22.065 32.5294C22.065 32.5294 19.8675 31.8617 19.5079 31.7214C19.1005 31.621 18.7001 31.4939 18.3092 31.3408C18.2986 31.678 18.2357 32.0114 18.1228 32.3291C17.8765 32.8693 17.5776 33.3837 17.2305 33.865C17.7322 33.9896 18.2455 34.0612 18.7621 34.0786C19.5505 34.0095 20.321 33.8039 21.0395 33.471Z" fill="#212121"/>
<path d="M11.6425 27.4677C11.8556 27.5746 12.9211 28.6096 13.1342 28.7165C13.3472 28.8233 13.4671 28.623 13.7068 28.7165C13.9466 28.8099 14.4527 28.8968 14.5592 29.1505C14.6658 29.4043 14.6991 29.5779 14.8056 29.5044C14.9121 29.431 15.345 28.7899 15.4715 28.6497C15.598 28.5094 15.2584 27.2541 14.9388 26.6865C14.9388 26.6865 13.607 26.5395 13.3006 26.4661C12.8766 26.3906 12.4449 26.3682 12.0154 26.3993L10.6836 26.5729C10.6836 26.5729 11.0432 26.9001 11.1497 27.007C11.2868 27.1874 11.4534 27.3432 11.6425 27.4677Z" fill="#212121"/>
<path d="M13.939 49.3368C14.1321 48.8159 14.8912 47.3335 15.0777 46.8126C15.2641 46.2917 16.0299 45.2434 16.0766 40.8027C15.9913 42.2211 15.8335 43.6342 15.6038 45.0364C15.364 45.7509 14.6515 47.1799 14.465 47.654C14.2786 48.1281 13.4196 49.6105 13.2797 50.0379C13.1399 50.4653 12.7536 51.2733 12.707 51.5604C12.7247 51.9953 12.7872 52.4272 12.8935 52.8492C12.8935 52.8492 13.1798 52.6088 13.3729 53.2298C13.5609 54.2349 13.6722 55.2528 13.7059 56.2748C13.7525 57.0361 13.9922 58.7055 13.939 58.9459C13.8857 59.1863 13.8457 59.7605 13.7991 60.041C13.6723 60.4258 13.6247 60.8325 13.6593 61.2363C13.7525 61.6637 13.8924 61.7572 13.8457 62.1378C13.706 62.5722 13.6101 63.0196 13.5594 63.4733C13.5402 64.162 13.6051 64.8504 13.7525 65.5233C13.9543 66.2701 14.0815 67.0351 14.1321 67.8071C14.1787 68.2345 14.2253 68.8087 14.2253 69.2361C14.2253 69.6635 14.2253 78.8052 14.6049 80.1874C14.861 80.8547 14.9591 81.5725 14.8912 82.2842C14.8446 82.5647 16.0299 84.2341 16.3163 84.8551C16.6026 85.4761 19.3995 87.3792 19.3528 86.9986C19.3062 86.618 16.7891 84.2341 16.2697 82.8985C15.7503 81.563 15.2242 77.3761 15.1776 76.1408C15.131 74.9054 14.9378 69.757 14.8912 68.9022C14.8446 68.0475 14.6049 66.1844 14.5117 65.6168C14.4184 65.0492 15.0777 66.3313 15.4639 66.2312C15.8501 66.131 15.8435 64.7554 15.2242 64.4215C14.9716 64.2691 14.7639 64.0522 14.6224 63.7929C14.4808 63.5336 14.4104 63.2413 14.4184 62.9458C14.465 62.6186 15.2708 62.9992 15.6504 63.0927C16.0299 63.1862 14.8446 61.9508 14.6049 61.1361C14.4528 60.2719 14.3748 59.3961 14.3718 58.5185C14.3185 58.2314 14.2253 54.8992 14.0855 54.3784C13.995 53.7385 13.8181 53.1139 13.5594 52.522C13.4005 52.3725 13.2892 52.1794 13.2395 51.9667C13.1897 51.7541 13.2037 51.5314 13.2797 51.3267C13.4662 50.7524 13.7525 49.8643 13.939 49.3368Z" fill="#1A1A1A"/>
<path d="M4.44447 41.0963C4.03845 41.5055 3.7171 41.9912 3.49887 42.5253C3.30576 42.9594 2.5 44.8157 2.5 44.8157C3.04902 43.7585 3.66746 42.7391 4.35124 41.7641C5.11958 40.8632 5.72979 39.8381 6.15587 38.7324C5.63699 39.5567 5.06533 40.3463 4.44447 41.0963Z" fill="#1A1A1A"/>
<path d="M21.4444 53.1494C21.158 53.4833 22.0637 53.0025 22.6763 51.8606C23.068 51.2196 23.3283 50.5068 23.4421 49.7638C23.4543 49.3429 23.3381 48.9282 23.1091 48.5752C22.4859 48.7679 21.8836 49.0229 21.3112 49.3364C20.885 49.5301 22.3567 49.5768 22.683 49.5768C23.0093 49.5768 22.8761 50.4783 22.7828 50.7655C22.3985 51.5934 21.951 52.3905 21.4444 53.1494Z" fill="#1A1A1A"/>
<path d="M5.79549 92.501C6.30947 92.1696 6.74751 91.7326 7.08071 91.2189C7.26652 91.0538 7.41772 90.8533 7.52551 90.6291C7.63329 90.4048 7.69551 90.1613 7.70852 89.9127C7.72154 89.6642 7.68509 89.4155 7.60132 89.1811C7.51754 88.9468 7.3881 88.7315 7.22055 88.5479C7.22055 88.5479 5.5824 89.6897 5.88872 89.8834C6.19504 90.077 6.55463 89.5962 6.81434 89.5295C7.07405 89.4627 6.74109 90.4577 6.60125 90.865C6.46141 91.2723 5.32935 92.7147 5.79549 92.501Z" fill="#1A1A1A"/>
</svg>
