<svg width="35" height="89" viewBox="0 0 35 89" fill="none" xmlns="http://www.w3.org/2000/svg">
<path d="M17.9581 22.5236C18.311 21.2748 19.0968 15.4586 19.2899 14.5104C19.483 13.5622 19.6162 12.4069 19.6495 12.0864C19.6694 11.7729 19.5667 11.4639 19.3632 11.225C19.1834 11.0113 18.5841 10.9779 18.5841 10.9779C18.5841 10.9779 14.2356 10.23 13.31 10.5506C13.1033 10.8569 12.9543 11.1987 12.8705 11.5589C12.8319 12.2653 12.8788 12.9739 13.0104 13.669C13.0836 14.2433 13.1902 17.1013 13.2634 17.6756C13.3367 18.2499 13.7562 21.6421 13.8694 22.2097C13.9826 22.7773 14.7218 27.8924 14.7218 28.9608C14.7218 30.0292 15.0081 33.6351 14.8616 34.8171C14.7857 35.8641 14.7857 36.9152 14.8616 37.9622L18.1312 38.0624C18.1312 38.0624 17.0325 32.3464 17.139 30.5567C17.2456 28.7671 17.5985 23.779 17.9581 22.5236Z" fill="#F1F2F2"/>
<path d="M17.7515 0.13424C16.0601 -0.333194 12.8704 0.227727 13.0036 4.94214C12.8892 4.91613 12.7697 4.92513 12.6604 4.96799C12.5512 5.01085 12.4573 5.08559 12.3909 5.18253C12.1978 5.51641 12.1978 7.41954 12.8171 7.51303C12.8171 7.51303 13.0502 7.70668 13.2433 7.56645C13.3429 7.84005 13.3904 8.13 13.3832 8.42118C13.2652 8.82167 13.2178 9.23974 13.2433 9.65655C13.3005 10.0679 13.3161 10.4841 13.2899 10.8986C13.2899 10.8986 14.715 12.7082 15.1412 12.8485C15.5674 12.9887 15.8071 12.755 16.14 12.9887C16.14 12.9887 17.039 12.5146 17.372 12.3209C17.8899 11.9516 18.3878 11.5548 18.8636 11.1323C19.0463 10.3655 19.3355 9.6282 19.7227 8.94204C19.7227 8.94204 19.9557 9.08895 20.2887 8.80181C20.7369 8.2115 20.9865 7.49359 21.0012 6.75178C20.9961 6.69386 20.9756 6.63836 20.942 6.591C20.9083 6.54364 20.8627 6.50613 20.8098 6.48232C20.7569 6.45852 20.6986 6.44928 20.641 6.45556C20.5833 6.46184 20.5284 6.48341 20.4818 6.51806C20.4559 6.25616 20.5044 5.99226 20.6216 5.75681C20.8614 5.46967 22.0733 1.33621 17.7515 0.13424Z" fill="#212121"/>
<path d="M3.07002 21.8496C3.04 22.5227 2.95762 23.1925 2.82363 23.8529C2.61704 24.5864 2.49636 25.3416 2.46404 26.1032C2.48525 26.6774 2.44956 27.2523 2.35749 27.8194C2.25095 28.2801 2.00456 30.0364 1.85806 30.8176C1.74221 31.4798 1.67102 32.1491 1.64497 32.8209C1.64497 33.1415 1.39858 33.896 1.39858 34.3568C1.39858 34.8175 1.00569 38.7774 0.885824 39.9192C0.765959 41.0611 0.492935 43.5252 0.52623 44.2397C0.53024 44.8133 0.56581 45.3862 0.632777 45.9558C0.727296 46.1179 0.848936 46.2625 0.99237 46.3832C0.99237 46.3832 4.5883 46.5969 4.83469 45.7154C4.83469 45.7154 4.98119 43.612 4.98119 42.9709C4.98119 42.3299 5.40738 40.7873 5.48063 40.2197C5.55751 39.7451 5.6756 39.2781 5.83356 38.8241C5.83356 38.8241 5.69372 41.2214 5.62047 41.8958C5.54722 42.5703 5.26754 44.4333 5.22758 44.9342C5.18763 45.435 5.04778 47.5384 5.08774 48.0393C5.11036 48.3492 5.09695 48.6606 5.04778 48.9674C5.04778 49.5017 4.87465 50.2162 4.98119 50.2562C5.08774 50.2963 5.22758 50.5033 5.44067 50.5033C5.65377 50.5033 5.58717 51.2913 5.62047 51.8388C5.64402 52.359 5.72896 52.8745 5.87352 53.3747C5.94465 53.8947 5.98024 54.419 5.98006 54.9439C5.94959 55.6836 5.97185 56.4244 6.04666 57.1609C6.12901 57.8724 6.14239 58.5903 6.08661 59.3044C6.11991 59.7652 5.80027 60.4463 5.90681 61.1942C5.94305 61.8394 5.90731 62.4867 5.80027 63.124C5.76697 63.7918 5.65377 66.2291 5.54722 67.1306C5.44067 68.0321 5.37408 68.5997 5.33413 69.1339C5.29417 69.6681 4.98119 71.9185 4.98119 72.3859C4.98119 72.8533 4.7681 75.2439 4.83469 75.8115C4.90128 76.3791 5.22758 77.9551 5.33413 78.8499C5.44067 79.7447 5.69372 81.1336 5.72702 81.5209C5.80166 81.9113 5.80166 82.3124 5.72702 82.7029C5.62047 82.8765 5.54722 82.9833 5.37408 82.9833C5.21106 83.055 5.06401 83.1586 4.94163 83.2883C4.81925 83.4179 4.72401 83.5707 4.66155 83.7379C4.58728 84.1014 4.58728 84.4762 4.66155 84.8397C4.7681 85.2737 4.98119 85.9482 4.98119 86.0951C4.98119 86.242 4.8014 86.3755 4.66155 86.4891C4.29725 86.6823 3.89463 86.7918 3.48289 86.8096C3.31763 86.7706 3.14505 86.776 2.98254 86.8253C2.82004 86.8745 2.67335 86.9658 2.55727 87.0901C2.42464 87.1964 2.31964 87.3333 2.25122 87.4891C2.18281 87.6449 2.15301 87.815 2.16438 87.9849C2.23763 88.1985 1.88469 88.3455 1.99124 88.5191C2.09779 88.6927 1.99124 88.9464 2.31088 88.913C2.63052 88.8797 11.354 89.0933 12.0332 88.8062C12.0332 88.8062 11.8534 87.6309 11.7802 87.3037C11.7397 87.0207 11.7286 86.7343 11.7469 86.449C11.7469 86.449 11.647 86.2887 11.5671 86.1285C11.4936 85.8583 11.4358 85.584 11.3939 85.3071C11.2843 85.0596 11.2341 84.7897 11.2474 84.5192C11.2807 84.232 12.0332 80.1653 12.1398 78.9834C12.2463 77.8015 12.3529 71.1973 12.3529 70.3025C12.3529 69.4077 12.8123 66.0154 12.9588 65.1206C13.1053 64.2258 13.6248 61.9421 13.8112 61.2276C13.9977 60.5131 14.7368 59.0173 14.8434 58.443C14.8434 58.443 15.5093 55.4781 15.769 54.3029C16.0287 53.1276 16.2351 51.9457 16.4349 51.9791C16.6347 52.0124 16.8611 52.6468 17.1008 53.0141C17.3406 53.3814 17.4205 54.1226 17.6003 54.59C17.7801 55.0574 18.4859 57.655 18.7057 58.4764C18.9254 59.2977 19.1319 60.8737 19.4182 61.5882C19.8317 62.4154 20.1769 63.2753 20.4504 64.1591C20.6174 65.0294 20.8398 65.8881 21.1163 66.7299C21.4026 67.6248 21.6157 67.8718 21.7223 68.2658C21.7501 68.8054 21.8102 69.3428 21.9021 69.8751C22.1328 70.3767 22.2423 70.9258 22.2217 71.4777C22.2785 72.5695 22.4098 73.656 22.6146 74.7298C22.6878 75.2974 23.0408 77.087 23.2805 78.0686C23.5202 79.0502 23.993 79.8582 24.1395 80.7396C24.286 81.6211 24.5324 82.3089 24.599 82.9165C24.6656 83.5242 24.3193 83.2037 24.3193 84.025C24.3193 84.8464 24.599 86.636 24.599 86.9565C24.599 87.277 24.9186 87.237 24.9186 87.7378C24.8841 88.1065 24.8841 88.4776 24.9186 88.8463C24.9919 89.06 25.8842 88.9197 25.9908 88.9197C26.0973 88.9197 33.8952 88.8129 34.0417 88.7728C34.1882 88.7328 35.0006 88.3855 34.9273 88.2052C34.8541 88.0249 34.5011 87.8112 34.5011 87.7044C34.4831 87.4138 34.3709 87.1371 34.1815 86.9164C33.9351 86.6694 32.7897 86.5959 32.1838 86.1352C31.4011 85.4797 30.7695 84.6618 30.3325 83.7379C30.1927 83.2037 30.1194 83.0701 30.1927 82.7763C30.2659 82.4825 30.5123 78.5627 30.4391 77.7748C30.3658 76.9868 28.8542 68.3125 28.6744 66.563C28.4946 64.8135 28.2482 61.4212 28.1417 56.3128C28.0351 51.2044 27.822 49.3147 27.7488 47.672C27.6755 46.0293 27.6822 45.8824 27.6822 45.8824C27.6822 45.8824 28.2882 45.8824 28.4613 45.6353C29.0332 44.5059 29.5229 43.3365 29.9263 42.1362C30.2793 41.0277 30.0995 40.4535 30.246 39.5653C30.3925 38.6772 30.3125 37.6355 30.4591 36.7407C30.6107 35.4601 30.6575 34.1693 30.5989 32.881C30.4611 32.1751 30.3655 31.4615 30.3125 30.7442C30.3858 30.2767 30.0662 28.634 30.0329 27.9529C29.9996 27.2718 29.6733 25.0281 29.367 22.918C29.0606 20.8079 28.761 18.5642 28.4413 17.2754C28.1217 15.9866 28.0884 15.3856 27.7754 15.2721C27.4624 15.1586 24.4991 13.9366 23.9264 13.5893C23.4741 13.3726 22.9948 13.2177 22.5014 13.1286C22.2883 13.0217 21.2561 12.9817 21.083 12.768C20.607 12.2949 20.0875 11.8678 19.5314 11.4926L19.285 11.3857C19.3888 11.5392 19.4675 11.7082 19.5181 11.8865C19.5514 12.1002 19.1252 14.9382 19.052 15.3456C18.9787 15.7529 18.6058 18.277 18.5525 18.5976C18.4992 18.9181 17.8866 22.4038 17.7534 22.8846C17.6202 23.3654 17.3805 26.4171 17.274 27.1716C17.1674 27.9262 17.1474 29.402 17.0942 29.7425C17.044 30.6597 17.0618 31.5792 17.1474 32.4937C17.234 33.0613 17.4138 34.5438 17.5004 35.0446C17.5869 35.5454 17.9132 37.1547 17.9465 37.4752C17.9702 37.6673 18.0242 37.8544 18.1064 38.0295L14.9033 37.8826C14.9033 37.8826 14.87 36.2799 14.87 35.9394C14.87 35.5988 14.9965 33.8159 14.9766 33.3485C14.9566 32.881 14.87 30.6173 14.8367 30.1699C14.8034 29.7225 14.6969 27.1716 14.4971 26.1633C14.2973 25.155 13.8911 21.6626 13.8312 20.9281C13.7713 20.1935 13.385 17.7829 13.3517 17.1953C13.3184 16.6076 13.0787 13.1887 13.0321 12.6077C12.9987 12.0764 13.0278 11.543 13.1187 11.0184C13.152 10.9316 12.9389 11.1053 12.9389 11.1053C12.9389 11.1053 11.4472 12.2872 11.1609 12.5343C10.8745 12.7813 10.495 12.6411 9.91561 12.8548C9.33627 13.0685 6.66595 14.0234 6.21313 14.2037C5.75783 14.3331 5.31268 14.496 4.88131 14.6911C4.70151 14.8314 4.41517 14.7579 4.34858 15.0451C4.05862 15.8601 3.8359 16.6976 3.68266 17.5492C3.72078 18.047 3.72078 18.5471 3.68266 19.045C3.60275 19.3655 3.14327 21.2419 3.07002 21.8496Z" fill="#212121"/>
<path d="M4.6756 46.4564L4.5291 45.408C4.22656 45.1811 3.88046 45.0195 3.51257 44.9333C3.14469 44.8471 2.76299 44.8382 2.39152 44.9072C1.05969 45.1276 0.806641 45.802 0.806641 45.802L1.00641 46.837C1.00641 46.837 3.81657 47.0975 4.6756 46.4564Z" fill="#F1F2F2"/>
<path d="M28.3542 45.3145L28.1411 45.7018C28.1411 45.7018 28.7471 45.3479 28.7471 44.9205C28.7471 44.4931 29.2133 43.3112 27.8948 42.5967H27.6817C27.7189 43.1132 27.6694 43.6324 27.5352 44.1325C27.5352 44.1325 28.6073 44.5265 28.3542 45.3145Z" fill="#F1F2F2"/>
<path d="M17.5654 14.7777C18.0772 14.6993 18.593 14.6502 19.1103 14.6307L18.9172 14.5172C18.7241 14.397 17.3523 13.5156 17.3057 13.4421C17.0941 13.3 16.8476 13.2192 16.5932 13.2084C16.4 13.2084 15.7341 13.2752 15.5677 13.2752C15.4012 13.2752 15.3546 13.0415 15.0216 13.0882C14.3543 13.4686 13.7274 13.9161 13.1504 14.4237C13.3368 14.564 13.53 14.4972 13.7164 14.3035C13.9029 14.1099 14.0028 14.2301 14.1226 14.3035C14.3731 14.4963 14.5684 14.752 14.6887 15.0448C14.7082 15.2541 14.6855 15.4653 14.6221 15.6658C14.462 16.0718 14.2798 16.4686 14.076 16.8544C13.85 17.5273 13.6894 18.2205 13.5966 18.9245C13.6407 19.6037 13.7613 20.2757 13.9561 20.9278C14.2997 22.0115 14.8343 23.0247 15.5344 23.9193C15.8407 24.1597 16.2935 23.0846 16.6464 22.5371C16.9107 22.1475 17.1192 21.7227 17.2657 21.275C17.4056 20.8743 17.2657 20.7074 17.1192 20.4203C16.9963 20.1918 16.9227 19.94 16.9032 19.6811C16.8837 19.4222 16.9187 19.1622 17.006 18.9178C17.1205 18.6844 17.2541 18.4611 17.4056 18.25C17.6453 17.8494 17.339 17.6557 17.1459 17.4687C16.9528 17.2818 16.8662 16.6941 16.7796 16.4204C16.7017 16.019 16.7017 15.6064 16.7796 15.205C16.8262 14.6908 17.1858 14.8711 17.5654 14.7777Z" fill="#E7E8E8"/>
<path d="M13.8231 21.2082C13.8231 21.275 14.1827 25.1013 14.3958 26.0094C14.5819 27.2395 14.6997 28.479 14.7487 29.7222C14.7487 29.9559 14.9485 33.2613 14.9085 33.475C14.8686 33.6887 14.7687 36.8672 14.802 37.0075C14.8353 37.1477 14.9285 37.2612 14.9818 37.1878C15.0351 37.1143 17.0461 35.0776 17.1926 34.9174C17.3391 34.7571 17.0461 31.011 17.0661 30.7772C17.0861 30.5435 17.0661 25.956 17.0661 25.3149C17.0661 24.6739 16.4002 16.3135 16.3136 15.7793C16.227 15.2451 16.227 15.185 16.3536 15.0247C16.6701 14.73 17.0013 14.4514 17.3458 14.19C17.4923 14.0631 17.772 14.0631 17.8119 14.0097C17.3924 13.7413 16.946 13.5175 16.4801 13.3419C16.1604 13.2151 15.8941 13.3419 15.6277 13.2685C15.3614 13.195 15.2681 13.1416 15.1483 13.1817C14.6781 13.3598 14.243 13.6198 13.863 13.9496C13.7831 14.0164 14.2759 14.4104 14.3425 14.5372C14.5077 14.8369 14.6224 15.1617 14.6821 15.4988C14.6821 15.7526 13.8098 18.8777 13.8298 19.265C13.8497 19.6523 13.8098 21.1347 13.8231 21.2082Z" fill="#212121"/>
<path d="M9.22926 16.0603C9.26921 16.3875 9.5156 17.6362 9.62215 18.1704C9.83252 18.8172 10.1329 19.4309 10.5145 19.9934C10.8008 20.4541 12.1859 23.813 12.5788 24.4941C12.9717 25.1752 14.8229 29.1017 14.8229 29.1017C14.7465 28.7022 14.6143 28.3155 14.43 27.9531C14.2502 27.7795 13.5777 26.03 13.4312 25.7762C13.2847 25.5225 11.9395 22.5242 11.7597 22.2037C11.5799 21.8832 10.2281 18.9917 10.015 18.4909C9.70725 17.4719 9.51514 16.4213 9.44235 15.3591L10.8741 14.4176L9.62881 14.1705C9.20262 13.7431 10.661 12.835 10.661 12.835C10.3743 12.9495 10.0999 13.0927 9.8419 13.2623C9.59582 13.5548 9.41427 13.8961 9.30917 14.264L10.4479 14.511C10.4479 14.511 9.34246 15.1788 9.16933 15.3324C8.99619 15.486 9.19596 15.7397 9.22926 16.0603Z" fill="#1A1A1A"/>
<path d="M18.0253 26.8841C17.7789 27.3849 17.6724 28.6336 17.5259 28.8473C17.3442 29.2661 17.1906 29.6967 17.0664 30.1361C17.0664 30.1361 17.6324 29.1678 17.7323 28.9207C17.8322 28.6737 17.9121 27.7388 18.0187 27.4517C18.2029 26.9025 18.4255 26.367 18.6846 25.849C18.8577 25.5953 20.4293 22.1697 20.6424 21.8425C20.8555 21.5153 21.1418 20.3066 21.3083 20.0528C21.4748 19.7991 22.1274 18.0896 22.3804 17.5888C22.6334 17.088 22.8399 16.093 22.9131 15.9862C22.9864 15.8793 23.1262 15.6256 23.1262 15.6256C23.1262 15.6256 21.4881 14.8443 21.5946 14.8777C21.8884 14.8136 22.1742 14.7173 22.447 14.5905C22.2423 14.0639 22.0043 13.5509 21.7345 13.0547L22.1939 14.4904L21.1951 14.9177C21.7314 15.228 22.2875 15.5024 22.8599 15.7391C22.8599 15.7391 20.8621 20.9543 20.5824 21.4552C20.3027 21.956 18.2784 26.3832 18.0253 26.8841Z" fill="#1A1A1A"/>
<path d="M4.81462 46.7437C4.75337 46.4247 4.65735 46.1134 4.52828 45.8155C3.98757 45.5809 3.39447 45.4944 2.80952 45.5648C2.22458 45.6352 1.66873 45.86 1.19871 46.2162C1.08553 46.783 1.00548 47.3561 0.958984 47.9323C0.958984 48.2662 0.958984 48.6936 1.17874 48.934C1.42079 49.2768 1.58449 49.669 1.65819 50.0825C1.73144 50.4698 1.58494 50.9907 1.79804 51.0374C2.01113 51.0842 2.46395 51.2978 2.61045 51.2311C3.09465 51.0337 3.56811 50.8108 4.02885 50.5633C4.26857 50.3964 4.48167 50.9706 4.74137 50.8037C5.00108 50.6368 4.79465 49.9222 4.79465 49.4214C4.84632 48.5298 4.85299 47.636 4.81462 46.7437ZM3.6293 48.9941C3.6293 49.1343 3.38957 48.9941 3.08325 48.9206C2.77693 48.8471 2.88347 48.6802 2.88347 48.5133C2.88347 48.3463 3.42952 48.3463 3.62264 48.3463C3.6293 48.3463 3.64928 48.8471 3.6293 48.9941Z" fill="#212121"/>
<path d="M5.66592 24.1332C5.41953 23.599 5.31299 22.7977 4.7403 22.7977C4.16761 22.7977 6.07213 26.2968 6.02551 26.5105C6.00534 26.8854 6.05272 27.2609 6.16536 27.619C6.29567 28.9502 6.34459 30.2883 6.31186 31.6255C6.23044 32.9832 6.05241 34.3333 5.77913 35.6655C5.59933 36.0929 4.9201 36.7005 4.67371 37.1613C4.42732 37.6221 5.73917 36.4935 5.84572 36.6605C5.92813 37.0289 5.90505 37.4131 5.77913 37.769C5.77143 38.4762 5.82939 39.1826 5.95226 39.8791V39.3382C6.03176 38.9992 6.06757 38.6513 6.05881 38.3032C5.99222 37.9826 6.13206 37.6354 6.09876 37.2681C6.09353 37.1116 6.13032 36.9565 6.20529 36.819C6.28026 36.6816 6.39066 36.5669 6.52495 36.4869C6.73804 36.3399 8.69583 35.6254 8.69583 35.6254C8.37619 35.6254 6.23861 36.1597 6.23861 36.1597C6.33548 35.8998 6.37192 35.6211 6.34515 35.345C6.34515 34.6772 6.55824 34.2365 6.6315 33.4151C6.70493 32.1541 6.70493 30.8899 6.6315 29.6289C6.55824 29.0546 6.59154 27.9462 6.48499 27.3385C6.37845 26.7308 6.34515 24.4471 6.13206 23.6257C5.91897 22.8044 5.99222 19.5591 5.91897 19.1651C5.84572 18.7711 5.63262 18.6976 5.54606 18.0633C5.45949 17.4289 5.22642 15.7061 5.22642 15.7061C5.22642 15.9531 5.43951 17.883 5.43951 18.2035C5.42367 18.3753 5.46086 18.5478 5.54606 18.6976C5.65631 18.9712 5.72803 19.2589 5.75915 19.5524C5.7991 19.9797 6.07879 25.2684 6.07879 25.3753C5.96724 24.953 5.82934 24.5382 5.66592 24.1332Z" fill="#1A1A1A"/>
<path d="M24.3651 35.9197C24.7195 35.798 25.0377 35.5891 25.2907 35.312C25.2549 35.7573 25.2683 36.2052 25.3307 36.6475C25.4372 36.9013 25.7901 36.9347 25.8301 37.2552C25.8542 37.6939 25.9371 38.1274 26.0765 38.544C26.2167 38.7703 26.3349 39.0095 26.4294 39.2585C26.5018 39.5139 26.5018 39.7844 26.4294 40.0398C26.3562 40.2935 25.2574 40.8611 25.3972 41.2952C25.5246 41.5358 25.7079 41.7422 25.9316 41.8968C26.1553 42.0514 26.4129 42.1496 26.6825 42.1833C26.771 42.1995 26.8619 42.1974 26.9497 42.1774C27.0374 42.1573 27.1202 42.1196 27.1931 42.0666C27.2659 42.0135 27.3272 41.9462 27.3734 41.8687C27.4195 41.7912 27.4495 41.7051 27.4616 41.6157C27.3986 41.3141 27.2638 41.0323 27.0687 40.7943C27.0687 40.7943 27.2152 39.8662 27.2884 40.0064C27.3617 40.1466 27.5681 40.7543 27.7146 40.7943C27.7146 40.7943 27.6747 40.0798 27.7812 40.0398C28.0522 40.0931 28.3159 40.1783 28.567 40.2935C28.2294 40.0804 27.9282 39.8144 27.6747 39.5056C27.5015 39.185 27.1419 38.8378 27.3883 38.8979C27.6347 38.958 28.5337 39.7192 28.6402 39.4722C28.7468 39.2251 27.5215 38.2034 27.0354 37.529C26.5493 36.8545 25.3972 35.1718 25.3639 34.671C25.1122 33.2208 25.0406 31.7449 25.1509 30.2771C25.5394 28.2916 26.0623 26.335 26.7158 24.4208C26.8623 24.1003 26.9288 22.9584 26.7557 23.0853C26.2723 23.5133 25.9778 24.116 25.9366 24.7613C25.7235 25.9032 25.3972 27.7596 25.3972 27.7596C25.3972 27.7596 26.1098 21.1888 26.2563 20.4142C26.4028 19.6396 26.9222 16.8417 27.1819 15.8066C27.1819 15.8066 26.1497 18.5912 25.9699 19.5194C25.8136 20.2503 25.7068 20.991 25.6503 21.7364C25.6503 22.0903 25.1509 24.3073 25.1842 24.9817C25.2174 25.6562 25.0443 26.6979 25.0443 26.985C25.0443 27.2721 24.9378 27.9132 24.9378 28.2738C24.9378 28.6344 24.8579 29.2087 24.8579 29.7028C24.8579 30.1969 24.8579 31.7395 24.8911 32.4206C24.9244 33.1017 24.8911 33.3154 24.9311 33.7561C24.9711 34.1968 23.9389 35.9931 24.3651 35.9197Z" fill="#1A1A1A"/>
<path d="M25.8438 34.0566C25.8743 34.1322 25.9171 34.2022 25.9706 34.2636C25.9706 34.2636 25.9172 34.1635 25.8438 34.0566Z" fill="#1A1A1A"/>
<path d="M29.2126 31.4917C28.4451 30.7895 27.6084 30.1675 26.7154 29.6353C25.9363 29.1011 25.3103 28.2063 25.2903 28.2998C25.2238 28.6537 25.0107 31.1912 24.9707 31.9057C25.1059 32.6764 25.4033 33.4094 25.8431 34.0559C25.5833 33.4549 25.5034 32.0526 26.0029 32.7203C26.6094 33.3343 27.3225 33.8321 28.1072 34.1894C27.8541 34.0091 26.7753 32.1861 26.4291 31.7588C26.0828 31.3314 25.4368 30.5434 25.4368 30.5434C26.5732 31.0779 27.6474 31.7363 28.6399 32.5067C29.8519 33.4883 29.6388 32.0526 29.2126 31.4917Z" fill="#1A1A1A"/>
<path d="M10.5881 50.1359C11.5703 50.0237 12.4858 49.5812 13.1851 48.8805C13.6113 48.3129 15.1096 42.0693 15.0697 38.7305C15.0697 38.7305 14.6834 42.4432 14.4038 43.6586C14.1241 44.8739 13.6513 47.8721 13.265 48.3329C12.8788 48.7937 12.3394 49.8354 11.0209 49.9088C9.70241 49.9823 6.13977 49.9088 5.50049 50.1559C5.50049 50.1559 4.60817 50.1559 5.46054 50.5499L10.5881 50.1359Z" fill="#1A1A1A"/>
<path d="M27.4277 44.3867C27.4277 44.3867 27.4277 44.4735 27.4277 44.6004C27.4304 44.5872 27.4304 44.5736 27.4277 44.5603V44.3867Z" fill="#1A1A1A"/>
<path d="M22.588 48.8808C23.6534 48.8375 24.6793 48.4642 25.5246 47.8124C26.1749 47.1432 26.7613 46.4144 27.276 45.6355C27.3942 45.3036 27.4506 44.9528 27.4425 44.6005C27.2456 45.3783 26.8692 46.0988 26.3437 46.7039C25.5646 47.6321 24.5657 48.6338 23.1407 48.7072C21.7156 48.7807 20.8632 46.4569 20.2573 45.1013C19.6513 43.7457 18.0664 38.1699 18.0664 38.1699C18.3461 40.3134 19.9176 45.1681 20.0641 45.7023C20.2106 46.2365 21.8421 48.7473 22.588 48.8808Z" fill="#1A1A1A"/>
<path d="M3.08238 48.9209C2.94383 49.2962 2.84778 49.686 2.79603 50.0828C2.72255 50.4774 2.62695 50.8676 2.50969 51.2514C2.48935 51.4246 2.44216 51.5936 2.36985 51.7522L1.84378 51.8657C1.77718 51.8657 1.75055 51.7255 1.56409 51.7255C1.37764 51.7255 1.25111 51.9192 1.11127 51.9859C0.971429 52.0527 0.305515 52.3465 0.232265 52.5335C0.159014 52.7205 0.398743 65.822 0.585199 66.7301C0.616421 66.9164 0.699527 67.09 0.824928 67.231C0.991406 67.3445 2.01025 68.2794 2.01025 68.2794H2.24998C2.24998 68.2794 2.24998 68.5665 2.46308 68.5665C2.67617 68.5665 2.72278 68.3061 2.72278 68.3061L4.79377 68.1592C4.79377 68.1592 4.84039 68.493 5.00687 68.4463C5.24173 68.3541 5.45162 68.2077 5.61951 68.0189C5.69276 67.8987 5.71939 61.5683 5.69276 60.9206C5.66612 60.2729 5.43305 53.1145 5.43305 52.9074C5.43305 52.7004 5.07346 52.46 4.84039 52.2397C4.7846 52.1772 4.7133 52.1307 4.63375 52.1049C4.55421 52.0791 4.46926 52.0749 4.38757 52.0928L4.21443 51.9926C3.96186 52.0148 3.70785 52.0148 3.45529 51.9926C3.52469 51.4204 3.64276 50.8552 3.80822 50.3032C3.88813 50.0361 4.57402 49.1546 3.08238 48.9209Z" fill="#212121"/>
<path d="M28.3476 44.874C28.2943 44.5134 27.5352 44.1328 27.5352 44.1328C27.6449 44.7092 27.694 45.2956 27.6817 45.8824L28.0612 45.7555C28.1824 45.647 28.2727 45.5083 28.323 45.3535C28.3733 45.1987 28.3818 45.0332 28.3476 44.874Z" fill="#212121"/>
<path d="M18.2792 39.3978L18.1327 38.0623C18.1327 38.0623 15.569 37.8419 14.9297 37.9154C15.0239 38.3855 15.0597 38.8655 15.0362 39.3444L18.2792 39.3978Z" fill="#1A1A1A"/>
<path d="M16.16 49.868V49.9415L16.2998 50.7027L16.3465 50.7895C16.3465 50.7895 16.3465 48.9198 16.3465 48.6794C16.2889 47.8947 16.2889 47.1069 16.3465 46.3222C16.4333 45.8405 16.5444 45.3636 16.6794 44.8932C17.001 43.3996 17.1463 41.8733 17.1123 40.3457C17.0743 41.5104 16.9698 42.672 16.7993 43.8248C16.6128 44.4925 16.493 44.7262 16.3997 45.2538C16.2621 45.6888 16.1662 46.136 16.1134 46.5893C16.1113 47.1758 16.1402 47.762 16.2 48.3455C16.2466 48.5592 16.1001 48.873 16.1267 49.0133C16.1533 49.1535 16.14 49.8012 16.16 49.868Z" fill="#1A1A1A"/>
<path d="M23.3398 69.8359C23.4358 69.899 23.5389 69.9506 23.647 69.9895L23.3398 69.8359Z" fill="#1A1A1A"/>
<path d="M23.3386 69.835C22.7318 69.395 22.1796 68.8839 21.6938 68.3125C21.454 70.3158 23.2587 72.279 23.4518 72.5127C23.2768 71.8969 23.0048 71.313 22.646 70.7832C22.3846 70.256 22.1921 69.6971 22.0733 69.1205C22.4686 69.4031 22.8927 69.6426 23.3386 69.835Z" fill="#1A1A1A"/>
<path d="M12.0597 63.9458C12.0064 64.1328 14.2439 60.9409 14.5236 58.8508C14.5236 58.6972 10.4882 62.0894 10.9143 62.1896C11.3405 62.2897 12.6257 61.1412 13.0519 60.9008C13.4781 60.6604 14.0508 60.3332 13.9576 60.4734C13.8643 60.6137 12.1063 63.7522 12.0597 63.9458Z" fill="#1A1A1A"/>
<path d="M12.2927 69.6074C12.2927 69.6074 10.7278 77.4203 10.2949 78.2883C10.3016 78.275 12.0063 75.457 12.2927 69.6074Z" fill="#1A1A1A"/>
</svg>
