<svg width="32" height="92" viewBox="0 0 32 92" fill="none" xmlns="http://www.w3.org/2000/svg">
<path d="M26.6929 34.7303C26.6929 34.4899 26.3 34.156 26.027 33.9223C25.754 33.6886 25.5542 33.2546 20.8062 33.2078C16.0583 33.1611 14.3003 33.7287 14.3003 33.7287C14.3003 33.7287 14.1604 35.3046 14.0605 35.732C13.9606 36.1593 12.6555 40.2661 12.4956 41.4614C12.4655 43.5442 12.5612 45.627 12.782 47.6983C12.9218 49.7016 13.348 57.4076 13.4013 59.3641C13.4546 61.3207 14.4934 68.5993 15.0128 71.1702C15.5322 73.7411 16.9573 79.2701 17.0105 79.9846C16.8889 81.3548 16.5843 82.7024 16.1049 83.9912C15.8244 84.7673 15.6955 85.5903 15.7253 86.4152C15.5261 86.8646 15.4283 87.3525 15.439 87.8442C15.4856 88.5587 15.5855 89.4201 15.5855 89.941C15.5855 90.4618 15.6321 91.37 15.6321 91.37H17.5299C17.5299 91.37 17.2902 89.133 17.6698 89.133C18.0494 89.133 19.0948 89.9877 19.0948 89.9877C19.0948 89.9877 18.9084 91.4167 19.3812 91.4167L23.7962 91.37C23.9181 91.3511 24.0329 91.3004 24.1291 91.2231C24.1291 91.2231 25.8872 91.37 26.1269 90.9894C26.3666 90.6088 24.8883 90.0345 24.0825 89.7473C23.8858 89.4142 23.6632 89.0971 23.4166 88.7991C22.9904 88.2716 22.8972 85.7007 22.8506 85.2733C22.804 84.846 22.2313 80.9863 22.3711 80.3719C22.511 79.7576 24.6552 69.6877 24.8417 68.6527C25.0281 67.6177 26.7928 57.4343 27.0725 56.0987C27.8067 51.0073 28.2734 45.8807 28.4709 40.7402C28.4709 40.7402 26.8461 36.2328 26.8927 35.7052C26.9393 35.1777 26.6929 34.9373 26.6929 34.7303Z" fill="#F92525"/>
<path d="M12.6172 31.9321C12.9035 32.9738 12.9368 33.6816 13.403 33.7551C13.8691 33.8285 14.0689 33.902 14.2553 33.9354C14.4418 33.9688 16.8191 33.5414 17.7447 33.4679C18.6703 33.3945 22.4461 33.3611 23.072 33.3277C23.4638 33.2684 23.8629 33.2797 24.2507 33.3611C24.7619 33.3805 25.2652 33.4937 25.7357 33.695C26.022 33.9087 26.1552 34.129 26.2617 33.9888C26.4213 33.8742 26.5557 33.7279 26.6565 33.559C26.7573 33.3902 26.8224 33.2023 26.8478 33.0072C26.8877 32.3995 27.5137 26.8304 27.5137 25.9022C28.001 26.0373 28.5104 26.0737 29.012 26.009C29.618 25.8621 30.1174 25.575 30.1906 25.1877C30.2639 24.8004 28.2661 23.0041 28.2994 22.1493C28.3327 21.2946 27.5137 19.1845 27.0542 18.2229C26.8717 17.8551 26.6146 17.5296 26.2992 17.2674C25.9838 17.0052 25.6172 16.812 25.2229 16.7004C24.3169 16.4044 23.4277 16.0588 22.5593 15.6654C22.1986 15.4575 21.8945 15.164 21.6736 14.8106C21.4206 14.3766 21.0676 13.7756 20.8545 13.7021C20.6414 13.6287 20.3884 13.5218 20.3884 13.5218C20.3884 13.5218 16.3596 12.5803 15.8602 12.6938C15.8602 12.6938 14.9346 12.587 14.6083 12.8674C14.298 13.1914 14.0696 13.5853 13.9423 14.016L13.9024 14.2297C13.543 14.5686 13.1196 14.832 12.6571 15.0043C11.9446 15.258 11.7715 15.0777 11.5517 15.1846C11.3369 15.3362 11.095 15.445 10.8392 15.5051C10.6261 15.5051 10.1333 15.3982 9.91357 15.7188C9.69382 16.0393 8.42192 16.9007 8.38863 17.4015C8.35533 17.9024 8.31537 18.116 8.31537 18.116L6.71052 19.5784C6.05667 20.3887 5.44969 21.236 4.89258 22.1159C4.89258 22.1159 6.91696 24.58 8.84145 24.0458C8.84145 24.0458 9.90691 23.4782 10.1267 23.338C10.3464 23.1977 10.4463 23.2979 10.5861 23.4047C10.726 23.5116 11.5451 25.3012 11.918 25.8688C12.2909 26.4364 12.5839 27.6584 12.8436 27.9055C13.1033 28.1525 12.9501 28.4063 13.1299 28.7268C13.3097 29.0473 12.9901 29.3946 12.8436 29.5815C12.5041 30.3165 12.4242 31.1455 12.6172 31.9321Z" fill="#F1F2F2"/>
<path d="M9.16032 23.7925C8.82494 23.4409 8.42025 23.1631 7.97198 22.9769C7.52372 22.7906 7.0417 22.7 6.5566 22.7107C6.5566 22.7107 5.40457 22.2433 5.01168 22.043C3.43639 23.5061 2.00067 25.1135 0.723192 26.8442C0.723192 26.8442 -0.0625859 27.7924 0.00400543 28.2598C0.0705968 28.7273 2.74091 33.1879 4.87849 35.4717C7.01608 37.7554 8.26134 39.1511 9.08041 39.6519C9.34824 39.8381 9.65647 39.9577 9.97957 40.0007C10.3027 40.0436 10.6313 40.0088 10.9383 39.899C11.3978 39.7587 12.4699 38.9708 12.7163 39.1845C12.9627 39.3981 14.1014 39.899 14.3212 39.7587C14.5409 39.6185 12.8228 38.7237 12.9893 38.4699C13.0453 38.3032 13.1581 38.1616 13.3079 38.07C13.4577 37.9784 13.6349 37.9427 13.8084 37.9691C14.4144 37.9691 15.8394 38.1494 16.0525 38.076C16.1156 38.0537 16.1719 38.0156 16.2162 37.9653C16.2605 37.9151 16.2912 37.8543 16.3056 37.7888L15.5198 37.2947C15.86 37.2861 16.1969 37.2253 16.5187 37.1144C16.6461 37.0308 16.7549 36.9216 16.8383 36.7939L15.9127 36.293C16.1039 36.0732 16.2713 35.8337 16.4121 35.5785C15.8967 35.23 15.2646 35.1003 14.6541 35.2179C14.2237 35.4118 13.8433 35.7019 13.542 36.066C13.0129 36.4644 12.4384 36.7984 11.8306 37.061C11.3712 37.2413 10.6919 37.7755 10.4988 37.6352C10.3057 37.495 9.75298 37.3147 9.61314 37.1344C8.06727 35.4292 6.7977 33.4914 5.85073 31.3917C4.71202 28.5336 4.24588 28.4268 4.9584 27.6054C5.67093 26.7841 8.87398 24.2599 9.16032 23.7925Z" fill="#212121"/>
<path d="M27.4655 36.1531C27.3371 36.0771 27.1871 36.0466 27.0393 36.0663C26.9328 36.0663 26.4666 36.0329 26.3734 36.2065C26.2802 36.3801 26.1204 36.7407 26.44 36.7407C26.5261 36.7349 26.6124 36.7481 26.6929 36.7792C26.7735 36.8103 26.8462 36.8587 26.9061 36.921C26.9061 36.921 26.48 37.0679 26.5466 37.3484C26.6131 37.6288 26.6531 37.8158 27.046 37.8158C27.4389 37.8158 27.4722 38.1363 27.3656 38.3834C27.2591 38.6305 26.6198 39.0512 26.8329 39.2048C27.046 39.3583 27.1592 39.2649 27.4988 39.2048C28.0981 39.1113 27.8917 39.2782 27.7452 39.7456C27.5987 40.2131 26.9661 40.4935 27.2458 40.6004C27.5254 40.7072 27.7852 40.4601 28.1381 40.4201C28.491 40.38 28.6708 40.4201 28.804 40.2465C28.9372 40.0728 29.1969 39.3517 29.3767 39.0979C29.5565 38.8442 29.3767 38.4301 29.5565 38.1029C30.1716 36.2669 30.6174 34.3781 30.8883 32.4603C31.1747 30.1031 30.9949 30.21 30.5687 28.9947C30.1813 27.9709 29.7366 26.9699 29.2368 25.9964C29.2368 25.9964 27.5321 25.7093 27.4921 25.8896C27.3757 26.7413 27.3289 27.6011 27.3523 28.4604C27.3523 28.4604 28.0182 30.0297 28.0981 30.1699C28.178 30.3101 27.9317 31.3919 27.9716 32.0597C28.0116 32.7274 27.7585 34.8443 27.7585 35.3384C27.7643 35.5823 27.7866 35.8254 27.8251 36.0663C27.8251 36.0663 27.612 36.2599 27.4655 36.1531Z" fill="#212121"/>
<path d="M13.8945 14.2236L14.0414 14.3305H14.0815L13.8945 14.2236Z" fill="#E7E8E8"/>
<path d="M15.5337 15.292C15.4272 15.292 15.2873 15.0449 15.0742 14.8312C14.7683 14.6222 14.4342 14.4581 14.082 14.3438C14.4384 14.5676 14.7808 14.8129 15.1075 15.0783C15.2784 15.2669 15.4706 15.435 15.6802 15.5791C16.2664 15.5527 16.8497 15.4813 17.4249 15.3654L17.4982 15.686C17.5301 15.8832 17.6154 16.068 17.7446 16.2202C17.9576 16.4739 19.8821 17.756 20.2018 18.1166C20.5214 18.4772 21.1274 18.7844 21.3405 19.0047C21.5536 19.2251 22.9453 21.9362 22.9453 21.9362C22.8397 21.6113 22.6966 21.2998 22.5192 21.008C22.3061 20.7209 21.8066 19.4388 21.6601 19.1516C21.5136 18.8645 21.3139 18.8645 21.3139 18.7042C21.3139 18.544 18.9898 17.0081 18.7035 16.701C18.4056 16.4026 18.085 16.128 17.7446 15.8796V15.0783C17.7446 15.0783 15.6403 15.292 15.5337 15.292Z" fill="#E7E8E8"/>
<path d="M14.5736 27.184C14.6141 26.8042 14.5893 26.4202 14.5003 26.0488C14.3938 25.8351 14.1807 26.4094 14.1474 27.2308C14.0535 27.8465 13.7959 28.4255 13.4016 28.9068C13.31 29.1885 13.1179 29.4263 12.8622 29.5746C12.6491 29.6815 12.7223 30.0087 12.6491 30.3292C12.5758 30.6497 12.9021 30.3626 13.2218 30.0087C13.5414 29.6547 13.8277 29.9018 14.1074 29.6147C14.4472 29.238 14.736 28.8182 14.9665 28.366C14.538 28.7525 14.0717 29.0948 13.5747 29.3876C13.295 29.4945 13.4016 29.2407 13.4016 29.2407C13.4016 29.2407 14.5736 27.6114 14.5736 27.184Z" fill="#E7E8E8"/>
<path d="M12.5497 16.7611C12.4793 16.5082 12.3807 16.2641 12.2559 16.0332C12.2559 16.0332 12.3961 16.3404 12.5497 16.7611Z" fill="#E7E8E8"/>
<path d="M10.7907 23.4648L10.7246 23.5045L10.7907 23.4648Z" fill="#E7E8E8"/>
<path d="M12.3293 21.7957C11.973 22.4789 11.4421 23.055 10.791 23.4651C11.084 23.2648 12.3226 22.3967 12.5091 21.8291C12.7434 20.6159 12.8748 19.3851 12.902 18.1497C12.8445 17.6734 12.7258 17.2065 12.549 16.7607C12.7252 17.3923 12.7839 18.051 12.7222 18.7039C12.7017 19.7456 12.57 20.7821 12.3293 21.7957Z" fill="#E7E8E8"/>
<path d="M27.0062 19.2188C26.995 19.3794 27.0249 19.5403 27.093 19.6862C27.0744 19.5286 27.0454 19.3725 27.0062 19.2188Z" fill="#E7E8E8"/>
<path d="M28.2524 22.2898C27.9459 21.675 27.6725 21.0442 27.4334 20.4001C27.344 20.1512 27.2302 19.9119 27.0938 19.6855C27.1803 20.2131 27.3002 21.0611 27.3268 21.4685C27.3064 21.8377 27.3064 22.2078 27.3268 22.577C27.3934 23.0043 27.3934 22.577 27.5 23.2447C27.6574 23.7518 27.7073 24.2864 27.6465 24.814C27.5399 25.4817 27.5 25.8891 27.5 25.8891C27.5 25.8891 27.7197 24.9943 27.8263 24.6737C27.8722 24.2408 27.8475 23.8032 27.753 23.3783C27.7197 23.0578 27.5 22.5235 27.5 22.163C27.5 21.8024 27.5399 21.3082 27.5399 21.3082L28.2524 22.2898Z" fill="#E7E8E8"/>
<path d="M18.4499 86.3212C18.4505 85.8729 18.4082 85.4257 18.3234 84.9856C18.2635 84.4982 18.1369 83.964 18.0304 83.3696C17.9208 82.8322 17.7417 82.3114 17.4977 81.8204C17.2912 81.353 17.0781 80.2913 17.0781 80.3781C17.1915 81.1869 17.404 81.9786 17.7107 82.7353C17.9409 83.5828 18.0903 84.4503 18.1569 85.3262C18.1776 85.7607 18.2266 86.1935 18.3034 86.6217C18.3034 86.7485 18.3034 87.0023 18.3434 87.1826C18.3434 86.9288 18.4366 86.7018 18.4499 86.3212Z" fill="#1A1A1A"/>
<path d="M18.3423 87.1562C18.339 87.1962 18.339 87.2365 18.3423 87.2765C18.369 87.4033 18.3557 87.3098 18.3423 87.1562Z" fill="#1A1A1A"/>
<path d="M18.8164 33.541C18.8164 33.541 15.3204 33.5744 14.2549 33.935L14.1816 35.3239C15.7929 35.1699 17.411 35.0986 19.0295 35.1103L18.8164 33.541Z" fill="#1A1A1A"/>
<path d="M26.3614 35.8257L26.5079 35.5786L26.5412 34.4701C26.2286 34.1413 25.8524 33.8799 25.4356 33.7019C25.0189 33.524 24.5702 33.4332 24.1172 33.4351C22.6256 33.4351 20.3082 33.3282 19.7422 33.6487C19.7976 34.1461 19.9047 34.6362 20.0618 35.1111C20.1684 35.1111 25.4358 34.9375 26.3614 35.8257Z" fill="#1A1A1A"/>
<path d="M24.7623 35.0777C25.0486 35.0777 24.8288 33.8623 24.8288 33.7421C23.7979 33.5396 22.7413 33.5035 21.6991 33.6353C21.6991 33.6353 21.5193 34.9241 21.6991 34.9241C21.8788 34.9241 24.4759 35.0777 24.7623 35.0777Z" fill="#F1F2F2"/>
<path d="M22.1597 8.07932C22.446 7.07768 22.2329 2.79064 21.0209 1.36162C20.6594 0.909042 20.1951 0.549822 19.6669 0.313993C19.1386 0.0781629 18.5617 -0.0274228 17.9844 0.00606235C16.9855 0.00606235 14.1354 0.720569 13.7825 3.15123C13.4295 5.58189 13.8557 5.82228 13.8557 5.82228C13.741 6.0288 13.6864 6.26349 13.6981 6.49962C13.7099 6.73574 13.7876 6.9638 13.9223 7.15781L14.4817 7.82557C14.2286 8.11939 13.4628 9.10768 13.7425 9.96242C13.8067 10.1226 13.9029 10.2678 14.0253 10.3892C14.1477 10.5106 14.2936 10.6055 14.454 10.6681C14.6144 10.7306 14.7859 10.7596 14.9578 10.7531C15.1298 10.7465 15.2987 10.7047 15.4539 10.6302C15.6026 10.4775 15.7182 10.2956 15.7935 10.096C16.0052 10.531 16.1257 11.0049 16.1474 11.4885C16.1692 11.972 16.0918 12.4549 15.92 12.9073C15.92 12.9073 20.4549 17.5081 21.3139 18.7034C21.2023 16.9991 20.9798 15.3038 20.648 13.6284C20.648 13.6284 20.9277 10.6302 21.001 9.91567C21.5157 9.3953 21.9111 8.76862 22.1597 8.07932Z" fill="#212121"/>
</svg>
