<svg width="25" height="81" viewBox="0 0 25 81" fill="none" xmlns="http://www.w3.org/2000/svg">
<path fill-rule="evenodd" clip-rule="evenodd" d="M10.1152 14.7318L10.0112 12.7016C10.0112 12.7016 9.73375 12.9381 9.59515 12.4985C9.59515 12.4985 9.10964 12.9722 8.86701 10.9759L8.65898 10.7729C8.65898 10.7729 7.82683 11.0435 7.20271 10.0623C7.20271 10.0623 6.5786 9.31784 6.99467 8.13365C6.99467 8.13365 5.71173 7.49072 5.64243 6.10343C5.57313 4.71614 5.29565 3.87011 6.68262 2.34751C8.06958 0.824907 9.04034 -0.122285 9.90721 0.0127653C10.7741 0.147816 12.0916 0.520256 12.0916 0.520256C12.0916 0.520256 13.5132 -0.122546 14.38 0.215737C15.2469 0.554019 17.9167 3.39638 17.3964 5.29129C16.8762 7.1862 15.8363 8.0321 15.8363 8.0321C15.8363 8.0321 15.9403 10.2654 15.4201 11.4834C15.4201 11.4834 15.2815 12.3294 14.7961 12.9046V14.4273C14.7961 14.4273 17.882 16.1191 19.5808 16.6606C21.2797 17.2021 21.2451 17.1681 21.2451 17.1681C21.2451 17.1681 22.008 16.5591 22.4934 17.1681C22.9788 17.7771 23.2909 19.165 23.4295 20.315C23.5681 21.465 24.0537 28.5373 24.0537 28.5373C24.0537 28.5373 24.5392 28.4696 24.4697 29.5524L24.3657 30.7706C24.3657 30.7706 25.0938 34.0189 24.9898 36.1506C24.8858 38.2822 24.3657 43.0534 24.3657 43.0534L24.0537 43.2563C24.0537 43.2563 24.2617 44.8467 24.2617 45.7942C24.2574 46.3777 24.2617 47.5874 23.6376 48.2303C23.0135 48.8733 22.7014 48.738 22.7014 48.738C22.7014 48.738 22.0427 49.6181 21.4532 49.4485L20.3094 56.6557C20.0411 56.9865 19.6795 57.2335 19.2693 57.3663C19.2693 57.3663 19.0271 62.0358 18.6451 65.183C18.263 68.3301 17.709 72.1872 17.709 72.1872C17.709 72.1872 18.9225 75.8078 19.4772 77.9733C19.9185 78.4675 20.4472 78.8801 21.0382 79.1914C22.0089 79.699 22.0784 79.699 22.0784 79.699L21.9744 80.4096C21.125 80.7749 20.1921 80.9149 19.2696 80.8156C17.7439 80.6465 17.1892 80.3081 16.9812 79.6989C16.7731 79.0897 16.3571 77.6687 16.3571 77.6687C16.3571 77.6687 15.2474 77.5334 15.1088 76.8565C15.1088 76.8565 14.7621 76.0445 15.6289 74.0143C15.5853 72.35 15.4464 70.6894 15.2128 69.0403C14.8314 66.401 14.0339 60.7507 14.2767 57.6711H13.028C13.028 57.6711 12.9586 61.2916 12.82 64.5738C12.6814 67.856 12.6466 72.6947 12.716 73.7098C12.716 73.7098 13.028 74.3526 13.028 75.5369C13.028 76.7212 12.82 76.7551 12.82 76.7551L12.4039 77.1611C12.4039 77.1611 12.3345 78.853 12.1959 79.5974C12.0573 80.3417 11.0451 80.6506 10.3236 80.8154C9.50768 81.002 8.00041 81.1539 8.03513 80.714C8.06985 80.2742 8.17374 79.6313 8.97131 78.6838C8.97131 78.6838 9.4914 75.4693 10.5323 73.6082C10.5323 73.6082 9.076 67.1447 8.55591 64.6749C8.03581 62.2052 7.93179 56.3511 7.93179 56.3511L6.99562 55.945C6.99562 55.945 5.19244 45.8278 5.22729 41.9366L4.60318 41.7336C4.60318 41.7336 4.74178 36.9287 5.01925 35.44C5.01925 35.44 0.893077 34.8308 0.13036 33.4097C-0.168915 31.8943 0.0503798 30.3249 0.754475 28.9431C0.754475 28.9431 -0.0430955 28.0629 1.27457 27.928C1.27457 27.928 1.82925 20.9577 3.45897 17.98C3.45897 17.98 3.44457 16.9643 3.87505 16.8633C4.25323 16.7964 4.64066 16.7964 5.01885 16.8633C5.01885 16.8633 4.8454 17.0664 6.99521 16.1527C9.14503 15.239 10.1152 14.7318 10.1152 14.7318Z" fill="#212121"/>
</svg>
