<svg width="32" height="85" viewBox="0 0 32 85" fill="none" xmlns="http://www.w3.org/2000/svg">
<path fill-rule="evenodd" clip-rule="evenodd" d="M17.1245 12.9325C17.1245 12.9325 17.7095 10.9756 17.8372 10.2893C17.8372 10.2893 18.2193 10.4927 18.3471 9.88263C18.4749 9.27254 18.8306 7.4682 18.6527 7.13783C18.4749 6.80746 18.1179 6.68023 17.8372 6.83272C17.8372 6.83272 17.6344 4.06252 17.0231 2.7663C16.4118 1.47008 15.1392 0.0721551 14.0694 0.8346C14.0694 0.8346 13.1025 -0.156512 12.4398 0.0213694C11.7771 0.199251 9.56386 2.23253 8.97761 3.47796C8.39136 4.7234 8.67198 7.13783 8.67198 7.13783C8.67198 7.13783 7.93423 7.18861 8.0607 7.95106C8.18717 8.7135 8.51916 10.391 8.77342 10.696C9.02769 11.001 9.25823 10.9756 9.69034 10.8993C9.69034 10.8993 10.1488 12.3226 10.7087 12.9325V13.9489C10.7087 13.9489 9.71537 15.0419 9.18182 15.2705C8.64827 15.4992 3.47872 17.4563 2.35891 17.9138C2.35891 17.9138 1.18773 17.4055 1.13635 18.0155C1.08497 18.6254 1.03492 20.3791 1.03492 20.4554C1.03492 20.5317 0.398603 26.174 0.322193 27.9784C0.245782 29.7829 0.016548 31.1045 0.21943 31.5366C0.422312 31.9687 0.525075 32.1212 0.322193 32.4517C0.11931 32.7822 -0.162623 32.9599 0.117987 33.4683C0.398596 33.9767 0.52508 34.1799 0.52508 34.1799C0.52508 34.1799 0.958496 36.4166 1.13635 37.7381C1.3142 39.0596 2.30753 46.9386 2.86743 48.1078L3.78437 48.2093C3.78437 48.2093 4.67493 51.1067 5.10836 51.9709C5.54179 52.835 5.86589 53.6902 6.02398 54.1059C6.37573 55.0303 6.94089 54.8175 6.94089 54.8175C6.94089 54.8175 7.88285 62.3405 8.16346 64.2721C8.44407 66.2037 9.69034 73.2188 9.69034 73.2188C9.69034 73.2188 9.15546 73.905 8.87617 74.3372C8.59688 74.7694 8.92624 75.7351 9.18182 76.1672C9.18182 76.1672 8.64694 77.2092 9.07906 77.997C9.07906 77.997 5.43903 81.0216 4.49708 81.4536C3.55513 81.8857 2.53677 81.9873 2.5618 82.6735C2.58683 83.3598 3.07164 83.5123 5.31125 83.7919C7.55086 84.0715 8.01063 83.9698 8.87617 83.6902C9.74171 83.4106 11.0657 82.5718 12.4398 82.3686C13.8139 82.1653 15.5212 82.3686 15.6991 81.7586C15.8135 81.3265 15.8815 80.8835 15.902 80.437C15.902 80.437 16.1496 80.2845 16.616 79.9286C17.0626 79.5865 16.6661 76.8279 16.616 75.9638C16.5659 75.0996 16.3104 74.5151 16.5132 72.4056C16.7161 70.2962 16.4118 51.463 16.4118 51.463L16.7174 50.9547L16.9203 51.6663C16.9203 51.6663 17.2523 60.5619 17.3287 62.4426C17.4051 64.3234 17.8886 68.7965 18.1429 70.474C18.3972 72.1515 18.932 74.261 18.957 75.6588C18.9821 77.0566 18.957 79.6745 19.0598 79.7253C19.1626 79.7761 19.9754 80.0303 19.9754 80.0303L20.0782 80.9453C20.0782 80.9453 21.3758 81.479 22.4205 81.6569C22.6233 82.2137 22.8613 82.757 23.1333 83.2835C23.4639 83.8681 24.7115 84.3511 26.3912 84.8085C28.0709 85.266 30.3119 84.7831 31.1774 84.6051C31.3373 84.2192 31.4072 83.802 31.3816 83.3852C30.7936 82.8186 30.1022 82.3699 29.3449 82.0636C28.0209 81.5044 27.6652 80.8181 27.3082 80.437C26.9511 80.0558 26.4676 77.7428 26.1883 77.2854C26.1883 77.2854 26.162 76.7008 26.0856 75.9638C26.0856 75.9638 26.4176 74.4902 26.0856 74.0322C25.9257 73.7897 25.7182 73.5822 25.4756 73.4222C25.4756 73.4222 25.4493 68.3391 25.3729 66.3058C25.2965 64.2725 25.2201 61.4006 25.2714 59.291C25.3228 57.1814 25.5771 46.2788 25.5771 46.2788C25.5771 46.2788 26.8497 46.2534 27.2067 45.7706L26.494 38.1458C26.494 38.1458 30.4397 35.6296 30.8718 34.7908C31.3039 33.9521 31.076 32.9608 31.076 32.9608C31.076 32.9608 32.0943 32.6558 31.9929 31.9442C31.8915 31.2325 31.3302 30.1143 30.9745 29.6059C30.7872 29.3233 30.5448 29.0813 30.2618 28.8943C30.2618 28.8943 29.5491 24.4466 29.0392 23.0996C28.5294 21.7526 27.6138 18.5246 27.6138 18.5246C27.6138 18.5246 27.843 17.3301 27.2067 17.1014C26.5704 16.8728 25.4756 17.0251 25.4756 16.898C25.4756 16.7709 21.9357 15.7797 20.3838 15.2714C18.8319 14.7632 18.0414 14.4582 18.0414 14.4582C18.0414 14.4582 17.4486 13.174 17.1245 12.9325Z" fill="#F92525"/>
</svg>
