<svg width="32" height="84" viewBox="0 0 32 84" fill="none" xmlns="http://www.w3.org/2000/svg">
<path fill-rule="evenodd" clip-rule="evenodd" d="M16.6401 13.6905C16.6401 13.6905 17.775 12.1622 17.775 9.7169C17.775 9.7169 18.2551 9.88674 18.3937 9.20753C18.5324 8.52832 18.7018 6.18478 18.0844 6.1509L17.671 6.04897C17.671 6.04897 17.1562 2.21186 16.7441 1.87166C16.3321 1.53147 16.2281 1.76974 16.2281 1.76974C16.2281 1.76974 14.4758 -0.302042 12.5168 0.0376276C12.5168 0.0376276 10.7312 0.445209 9.73365 1.87166C9.73365 1.87166 8.90951 1.87166 8.80682 2.27911C8.70414 2.68656 8.49745 6.35462 8.49745 6.35462C8.49745 6.35462 7.94802 6.21881 7.98136 7.16978C8.0147 8.12075 7.98136 10.0566 8.90951 9.81883C8.90951 9.81883 9.21889 13.249 11.0739 14.0981L10.9712 14.7094C10.9712 14.7094 9.94035 16.3057 9.11622 17.0528C9.11622 17.0528 7.01987 17.8679 6.22907 18.1736C6.22907 18.1736 2.38042 18.4452 1.90034 18.5812C1.90034 18.5812 0.834834 22.6226 0.869506 23.3698L0.972193 23.8793C0.972193 23.8793 0.285417 24.7283 0.560129 25.2038C0.714936 25.4534 0.819948 25.7301 0.869506 26.0188C0.869506 26.0188 -0.230668 29.7548 0.0440442 31.2151C0.318756 32.6755 1.38426 35.5284 1.90034 35.902C2.41643 36.2755 3.13655 36.2076 3.13655 36.2076C3.2151 37.259 3.2151 38.3147 3.13655 39.366C2.99919 40.8604 2.51778 47.1095 2.51778 47.1095C2.51778 47.1095 4.20206 48.4676 6.0237 48.5359C6.0237 48.5359 5.78232 59.4378 5.91967 62.2907C6.05703 65.1436 6.53845 74.1097 6.53845 74.1097C6.53845 74.1097 5.88634 74.2794 5.91967 75.1284C5.9506 75.7096 6.01965 76.2882 6.12638 76.8605C6.12638 76.8605 5.85166 77.8455 5.91967 78.4907C5.91967 78.4907 3.89267 80.1889 3.13655 81.1399C3.13655 81.1399 1.14423 81.9889 1.17757 82.5662C1.2109 83.1435 2.34708 83.789 4.78615 83.789C7.22522 83.789 7.94802 83.7549 9.63097 82.4644L11.6926 81.3436C11.6926 81.3436 13.7543 81.2078 14.4758 80.4267L14.0637 77.37C14.0637 77.37 14.9638 76.9603 13.961 75.536C13.961 75.536 14.1664 73.4982 13.7543 72.6832C13.3422 71.8682 13.3422 71.7663 13.3422 71.7663C13.3422 71.7663 13.6863 59.8794 14.0637 55.6681C14.4411 51.4567 14.6825 49.8605 14.6825 49.8605L16.4348 49.5548C16.4348 49.5548 17.5683 53.5284 17.9803 55.8718C18.3924 58.2152 19.7673 70.8832 19.8366 71.7663L20.146 73.2945C20.146 73.2945 19.7326 73.6681 19.7326 74.9247C19.7326 76.1813 19.8366 77.4718 19.8366 77.4718L19.7326 78.1851L20.3514 78.6946C20.3514 78.6946 20.2487 80.1889 20.3514 80.5285C20.3514 80.5285 20.6608 81.1738 22.9292 81.3436C23.4777 81.6701 23.995 82.0452 24.4747 82.4644C25.1962 83.1096 27.2245 84.0946 29.1142 83.9927C31.0038 83.8907 31.7946 83.687 32 83.1775L31.8973 82.2606C31.8973 82.2606 30.6944 81.7172 29.6289 81.1398C29.6289 81.1398 27.8766 78.8643 27.2579 78.2868C27.2579 78.2868 27.4646 76.5209 27.3619 75.9434C27.2592 75.366 27.1552 75.2302 27.1552 75.2302C27.1552 75.2302 26.9152 72.6152 26.4337 71.4604C26.4337 71.4604 25.9177 60.7283 25.815 57.8075C25.7123 54.8867 25.1962 48.2302 25.1962 48.2302C25.1962 48.2302 26.7085 48.0264 27.2579 47.2113C27.2579 47.2113 27.0525 45.7848 26.9485 44.2566C26.8445 42.7283 26.3311 36.4109 26.3311 36.4109C27.0455 36.2996 27.7141 35.9923 28.2608 35.5241C28.8074 35.0558 29.2103 34.4452 29.4236 33.7619L29.0102 30.2978C29.0102 30.2978 29.6983 29.7204 29.5263 29.2789C29.3542 28.8374 28.4954 27.9544 28.4954 27.9544C28.4954 27.9544 27.6713 24.1505 27.1552 22.6561C27.1552 22.6561 26.6404 18.9203 25.815 18.3769C25.815 18.3769 23.1345 17.9354 22.001 17.7656C20.8675 17.5958 21.8983 17.6637 21.8983 17.6637L18.2897 16.4411L16.6401 13.6905Z" fill="#F92525"/>
</svg>
