<svg width="46" height="93" viewBox="0 0 46 93" fill="none" xmlns="http://www.w3.org/2000/svg">
<path d="M23.513 38.3367C23.6861 35.6656 28.7471 14.197 28.6405 13.8698C28.534 13.5426 27.928 13.2021 27.615 12.8615C27.302 12.5209 20.6562 14.3039 20.5164 14.4441C20.3623 14.736 20.2438 15.0454 20.1634 15.3656C20.1634 15.3656 20.0902 16.0801 20.0569 16.4741C20.0236 16.8681 19.9504 22.4038 19.5242 24.4873C19.098 26.5707 18.5586 40.8408 18.5586 40.8408L23.1534 41.0211C23.1534 41.0211 23.3199 40.981 23.513 38.3367Z" fill="#F1F2F2"/>
<path d="M4.20836 88.8723C4.13511 89.2997 3.84876 89.4466 3.70892 89.6603C3.39645 89.9921 3.00442 90.2381 2.57021 90.3748C1.92392 90.4499 1.29664 90.6422 0.718969 90.9424C0.219534 91.303 -0.14006 91.7971 0.0530555 91.944C0.24617 92.0909 1.05193 92.8722 3.76219 92.7988C6.47246 92.7253 11.0273 92.5116 11.0273 92.5116L11.0939 91.1761L11.2404 90.889C11.2404 90.889 10.8808 88.2513 11.0939 88.0376C11.307 87.8239 11.9529 87.9642 12.3059 87.1762C12.6588 86.3882 15.6354 79.4635 16.3679 74.8894C17.1004 70.3152 17.1537 69.6073 17.2936 69.18C17.4334 68.7526 19.1448 63.1701 19.5044 62.4623C19.864 61.7545 20.0704 60.5324 20.43 60.459C20.7896 60.3855 20.996 61.5274 21.2091 61.9548C21.4222 62.3821 21.7086 66.3153 21.7818 67.17C21.8551 68.0248 21.7818 70.6691 22.0682 71.3168C22.3545 71.9646 21.9949 73.5271 21.9217 74.3151C21.8484 75.103 21.9949 80.9593 21.9949 82.4551C21.9949 83.9509 21.7818 85.7939 21.7818 86.6687C21.7818 87.5435 21.642 88.7454 21.7086 89.0259C21.7752 89.3064 22.4211 89.5267 22.4211 89.8139C22.4211 90.101 22.208 91.9574 22.208 91.9574C22.3818 92.1706 22.5986 92.3446 22.8442 92.4677C23.0898 92.5909 23.3587 92.6605 23.6331 92.6719C24.4388 92.5851 29.9792 92.1577 29.9792 92.1577L29.8394 90.5885C29.8394 90.5885 30.3321 89.7271 30.4054 89.5134C30.4786 89.2997 28.5542 85.7272 28.6274 84.9459C28.7007 84.1646 29.6929 79.6038 29.553 76.7992C29.4132 73.9946 29.553 66.6558 29.6263 64.9464C29.6995 63.2369 29.553 62.1551 29.6929 61.7277C29.8327 61.3004 29.7661 61.06 29.9792 60.7261C30.1923 60.3922 30.3321 55.8715 30.5519 55.7312C30.7717 55.591 34.6406 39.8718 34.6939 38.8702C34.7472 37.8686 34.341 37.2275 34.4075 36.947C34.4741 36.6666 33.9081 35.9454 33.9081 35.3711C33.7466 34.4769 33.6752 33.5686 33.695 32.66C33.8415 31.5849 33.4819 31.1575 33.9081 30.8036C34.3343 30.4497 34.3409 31.0841 34.9802 31.231C35.2928 31.2856 35.5891 31.41 35.8473 31.595C36.1055 31.7799 36.3189 32.0206 36.4719 32.2994C36.7582 32.8737 36.685 31.9455 36.7582 32.8737C36.8315 33.8019 37.0446 32.8737 36.8315 33.8019C36.6184 34.7301 36.4053 34.3695 36.4719 35.1374C36.5846 35.6236 36.5084 36.1346 36.2588 36.5664C35.9724 37.2809 35.9724 36.8536 35.8326 37.7083C35.6928 38.563 35.4797 38.2826 35.4064 38.6365C35.3332 38.9904 32.6429 43.017 37.6838 43.2307C37.9592 43.1474 38.2149 43.0093 38.4357 42.8245C38.6566 42.6398 38.838 42.4123 38.969 42.1556C39.3952 41.3009 40.8935 37.5146 41.3197 36.947C41.7459 36.3794 41.6727 35.7985 41.9856 35.4446C42.2686 34.9396 42.439 34.3792 42.4851 33.8019C42.5583 33.3011 42.3452 32.9471 42.7714 32.2994C42.7534 32.0038 42.6811 31.714 42.5583 31.4447C42.3452 30.9439 40.7004 26.2294 40.2742 25.4348C39.8481 24.6402 39.2088 23.5784 39.2088 23.0776C39.1217 22.168 38.9295 21.2717 38.6361 20.4065C38.3564 19.5451 38.1367 19.2647 38.2099 18.5502C38.2832 17.8357 37.3043 16.9475 37.2576 16.5135C37.211 16.0794 36.9713 15.7322 36.7582 15.7322C36.5451 15.7322 31.8438 15.6587 31.4309 15.4451C31.018 15.2314 29.7195 15.0177 29.5797 14.7773C29.287 14.4565 28.9757 14.1532 28.6474 13.8691C25.5709 22.1361 23.2135 31.4246 22.9472 40.5797C22.9472 41.154 19.6709 41.2942 19.531 40.5797C18.5322 34.1491 20.5232 27.5783 20.2436 21.1544C20.2436 20.667 20.2436 20.1862 20.3035 19.7054C20.2292 19.7512 20.1599 19.805 20.0971 19.8657C20.2826 18.3395 20.3316 16.7997 20.2436 15.2648L20.1703 15.3649C19.6073 15.9143 18.9569 16.3657 18.2458 16.7005C17.3934 17.1345 16.1082 18.1295 15.2559 18.4166C14.5443 18.6129 13.8531 18.8767 13.1915 19.2046C12.9498 19.4517 12.7556 19.7415 12.6188 20.0593C12.6188 20.0593 11.7598 23.9457 11.3336 25.6552C10.9074 27.3646 9.40914 34.8035 9.1228 36.8001C8.83646 38.7967 7.83759 45.0136 7.48465 45.9418C7.11882 47.4075 6.84745 48.8952 6.67224 50.3958C6.67224 50.3958 10.0884 49.9417 10.8742 49.728C11.0558 50.0826 11.1602 50.4718 11.1805 50.8699C11.1805 51.4442 10.7543 53.7279 10.5146 55.5443C10.2748 57.3606 9.51569 63.0432 9.44244 64.4723C9.30849 66.0044 9.05014 67.523 8.66998 69.013C8.49774 69.7387 8.42603 70.4847 8.45689 71.23C8.45689 71.23 7.8842 73.3001 7.59786 74.1548C7.31151 75.0096 6.1728 79.7306 6.03296 80.6588C5.89312 81.587 5.03409 84.6654 5.10734 85.2263C5.14028 85.8616 4.96487 86.4901 4.6079 87.0159C4.36685 87.6064 4.2316 88.2348 4.20836 88.8723Z" fill="#F92525"/>
<path d="M17.1744 2.80462C16.8188 3.03095 16.5312 3.34994 16.3424 3.72749C16.1535 4.10505 16.0705 4.52697 16.1023 4.94814C16.2488 6.09002 15.7494 8.08663 17.241 10.5173C17.241 10.5173 18.5263 11.5857 19.0923 12.0865C19.7695 12.7299 20.2617 13.5441 20.5173 14.4437V14.604C21.5162 15.3786 22.5151 16.5539 23.5139 16.3001C24.9717 15.9055 26.2359 14.9914 27.0699 13.7292C27.2764 13.4221 27.4428 13.1349 27.616 12.8611C27.5432 12.7515 27.4807 12.6352 27.4295 12.5139C27.3563 12.3002 27.5028 12.0865 27.6426 11.7326C27.7135 11.3791 27.8092 11.031 27.929 10.6909C28.142 10.2635 28.2819 8.62084 28.495 7.83288C28.7081 7.04492 28.3551 3.11847 26.7902 1.69614C25.2253 0.2738 22.4418 -0.0534042 21.443 0.00669453C18.9524 0.193668 18.6594 1.44239 18.1667 1.72952C17.6739 2.01666 17.3875 2.15689 17.3875 2.15689C17.3875 2.15689 17.6006 2.44403 17.1744 2.80462Z" fill="#212121"/>
<path d="M25.8382 20.8937C25.8382 20.8002 26.7438 18.7034 26.7438 18.7034L25.9847 19.9454C25.9847 19.9454 25.5785 19.1374 25.4852 18.9705C25.1331 18.355 24.7275 17.7718 24.2733 17.2276C23.6074 16.4664 23.0413 16.7535 22.422 16.847C21.8027 16.9405 20.3843 19.6583 20.3843 19.6583C19.7184 24.2058 23.6606 30.0888 23.7139 29.9419C23.7672 29.795 24.3798 27.184 24.3798 27.184C24.5291 26.4928 24.6315 25.7923 24.6861 25.0872C24.6395 24.7533 24.8992 23.6582 24.8726 23.538C24.7669 22.9549 24.6935 22.3664 24.6528 21.7751C24.6621 21.2559 24.7246 20.739 24.8393 20.2326C24.8393 20.2326 25.8382 20.9938 25.8382 20.8937Z" fill="#E7E8E8"/>
<path d="M20.3492 24.1594C20.1361 25.0876 18.2383 40.9937 18.2383 40.9937L20.7288 43.4912C20.7288 43.4912 23.3458 40.78 23.3925 40.7333C23.4391 40.6865 24.2515 23.9925 24.3447 22.7771C24.4379 21.5618 23.4657 19.2313 23.6055 18.7705C23.7454 18.3098 24.085 18.1696 24.1782 17.9358C24.2715 17.7021 24.3913 16.9142 23.1594 16.7472C22.8915 16.7353 22.6278 16.8175 22.4139 16.9797C22.2 17.1418 22.0491 17.3737 21.9874 17.6353C21.8941 17.9692 22.1738 18.0627 22.2471 18.3966C22.1582 19.0786 21.9316 19.7352 21.5812 20.3264C21.0821 21.5738 20.6705 22.8546 20.3492 24.1594Z" fill="#212121"/>
<path d="M10.401 50.757L10.9004 50.59C10.8957 50.2378 10.8578 49.8868 10.7872 49.5417C9.56195 49.2498 8.27697 49.3406 7.1047 49.8021C6.98542 50.1627 6.88977 50.5308 6.81836 50.9039L7.03145 51.1376C8.14266 50.9205 9.26945 50.7932 10.401 50.757Z" fill="#F1F2F2"/>
<path d="M10.5953 51.3513C10.502 51.0842 10.3555 50.5367 10.3089 50.4432C10.2623 50.3497 9.15024 49.9423 7.3656 50.5634C7.04198 51.3797 6.76408 52.2134 6.5332 53.0608C6.59793 53.3935 6.71006 53.7151 6.86616 54.0157C6.96605 54.3028 7.31898 55.5849 7.39223 55.6584C7.70212 55.8868 8.04595 56.0648 8.41108 56.1859C8.69742 56.2327 9.59641 56.4197 9.83614 56.4197C10.0759 56.4197 10.3822 56.4197 10.3822 56.4197C10.5979 55.8961 10.6803 55.327 10.6219 54.7636C10.6219 53.5483 10.6219 53.0474 10.6219 52.6869C10.6753 52.2426 10.6663 51.7931 10.5953 51.3513ZM9.66966 55.4314C9.60972 55.5115 9.18354 55.4314 9.00374 55.4314C8.82114 55.4064 8.64862 55.3326 8.50431 55.2177C8.475 54.9514 8.475 54.6827 8.50431 54.4164C8.50431 54.216 8.50431 53.7887 8.50431 53.6551C8.50431 53.5216 8.50431 53.3479 8.63083 53.2745C8.75735 53.201 8.85724 53.0608 9.0437 53.0408C9.13996 53.0129 9.24322 53.0229 9.33235 53.0688C9.42147 53.1148 9.48973 53.1931 9.52316 53.2878C9.55268 53.5251 9.55268 53.7651 9.52316 54.0023C9.49626 54.3268 9.49626 54.6529 9.52316 54.9773C9.56311 55.1242 9.72959 55.3245 9.66966 55.4314Z" fill="#212121"/>
<path d="M36.1381 16.0333L36.4245 15.646C35.6399 15.5252 34.8475 15.4627 34.0538 15.459L33.6276 15.8396C32.1652 20.4268 31.2706 25.1768 30.964 29.9828C30.3979 38.223 30.2981 40.9809 30.2514 41.6954C30.2514 41.6954 30.2514 47.0375 30.1582 48.1727C30.065 49.3079 29.3991 51.4247 29.4457 52.206C29.4923 52.9873 29.3991 54.7302 29.4923 54.9238C29.6942 55.1298 29.9396 55.2878 30.2104 55.386C30.4813 55.4842 30.7706 55.5202 31.0572 55.4914C31.6765 55.3512 32.1027 56.1592 32.389 56.2527C34.3194 56.3833 36.2573 56.352 38.1825 56.1592C39.4144 55.9188 40.2735 56.0657 40.8461 55.8253C41.4188 55.5849 43.6962 55.0173 44.2223 54.8236C44.7484 54.63 44.7883 54.6367 44.9348 54.443C45.0813 54.2494 45.0281 53.9689 44.5553 53.635C44.341 53.4548 44.1699 53.2287 44.0547 52.9732C43.9394 52.7178 43.8829 52.4396 43.8894 52.1593C43.7947 51.5254 43.634 50.9032 43.4099 50.3029C43.1741 49.8138 42.9141 49.3369 42.6308 48.8739C42.2856 47.741 42.0208 46.5852 41.8383 45.4149C41.7917 44.8473 40.986 39.5118 40.7929 38.8908L40.5132 38.6571C39.5935 39.2265 38.7166 39.8625 37.8895 40.5602C37.5565 40.9876 36.8906 42.49 36.3645 42.7304C35.8385 42.9708 35.8118 44.066 35.1459 43.2713C34.6119 42.455 34.1803 41.5759 33.8607 40.6537C33.546 39.2608 33.3411 37.8452 33.2481 36.4201C33.2481 35.986 33.6742 25.1349 33.7675 24.4671C33.8607 23.7994 35.9051 16.3471 36.1381 16.0333Z" fill="#1A1A1A"/>
<path d="M37.6841 43.231C38.4699 43.1375 38.9693 42.1559 38.9693 42.1559C39.1263 41.7883 39.1499 41.3771 39.0359 40.994C38.9641 40.3603 38.6777 39.7705 38.2244 39.3233C37.771 38.876 37.1784 38.5983 36.5454 38.5366C36.076 38.4866 35.6042 38.6049 35.2136 38.8705C32.8163 43.3712 36.905 43.3245 37.6841 43.231Z" fill="#F1F2F2"/>
<path d="M31.4184 43.6316C31.5849 44.1591 32.2242 43.8519 32.2242 43.8519C32.2242 43.8519 32.2242 43.9654 32.1043 44.0856C31.9845 44.2058 32.2042 44.5397 32.4839 44.6332C32.8369 44.6619 33.192 44.621 33.5294 44.513L33.4095 44.68C33.2963 44.8469 33.889 44.8936 33.889 44.8936C35.0168 44.7855 36.0929 44.3673 36.9988 43.685C37.3517 43.2484 37.6471 42.7681 37.8778 42.256C38.0443 41.8753 38.4705 41.4947 38.4705 41.1341C38.4362 40.6356 38.2632 40.1567 37.971 39.7519C37.6329 39.3644 37.2208 39.0488 36.7591 38.8237C36.4454 38.7541 36.1204 38.7541 35.8068 38.8237C35.4079 38.8133 35.0109 38.7641 34.6215 38.6768C34.6598 38.7446 34.6911 38.8162 34.7147 38.8904C34.6266 39.1472 34.4985 39.3884 34.3351 39.6049C33.7247 40.261 33.056 40.86 32.3374 41.3946C32.1208 41.5518 31.9379 41.751 31.7995 41.9804C31.6611 42.2098 31.57 42.4647 31.5317 42.7301C31.5317 43.0373 31.838 43.064 31.838 43.064C31.838 43.064 31.252 43.1107 31.4184 43.6316Z" fill="#212121"/>
<path d="M16.9935 50.4428C17.8858 49.3343 18.918 42.5498 18.918 42.5498C18.918 42.5498 17.6727 47.9453 17.2798 49.1607C17.1284 49.7859 16.8291 50.3653 16.4072 50.85C15.9853 51.3347 15.4532 51.7103 14.8559 51.9452C13.6073 52.2508 12.3312 52.4298 11.0469 52.4794C11.0469 52.4794 12.8648 52.4794 13.8237 52.406C15.0815 52.1555 16.207 51.4584 16.9935 50.4428Z" fill="#1A1A1A"/>
<path d="M22.6534 42.8037C21.3216 43.6918 20.8022 46.9772 21.2616 48.2326C21.7211 49.488 23.0063 50.1224 23.5457 50.4429C24.0851 50.7635 25.4635 50.5898 25.8231 50.483C26.1827 50.3761 27.0684 50.3361 27.7077 50.1959C27.8542 50.1959 29.7787 50.483 29.7054 50.4429C29.6322 50.4029 29.0395 50.3027 28.6 50.1959C28.1605 50.089 27.7809 49.8353 27.2082 49.695C26.6356 49.5548 25.357 50.1224 24.3581 50.2693C23.3593 50.4162 22.8265 49.8353 22.114 49.1608C21.4015 48.4864 21.548 46.1559 21.5813 45.4814C21.8319 44.5495 22.1918 43.6507 22.6534 42.8037Z" fill="#1A1A1A"/>
<path d="M14.2841 40.1592C14.2841 40.1592 13.6182 42.5498 13.505 42.7301C13.1126 42.9408 12.6938 43.098 12.2598 43.1975C12.9257 43.084 14.2176 42.7635 14.2575 42.5297C14.2975 42.296 14.2841 40.1592 14.2841 40.1592Z" fill="#1A1A1A"/>
<path d="M25.1504 27.7665C25.1504 27.7665 28.5998 23.0922 29.066 22.6248C29.5321 22.1573 31.4166 18.6182 31.4166 18.6182L30.491 18.0372L31.703 17.463C31.703 17.463 32.0226 17.0356 31.9827 16.7952C31.9752 16.4141 31.9885 16.0329 32.0226 15.6533C31.9632 15.8846 31.8784 16.1086 31.7696 16.3211C31.663 16.468 31.8761 16.9287 31.663 16.9888C31.4499 17.0489 30.1314 17.9504 30.1314 17.9504L31.1303 18.6182C31.1303 18.6182 30.9905 18.9053 30.6309 19.4729C30.2713 20.0405 25.1504 27.7665 25.1504 27.7665Z" fill="#1A1A1A"/>
<path d="M16.1758 18.3027L17.2079 17.9822L16.3889 19.0506C16.5287 20.1257 19.6319 27.6247 19.6319 27.6247C19.6319 27.6247 18.966 25.6214 18.6663 25.0138C18.3666 24.4061 17.5276 22.4095 17.2412 21.4813C16.9549 20.5531 16.6752 18.9438 16.6353 18.8102L17.8472 17.5615L16.1758 18.3027Z" fill="#1A1A1A"/>
<path d="M12.2065 41.4954C11.9131 42.8606 11.7085 44.2436 11.5939 45.6355C11.4474 46.8241 10.9746 49.4484 10.9746 49.4484C10.9746 49.4484 11.1611 49.4484 11.2143 49.0611C11.2676 48.6738 11.7338 47.2047 11.9269 46.4902C11.9932 45.7309 12.0176 44.9685 12.0001 44.2065C12.1848 42.9981 12.454 41.8043 12.8059 40.6339C13.1388 39.8727 13.7115 38.4437 13.9446 37.7292C14.2688 36.9751 14.4625 36.1712 14.5173 35.3519C14.5506 34.7952 14.535 34.2365 14.4707 33.6825C14.3992 32.8028 14.2724 31.9286 14.0911 31.0649C13.757 29.8343 13.5341 28.5761 13.4252 27.3054C13.3319 25.8764 13.4252 20.808 13.1854 21.6828C12.7126 23.4457 13.8047 30.8245 13.898 31.4455C13.9912 32.0665 13.9912 33.1617 13.8047 32.968C13.6183 32.7744 12.7593 31.9664 12.666 32.347C12.5728 32.7276 13.4718 34.3035 13.6582 35.0648C13.7808 35.8376 13.8054 36.6229 13.7315 37.402C13.7315 38.2567 12.4929 40.5872 12.2065 41.4954Z" fill="#1A1A1A"/>
<path d="M18.8443 53.8021C18.8443 54.1159 18.8443 54.3697 18.8443 54.6702C18.8777 53.8889 18.9311 52.8939 18.9979 51.8789C18.8539 52.5091 18.8021 53.157 18.8443 53.8021Z" fill="#1A1A1A"/>
<path d="M19.6322 47.0171C19.3852 47.558 19.1782 49.7616 19.0312 51.8785C19.0312 51.7716 19.0713 51.6715 19.0913 51.5513C19.3251 50.2691 19.679 46.9103 19.6322 47.0171Z" fill="#1A1A1A"/>
<path d="M17.4929 59.1563C17.5121 59.1634 17.5332 59.1634 17.5524 59.1563C17.4995 59.1497 17.4731 59.1497 17.4929 59.1563Z" fill="#1A1A1A"/>
</svg>
