<svg width="29" height="89" viewBox="0 0 29 89" fill="none" xmlns="http://www.w3.org/2000/svg">
<path d="M22.4612 35.7568C22.4286 36.1095 22.4626 36.4651 22.5614 36.8052C22.5614 36.5648 22.528 36.3511 22.508 36.2176C22.4879 36.084 22.4813 35.9438 22.4612 35.7568Z" fill="#F1F2F2"/>
<path d="M0.712528 37.2392C0.712528 37.1657 0 37.6198 0 37.6198C0.187101 37.724 0.343338 37.8761 0.452821 38.0605C0.55445 38.4728 0.740397 38.8593 0.99887 39.1957C1.19773 39.4039 1.38029 39.6271 1.54492 39.8635C1.66478 40.0037 1.59153 40.2174 1.80463 40.2908C2.34108 40.3301 2.87968 40.3301 3.41614 40.2908C3.98743 40.338 4.56236 40.3133 5.12753 40.2174C5.20079 40.1239 5.46049 38.8819 5.58036 38.6281C5.70022 38.3744 5.88668 36.1975 6.00654 35.9571C6.12641 35.7167 6.00654 34.9821 6.19966 34.715C6.36364 34.384 6.43717 34.0154 6.41275 33.6466C6.41275 33.3394 6.05315 33.2192 6.26625 32.6717C6.37184 32.3348 6.50319 32.0066 6.65914 31.69C6.89887 31.2627 6.70575 31.1224 6.89887 30.9288C7.09198 30.7351 7.35169 30.9755 7.13859 31.6433C7.01498 32.2729 6.9437 32.9117 6.9255 33.5531C6.82561 34.1007 6.75902 34.2209 6.63916 34.8886C6.45933 35.5043 6.33234 36.1343 6.25959 36.7717C6.23371 37.2555 6.14415 37.7338 5.99322 38.1941C5.85338 38.8618 5.70688 39.0288 5.80011 39.0755C5.89334 39.1223 7.9843 39.3359 8.65022 39.3626C9.31613 39.3894 12.3527 39.5029 12.9986 39.4094C13.7083 39.3307 14.4223 39.2972 15.1362 39.3092C15.5624 39.3092 16.1284 39.3092 16.468 39.3092C16.8077 39.3092 21.3359 39.0488 21.7154 38.9486C22.095 38.8485 22.4946 38.8819 22.6144 38.8084C22.693 38.143 22.693 37.4706 22.6144 36.8051C22.5159 36.465 22.482 36.1094 22.5145 35.7567C22.4413 35.0022 22.3414 33.8135 22.3014 33.4329C22.2615 33.0523 22.1816 31.4764 22.1816 31.0957C22.1816 30.7151 21.9219 30.3612 22.135 30.1008C22.3481 29.8403 22.6078 29.7135 22.7077 29.433C22.7077 29.433 22.8675 29.433 22.8475 30.1943C22.7971 30.9338 22.8217 31.6766 22.9207 32.4112C23.014 32.5982 23.3203 32.6984 23.3203 32.9788C23.3203 33.2593 23.2004 33.1458 23.1805 33.5264C23.1605 33.907 23.0872 33.8402 23.1338 34.1942C23.1805 34.5481 23.2537 35.1691 23.034 35.0756L22.5878 34.8619C22.5878 34.8619 22.5279 35.2893 22.5145 35.7567C22.5145 35.9437 22.5478 36.104 22.5612 36.2175C22.5745 36.331 22.5944 36.5647 22.6144 36.8051C22.6321 36.8558 22.6646 36.9001 22.7077 36.932C23.0606 37.1657 23.2537 37.2392 23.2537 37.6665C23.2537 38.0939 23.2537 38.1941 23.3203 38.2875C24.3447 38.5497 25.3998 38.671 26.4567 38.6481C27.0028 38.5012 27.0028 38.4278 27.1227 38.3143C27.5205 37.862 27.8771 37.3748 28.1881 36.8585C28.3148 36.4882 28.4019 36.1054 28.4478 35.7167C28.5677 35.3561 28.6876 35.0489 28.6876 35.0489C28.5106 35.0702 28.3365 35.1105 28.1681 35.1691C27.9018 35.2626 27.6221 35.336 27.5955 35.0022C27.6235 34.4987 27.6791 33.9971 27.7619 33.4997C27.7619 33.1925 27.8086 31.6901 27.8086 31.1224C27.7868 29.8812 27.7001 28.6419 27.5488 27.4097C27.3557 26.7085 26.6365 21.6669 26.3302 19.8372C26.0239 18.0076 26.0972 17.667 25.2847 16.7856C24.7525 16.2399 24.0792 15.8537 23.3403 15.6704C23.3403 15.6704 18.9452 13.6671 18.7788 13.5269C18.6123 13.3867 18.2793 13.4801 18.2594 13.2197C18.2394 12.9593 17.9797 12.2915 17.9797 12.0712C17.9646 11.8701 17.8714 11.683 17.72 11.5503C17.5777 11.3943 17.4085 11.2654 17.2205 11.1697C17.1273 11.1697 13.4448 10.8825 11.7334 11.6905C11.7334 11.6905 11.6202 11.597 11.5203 11.9576C11.4204 12.3182 11.0941 13.9609 11.0941 13.9609C11.0941 13.9609 6.03318 16.6921 5.99322 16.7856C5.95327 16.8791 4.76128 17.8607 4.32844 18.3147C3.89559 18.7688 3.66253 20.071 3.5693 20.9324C3.47607 21.7938 3.47607 23.4766 3.40282 24.171C3.32957 24.8655 3.06986 26.5483 2.90338 27.2628C2.73691 27.9773 1.97776 31.2694 1.93115 32.0506C1.88454 32.8319 1.71806 34.2409 1.74469 34.7217C1.77133 35.2025 1.79131 36.932 1.79131 36.932C1.79131 36.932 1.43171 37.2926 1.19864 37.3126C0.965575 37.3326 0.739164 37.3126 0.712528 37.2392Z" fill="#F1F2F2"/>
<path d="M9.90208 7.04977C10.0419 7.44375 9.82883 8.3853 10.1884 8.73253C10.548 9.07977 10.6146 8.73253 10.7545 8.73253C10.8943 8.73253 10.7944 9.22668 11.0408 9.55388C11.2184 9.83767 11.3742 10.1346 11.5069 10.442C11.6135 10.6223 11.5069 11.4103 11.6468 11.624C11.7866 11.8376 11.6468 11.9779 11.7866 12.0179C11.9265 12.058 13.4647 13.1598 14.4969 13.053C15.4909 12.8924 16.4166 12.4445 17.1605 11.7642C17.3403 11.4437 17.4003 9.34688 17.5068 9.09313C17.6134 8.83938 17.8864 8.71918 18.0995 8.53888C18.4847 8.23207 18.768 7.81528 18.9119 7.34359C19.0975 6.62987 19.0022 5.87188 18.6455 5.22678C18.2926 4.67921 18.4258 3.04987 18.1461 2.55572C17.8664 2.06158 17.4802 1.62753 17.327 1.30701C17.24 1.14697 17.1203 1.00716 16.9757 0.896692C16.8311 0.786227 16.6649 0.707601 16.488 0.665953C16.135 0.585821 15.5291 0.445591 15.2427 0.338749C14.9458 0.191763 14.6109 0.140449 14.2838 0.191841C13.8177 0.265295 13.7377 -0.0418763 13.3648 0.00486709C11.8599 0.198518 11.7533 1.14674 11.2805 1.62085C10.7333 2.06121 10.3355 2.66073 10.1418 3.33701C10.0419 4.00477 9.66236 5.9079 9.9487 6.48217C9.9487 6.48217 9.75558 6.67582 9.90208 7.04977Z" fill="#212121"/>
<path d="M16.5687 15.8641L16.3556 15.7973C15.9456 15.2571 15.5971 14.6725 15.3168 14.0544C15.1703 13.7704 14.9891 13.5057 14.7774 13.2665C14.5551 13.1725 14.3125 13.1367 14.0726 13.1624C13.8327 13.1881 13.6032 13.2744 13.4056 13.4134C13.2192 13.5603 12.3601 15.8908 12.3069 15.9041C12.2536 15.9175 12.2669 15.9576 12.1737 15.9041C12.0805 15.8507 11.1216 14.0945 11.1216 14.0945C10.9218 14.829 11.6276 16.1712 11.6276 16.1712C12.3181 18.0028 13.3108 19.7048 14.5643 21.2062C14.5643 21.2062 14.3912 21.3531 14.6309 21.2062C15.4131 20.1485 16.1314 19.0447 16.7818 17.9008C16.9816 17.5201 17.7074 15.9843 17.7208 15.8975C17.7341 15.8107 17.3945 16.1512 17.168 16.1379C17.092 16.1338 17.0188 16.1076 16.9573 16.0625C16.8959 16.0175 16.8488 15.9555 16.8218 15.8841C16.8218 15.844 18.1536 13.567 18.1536 13.567C17.9338 13.8408 16.5687 15.8641 16.5687 15.8641Z" fill="#E7E8E8"/>
<path d="M13.1176 17.7279C13.1176 18.0217 13.1642 18.7162 13.1776 19.01C13.24 19.3583 13.3336 19.7002 13.4572 20.0317C13.4572 20.0317 14.3696 21.7411 14.6626 21.3672C14.7025 21.3138 16.294 19.0367 16.4805 18.6961C16.5889 18.3165 16.6139 17.9178 16.5537 17.5276C16.1779 16.9069 15.8571 16.2545 15.5948 15.5777C15.4616 14.9099 15.4217 14.8098 15.3618 14.5427C15.3681 14.357 15.3309 14.1724 15.2533 14.0038C15.1756 13.8351 15.0596 13.6871 14.9146 13.5715C14.7695 13.4559 14.5995 13.3761 14.4181 13.3383C14.2367 13.3005 14.049 13.3059 13.8701 13.354C13.6609 13.3916 13.4705 13.4992 13.3302 13.6593C13.1899 13.8195 13.1079 14.0226 13.0977 14.2355C13.1444 14.5484 13.2731 14.8434 13.4706 15.0902C13.6437 15.3373 13.7103 15.364 13.7236 15.6445C13.7369 15.9249 13.8834 16.0451 13.6437 16.4591C13.3961 16.8481 13.2181 17.2775 13.1176 17.7279Z" fill="#212121"/>
<path d="M4.6604 33.2192C4.04172 33.1511 3.41569 33.2242 2.82913 33.4329C2.68929 33.5531 4.25419 33.907 4.54053 33.9337C5.00468 34.0424 5.44194 34.2446 5.82575 34.528C5.25873 34.6358 4.68441 34.7005 4.10769 34.7217C3.86796 34.7217 4.36739 35.0556 4.60712 35.1758C5.03307 35.3417 5.48263 35.4386 5.93895 35.4629C6.0123 35.2883 6.05942 35.1038 6.07879 34.9153C6.16705 34.559 6.27827 34.2088 6.41175 33.8669C6.41944 33.7796 6.40858 33.6915 6.37988 33.6087C6.35119 33.5258 6.30531 33.45 6.24527 33.3862C6.07879 33.1992 6.24527 33.2192 6.14538 33.0523C6.0455 32.8853 6.41175 32.3845 6.45836 32.1708C6.49432 31.9654 6.49432 31.7552 6.45836 31.5498C6.45836 31.3628 6.55825 31.2226 6.60486 31.0557C6.65148 30.8887 6.89121 30.5081 6.86457 30.3879C6.83793 30.2677 7.31739 29.8203 7.45723 29.7669C7.52219 28.6448 7.41894 27.5194 7.15091 26.4281C7.01517 26.0938 6.956 25.7332 6.97778 25.373C6.93116 25.1326 7.14425 24.7052 7.02439 24.585C6.90453 24.4648 6.50498 23.2495 6.35848 23.1093C6.21198 22.969 5.59933 22.1477 5.45949 22.0342L5.36627 22.1076C4.60712 22.8956 6.69809 24.9657 6.79132 25.1059C6.88455 25.2461 7.24414 27.1092 7.00441 26.8688C6.76468 26.6284 5.21976 26.6551 5.12654 27.0825C5.03331 27.5098 6.36514 29.0858 6.53161 29.3662C6.69809 29.6467 6.64482 30.0807 6.03218 29.9672C5.41954 29.8537 4.22755 29.0591 4.12767 29.2994C4.02778 29.5398 5.99222 31.5231 5.79245 31.69C5.59268 31.857 5.05994 31.5498 4.72699 31.6233C4.39403 31.6967 5.67259 32.2176 5.81909 32.4313C5.96559 32.6449 6.14538 33.3862 5.99222 33.4529C5.54308 33.4085 5.09789 33.3304 4.6604 33.2192Z" fill="#E7E8E8"/>
<path d="M3.99562 84.9773C3.68264 85.191 3.32971 85.6451 3.16323 85.7386C2.73123 85.8916 2.34591 86.1538 2.04449 86.4998C1.37858 87.1676 1.78479 87.5482 1.78479 87.5482C2.3042 88.0691 6.48614 87.9288 7.03219 87.9288C7.48095 87.9081 7.92682 87.8455 8.36401 87.7419C8.47722 87.7419 9.33625 87.6217 9.35622 87.5215C9.37755 87.2771 9.37755 87.0313 9.35622 86.787C9.35622 86.4531 9.20972 85.9055 9.18975 85.7185C9.16977 85.5316 9.25634 85.5516 9.3762 85.171C9.49607 84.7904 9.68918 84.6234 9.92225 84.0759C10.1312 83.662 10.2385 83.2041 10.2352 82.7403C10.2352 82.3597 9.85566 81.0242 9.82902 80.2896C9.80239 79.5551 10.0688 73.4784 10.0688 72.8107C10.0688 72.1429 10.1886 70.4535 10.2086 69.6922C10.1629 68.9874 10.1629 68.2803 10.2086 67.5754C10.4553 66.8436 10.6053 66.0826 10.6548 65.3117C10.6294 64.6029 10.6785 63.8934 10.8013 63.1949C10.9511 62.6025 11.0382 61.9959 11.061 61.3852C11.0837 60.6281 11.2276 59.8796 11.4871 59.1683C11.6388 58.8643 11.7272 58.5326 11.7469 58.1933C11.7469 57.8595 11.8934 56.8111 11.9666 56.357C12.0399 55.9029 12.3395 55.4755 12.3395 55.2886C12.3329 54.9055 12.295 54.5236 12.2263 54.1467C12.1531 53.9063 12.2263 53.8128 12.3928 53.312C12.5426 52.8806 12.6366 52.4318 12.6725 51.9765C12.6708 51.4245 12.7608 50.8761 12.9388 50.3538C13.1253 49.9264 13.385 49.7595 13.718 50.2136C14.0509 50.6676 14.577 55.9029 14.577 57.1449C14.577 58.387 15.0964 61.7392 15.123 63.3819C15.1773 64.4087 15.3677 65.4237 15.6891 66.4001C15.8139 68.3185 15.8384 70.2421 15.7623 72.1629C15.6424 73.238 15.6691 76.7371 15.476 77.4049C15.2829 78.0727 15.0764 81.8055 15.0498 82.1861C15.2291 83.1129 15.467 84.0274 15.7623 84.9239C15.8232 85.2137 15.7905 85.5154 15.6691 85.7853C15.5113 86.3186 15.4305 86.8718 15.4294 87.428C16.0905 87.6551 16.7772 87.7987 17.4737 87.8554C18.2795 87.9756 19.8444 88.0223 19.8444 88.0223C20.0156 87.9015 20.211 87.8195 20.417 87.7819C20.7386 87.7989 21.0534 87.8807 21.3427 88.0223C22.9211 88.0125 24.4976 87.9099 26.064 87.7152C26.7299 87.5683 26.6367 87.4748 26.6833 87.2344C26.7299 86.994 26.5168 86.8805 26.3503 86.4531C26.1839 86.0257 25.9974 85.999 25.6178 85.8788C25.0985 85.7926 24.5726 85.7524 24.0463 85.7586C23.5339 85.6507 23.0681 85.3845 22.7145 84.9974C22.3427 84.7005 21.9871 84.384 21.649 84.0491C21.6024 83.9757 21.649 83.782 21.649 83.5016C21.649 83.2211 21.5757 81.3046 21.5291 81.1444C21.4825 80.9841 21.0297 80.6903 21.0297 80.6903C21.0297 80.6903 21.0297 80.3764 21.0297 79.5684C21.0297 78.7605 21.1229 74.1863 21.1496 73.2848C21.1762 72.3833 21.2228 69.8057 21.1496 69.4251C21.0763 69.0445 20.9365 67.6422 20.8898 66.9477C20.8649 66.2291 20.9366 65.5103 21.1029 64.8109C21.3094 63.9294 21.8221 59.4287 21.9753 58.4805C22.1284 57.5322 22.4215 55.362 22.801 52.1434C22.9401 50.5372 23.2481 48.9502 23.72 47.409C23.9043 46.8468 24.1268 46.2979 24.3859 45.7663C24.3393 45.0985 23.0541 42.975 23.0075 42.8348C22.9125 42.5927 22.7358 42.3917 22.508 42.2672C22.2683 42.167 22.2217 41.3123 22.1551 41.0986C22.0885 40.8849 21.942 40.9316 21.8687 40.8114C21.7955 40.6913 21.9154 40.2171 21.942 39.9767C21.9686 39.7363 22.3682 39.7631 22.5347 39.4759C22.6448 39.253 22.7082 39.0098 22.7211 38.7614C22.7211 38.7614 22.5546 37.6663 22.5546 37.2857C22.5546 36.905 22.4348 35.1421 22.3882 34.835C22.3108 34.4115 22.2641 33.983 22.2483 33.5529C22.2483 33.0988 22.1751 31.2424 22.1751 31.002C22.1661 30.8291 22.1255 30.6593 22.0552 30.5012C22.0552 30.0738 22.6545 29.406 22.6545 29.406C22.5597 29.0788 22.4951 28.7435 22.4614 28.4044C22.4614 27.977 22.4614 26.2876 22.4148 25.5731C22.3682 24.8586 22.1551 23.8836 22.3682 23.2159C22.5813 22.5481 23.3071 17.1459 23.3071 16.7853C23.3071 16.4247 23.4536 15.6234 23.4536 15.6234C22.8319 15.2074 22.1608 14.8709 21.4559 14.6218C20.5303 14.3346 18.7922 13.6201 18.7922 13.6201C18.7922 13.6201 17.7734 15.8104 17.1274 17.2661C16.3753 18.682 15.5113 20.0352 14.5437 21.3128C13.3783 20.8854 11.2141 15.6234 11.1009 15.1226C11.0229 14.7596 10.9718 14.3913 10.9478 14.0208C10.6881 14.1877 6.07993 16.605 6.05329 16.6918C5.96006 16.979 6.33963 21.1725 6.4595 22.0339C6.57936 22.8954 7.05216 28.9186 7.0788 29.5863C7.10544 30.2541 6.85905 30.5346 6.91232 30.8017C6.98466 31.2429 7.007 31.6909 6.97891 32.1372C6.95064 32.5962 6.84715 33.0474 6.67259 33.4727C6.45821 33.8823 6.26701 34.3037 6.09991 34.7348C5.93343 35.3091 6.09991 35.9969 5.98004 36.264C5.86018 36.5311 5.3674 38.9016 5.3674 38.9016L5.96006 39.1688V39.4025C5.77908 40.5754 5.3351 41.6919 4.66153 42.6678C3.66506 43.5183 3.01558 44.7068 2.83693 46.0066C2.83693 46.0801 3.45623 47.4624 3.71594 48.3438C4.01964 50.4577 4.2086 52.5865 4.28196 54.721C4.32858 55.8161 4.44844 66.4335 4.44844 67.2215C4.44844 68.0095 4.54833 74.7004 4.52169 75.3882C4.49505 76.076 3.97564 80.7303 3.85578 81.4582C3.73591 82.1861 4.5683 84.5566 4.52169 84.6501C4.47508 84.7436 4.32192 84.7636 3.99562 84.9773ZM14.3239 36.8984L15.4427 38.9016H13.0587L14.3239 36.8984Z" fill="#212121"/>
<path d="M23.0999 19.1228C23.0999 19.243 22.3874 23.1294 22.3208 23.4299C22.2922 23.9327 22.3235 24.4371 22.414 24.9324C22.414 24.9324 22.414 27.1961 22.4607 27.717C22.5073 28.2378 22.5073 29.3329 22.6405 29.3797C22.7736 29.4264 22.7337 29.6668 22.7803 29.7403C22.8269 29.8137 22.6405 32.0975 22.8535 32.3579C23.0337 32.5326 23.1986 32.7225 23.3463 32.9255C23.4462 33.1192 23.2997 33.0457 23.2797 33.3328C23.2598 33.62 23.04 33.6667 23.1865 33.9539C23.2632 34.0644 23.3139 34.1909 23.3347 34.324C23.3554 34.457 23.3457 34.5931 23.3064 34.7218C23.2398 34.9555 23.5927 34.862 23.7858 34.9088C23.9789 34.9555 25.3041 34.9088 25.3041 34.9088C25.3041 34.9088 23.8791 34.9088 23.8058 34.5749C23.7634 34.4087 23.7676 34.2341 23.8182 34.0702C23.8687 33.9064 23.9636 33.7598 24.0921 33.6467C24.3785 33.4063 24.5649 32.5983 24.3052 32.7652C24.0455 32.9322 23.8058 32.7653 24.0455 32.5516C24.2853 32.3379 26.8224 30.2144 26.4695 29.9339C26.1165 29.6535 24.8513 30.8822 24.3985 31.1426C23.9456 31.403 26.0166 28.0976 26.0632 27.8038C26.1999 27.456 26.2502 27.0802 26.2097 26.7086C26.2097 26.7086 24.8779 28.7987 24.2653 29.0391C23.6526 29.2795 23.3397 29.4198 23.1732 28.8989C23.0067 28.378 23.1732 24.3982 23.0533 23.6837C22.9335 22.9692 22.5539 22.8957 22.8669 22.4483C23.1798 22.0009 25.3774 19.5636 24.2386 18.208C24.2386 18.208 23.5727 20.6854 23.4129 20.9659C23.4129 20.9659 23.4129 21.026 23.3596 21.0594C23.1623 21.4175 22.9397 21.7612 22.6937 22.0877C22.6937 21.9675 23.3596 18.395 23.4063 18.3282C23.4529 18.2614 23.1266 19.0026 23.0999 19.1228Z" fill="#E7E8E8"/>
<path d="M2.13672 40.2981C2.13672 40.2981 2.63615 45.4799 2.80263 45.8739C2.96911 46.2679 2.80263 46.0008 2.80263 46.0008L2.94247 46.2679C3.06183 44.978 3.63551 43.773 4.56064 42.8689C4.38217 42.4832 4.25028 42.0774 4.16776 41.6603C4.09118 41.4325 4.07736 41.1881 4.12776 40.953C4.17816 40.718 4.29091 40.5009 4.4541 40.3248C4.56064 40.0643 2.88254 40.0643 2.13672 40.2981Z" fill="#212121"/>
<path d="M25.4978 42.3345C25.7508 41.4063 26.1037 39.2628 26.2502 38.8688L26.3901 38.4815C25.4985 38.1261 24.532 38.0021 23.5799 38.1209C23.5799 38.1209 23.5067 40.7319 23.4734 41.0524C23.4401 41.373 22.8075 42.0875 22.7608 42.3011C22.7142 42.5148 24.1926 45.7668 24.3857 45.7668C24.3857 45.7668 25.2514 43.2627 25.4978 42.3345Z" fill="#212121"/>
<path d="M14.5641 21.7275C14.0165 22.1749 14.3304 36.1178 14.3437 36.8858C14.3371 36.1913 14.5641 21.7275 14.5641 21.7275Z" fill="#1A1A1A"/>
<path d="M12.9793 39.3291C12.8323 39.6103 12.6649 39.8803 12.4785 40.1371C12.6907 39.8986 12.8602 39.6253 12.9793 39.3291Z" fill="#1A1A1A"/>
<path d="M12.9785 39.3293C13.0157 39.2516 13.0469 39.1712 13.072 39.0889C13.072 39.0889 13.0386 39.189 12.9785 39.3293Z" fill="#1A1A1A"/>
<path d="M12.4786 40.1369C12.4164 40.2103 12.337 40.267 12.2475 40.302C12.158 40.3369 12.0612 40.349 11.9659 40.3372C11.3 40.1903 5.97266 39.1953 5.97266 39.1953C5.97266 39.1953 11.8394 40.6176 12.0524 40.5843C12.1257 40.5709 12.2988 40.3773 12.4786 40.1369Z" fill="#1A1A1A"/>
<path d="M21.9023 39.8367C21.9023 39.8367 17.7337 40.5045 16.9878 40.5045C16.3219 40.5045 15.696 39.3559 15.5095 39.0154C15.4922 38.9851 15.4767 38.9539 15.4629 38.9219C15.7825 39.83 16.4551 40.6848 16.8813 40.7582C17.3075 40.8317 21.9023 39.8367 21.9023 39.8367Z" fill="#1A1A1A"/>
<path d="M15.8146 39.7434L15.4617 38.9287H13.0777L12.8047 39.7033H12.8913C12.9445 39.7434 15.2086 39.73 15.8146 39.7434Z" fill="#1A1A1A"/>
<path d="M10.8287 56.1233C11.1551 55.5425 11.5107 54.9786 11.8941 54.4339C11.994 54.3805 12.1072 54.6209 12.1605 54.6943C12.1747 54.8922 12.1747 55.0908 12.1605 55.2886C12.1605 55.4088 12.3003 55.2886 12.3003 55.2886C12.2765 54.8193 12.2765 54.349 12.3003 53.8797C12.4735 53.1123 12.5915 52.3335 12.6533 51.5492C12.6533 50.9281 13.0595 49.8797 13.2526 49.8797C13.4457 49.8797 13.6055 49.0985 13.6521 48.9783C13.6987 48.8581 13.4191 45.6395 13.4856 45.172C13.5522 44.7046 13.9851 41.2189 13.9851 40.8115C13.9851 40.8115 13.6055 43.0485 13.5123 43.9567C13.4191 44.8648 13.1327 45.0986 13.2526 45.6194C13.3056 46.0625 13.3279 46.5088 13.3192 46.9549C13.3658 47.4291 13.439 48.1436 13.439 48.4774C13.4062 48.8125 13.3506 49.1449 13.2726 49.4724C13.2726 49.5459 11.8475 49.5258 12.0406 49.5726C12.2337 49.6193 12.1805 49.7863 12.3736 49.7863C12.5667 49.7863 10.802 51.6894 11.135 51.4757C11.4679 51.262 12.1805 50.454 12.3736 50.3539C12.5667 50.2537 12.3736 51.3822 12.3736 51.6159C12.3736 51.8497 10.3758 54.5474 10.8553 54.1401C11.2905 53.7675 11.6957 53.3612 12.0673 52.9248C12.327 52.5975 12.0206 53.7127 12.0206 53.8329C12.0206 53.9531 10.3026 56.9514 10.8287 56.1233Z" fill="#1A1A1A"/>
<path d="M9.44936 73.3588C9.90216 71.5025 10.1412 69.6003 10.1619 67.6895L10.1153 67.7896C10.1153 67.7896 8.05094 71.1685 8.40388 70.9081C8.75681 70.6476 9.99541 68.1903 10.022 68.3372C10.0487 68.4841 9.75568 70.0734 9.78232 70.5475C9.80896 71.0216 9.32284 73.6659 9.44936 73.3588Z" fill="#1A1A1A"/>
<path d="M4.61523 51.7969V51.8365C4.61523 51.8365 4.66148 51.8233 4.61523 51.7969Z" fill="#1A1A1A"/>
<path d="M4.88055 50.3335C5.02039 50.6541 5.41328 50.7609 5.30673 50.4804C5.20018 50.2 3.72852 48.3369 3.72852 48.3369C3.90786 49.5167 4.20456 50.6755 4.61418 51.7959C4.54093 51.5021 4.20131 49.6858 4.16802 49.5522C4.13472 49.4187 4.73405 50.013 4.88055 50.3335Z" fill="#1A1A1A"/>
<path d="M21.7949 53.0523C21.9014 52.9454 23.1267 49.0457 23.2199 48.7986C23.4563 48.364 23.6248 47.8956 23.7193 47.4097C23.8259 46.7419 23.7193 47.2627 23.7193 47.2627C23.7193 47.2627 20.7227 51.049 21.2222 50.6016C21.7216 50.1542 22.827 48.9589 22.827 48.9589C22.827 48.9589 22.574 49.9204 22.4341 50.4947C22.2943 51.069 21.6883 53.1591 21.7949 53.0523Z" fill="#1A1A1A"/>
</svg>
